<svg xmlns="http://www.w3.org/2000/svg" width="20" height="20" viewBox="0 0 40 40">
  <defs>
    <style>
      .cls-1 {
        fill: #767d86;
        fill-rule: evenodd;
      }
    </style>
  </defs>
  <path id="apply_icon" data-name="apply icon" class="cls-1" d="M714,647a20,20,0,1,0-20-20A20.016,20.016,0,0,0,714,647Zm0-37.177A17.177,17.177,0,1,1,696.823,627,17.2,17.2,0,0,1,714,609.823Zm-4.613,27.16a1.382,1.382,0,0,0,1,.413,1.44,1.44,0,0,0,1-.413l9.088-9.088a1.414,1.414,0,0,0,0-2l-9.088-9.087a1.412,1.412,0,1,0-2,2l8.09,8.09-8.09,8.089A1.413,1.413,0,0,0,709.387,636.983Z" transform="translate(-694 -607)"/>
</svg>
