<svg xmlns="http://www.w3.org/2000/svg" xmlns:xlink="http://www.w3.org/1999/xlink" width="41" height="38" viewBox="0 0 41 38"><defs><path id="a" d="M766.63 1156c-.36 0-.7-.13-.94-.35l-16.2-15.45c-.3-.3-.37-.69-.17-1.03.2-.35.64-.56 1.1-.56h8.5c-.04-6.25-.6-10.56-12.3-15.8-.4-.17-.62-.5-.62-.84 0-.08 0-.16.04-.24.14-.43.63-.73 1.19-.73h.98c4.25-.02 10.67-.04 16.08 2.27 6.29 2.68 9.64 7.84 9.99 15.34h8.51c.47 0 .9.22 1.1.56.2.33.15.73-.15 1.02l-16.15 15.46c-.24.22-.6.35-.96.35zm0-2.5l13.56-12.96h-7.11c-.67 0-1.22-.43-1.23-.96-.08-7.36-2.94-12.14-8.73-14.6-3.64-1.57-7.95-1.94-11.56-2.02 3.95 2.14 6.47 4.31 7.95 6.82 1.72 2.9 1.86 5.9 1.86 9.8a.9.9 0 0 1-.37.68c-.22.19-.53.29-.86.29h-7.1z"/></defs><g transform="translate(-745 -1119)"><use fill="#394450" xlink:href="#a"/></g></svg>