<svg id="SvgjsSvg1029" xmlns="http://www.w3.org/2000/svg" version="1.1" xmlns:xlink="http://www.w3.org/1999/xlink" xmlns:svgjs="http://svgjs.com/svgjs" width="74" height="74" viewBox="0 0 74 74"><title>backers icon</title><desc>Created with Avocode.</desc><defs id="SvgjsDefs1030"></defs><path id="SvgjsPath1031" d="M274.2 4945.06L293.91999999999996 4945.06C295.90999999999997 4945.06 297.539 4946.6900000000005 297.539 4948.6900000000005L297.539 4967.59C297.539 4969.59 295.90999999999997 4971.22 293.91999999999996 4971.22L292.53299999999996 4971.22L292.53299999999996 4988.37C292.53299999999996 4990.37 290.905 4992 288.91499999999996 4992L279.205 4992C277.215 4992 275.587 4990.37 275.587 4988.37L275.587 4971.28L274.2 4971.28C272.21 4971.28 270.58099999999996 4969.65 270.58099999999996 4967.65L270.58099999999996 4948.69C270.58099999999996 4946.69 272.14899999999994 4945.0599999999995 274.2 4945.0599999999995ZM247.001 4954.61L247.001 4938.96C247.001 4936.97 248.63 4935.34 250.62 4935.34L266.903 4935.34C268.89300000000003 4935.34 270.521 4936.97 270.521 4938.96L270.521 4940.41C267.325 4941.8 265.093 4945 265.093 4948.69L265.093 4967.65C265.093 4969.16 265.516 4970.61 266.17900000000003 4971.879999999999L266.17900000000003 4972.73C266.17900000000003 4974.719999999999 264.55100000000004 4976.349999999999 262.56 4976.349999999999L254.962 4976.349999999999C252.97199999999998 4976.349999999999 251.343 4974.719999999999 251.343 4972.73L251.343 4958.23L250.61999999999998 4958.23C248.569 4958.23 247.00099999999998 4956.599999999999 247.00099999999998 4954.61ZM301.097 4935.28L317.38 4935.28C319.37 4935.28 320.998 4936.91 320.998 4938.9L320.998 4954.49C320.998 4956.48 319.37 4958.11 317.38 4958.11L316.656 4958.11L316.656 4972.61C316.656 4974.599999999999 315.028 4976.23 313.038 4976.23L305.439 4976.23C303.449 4976.23 301.821 4974.599999999999 301.821 4972.61L301.821 4971.759999999999C302.54400000000004 4970.489999999999 302.906 4969.039999999999 302.906 4967.53L302.906 4948.63C302.906 4944.9400000000005 300.675 4941.74 297.478 4940.35L297.478 4938.900000000001C297.478 4936.910000000001 299.107 4935.280000000001 301.09700000000004 4935.280000000001ZM258.761 4918C262.791 4918 266.05800000000005 4921.27 266.05800000000005 4925.31C266.05800000000005 4929.35 262.79100000000005 4932.620000000001 258.761 4932.620000000001C254.73100000000002 4932.620000000001 251.46400000000003 4929.35 251.46400000000003 4925.31C251.46400000000003 4921.27 254.73100000000002 4918 258.761 4918ZM309.299 4918C313.32899999999995 4918 316.596 4921.27 316.596 4925.31C316.596 4929.35 313.329 4932.620000000001 309.299 4932.620000000001C305.269 4932.620000000001 302.00199999999995 4929.35 302.00199999999995 4925.31C302.00199999999995 4921.27 305.26899999999995 4918 309.299 4918ZM284.03 4925.25C288.65999999999997 4925.25 292.41299999999995 4929.01 292.41299999999995 4933.65C292.41299999999995 4938.28 288.65999999999997 4942.04 284.03 4942.04C279.4 4942.04 275.647 4938.28 275.647 4933.65C275.647 4929.009999999999 279.4 4925.25 284.03 4925.25Z " fill="#ffce00" fill-opacity="1" transform="matrix(1,0,0,1,-247,-4918)"></path></svg>