<svg xmlns="http://www.w3.org/2000/svg" width="38" height="22" viewBox="0 0 38 22">
  <defs>
    <style>
      .cls-1 {
      fill: #767d86;
      fill-rule: evenodd;
      }
    </style>
  </defs>
  <path id="icon" class="cls-1"
        d="M2657.63,4568.98l-17.75-17.6a1.221,1.221,0,0,0-.88-0.38,1.2,1.2,0,0,0-.87.38l-17.75,17.6a1.186,1.186,0,0,0,0,1.74l1.91,1.89a1.2,1.2,0,0,0,.87.38,1.238,1.238,0,0,0,.88-0.38l14.96-14.85,14.97,14.85a1.221,1.221,0,0,0,.88.38,1.2,1.2,0,0,0,.87-0.38l1.91-1.89a1.186,1.186,0,0,0,0-1.74h0Z"
        transform="translate(-2620 -4551)"/>
</svg>
