<?xml version="1.0" encoding="iso-8859-1"?>
<!-- Generator: Adobe Illustrator 19.1.0, SVG Export Plug-In . SVG Version: 6.00 Build 0)  -->
<svg version="1.1" baseProfile="tiny" id="Layer_1" xmlns="http://www.w3.org/2000/svg"
	 x="0px" y="0px" viewBox="0 0 30 27" xml:space="preserve">
<g>
	<path fill="#374551" d="M2.7,4.9c-1.4,0-2.4-1-2.4-2.4S1.3,0,2.7,0h24.6c1.4,0,2.5,1.1,2.5,2.5s-1.1,2.4-2.5,2.4H2.7z M2.7,4.9"/>
	<path fill="#374551" d="M27.2,11c1.4,0,2.5,1.1,2.5,2.5s-1.1,2.4-2.5,2.4H2.7c-1.4,0-2.4-1-2.4-2.4s1-2.5,2.4-2.5H27.2z M27.2,11"
		/>
	<path fill="#374551" d="M27.2,22.1c1.4,0,2.5,1,2.5,2.4c0,1.4-1.1,2.5-2.5,2.5H2.7c-1.4,0-2.4-1.1-2.4-2.5c0-1.4,1-2.4,2.4-2.4
		H27.2z M27.2,22.1"/>
</g>
</svg>
