<svg xmlns="http://www.w3.org/2000/svg" width="48" height="42.031" viewBox="0 0 48 42.031">
  <defs>
    <style>
      .cls-1 {
        fill: #767d86;
        fill-rule: evenodd;
      }
    </style>
  </defs>
  <path id="camera" class="cls-1" d="M16.8,27.216a7.036,7.036,0,0,0,2.112,5.137,7.132,7.132,0,0,0,10.174,0,7.3,7.3,0,0,0,0-10.274,7.132,7.132,0,0,0-10.174,0A7.037,7.037,0,0,0,16.8,27.216ZM36,9.444L34.725,6.011a4.682,4.682,0,0,0-1.737-2.133,4.425,4.425,0,0,0-2.587-.9H17.6a4.424,4.424,0,0,0-2.587.9,4.678,4.678,0,0,0-1.737,2.133L12,9.444H6.4a6.135,6.135,0,0,0-4.524,1.893A6.258,6.258,0,0,0,0,15.907V38.525a6.257,6.257,0,0,0,1.875,4.569A6.135,6.135,0,0,0,6.4,44.987H41.6a6.136,6.136,0,0,0,4.525-1.893A6.257,6.257,0,0,0,48,38.525V15.907a6.258,6.258,0,0,0-1.875-4.569A6.136,6.136,0,0,0,41.6,9.444H36ZM12.8,27.216a10.945,10.945,0,0,1,3.287-7.99A10.733,10.733,0,0,1,24,15.907a10.735,10.735,0,0,1,7.912,3.319,10.947,10.947,0,0,1,3.287,7.99,10.946,10.946,0,0,1-3.287,7.99A10.733,10.733,0,0,1,24,38.525a10.732,10.732,0,0,1-7.912-3.32A10.944,10.944,0,0,1,12.8,27.216Z" transform="translate(0 -2.969)"/>
</svg>
