<?xml version="1.0" encoding="UTF-8" standalone="no"?>
<svg
   xmlns:dc="http://purl.org/dc/elements/1.1/"
   xmlns:cc="http://creativecommons.org/ns#"
   xmlns:rdf="http://www.w3.org/1999/02/22-rdf-syntax-ns#"
   xmlns="http://www.w3.org/2000/svg"
   viewBox="0 0 174.66667 44"
   height="44"
   width="174.66667"
   xml:space="preserve"
   id="svg2"
   version="1.1"><metadata
     id="metadata8"><rdf:RDF><cc:Work
         rdf:about=""><dc:format>image/svg+xml</dc:format><dc:type
           rdf:resource="http://purl.org/dc/dcmitype/StillImage" /></cc:Work></rdf:RDF></metadata><defs
     id="defs6"><clipPath
       id="clipPath18"
       clipPathUnits="userSpaceOnUse"><path
         id="path16"
         d="M 0,33 H 131 V 0 H 0 Z" /></clipPath></defs><g
     transform="matrix(1.3333333,0,0,-1.3333333,0,44)"
     id="g10"><g
       id="g12"><g
         clip-path="url(#clipPath18)"
         id="g14"><g
           transform="translate(21.5453,13.6582)"
           id="g20"><path
             id="path22"
             style="fill:#e0e7ef;fill-opacity:1;fill-rule:nonzero;stroke:none"
             d="m 0,0 c -0.69,0 -1.213,0.251 -1.566,0.756 -0.356,0.503 -0.532,1.174 -0.532,2.013 0,1.846 0.698,2.769 2.097,2.769 0.299,0 0.611,-0.093 0.937,-0.279 0.326,-0.186 0.602,-0.514 0.825,-0.98 l 2.07,1.091 c -0.821,1.511 -2.2,2.266 -4.14,2.266 -1.323,0 -2.419,-0.437 -3.285,-1.315 -0.868,-0.876 -1.301,-2.06 -1.301,-3.552 0,-1.529 0.425,-2.723 1.273,-3.581 0.847,-0.857 1.981,-1.285 3.398,-1.285 0.858,0 1.651,0.22 2.377,0.657 0.727,0.437 1.304,1.039 1.734,1.804 L 1.929,1.343 C 1.557,0.447 0.913,0 0,0 m -9.034,0 c -0.69,0 -1.214,0.251 -1.568,0.756 -0.354,0.503 -0.53,1.174 -0.53,2.013 0,1.846 0.7,2.769 2.098,2.769 0.279,0 0.582,-0.093 0.908,-0.279 0.325,-0.186 0.602,-0.514 0.826,-0.98 l 2.096,1.091 c -0.838,1.511 -2.227,2.266 -4.168,2.266 -1.323,0 -2.419,-0.437 -3.285,-1.315 -0.866,-0.876 -1.3,-2.06 -1.3,-3.552 0,-1.529 0.429,-2.723 1.287,-3.581 0.856,-0.857 1.985,-1.285 3.385,-1.285 0.874,0 1.677,0.22 2.404,0.657 0.727,0.437 1.296,1.039 1.705,1.804 l -1.93,0.979 C -7.478,0.447 -8.122,0 -9.034,0 m 4.171,-10.134 c -7.126,-0.094 -12.979,5.605 -13.074,12.731 -0.095,7.125 5.604,12.979 12.73,13.074 C 1.917,15.766 7.771,10.068 7.868,2.943 7.962,-4.185 2.263,-10.037 -4.863,-10.134 m -0.39,29.245 c -9.026,-0.119 -16.245,-7.535 -16.124,-16.561 0.12,-9.024 7.535,-16.245 16.561,-16.123 9.024,0.121 16.245,7.534 16.123,16.56 -0.119,9.027 -7.536,16.245 -16.56,16.124" /></g><text
           id="text28"
           style="font-variant:normal;font-weight:bold;font-stretch:normal;font-size:20.5px;font-family:Arial;-inkscape-font-specification:Arial-BoldMT;writing-mode:lr-tb;fill:#e0e7ef;fill-opacity:1;fill-rule:nonzero;stroke:none"
           transform="matrix(1,0,0,-1,34.25,17.501)"><tspan
             id="tspan24"
             y="0"
             x="0 11.398 19.372499 30.7705 42.168499 48.994999 54.694 66.092003 77.489998">creative </tspan><tspan
             id="tspan26"
             y="15.99"
             x="0 11.398 23.9235 42.147999 60.372501 72.898003 85.4235">commons</tspan></text>
</g></g></g></svg>
