<svg xmlns="http://www.w3.org/2000/svg" width="16" height="16" viewBox="0 0 32 32">
  <defs>
    <style>
      .cls-1 {
      fill: #374551;
      fill-rule: evenodd;
      }
    </style>
  </defs>
  <path id="cc-icon-small" class="cls-1"
        d="M60.022,2324.89A13.034,13.034,0,0,1,73.1,2338a12.492,12.492,0,0,1-3.731,9.16,13.332,13.332,0,0,1-9.35,3.9A13.244,13.244,0,0,1,46.9,2338a13.21,13.21,0,0,1,3.907-9.29,12.6,12.6,0,0,1,9.218-3.82M59.978,2322a15.4,15.4,0,0,0-11.237,4.65A16.084,16.084,0,0,0,44,2338a15.72,15.72,0,0,0,4.7,11.27A15.9,15.9,0,0,0,59.978,2354a16.292,16.292,0,0,0,11.457-4.78A15.39,15.39,0,0,0,76,2338,15.877,15.877,0,0,0,59.978,2322Zm-0.163,13.34a4.493,4.493,0,0,0-4.242-2.3,4.592,4.592,0,0,0-4.685,4.96c0,3.17,1.953,4.96,4.774,4.96a4.8,4.8,0,0,0,4.207-2.5l-1.988-1.01a1.943,1.943,0,0,1-1.971,1.39c-1.472,0-2.147-1.23-2.147-2.84s0.567-2.84,2.147-2.84a2.027,2.027,0,0,1,1.776,1.3Zm9.243,0a4.493,4.493,0,0,0-4.242-2.3,4.592,4.592,0,0,0-4.685,4.96c0,3.17,1.953,4.96,4.774,4.96a4.8,4.8,0,0,0,4.207-2.5l-1.988-1.01a1.944,1.944,0,0,1-1.97,1.39c-1.472,0-2.148-1.23-2.148-2.84s0.568-2.84,2.148-2.84a2.028,2.028,0,0,1,1.776,1.3Z"
        transform="translate(-44 -2322)"/>
</svg>
