<svg xmlns="http://www.w3.org/2000/svg" width="48" height="48" viewBox="0 0 48 48">
  <defs>
    <style>
      .cls-1 {
      fill: #e56a74;
      fill-rule: evenodd;
      }
    </style>
  </defs>
  <path id="clear-all-icon" class="cls-1"
        d="M1742,1582a23.971,23.971,0,0,0-17.05,40.85,0.14,0.14,0,0,1,.04.08,0.039,0.039,0,0,1,.04.04A24,24,0,1,0,1742,1582h0Zm-20.65,23.98a20.642,20.642,0,0,1,33.97-15.71l-29.05,29.02a20.468,20.468,0,0,1-4.92-13.31h0Zm20.65,20.63a20.608,20.608,0,0,1-13.37-4.92l29.05-29.02a20.585,20.585,0,0,1-15.68,33.94h0Zm0,0"
        transform="translate(-1718 -1582)"/>
</svg>
