<svg xmlns="http://www.w3.org/2000/svg" width="13.03" height="13" viewBox="0 0 26.06 26">
  <defs>
    <style>
      .cls-1 {
      fill: #edf0f5;
      fill-rule: evenodd;
      }
    </style>
  </defs>
  <path id="close-button" class="cls-1"
        d="M1780.64,277.059l11-11.041a1.156,1.156,0,0,0,0-1.662,1.133,1.133,0,0,0-1.65,0L1778.98,275.4l-11-11.041a1.175,1.175,0,0,0-1.66,1.662l11,11.041-11,11.041a1.157,1.157,0,0,0,0,1.663,1.43,1.43,0,0,0,.95.237c0.23,0,.71,0,0.71-0.237l11-11.042,11.01,11.042a1.391,1.391,0,0,0,.94.237c0.24,0,.71,0,0.71-0.237a1.157,1.157,0,0,0,0-1.663Z"
        transform="translate(-1765.97 -264)"/>
</svg>
