<svg xmlns="http://www.w3.org/2000/svg" width="18.985" height="19" viewBox="0 0 37.97 38">
  <defs>
    <style>
      .cls-1 {
      fill: #374551;
      fill-rule: evenodd;
      }
    </style>
  </defs>
  <path id="close-button" class="cls-1"
        d="M2641.4,914.087l16.05-16.137a1.684,1.684,0,0,0,0-2.429,1.665,1.665,0,0,0-2.42,0l-16.05,16.136-16.05-16.136a1.653,1.653,0,0,0-2.41,0,1.684,1.684,0,0,0,0,2.429l16.05,16.137-16.05,16.136a1.685,1.685,0,0,0,0,2.43,2.052,2.052,0,0,0,1.38.347c0.34,0,1.03,0,1.03-.347l16.05-16.137,16.05,16.137a2.078,2.078,0,0,0,1.38.347c0.35,0,1.04,0,1.04-.347a1.685,1.685,0,0,0,0-2.43Z"
        transform="translate(-2620 -895)"/>
</svg>
