<svg xmlns="http://www.w3.org/2000/svg" width="27" height="27" viewBox="0 0 54 54">
  <defs>
    <style>
      .cls-1 {
      fill: #374551;
      opacity: 0.8;
      }

      .cls-2 {
      fill: #fff;
      fill-rule: evenodd;
      }
    </style>
  </defs>
  <circle class="cls-1" cx="27" cy="27" r="27"/>
  <path id="close-button" class="cls-2"
        d="M1470.51,833.042l10.16-10.2a1.084,1.084,0,1,0-1.53-1.536l-10.15,10.2-10.16-10.2a1.053,1.053,0,0,0-1.53,0,1.076,1.076,0,0,0,0,1.536l10.16,10.2-10.16,10.2a1.076,1.076,0,0,0,0,1.536,1.327,1.327,0,0,0,.88.219c0.21,0,.65,0,0.65-0.219l10.16-10.2,10.15,10.2a1.314,1.314,0,0,0,.87.219c0.22,0,.66,0,0.66-0.219a1.059,1.059,0,0,0,0-1.536Z"
        transform="translate(-1442 -806)"/>
</svg>
