<?xml version="1.0" encoding="utf-8"?>
<!-- Generator: Adobe Illustrator 20.0.0, SVG Export Plug-In . SVG Version: 6.00 Build 0)  -->
<svg version="1.1" id="Layer_1" xmlns="http://www.w3.org/2000/svg" xmlns:xlink="http://www.w3.org/1999/xlink" x="0px" y="0px"
	 viewBox="0 0 42 42" style="enable-background:new 0 0 42 42;" xml:space="preserve">
<style type="text/css">
	.st0{fill:#FACD28;}
	.st1{fill:none;}
	.st2{fill:#FFFFFF;}
</style>
<g>
	<circle class="st0" cx="21" cy="21" r="21"/>
	<g>
		<rect x="21.1" y="30.5" class="st1" width="0.8" height="4.1"/>
		<rect x="21.1" y="14.3" class="st1" width="0.8" height="4.1"/>
		<rect x="21.1" y="6.2" class="st1" width="0.8" height="4.1"/>
		<path class="st2" d="M22.2,27.5H21v-3.2c-0.5-0.1-0.5-0.2-0.9-0.3c-0.4-0.1-0.9-0.2-1.3-0.3v14.5h5.7V25.3
			c-0.6-0.3-0.9-0.5-2.2-0.8L22.2,27.5L22.2,27.5z M22.2,36.4H21V32h1.2V36.4z"/>
		<path class="st2" d="M18.8,3.8v16.3c1,0.5,2.5,0.8,4.5,1.3c0.4,0.1,0.8,0.2,1.2,0.3v-18h-5.7V3.8z M22.2,18.5H21V14h1.2V18.5z
			 M22.2,9.6H21V5.1h1.2V9.6z"/>
	</g>
	<g>
		<path class="st2" d="M26.9,16.2h5.3c0-0.8-0.2-1.6-0.4-2.4c-1.2-3.1-3.3-5.1-6.3-6v5.3c0.5,0.5,0.9,1.2,1.2,2l0,0
			C26.8,15.4,26.8,15.8,26.9,16.2z"/>
	</g>
	<g>
		<path class="st2" d="M9.6,24.6c0,0.7,0.1,1.4,0.2,2c1,3.8,3.8,6.5,7.9,7.4v-5.1c-1.2-0.8-2-1.9-2.3-3.3c-0.1-0.3-0.2-0.7-0.2-1.1
			H9.6V24.6z"/>
	</g>
	<g>
		<path class="st2" d="M25.5,28.7V34c4.3-1.1,6.9-4.1,6.9-7.7c0-2.3-0.8-4.1-2.4-5.4c-1.8-1.5-4-2-6.2-2.6l-0.6-0.1
			c-0.4-0.1-0.8-0.2-1.2-0.3c-3-0.8-4.8-1.2-4.8-3.3c0-0.6,0.2-1.2,0.6-1.7V7.7c-4.1,1.1-6.6,3.9-6.6,7.7c0,1.8,0.7,3.4,1.9,4.5
			c1.9,1.8,4,2.3,6.5,2.9l1.5,0.4c3.3,0.8,5.2,1.3,5.2,3.6C26.3,27.5,26,28.2,25.5,28.7z"/>
	</g>
	<path class="st1" d="M21.7,28.6c-1.4,0-2.6-0.3-3.5-0.9v5c1,0.2,2,0.3,3.2,0.3c1.3,0,2.5-0.1,3.5-0.4v-5.1
		C24.2,28.2,23.1,28.6,21.7,28.6z"/>
	<path class="st1" d="M21.3,12.1c1.5,0,2.7,0.5,3.6,1.4V8.4c-1-0.3-2.2-0.4-3.4-0.4c-1.2,0-2.3,0.1-3.3,0.4v5
		C18.8,12.6,19.9,12.1,21.3,12.1z"/>
</g>
</svg>
