<svg id="SvgjsSvg1011" xmlns="http://www.w3.org/2000/svg" version="1.1" xmlns:xlink="http://www.w3.org/1999/xlink" xmlns:svgjs="http://svgjs.com/svgjs" width="141" height="147" viewBox="0 0 141 147"><title>Shape 1</title><desc>Created with Avocode.</desc><defs id="SvgjsDefs1012"></defs><path id="SvgjsPath1013" d="M543.743 2597.36C518.109 2597.36 497.34400000000005 2618.09 497.34400000000005 2643.6800000000003C497.34400000000005 2669.2700000000004 518.109 2690.0000000000005 543.743 2690.0000000000005C569.3770000000001 2690.0000000000005 590.142 2669.2700000000004 590.142 2643.6800000000003C590.142 2618.09 569.3470000000001 2597.36 543.743 2597.36ZM528.657 2543C510.05600000000004 2543 495.00000000000006 2558.03 495.00000000000006 2576.6C495.00000000000006 2588 500.68000000000006 2598.0499999999997 509.36500000000007 2604.14C518.5600000000001 2596.16 530.581 2591.33 543.743 2591.33C545.065 2591.33 546.3870000000001 2591.39 547.6800000000001 2591.48C547.95 2580.23 552.157 2569.94 558.979 2561.9900000000002C553.51 2550.7400000000002 542 2543.0000000000005 528.657 2543.0000000000005ZM547.529 2665.79L547.529 2668.4C547.529 2670.5 545.847 2672.1800000000003 543.743 2672.1800000000003C541.639 2672.1800000000003 539.956 2670.5000000000005 539.956 2668.4L539.956 2665.76C537.7330000000001 2665.1000000000004 535.719 2663.8700000000003 534.097 2662.1600000000003C532.654 2660.63 532.744 2658.26 534.247 2656.82C535.779 2655.38 538.1529999999999 2655.4700000000003 539.596 2656.9700000000003C540.678 2658.11 542.15 2658.7400000000002 543.713 2658.7400000000002C546.838 2658.7400000000002 549.3929999999999 2656.19 549.3929999999999 2653.07C549.3929999999999 2649.9500000000003 546.838 2647.4 543.713 2647.4C536.411 2647.4 530.4599999999999 2641.46 530.4599999999999 2634.17C530.4599999999999 2628.2000000000003 534.4569999999999 2623.13 539.9259999999999 2621.51L539.9259999999999 2618.9C539.9259999999999 2616.8 541.6089999999999 2615.12 543.713 2615.12C545.8159999999999 2615.12 547.4989999999999 2616.7999999999997 547.4989999999999 2618.9L547.4989999999999 2621.54C549.723 2622.2 551.737 2623.43 553.3589999999999 2625.14C554.8019999999999 2626.67 554.7119999999999 2629.04 553.209 2630.48C551.6769999999999 2631.92 549.3019999999999 2631.83 547.8599999999999 2630.33C546.7779999999999 2629.19 545.3059999999999 2628.56 543.7429999999999 2628.56C540.6179999999999 2628.56 538.063 2631.11 538.063 2634.23C538.063 2637.35 540.6179999999999 2639.9 543.7429999999999 2639.9C551.045 2639.9 556.996 2645.84 556.996 2653.13C556.965 2659.1 552.9689999999999 2664.17 547.529 2665.79ZM534.908 2570.06C536.26 2570.06 537.3720000000001 2571.17 537.3720000000001 2572.52C537.3720000000001 2573.87 536.2600000000001 2574.98 534.908 2574.98L529.439 2574.98L529.439 2577.41L534.908 2577.41C536.26 2577.41 537.3720000000001 2578.52 537.3720000000001 2579.87C537.3720000000001 2581.22 536.2600000000001 2582.33 534.908 2582.33L529.439 2582.33L529.439 2585.33C529.439 2586.68 528.327 2587.79 526.9739999999999 2587.79C525.622 2587.79 524.5099999999999 2586.68 524.5099999999999 2585.33L524.5099999999999 2582.33L519.0409999999998 2582.33C517.6889999999999 2582.33 516.5769999999998 2581.22 516.5769999999998 2579.87C516.5769999999998 2578.52 517.6889999999997 2577.41 519.0409999999998 2577.41L524.5099999999999 2577.41L524.5099999999999 2574.98L519.0409999999998 2574.98C517.6889999999999 2574.98 516.5769999999998 2573.87 516.5769999999998 2572.52C516.5769999999998 2571.17 517.6889999999997 2570.06 519.0409999999998 2570.06L522.0159999999998 2570.06L516.6069999999999 2561.63C515.8549999999999 2560.4900000000002 516.1859999999998 2558.96 517.3579999999998 2558.21C518.4999999999999 2557.46 520.0329999999998 2557.79 520.7839999999999 2558.96L527.0039999999999 2568.62L533.2249999999999 2558.96C533.9759999999999 2557.82 535.4789999999999 2557.4900000000002 536.651 2558.21C537.793 2558.96 538.1229999999999 2560.46 537.4019999999999 2561.63L531.963 2570.06ZM594.86 2551.52C572.231 2551.52 553.9 2569.73 553.72 2592.29C574.6360000000001 2596.31 591.134 2612.7799999999997 595.221 2633.66C617.789 2633.48 636 2615.1499999999996 636 2592.5899999999997C636 2569.91 617.579 2551.5199999999995 594.86 2551.5199999999995ZM609.465 2576.33C608.9540000000001 2577.62 607.5120000000001 2578.25 606.219 2577.74C604.9870000000001 2577.2599999999998 603.6650000000001 2577.02 602.3430000000001 2577.02C598.1360000000001 2577.02 594.4390000000001 2579.48 592.3660000000001 2583.2L602.974 2583.2C604.356 2583.2 605.4680000000001 2584.31 605.4680000000001 2585.6899999999996C605.4680000000001 2587.0699999999997 604.3560000000001 2588.1799999999994 602.974 2588.1799999999994L590.743 2588.1799999999994C590.653 2588.7799999999993 590.653 2591.2399999999993 590.743 2591.8399999999992L603.004 2591.8399999999992C604.386 2591.8399999999992 605.498 2592.9499999999994 605.498 2594.329999999999C605.498 2595.709999999999 604.3860000000001 2596.819999999999 603.004 2596.819999999999L592.3960000000001 2596.819999999999C594.469 2600.509999999999 598.166 2602.9999999999986 602.373 2602.9999999999986C603.455 2602.9999999999986 604.5360000000001 2602.8499999999985 605.558 2602.5199999999986C606.88 2602.0999999999985 608.293 2602.8499999999985 608.7139999999999 2604.1699999999987C609.1339999999999 2605.489999999999 608.3829999999999 2606.8999999999987 607.0609999999999 2607.319999999999C605.5279999999999 2607.799999999999 603.9649999999999 2608.0399999999986 602.3729999999999 2608.0399999999986C595.401 2608.0399999999986 589.4209999999999 2603.4199999999987 586.8969999999999 2596.8799999999987L582.6289999999999 2596.8799999999987C581.247 2596.8799999999987 580.1349999999999 2595.7699999999986 580.1349999999999 2594.389999999999C580.1349999999999 2593.009999999999 581.2469999999998 2591.899999999999 582.6289999999999 2591.899999999999L585.7239999999999 2591.899999999999C585.664 2591.2999999999993 585.664 2588.8399999999992 585.7239999999999 2588.2399999999993L582.6289999999999 2588.2399999999993C581.247 2588.2399999999993 580.1349999999999 2587.129999999999 580.1349999999999 2585.7499999999995C580.1349999999999 2584.3699999999994 581.2469999999998 2583.2599999999998 582.6289999999999 2583.2599999999998L586.8969999999999 2583.2599999999998C589.391 2576.72 595.401 2572.1 602.3729999999999 2572.1C604.3259999999999 2572.1 606.2489999999999 2572.46 608.0519999999999 2573.18C609.3149999999999 2573.6 609.9459999999999 2575.04 609.4649999999999 2576.33Z " fill="#364552" fill-opacity="1" transform="matrix(1,0,0,1,-495,-2543)"></path></svg>