<svg id="SvgjsSvg1023" xmlns="http://www.w3.org/2000/svg" version="1.1" xmlns:xlink="http://www.w3.org/1999/xlink" xmlns:svgjs="http://svgjs.com/svgjs" width="102" height="147" viewBox="0 0 102 147"><title>Forma 1</title><desc>Created with Avocode.</desc><defs id="SvgjsDefs1024"></defs><path id="SvgjsPath1025" d="M1904.88 3998.83C1902.38 3993.12 1894.99 3978.71 1894.99 3978.71C1894.99 3978.71 1906.96 3964.46 1911.28 3960.53C1912.33 3959.5800000000004 1913.48 3959.21 1914.6 3959.2400000000002L1914.6 3959.2200000000003C1915.86 3958.9500000000003 1917.25 3958.6600000000003 1918.6499999999999 3959.57C1919.4399999999998 3960.0800000000004 1921.7699999999998 3963 1921.7699999999998 3963L1921.3499999999997 3967.52L1925.5899999999997 3965.15L1928.5999999999997 3971.87C1928.5999999999997 3971.87 1930.6699999999996 3968.1 1932.6899999999996 3964.5899999999997C1933.1799999999996 3963.7499999999995 1936.0799999999997 3965.39 1936.5299999999995 3964.64C1936.5299999999995 3964.64 1934.8799999999994 3960.8799999999997 1935.2199999999996 3960.3599999999997C1935.8799999999997 3959.3199999999997 1936.3499999999997 3958.6699999999996 1936.4799999999996 3958.72C1936.4799999999996 3958.72 1938.4299999999996 3956.43 1945.5999999999995 3959.6899999999996C1950.3299999999995 3960.72 1955.0499999999995 3961.74 1959.7799999999995 3962.7699999999995C1962.9499999999996 3959.2099999999996 1965.7699999999995 3955.3299999999995 1967.9699999999996 3951.0899999999997C1969.4299999999996 3948.2599999999998 1972.1799999999996 3947.6899999999996 1974.4899999999996 3948.4799999999996L1993.2699999999995 3925.5599999999995C1993.8099999999995 3924.8999999999996 1994.7799999999995 3924.8099999999995 1995.4399999999996 3925.3599999999997C1996.0899999999997 3925.93 1996.1899999999996 3926.89 1995.6399999999996 3927.5499999999997L1977.0899999999997 3950.1899999999996C1978.4199999999996 3951.6699999999996 1978.9799999999998 3953.7999999999997 1977.7699999999998 3956.1299999999997C1975.0799999999997 3961.3299999999995 1963.5199999999998 3975.9799999999996 1963.5199999999998 3975.9799999999996C1963.5199999999998 3975.9799999999996 1953.0699999999997 3973.0299999999997 1945.9999999999998 3971.2499999999995C1945.1399999999999 3973.0699999999997 1944.3299999999997 3974.3599999999997 1944.3299999999997 3974.3599999999997L1943.1099999999997 3987.2899999999995L1951.4599999999996 4029.8799999999997L1943.2099999999996 4029.8799999999997C1943.2099999999996 4041.5799999999995 1943.2099999999996 4053.2699999999995 1943.2099999999996 4064.9599999999996C1943.2099999999996 4072.9999999999995 1930.8799999999997 4072.9999999999995 1930.8799999999997 4064.9599999999996C1930.8799999999997 4053.2699999999995 1930.8799999999997 4041.5799999999995 1930.8799999999997 4029.8799999999997L1927.0999999999997 4029.8799999999997C1926.7299999999998 4042.7899999999995 1924.1499999999996 4055.64 1917.7099999999996 4066.9399999999996C1913.7499999999995 4073.9099999999994 1903.0999999999997 4067.6299999999997 1907.0699999999995 4060.6499999999996C1912.4399999999994 4051.22 1914.4299999999994 4040.5999999999995 1914.7699999999995 4029.8799999999997L1906.3899999999994 4029.8799999999997L1912.7199999999993 4001.1199999999994C1910.1499999999994 4002.6699999999996 1906.4599999999994 4002.3999999999996 1904.8799999999994 3998.8299999999995ZM1915.51 3988.45L1915.62 3988.4399999999996C1915.4599999999998 3981.2999999999997 1913.8 3981.2699999999995 1913.8 3974.7699999999995L1913.8799999999999 3973.2799999999997C1911.9499999999998 3975.2999999999997 1910.1699999999998 3977.45 1908.53 3979.7099999999996C1910.51 3984.22 1912.49 3988.7299999999996 1914.46 3993.2299999999996ZM1920.4 3950.47C1920.2 3949.8199999999997 1920.0700000000002 3949.1699999999996 1920 3948.52C1919.82 3948.83 1919.62 3949.14 1919.42 3949.45C1919.04 3950.0099999999998 1918.63 3950.58 1918.13 3951.14C1917.63 3951.7 1917.0600000000002 3952.2599999999998 1916.3200000000002 3952.74C1915.5900000000001 3953.2099999999996 1914.64 3953.5499999999997 1913.7300000000002 3953.5099999999998C1912.8200000000002 3953.4799999999996 1912.0300000000002 3953.14 1911.4600000000003 3952.6699999999996C1910.8800000000003 3952.2 1910.4700000000003 3951.6399999999994 1910.1700000000003 3951.0299999999997C1910.0200000000002 3950.72 1909.9000000000003 3950.4199999999996 1909.8100000000004 3950.08C1909.7600000000004 3949.92 1909.7200000000005 3949.75 1909.6800000000003 3949.58C1909.6500000000003 3949.4 1909.6200000000003 3949.24 1909.6100000000004 3949.0499999999997C1909.7800000000004 3949.06 1909.9300000000003 3949.0899999999997 1910.0900000000004 3949.1C1910.2400000000005 3949.13 1910.3800000000003 3949.15 1910.5300000000004 3949.16C1910.8300000000004 3949.2 1911.1000000000004 3949.24 1911.3700000000003 3949.27C1911.8800000000003 3949.32 1912.3600000000004 3949.35 1912.7300000000002 3949.29C1913.1200000000003 3949.23 1913.3700000000003 3949.1 1913.5000000000002 3948.95C1913.6200000000001 3948.81 1913.6900000000003 3948.6899999999996 1913.8300000000002 3948.5C1914.1200000000001 3948.14 1914.5200000000002 3947.38 1914.8700000000001 3946.51C1915.22 3945.63 1915.5600000000002 3944.6400000000003 1915.91 3943.61C1916.26 3942.58 1916.63 3941.5 1917.0800000000002 3940.4C1917.5300000000002 3939.3 1918.0300000000002 3938.17 1918.7300000000002 3936.9700000000003C1919.1000000000001 3936.38 1919.5000000000002 3935.7500000000005 1920.0800000000002 3935.09C1920.3700000000001 3934.76 1920.7100000000003 3934.42 1921.16 3934.09C1921.6000000000001 3933.76 1922.17 3933.42 1922.8500000000001 3933.29C1923.5200000000002 3933.14 1924.2400000000002 3933.25 1924.7700000000002 3933.52C1925.3000000000002 3933.79 1925.6600000000003 3934.2 1925.89 3934.61C1926.24 3935.3 1926.3300000000002 3936.02 1926.16 3936.85C1926.3200000000002 3936.7799999999997 1926.47 3936.71 1926.63 3936.65C1931.73 3934.58 1937.19 3937.42 1938.8300000000002 3942.9900000000002C1938.8400000000001 3942.9900000000002 1931.6100000000001 3947.61 1928.8000000000002 3942.15C1929.42 3946.4500000000003 1920.4 3950.4700000000003 1920.4 3950.4700000000003Z " fill="#364552" fill-opacity="1" transform="matrix(1,0,0,1,-1894,-3924)"></path></svg>