<svg id="SvgjsSvg1026" xmlns="http://www.w3.org/2000/svg" version="1.1" xmlns:xlink="http://www.w3.org/1999/xlink" xmlns:svgjs="http://svgjs.com/svgjs" width="128" height="133" viewBox="0 0 128 133"><title>Shape 1</title><desc>Created with Avocode.</desc><defs id="SvgjsDefs1027"></defs><path id="SvgjsPath1028" d="M2634.78 3962.09C2616.5 3962.2200000000003 2601.96 3976.98 2602.15 3995.2000000000003C2602.23 4003.88 2605.7200000000003 4011.76 2611.32 4017.5600000000004C2615.65 4022.0200000000004 2618.48 4027.8200000000006 2619.44 4033.9200000000005C2619.82 4036.5500000000006 2622.13 4038.4700000000007 2624.79 4038.4700000000007L2645.18 4038.4700000000007C2647.87 4038.4700000000007 2650.1499999999996 4036.520000000001 2650.56 4033.9000000000005C2651.49 4027.7900000000004 2654.29 4022.0700000000006 2658.63 4017.5900000000006C2664.34 4011.7000000000007 2667.85 4003.6900000000005 2667.85 3994.850000000001C2667.85 3976.670000000001 2653.0299999999997 3961.9500000000007 2634.7799999999997 3962.0900000000006ZM2635 3978.7C2626.03 3978.7 2618.7 3985.98 2618.7 3994.95C2618.7 3997.0099999999998 2617.02 3998.6499999999996 2614.99 3998.6499999999996C2612.93 3998.6499999999996 2611.29 3996.9799999999996 2611.29 3994.95C2611.29 3981.8999999999996 2621.94 3971.31 2635 3971.31C2637.06 3971.31 2638.71 3972.98 2638.71 3975C2638.71 3977.06 2637.06 3978.7 2635 3978.7ZM2646.44 4043.45L2623.53 4043.45C2621.44 4043.45 2619.77 4045.12 2619.77 4047.2L2619.77 4051.08C2619.77 4054.2 2622.05 4056.75 2625.04 4057.21L2625.97 4060.7400000000002C2626.49 4062.6600000000003 2628.22 4064.0000000000005 2630.22 4064.0000000000005L2639.75 4064.0000000000005C2641.75 4064.0000000000005 2643.48 4062.6600000000003 2644 4060.7400000000002L2644.96 4057.21C2647.93 4056.78 2650.2 4054.2 2650.2 4051.11L2650.2 4047.2200000000003C2650.2 4045.1400000000003 2648.5299999999997 4043.4800000000005 2646.4399999999996 4043.4500000000003ZM2598.94 3964.06C2599.65 3964.77 2600.61 3965.13 2601.55 3965.13C2602.48 3965.13 2603.44 3964.77 2604.15 3964.06C2605.61 3962.61 2605.61 3960.2799999999997 2604.15 3958.83L2594.96 3949.66C2593.5 3948.21 2591.17 3948.21 2589.7200000000003 3949.66C2588.26 3951.1099999999997 2588.26 3953.44 2589.7200000000003 3954.89ZM2668.45 3965.15C2669.39 3965.15 2670.35 3964.8 2671.06 3964.09L2680.2599999999998 3954.92C2681.7099999999996 3953.4700000000003 2681.7099999999996 3951.14 2680.2599999999998 3949.69C2678.7999999999997 3948.2400000000002 2676.47 3948.2400000000002 2675.0099999999998 3949.69L2665.8199999999997 3958.86C2664.37 3960.31 2664.37 3962.6400000000003 2665.8199999999997 3964.09C2666.5599999999995 3964.8 2667.49 3965.15 2668.45 3965.15ZM2598.94 4025.58L2589.7400000000002 4034.75C2588.2900000000004 4036.2 2588.2900000000004 4038.52 2589.7400000000002 4039.97C2590.46 4040.68 2591.42 4041.04 2592.3500000000004 4041.04C2593.28 4041.04 2594.2500000000005 4040.68 2594.9600000000005 4039.97L2604.1500000000005 4030.7999999999997C2605.6100000000006 4029.35 2605.6100000000006 4027.0299999999997 2604.1500000000005 4025.58C2602.7300000000005 4024.13 2600.3700000000003 4024.13 2598.9400000000005 4025.58ZM2591.39 3994.82C2591.39 3992.79 2589.74 3991.1200000000003 2587.69 3991.1200000000003L2574.71 3991.1200000000003C2572.67 3991.1200000000003 2571 3992.7700000000004 2571 3994.82C2571 3996.84 2572.65 3998.51 2574.71 3998.51L2587.69 3998.51C2589.7400000000002 3998.51 2591.39 3996.8700000000003 2591.39 3994.82ZM2695.3 3991.12L2682.3100000000004 3991.12C2680.28 3991.12 2678.6100000000006 3992.77 2678.6100000000006 3994.8199999999997C2678.6100000000006 3996.8399999999997 2680.2600000000007 3998.5099999999998 2682.3100000000004 3998.5099999999998L2695.3 3998.5099999999998C2697.3300000000004 3998.5099999999998 2699 3996.87 2699 3994.8199999999997C2699 3992.7899999999995 2697.35 3991.12 2695.3 3991.12ZM2635 3951.33C2637.03 3951.33 2638.71 3949.69 2638.71 3947.64L2638.71 3934.69C2638.71 3932.67 2637.06 3931 2635 3931C2632.94 3931 2631.3 3932.64 2631.3 3934.69L2631.3 3947.64C2631.3 3949.69 2632.9700000000003 3951.33 2635 3951.33ZM2680.23 4034.75C2681.68 4036.2 2681.68 4038.52 2680.23 4039.97C2679.51 4040.68 2678.55 4041.04 2677.62 4041.04C2676.69 4041.04 2675.73 4040.68 2675.0099999999998 4039.97L2665.8199999999997 4030.7999999999997C2664.37 4029.35 2664.37 4027.0299999999997 2665.8199999999997 4025.58C2667.2699999999995 4024.13 2669.6099999999997 4024.13 2671.0599999999995 4025.58Z " fill="#364552" fill-opacity="1" transform="matrix(1,0,0,1,-2571,-3931)"></path></svg>