<svg id="SvgjsSvg1014" xmlns="http://www.w3.org/2000/svg" version="1.1" xmlns:xlink="http://www.w3.org/1999/xlink" xmlns:svgjs="http://svgjs.com/svgjs" width="130" height="130" viewBox="0 0 130 130"><title>Forma 1</title><desc>Created with Avocode.</desc><defs id="SvgjsDefs1015"></defs><path id="SvgjsPath1016" d="M1245.33 2670.52C1240.6599999999999 2669.68 1236.1799999999998 2668.24 1231.9299999999998 2666.23C1231.8799999999999 2666.21 1231.83 2666.18 1231.7799999999997 2666.15C1230.7799999999997 2665.6800000000003 1229.7799999999997 2665.17 1228.8099999999997 2664.64C1228.7999999999997 2664.6299999999997 1228.7999999999997 2664.6299999999997 1228.7899999999997 2664.6299999999997C1227.0199999999998 2663.64 1225.2799999999997 2662.5499999999997 1223.5899999999997 2661.3599999999997C1199.0099999999998 2643.9199999999996 1193.0999999999997 2609.5899999999997 1210.4199999999996 2584.8299999999995C1214.1899999999996 2579.4499999999994 1218.7399999999996 2574.9599999999996 1223.8199999999997 2571.3999999999996C1223.8899999999996 2571.3599999999997 1223.9499999999998 2571.3199999999997 1224.0099999999998 2571.2699999999995C1241.9099999999999 2558.8499999999995 1266.2199999999998 2558.0099999999993 1285.2299999999998 2570.7799999999997L1281.1399999999999 2576.72C1280.0099999999998 2578.37 1280.7099999999998 2579.58 1282.6899999999998 2579.3999999999996L1300.4299999999998 2577.7999999999997C1302.4199999999998 2577.62 1303.61 2575.89 1303.07 2573.95L1298.31 2556.6699999999996C1297.78 2554.7299999999996 1296.4099999999999 2554.4999999999995 1295.28 2556.1499999999996L1291.18 2562.1099999999997C1277.23 2552.68 1260.5 2549.0799999999995 1243.9 2551.9799999999996C1242.22 2552.2699999999995 1240.5700000000002 2552.6299999999997 1238.95 2553.0499999999997C1238.94 2553.0499999999997 1238.93 2553.0499999999997 1238.92 2553.0499999999997C1238.8500000000001 2553.0699999999997 1238.79 2553.0899999999997 1238.73 2553.1099999999997C1224.41 2556.8099999999995 1211.91 2565.22 1203 2577.22C1202.92 2577.31 1202.85 2577.3999999999996 1202.77 2577.5C1202.48 2577.9 1202.18 2578.31 1201.9 2578.72C1201.42 2579.3999999999996 1200.96 2580.0899999999997 1200.52 2580.7799999999997C1200.46 2580.8599999999997 1200.42 2580.95 1200.37 2581.0299999999997C1193.01 2592.5099999999998 1189.4599999999998 2605.79 1190.07 2619.2999999999997C1190.07 2619.35 1190.07 2619.39 1190.07 2619.4399999999996C1190.1299999999999 2620.7599999999998 1190.24 2622.0899999999997 1190.3799999999999 2623.4099999999994C1190.3799999999999 2623.4999999999995 1190.3999999999999 2623.5799999999995 1190.4199999999998 2623.6599999999994C1190.56 2624.9899999999993 1190.7499999999998 2626.3199999999993 1190.9699999999998 2627.6399999999994C1193.3099999999997 2641.1899999999996 1199.6499999999999 2653.379999999999 1209.1599999999999 2662.859999999999C1209.1799999999998 2662.8899999999994 1209.1999999999998 2662.9099999999994 1209.2299999999998 2662.9299999999994C1209.2299999999998 2662.9399999999996 1209.2399999999998 2662.9499999999994 1209.2499999999998 2662.9599999999996C1211.7999999999997 2665.49 1214.5799999999997 2667.8399999999997 1217.5799999999997 2669.9599999999996C1225.3999999999996 2675.5199999999995 1234.1199999999997 2679.1899999999996 1243.4899999999998 2680.8799999999997C1246.3299999999997 2681.3999999999996 1249.0399999999997 2679.49 1249.5499999999997 2676.6299999999997C1250.0599999999997 2673.7699999999995 1248.1699999999996 2671.0399999999995 1245.3299999999997 2670.5199999999995ZM1305.92 2648.41C1303.6000000000001 2646.66 1300.3300000000002 2647.14 1298.6000000000001 2649.46C1297.94 2650.35 1297.2400000000002 2651.23 1296.5200000000002 2652.08C1294.6500000000003 2654.29 1294.9200000000003 2657.61 1297.1100000000001 2659.5C1297.2400000000002 2659.6 1297.3700000000001 2659.7 1297.5000000000002 2659.79C1299.6800000000003 2661.34 1302.7200000000003 2660.99 1304.4800000000002 2658.9C1305.3400000000001 2657.89 1306.1700000000003 2656.84 1306.9600000000003 2655.78C1308.6900000000003 2653.4500000000003 1308.2200000000003 2650.15 1305.9200000000003 2648.4100000000003ZM1285.11 2662.25C1284.1899999999998 2662.87 1283.2299999999998 2663.46 1282.28 2664.01C1279.78 2665.4700000000003 1278.92 2668.69 1280.36 2671.2000000000003C1280.75 2671.8900000000003 1281.27 2672.4500000000003 1281.87 2672.88C1283.4899999999998 2674.02 1285.6799999999998 2674.19 1287.5 2673.13C1288.64 2672.4700000000003 1289.77 2671.77 1290.87 2671.03C1293.28 2669.4300000000003 1293.9399999999998 2666.17 1292.35 2663.7400000000002C1290.76 2661.32 1287.52 2660.65 1285.11 2662.2500000000005ZM1306.77 2599.23C1307.1399999999999 2600.34 1307.83 2601.2400000000002 1308.72 2601.87C1310.03 2602.7999999999997 1311.74 2603.1099999999997 1313.3700000000001 2602.5699999999997C1316.1100000000001 2601.6499999999996 1317.6000000000001 2598.68 1316.69 2595.9199999999996C1316.28 2594.6599999999994 1315.8200000000002 2593.3999999999996 1315.3300000000002 2592.1699999999996C1314.2600000000002 2589.47 1311.2200000000003 2588.1599999999994 1308.5400000000002 2589.24C1305.8600000000001 2590.3199999999997 1304.5600000000002 2593.3799999999997 1305.63 2596.08C1306.0400000000002 2597.11 1306.42 2598.17 1306.7700000000002 2599.23ZM1313.6 2629.38C1310.84 2628.51 1307.9099999999999 2630.06 1307.05 2632.83C1306.72 2633.89 1306.35 2634.96 1305.96 2636C1305.0900000000001 2638.29 1305.92 2640.82 1307.83 2642.17C1308.1799999999998 2642.42 1308.56 2642.63 1308.98 2642.79C1311.68 2643.83 1314.7 2642.46 1315.72 2639.75C1316.19 2638.51 1316.63 2637.24 1317.02 2635.98C1317.8799999999999 2633.21 1316.35 2630.25 1313.6 2629.38ZM1268.13 2669.77C1267.0600000000002 2670.04 1265.96 2670.27 1264.88 2670.48C1262.0400000000002 2671.01 1260.17 2673.75 1260.69 2676.61C1260.95 2678.02 1261.74 2679.19 1262.8200000000002 2679.9500000000003C1263.93 2680.7400000000002 1265.3400000000001 2681.1000000000004 1266.7800000000002 2680.8300000000004C1268.0700000000002 2680.5800000000004 1269.38 2680.3 1270.65 2679.9800000000005C1273.45 2679.2800000000007 1275.16 2676.4200000000005 1274.46 2673.6000000000004C1273.76 2670.78 1270.93 2669.0600000000004 1268.13 2669.7700000000004ZM1319.94 2613.93C1319.8300000000002 2611.02 1317.4 2608.7599999999998 1314.51 2608.87C1311.6299999999999 2608.99 1309.3799999999999 2611.43 1309.5 2614.3399999999997C1309.54 2615.45 1309.55 2616.5799999999995 1309.53 2617.68C1309.49 2619.5099999999998 1310.37 2621.1299999999997 1311.75 2622.1099999999997C1312.56 2622.6899999999996 1313.56 2623.0399999999995 1314.64 2623.0599999999995C1317.5200000000002 2623.1299999999997 1319.91 2620.8199999999997 1319.97 2617.9199999999996C1320 2616.5899999999997 1319.99 2615.2499999999995 1319.94 2613.93ZM1251.79 2573.94C1249.45 2573.94 1247.56 2575.85 1247.56 2578.2000000000003L1247.56 2620.6200000000003L1286.08 2640.6800000000003C1286.6999999999998 2641.0000000000005 1287.37 2641.15 1288.02 2641.15C1289.55 2641.15 1291.03 2640.31 1291.78 2638.85C1292.85 2636.7599999999998 1292.04 2634.19 1289.97 2633.11L1256.02 2615.44L1256.02 2578.2000000000003C1256.02 2575.8500000000004 1254.1299999999999 2573.94 1251.79 2573.94Z " fill="#364552" fill-opacity="1" transform="matrix(1,0,0,1,-1190,-2551)"></path></svg>