<svg id="SvgjsSvg1017" xmlns="http://www.w3.org/2000/svg" version="1.1" xmlns:xlink="http://www.w3.org/1999/xlink" xmlns:svgjs="http://svgjs.com/svgjs" width="130" height="130" viewBox="0 0 130 130"><title>Forma 1</title><desc>Created with Avocode.</desc><defs id="SvgjsDefs1018"></defs><path id="SvgjsPath1019" d="M1997 2551L1893 2551C1885.85 2551 1880 2556.85 1880 2564L1880 2668C1880 2675.15 1885.85 2681 1893 2681L1997 2681C2004.15 2681 2010 2675.15 2010 2668L2010 2564C2010 2556.85 2004.15 2551 1997 2551ZM1999.6 2668C1999.6 2669.41 1998.4099999999999 2670.6 1997 2670.6L1893 2670.6C1891.59 2670.6 1890.4 2669.41 1890.4 2668L1890.4 2564C1890.4 2562.59 1891.5900000000001 2561.4 1893 2561.4L1997 2561.4C1998.41 2561.4 1999.6 2562.59 1999.6 2564ZM1944.31 2640.23C1941.87 2640.23 1939.81 2641.07 1938.1299999999999 2642.69C1936.4499999999998 2644.32 1935.61 2646.37 1935.61 2648.77C1935.61 2651.46 1936.4799999999998 2653.58 1938.2099999999998 2655.08C1939.9499999999998 2656.59 1941.9799999999998 2657.33 1944.2999999999997 2657.33C1946.5599999999997 2657.33 1948.5399999999997 2656.5499999999997 1950.2699999999998 2655.04C1951.9799999999998 2653.52 1952.8399999999997 2651.41 1952.8399999999997 2648.77C1952.8399999999997 2646.37 1952.0099999999998 2644.32 1950.3599999999997 2642.69C1948.7399999999998 2641.07 1946.7099999999996 2640.23 1944.3099999999997 2640.23ZM1960.33 2573.81C1956.09 2571.75 1951.21 2570.74 1945.6899999999998 2570.74C1939.7299999999998 2570.74 1934.5299999999997 2571.97 1930.08 2574.3799999999997C1925.61 2576.8299999999995 1922.21 2579.91 1919.8899999999999 2583.64C1917.57 2587.3399999999997 1916.3999999999999 2591.02 1916.3999999999999 2594.65C1916.3999999999999 2596.39 1917.1299999999999 2598.01 1918.61 2599.56C1920.06 2601.0299999999997 1921.8799999999999 2601.7999999999997 1924 2601.7999999999997C1927.63 2601.7999999999997 1930.09 2599.6299999999997 1931.4 2595.33C1932.77 2591.24 1934.44 2588.11 1936.43 2585.99C1938.41 2583.87 1941.49 2582.81 1945.7 2582.81C1949.28 2582.81 1952.2 2583.86 1954.47 2585.94C1956.74 2588.06 1957.88 2590.63 1957.88 2593.69C1957.88 2595.25 1957.49 2596.71 1956.7600000000002 2598.01C1956.0100000000002 2599.34 1955.0900000000001 2600.5600000000004 1954.0200000000002 2601.6400000000003C1952.9300000000003 2602.7400000000002 1951.1500000000003 2604.36 1948.7200000000003 2606.4900000000002C1945.9300000000003 2608.94 1943.7200000000003 2611.0200000000004 1942.0900000000001 2612.8C1940.45 2614.59 1939.13 2616.61 1938.14 2619C1937.15 2621.34 1936.65 2624.09 1936.65 2627.31C1936.65 2629.85 1937.3300000000002 2631.79 1938.69 2633.08C1940.04 2634.37 1941.71 2635.0299999999997 1943.69 2635.0299999999997C1947.5 2635.0299999999997 1949.76 2633.0299999999997 1950.5 2629.0699999999997C1950.92 2627.2099999999996 1951.23 2625.9199999999996 1951.43 2625.1499999999996C1951.65 2624.4199999999996 1951.93 2623.6899999999996 1952.3200000000002 2622.9199999999996C1952.7100000000003 2622.1899999999996 1953.3000000000002 2621.3599999999997 1954.0800000000002 2620.4599999999996C1954.8400000000001 2619.5699999999997 1955.89 2618.5499999999997 1957.18 2617.3399999999997C1961.8700000000001 2613.1499999999996 1965.1100000000001 2610.18 1966.93 2608.3999999999996C1968.75 2606.6499999999996 1970.3100000000002 2604.5299999999997 1971.6200000000001 2602.0799999999995C1972.93 2599.6299999999997 1973.6000000000001 2596.7799999999993 1973.6000000000001 2593.5399999999995C1973.6000000000001 2589.4499999999994 1972.45 2585.6099999999997 1970.13 2582.1299999999997C1967.8200000000002 2578.6199999999994 1964.5600000000002 2575.8299999999995 1960.3300000000002 2573.8099999999995Z " fill="#364552" fill-opacity="1" transform="matrix(1,0,0,1,-1880,-2551)"></path></svg>