<svg id="SvgjsSvg1020" xmlns="http://www.w3.org/2000/svg" version="1.1" xmlns:xlink="http://www.w3.org/1999/xlink" xmlns:svgjs="http://svgjs.com/svgjs" width="109" height="116" viewBox="0 0 109 116"><title>Shape 1</title><desc>Created with Avocode.</desc><defs id="SvgjsDefs1021"></defs><path id="SvgjsPath1022" d="M564.982 3956.28C544.24 3956.28 527.365 3973.07 527.365 3993.71C527.365 4014.35 544.24 4031.14 564.982 4031.14C585.7239999999999 4031.14 602.5989999999999 4014.35 602.5989999999999 3993.71C602.5989999999999 3973.07 585.7239999999999 3956.28 564.982 3956.28ZM569.049 3965.64C574.499 3969.15 578.279 3979.39 579.0849999999999 3989.66L569.049 3989.66ZM560.915 4021.77C555.4639999999999 4018.27 551.685 4008.03 550.879 3997.7599999999998L560.915 3997.7599999999998ZM569.049 4021.66L569.049 3997.75L579.105 3997.75C578.277 4009.57 573.892 4018.39 569.049 4021.66ZM560.915 3989.66L550.858 3989.66C551.6869999999999 3977.85 556.0709999999999 3969.0299999999997 560.915 3965.7599999999998ZM535.78 3997.76L542.713 3997.76C543.16 4004.9500000000003 544.7969999999999 4011.71 547.449 4017.28C541.2339999999999 4012.69 536.891 4005.73 535.78 3997.76ZM542.713 3989.66L535.78 3989.66C536.891 3981.69 541.2339999999999 3974.73 547.449 3970.14C544.7969999999999 3975.71 543.161 3982.47 542.713 3989.66ZM594.183 3989.66L587.25 3989.66C586.803 3982.47 585.167 3975.71 582.515 3970.14C588.729 3974.73 593.073 3981.69 594.183 3989.66ZM582.515 4017.28C585.167 4011.71 586.803 4004.9500000000003 587.25 3997.76L594.183 3997.76C593.073 4005.73 588.729 4012.69 582.515 4017.28ZM609.068 4024.71C634.062 3989.69 609.136 3940 564.982 3940C535.216 3940 511 3964.09 511 3993.71C511 4032.58 551.33 4058.48 586.783 4042.86L611.862 4055.55C615.0609999999999 4057.17 618.702 4054.1400000000003 617.573 4050.69ZM588.707 4034.75C587.57 4034.17 586.227 4034.16 585.077 4034.72C554.976 4049.3599999999997 519.133 4027.68 519.133 3993.7099999999996C519.133 3968.5599999999995 539.701 3948.0899999999997 564.9820000000001 3948.0899999999997C603.1630000000001 3948.0899999999997 624.3340000000001 3991.7999999999997 601.33 4021.5099999999998C600.5110000000001 4022.5699999999997 600.269 4023.97 600.6850000000001 4025.24L606.7980000000001 4043.91Z " fill="#364552" fill-opacity="1" transform="matrix(1,0,0,1,-511,-3940)"></path></svg>