<svg id="SvgjsSvg1008" xmlns="http://www.w3.org/2000/svg" version="1.1" xmlns:xlink="http://www.w3.org/1999/xlink" xmlns:svgjs="http://svgjs.com/svgjs" width="77" height="68" viewBox="0 0 77 68"><title>donate time</title><desc>Created with Avocode.</desc><defs id="SvgjsDefs1009"></defs><path id="SvgjsPath1010" d="M296.5 3610C285.196 3610 275.999 3619.2 275.999 3630.5C275.999 3641.8 285.196 3651 296.5 3651C307.804 3651 317.001 3641.8 317.001 3630.5C317.001 3619.2 307.804 3610 296.5 3610ZM312.916 3661.17C308.642 3663.59 302.765 3665.82 296.903 3666.76C291.68800000000005 3667.6000000000004 281.877 3665.5800000000004 281.877 3663.19C281.877 3662.29 290.482 3665.42 295.687 3664C299.678 3662.91 299.111 3659.08 296.94 3658.58C294.782 3658.0699999999997 282.137 3653.33 276.736 3653.16C274.192 3653.0899999999997 267.90999999999997 3654.0699999999997 264.871 3654.58C263.829 3654.75 263.17699999999996 3654.73 263.111 3655.75C262.80899999999997 3660.5 262.21299999999997 3670.2 261.888 3675.27C261.881 3675.38 262.02599999999995 3676.82 263.186 3675.81C264.45599999999996 3674.7 266.236 3673.47 267.883 3673.85C270.467 3674.45 292.822 3678.65 295.905 3677.91C300.31699999999995 3676.8599999999997 312.804 3669.2799999999997 315.198 3666.92C318.909 3663.27 316.024 3659.41 312.916 3661.17ZM296.5 3646.64C287.601 3646.64 280.361 3639.4 280.361 3630.5C280.361 3621.6 287.601 3614.36 296.5 3614.36C305.399 3614.36 312.639 3621.6 312.639 3630.5C312.639 3639.4 305.399 3646.64 296.5 3646.64ZM256.943 3654.39L245.23199999999997 3653.7999999999997C244.32799999999997 3653.7599999999998 243.40399999999997 3654.45 243.17899999999997 3655.35L241.04999999999998 3675.16C240.825 3676.06 241.38199999999998 3676.83 242.28599999999997 3676.8599999999997L255.265 3676.8599999999997C256.16999999999996 3676.8999999999996 256.966 3676.1699999999996 257.036 3675.2499999999995L258.461 3656.1599999999994C258.53000000000003 3655.2299999999996 257.84700000000004 3654.4399999999996 256.94300000000004 3654.3899999999994ZM250.048 3674.24C248.26 3674.24 246.81 3672.75 246.81 3670.9199999999996C246.81 3669.0899999999997 248.26 3667.5999999999995 250.048 3667.5999999999995C251.836 3667.5999999999995 253.286 3669.0899999999992 253.286 3670.9199999999996C253.286 3672.7499999999995 251.837 3674.24 250.048 3674.24ZM307.184 3629.87L297.97200000000004 3629.87L297.97200000000004 3618.79C297.97200000000004 3617.86 297.21600000000007 3617.1 296.28400000000005 3617.1C295.35100000000006 3617.1 294.59600000000006 3617.86 294.59600000000006 3618.79L294.59600000000006 3631.56C294.59600000000006 3632.49 295.35100000000006 3633.24 296.28400000000005 3633.24L307.184 3633.24C308.11600000000004 3633.24 308.872 3632.49 308.872 3631.56C308.872 3630.62 308.11600000000004 3629.87 307.184 3629.87Z " fill="#ffce00" fill-opacity="1" transform="matrix(1,0,0,1,-241,-3610)"></path></svg>