<svg xmlns="http://www.w3.org/2000/svg" width="20" height="19" viewBox="0 0 40 38">
  <defs>
    <style>
      .cls-1 {
      fill: #fff;
      fill-rule: evenodd;
      }
    </style>
  </defs>
  <path id="download-icon" class="cls-1"
        d="M1493.85,1819.53a1.153,1.153,0,0,0-1.14,1.17v10.69a5.21,5.21,0,0,1-5.14,5.26h-25.14a5.21,5.21,0,0,1-5.14-5.26v-10.86a1.146,1.146,0,1,0-2.29,0v10.86a7.532,7.532,0,0,0,7.43,7.61h25.14a7.532,7.532,0,0,0,7.43-7.61V1820.7A1.161,1.161,0,0,0,1493.85,1819.53Zm-19.66,10.14a1.131,1.131,0,0,0,.81.35,1.092,1.092,0,0,0,.81-0.35l7.28-7.46a1.2,1.2,0,0,0,0-1.67,1.123,1.123,0,0,0-1.62,0l-5.32,5.47v-23.84a1.15,1.15,0,1,0-2.3,0v23.84l-5.33-5.47a1.123,1.123,0,0,0-1.62,0,1.2,1.2,0,0,0,0,1.67Z"
        transform="translate(-1455 -1801)"/>
</svg>
