<svg xmlns="http://www.w3.org/2000/svg" width="48" height="48" viewBox="0 0 48 48">
  <defs>
    <style>
      .cls-1 {
        fill: #374551;
        fill-rule: evenodd;
      }
    </style>
  </defs>
  <path class="cls-1" d="M38,0H10A10,10,0,0,0,0,10V38A10,10,0,0,0,10,48H24.45V29.48h-6V22.25h6V16.93A9.621,9.621,0,0,1,26.9,9.89a8.679,8.679,0,0,1,6.51-2.5h0a38.3,38.3,0,0,1,5.36.29v6.45H35.08a3.4,3.4,0,0,0-2.73.87,4.181,4.181,0,0,0-.7,2.64v4.61h6.89l-0.92,7.23H31.65V48H38A10,10,0,0,0,48,38V10A10,10,0,0,0,38,0Z"/>
</svg>
