<svg id="SvgjsSvg1032" xmlns="http://www.w3.org/2000/svg" version="1.1" xmlns:xlink="http://www.w3.org/1999/xlink" xmlns:svgjs="http://svgjs.com/svgjs" width="80" height="73" viewBox="0 0 80 73"><title>faq icon</title><desc>Created with Avocode.</desc><defs id="SvgjsDefs1033"></defs><path id="SvgjsPath1034" d="M2150.48 4923L2120.08 4923C2114.7999999999997 4923 2110.41 4927.25 2110.41 4932.55L2110.41 4945.96L2089.64 4945.96C2084.35 4945.96 2080 4950.29 2080 4955.58L2080 4977.95C2080 4983.24 2084.35 4987.47 2089.64 4987.47L2117.6 4987.47L2126.29 4995.46C2126.67 4995.8 2127.15 4996 2127.63 4996C2127.9 4996 2128.1600000000003 4995.96 2128.42 4995.84C2129.14 4995.52 2129.59 4994.82 2129.59 4994.03L2129.59 4970.65C2129.59 4969.549999999999 2128.7000000000003 4968.66 2127.6000000000004 4968.66C2126.51 4968.66 2125.6200000000003 4969.55 2125.6200000000003 4970.65L2125.6200000000003 4989.53L2119.6900000000005 4984.05C2119.3300000000004 4983.72 2118.8600000000006 4983.49 2118.3700000000003 4983.49L2089.6400000000003 4983.49C2086.5400000000004 4983.49 2083.9700000000003 4981.05 2083.9700000000003 4977.95L2083.9700000000003 4955.58C2083.9700000000003 4952.48 2086.5400000000004 4949.93 2089.6400000000003 4949.93L2110.4100000000003 4949.93L2110.4100000000003 4971C2110.4100000000003 4971.79 2110.9200000000005 4972.5 2111.6400000000003 4972.82C2112.36 4973.139999999999 2113.2100000000005 4973 2113.8 4972.469999999999L2121.07 4965.82C2121.26 4965.65 2121.44 4965.49 2121.59 4965.349999999999C2121.9900000000002 4964.99 2122.3900000000003 4964.61 2122.56 4964.499999999999C2122.72 4964.489999999999 2123.13 4964.489999999999 2123.49 4964.499999999999C2123.8399999999997 4964.499999999999 2124.25 4964.509999999999 2124.75 4964.509999999999L2150.48 4964.509999999999C2155.76 4964.509999999999 2160 4960.209999999999 2160 4954.909999999999L2160 4932.549999999999C2160 4927.249999999999 2155.76 4922.999999999999 2150.48 4922.999999999999ZM2141.21 4940.21C2141.21 4942.64 2139.44 4944.11 2138.15 4945.2C2137.67 4945.61 2136.76 4946.36 2136.76 4946.639999999999C2136.7700000000004 4947.73 2135.8900000000003 4948.61 2134.7900000000004 4948.61L2134.78 4948.61C2133.69 4948.61 2132.8 4947.759999999999 2132.7900000000004 4946.67C2132.78 4944.52 2134.3400000000006 4943.2300000000005 2135.6000000000004 4942.17C2136.59 4941.34 2137.2400000000002 4940.75 2137.2400000000002 4940.22C2137.2400000000002 4939.13 2136.36 4938.25 2135.28 4938.25C2134.2000000000003 4938.25 2133.32 4939.13 2133.32 4940.22C2133.32 4941.31 2132.4300000000003 4942.2 2131.3300000000004 4942.2C2130.2400000000002 4942.2 2129.3500000000004 4941.3099999999995 2129.3500000000004 4940.22C2129.3500000000004 4936.9400000000005 2132.01 4934.280000000001 2135.28 4934.280000000001C2138.55 4934.280000000001 2141.21 4936.93 2141.21 4940.210000000001ZM2094.85 4964.29C2093.7599999999998 4964.29 2092.87 4965.17 2092.87 4966.2699999999995C2092.87 4967.37 2093.7599999999998 4968.259999999999 2094.85 4968.259999999999L2095.02 4968.259999999999C2096.11 4968.259999999999 2097 4967.369999999999 2097 4966.2699999999995C2097 4965.169999999999 2096.11 4964.29 2095.02 4964.29ZM2101.75 4964.29C2100.65 4964.29 2099.76 4965.17 2099.76 4966.2699999999995C2099.76 4967.37 2100.65 4968.259999999999 2101.75 4968.259999999999L2101.91 4968.259999999999C2103.0099999999998 4968.259999999999 2103.89 4967.369999999999 2103.89 4966.2699999999995C2103.89 4965.169999999999 2103.0099999999998 4964.29 2101.91 4964.29ZM2136.82 4952.43C2136.82 4953.530000000001 2135.9300000000003 4954.43 2134.8300000000004 4954.43C2133.7400000000002 4954.43 2132.8900000000003 4953.54 2132.8900000000003 4952.450000000001L2132.8900000000003 4952.43C2132.8900000000003 4951.33 2133.7400000000002 4950.4400000000005 2134.8300000000004 4950.4400000000005C2135.9300000000003 4950.4400000000005 2136.82 4951.330000000001 2136.82 4952.43ZM2156.03 4932.55L2156.03 4954.91C2156.03 4958.0199999999995 2153.57 4960.53 2150.48 4960.53L2124.75 4960.53C2124.28 4960.53 2123.9 4960.53 2123.57 4960.5199999999995C2121.2000000000003 4960.469999999999 2120.73 4960.74 2118.9100000000003 4962.419999999999C2118.76 4962.5599999999995 2118.55 4962.719999999999 2118.3700000000003 4962.889999999999L2114.3800000000006 4966.499999999999L2114.3800000000006 4932.549999999999C2114.3800000000006 4929.44 2116.9800000000005 4926.969999999999 2120.0800000000004 4926.969999999999L2150.4800000000005 4926.969999999999C2153.5700000000006 4926.969999999999 2156.0300000000007 4929.44 2156.0300000000007 4932.549999999999Z " fill="#ffce00" fill-opacity="1" transform="matrix(1,0,0,1,-2080,-4923)"></path></svg>