<svg xmlns="http://www.w3.org/2000/svg" width="14" height="14" viewBox="0 0 28 28">
  <defs>
    <style>
      .cls-1 {
        fill: #edf0f5;
        fill-rule: evenodd;
      }
    </style>
  </defs>
  <path id="Forma_1" data-name="Forma 1" class="cls-1" d="M2382,835.348a3.794,3.794,0,0,0-3.85-3.653h-3.85a10.025,10.025,0,0,0,.87-5.392,4.267,4.267,0,0,0-4.37-3.3h-0.18a1.545,1.545,0,0,0-1.39.87l-1.75,4.87-4.73,4.7H2354v15.654h8.75V847.35a7.421,7.421,0,0,1,2.1,1.043c2.1,1.045,5.07,2.609,7.88,2.609,4.19,0,5.6-.521,6.65-2.261a5.07,5.07,0,0,0,.52-2.434,3.338,3.338,0,0,0,1.05-1.739,3.6,3.6,0,0,0,0-1.915,5.613,5.613,0,0,0,.88-2.261,6.588,6.588,0,0,0-.35-2.087A10.218,10.218,0,0,0,2382,835.348Zm-23.62,11.132a1.74,1.74,0,1,1,1.74-1.739A1.651,1.651,0,0,1,2358.38,846.48Zm21.35-7.654a1.756,1.756,0,0,1,.35,1.218,2.012,2.012,0,0,1-.7,1.566l-0.53.522,0.35,0.521a1.247,1.247,0,0,1,0,1.218,2.621,2.621,0,0,1-.87,1.218l-0.53.522,0.35,0.7a1.69,1.69,0,0,1-.17,1.564c-0.36.7-.71,1.218-5.08,1.218-2.45,0-5.25-1.391-7.17-2.436a7.621,7.621,0,0,0-2.98-1.042h0V835.174h0.18a2.591,2.591,0,0,0,1.05-.348l4.9-4.87c0.17-.174.17-0.349,0.35-0.522l1.75-4.7a2.322,2.322,0,0,1,2.44,1.914,10.024,10.024,0,0,1-1.04,4.87,1.343,1.343,0,0,0,.17,1.392,1.37,1.37,0,0,0,1.22.522h4.38c0.18,0,2.1.348,2.1,1.913a3.668,3.668,0,0,1-.52,2.087l-0.53.7Z" transform="translate(-2354 -823)"/>
</svg>
