<svg xmlns="http://www.w3.org/2000/svg" width="41.16" height="41.125" viewBox="0 0 41.16 41.125">
  <defs>
    <style>
      .cls-1 {
        fill: #767d86;
        fill-rule: evenodd;
      }
    </style>
  </defs>
  <path id="g_" data-name="g+" class="cls-1" d="M2637.59,731.505a9.472,9.472,0,0,1-7.14,2.812,10.286,10.286,0,1,1,6.89-17.893l-2.79,2.706a5.651,5.651,0,0,0-4.1-1.581,6.122,6.122,0,0,0-4.52,1.9,6.52,6.52,0,0,0,0,9.161,6.122,6.122,0,0,0,4.52,1.9,6.738,6.738,0,0,0,2.59-.469,4.752,4.752,0,0,0,1.78-1.192,6.916,6.916,0,0,0,1-1.42,4.191,4.191,0,0,0,.45-1.339h-5.82v-3.536h9.7a10.945,10.945,0,0,1,.16,1.715A9.985,9.985,0,0,1,2637.59,731.505Zm11.96-3.054h-2.94v-2.946h-2.95v-2.947h2.95v-2.946h2.94v2.946h2.92v2.947h-2.92v2.946Zm5.08-22.727a7.438,7.438,0,0,0-5.45-2.264h-25.72a7.723,7.723,0,0,0-7.71,7.714v25.715a7.721,7.721,0,0,0,7.71,7.714h25.72a7.721,7.721,0,0,0,7.71-7.714V711.174A7.423,7.423,0,0,0,2654.63,705.724Z" transform="translate(-2615.75 -703.469)"/>
</svg>
