<svg xmlns="http://www.w3.org/2000/svg" width="32" height="32" viewBox="0 0 64 64">
  <defs>
    <style>
      .cls-1 {
      fill: #2e4350;
      fill-rule: evenodd;
      }
    </style>
  </defs>
  <path id="g-plus" class="cls-1"
        d="M2622,2958a32.005,32.005,0,1,0,32,32A32.045,32.045,0,0,0,2622,2958Zm8.38,31.79a15.592,15.592,0,1,1-6.09-12.36l-3.62,4.71a9.543,9.543,0,0,0-5.88-2,9.645,9.645,0,1,0,9.18,12.62h-9.18v-5.94h15.59v2.97Zm11.94,1.94v4.46h-3.88v-4.46h-4.46v-3.89h4.46v-4.46h3.88v4.46h4.47v3.89h-4.47Z"
        transform="translate(-2590 -2958)"/>
</svg>
