<svg xmlns="http://www.w3.org/2000/svg" width="27" height="21" viewBox="0 0 54 42">
  <defs>
    <style>
      .cls-1 {
      fill: #374551;
      fill-rule: evenodd;
      }
    </style>
  </defs>
  <path id="gamburger_menu_icon" data-name="gamburger menu icon" class="cls-1"
        d="M2605.5,40h51a1.5,1.5,0,0,1,1.5,1.5v3a1.5,1.5,0,0,1-1.5,1.5h-51a1.5,1.5,0,0,1-1.5-1.5v-3A1.5,1.5,0,0,1,2605.5,40Zm0,18h51a1.5,1.5,0,0,1,1.5,1.5v3a1.5,1.5,0,0,1-1.5,1.5h-51a1.5,1.5,0,0,1-1.5-1.5v-3A1.5,1.5,0,0,1,2605.5,58Zm0,18h51a1.5,1.5,0,0,1,1.5,1.5v3a1.5,1.5,0,0,1-1.5,1.5h-51a1.5,1.5,0,0,1-1.5-1.5v-3A1.5,1.5,0,0,1,2605.5,76Z"
        transform="translate(-2604 -40)"/>
</svg>
