<svg xmlns="http://www.w3.org/2000/svg" width="48" height="48" viewBox="0 0 48 48">
  <defs>
    <style>
      .cls-1 {
      fill: #374551;
      fill-rule: evenodd;
      }
    </style>
  </defs>
  <path class="cls-1"
        d="M25.481,32.719A11.052,11.052,0,0,1,17.15,36a12,12,0,1,1,8.04-20.878l-3.256,3.157a6.594,6.594,0,0,0-4.784-1.845,7.144,7.144,0,0,0-5.274,2.217,7.608,7.608,0,0,0,0,10.689,7.144,7.144,0,0,0,5.274,2.217,7.866,7.866,0,0,0,3.022-.547,5.548,5.548,0,0,0,2.077-1.391,8.084,8.084,0,0,0,1.167-1.657,4.9,4.9,0,0,0,.525-1.562H17.15V22.275H28.468a12.741,12.741,0,0,1,.187,2A11.65,11.65,0,0,1,25.481,32.719Zm13.955-3.564h-3.43V25.718H32.564V22.279h3.442V18.842h3.43v3.438h3.407v3.439H39.437v3.438ZM45.364,2.636A8.679,8.679,0,0,0,39.005-.005H8.994A9.012,9.012,0,0,0,0,9V39a9.009,9.009,0,0,0,9,9H39.005a9.009,9.009,0,0,0,9-9V9a8.661,8.661,0,0,0-2.637-6.359h0Z"/>
</svg>
