<svg id="icon" xmlns="http://www.w3.org/2000/svg" width="66" height="66" viewBox="0 0 66 66">
  <defs>
    <style>
      .cls-1 {
      fill: none;
      stroke: #dddfe2;
      stroke-linejoin: round;
      stroke-width: 6px;
      }

      .cls-2 {
      fill: #dedfe9;
      fill-rule: evenodd;
      }
    </style>
  </defs>
  <circle class="cls-1" cx="33" cy="33" r="30"/>
  <path id="_" data-name="" class="cls-2"
        d="M1286.88,1998.15a0.91,0.91,0,0,0-.26-0.61l-1.34-1.34a0.835,0.835,0,0,0-1.23,0l-10.53,10.52L1263,1996.2a0.925,0.925,0,0,0-.62-0.27,0.864,0.864,0,0,0-.61.27l-1.34,1.34a0.835,0.835,0,0,0,0,1.23l12.48,12.48a0.835,0.835,0,0,0,1.23,0l12.48-12.48A0.914,0.914,0,0,0,1286.88,1998.15Z"
        transform="translate(-1240 -1967)"/>
</svg>
