<svg xmlns="http://www.w3.org/2000/svg" width="48" height="48" viewBox="0 0 48 48">
  <defs>
    <style>
      .cls-1 {
        fill: #374551;
        fill-rule: evenodd;
      }
    </style>
  </defs>
  <path class="cls-1" d="M38,0H10A10,10,0,0,0,0,10V38A10,10,0,0,0,10,48H38A10,10,0,0,0,48,38V10A10,10,0,0,0,38,0ZM15.65,39.7H8.7V18.51h6.95V39.7ZM15.02,14.58a3.914,3.914,0,0,1-2.85,1.05H12.13a3.778,3.778,0,0,1-2.78-1.05A3.543,3.543,0,0,1,8.3,11.97,3.471,3.471,0,0,1,9.39,9.35a3.912,3.912,0,0,1,2.83-1.03,3.8,3.8,0,0,1,2.79,1.03,3.614,3.614,0,0,1,1.08,2.62A3.411,3.411,0,0,1,15.02,14.58ZM40.62,39.7H33.7V28.37a6.257,6.257,0,0,0-.85-3.52,2.978,2.978,0,0,0-2.66-1.27,3.362,3.362,0,0,0-2.22.74,4.447,4.447,0,0,0-1.34,1.83,5.308,5.308,0,0,0-.23,1.73V39.7H19.48q0.04-8.53.04-13.83T19.5,19.54l-0.02-1.03H26.4v3.025a8.917,8.917,0,0,1,.82-1.134,8.239,8.239,0,0,1,1.19-1.12,5.831,5.831,0,0,1,1.83-.93,8.211,8.211,0,0,1,2.41-.33,7.383,7.383,0,0,1,5.78,2.43h0q2.19,2.43,2.19,7.111V39.7Z"/>
</svg>
