<svg width="29.535000000000004" height="29.535000000000004" xmlns="http://www.w3.org/2000/svg">

 <g>
  <title>background</title>
  <rect fill="none" id="canvas_background" height="402" width="582" y="-1" x="-1"/>
 </g>
 <g>
  <title>Layer 1</title>
  <g id="svg_1">
   <path fill="#767d86" id="svg_2" d="m14.768,0c-8.157,0 -14.768,6.609 -14.768,14.768c0,8.155 6.611,14.767 14.768,14.767c8.154,0 14.766,-6.612 14.766,-14.767c0,-8.159 -6.611,-14.768 -14.766,-14.768zm0,27.126c-6.83,0 -12.361,-5.532 -12.361,-12.359c0,-6.828 5.531,-12.362 12.361,-12.362c6.824,0 12.359,5.535 12.359,12.362c0.001,6.827 -5.535,12.359 -12.359,12.359z"/>
   <polygon fill="#767d86" id="svg_3" points="16.83,11.143 12.679,11.143 12.679,11.15 11.134,11.15 11.134,13.563 12.679,13.563 12.679,22.181 11.039,22.181                       11.039,24.487 12.679,24.487 12.679,24.503 16.83,24.503 16.83,24.487 18.188,24.487 18.188,22.181 16.83,22.181  "/>
   <path fill="#767d86" id="svg_4" d="m14.726,9.504c1.395,0 2.24,-0.928 2.24,-2.077c-0.027,-1.172 -0.846,-2.072 -2.184,-2.072c-1.336,0 -2.211,0.899 -2.211,2.072c-0.001,1.149 0.846,2.077 2.155,2.077z"/>
  </g>
 </g>
</svg>