<svg width="30" height="18" xmlns="http://www.w3.org/2000/svg">

 <g>
  <title>background</title>
  <rect fill="none" id="canvas_background" height="402" width="582" y="-1" x="-1"/>
 </g>
 <g>
  <title>Layer 1</title>
  <path id="svg_1" d="m0.3,3.28l14.01,14.4c0.18,0.2 0.43,0.31 0.69,0.31c0.26,0 0.51,-0.11 0.69,-0.3l14.01,-14.41a1,1 0 0 0 0.05,-1.38l-0.05,-0.05l-1.51,-1.55a0.93,0.93 0 0 0 -0.69,-0.3a0.95,0.95 0 0 0 -0.69,0.31l-11.81,12.15l-11.81,-12.15a0.92,0.92 0 0 0 -1.38,0l-1.51,1.55a1,1 0 0 0 0,1.42z" fill="#767d86"/>
 </g>
</svg>