<svg xmlns="http://www.w3.org/2000/svg" width="14" height="14" viewBox="0 0 28 28">
  <defs>
    <style>
      .cls-1 {
        fill: #374551;
        fill-rule: evenodd;
      }
    </style>
  </defs>
  <path id="Forma_1" data-name="Forma 1" class="cls-1" d="M2382,835.348a3.794,3.794,0,0,0-3.85-3.653h-3.85a10.025,10.025,0,0,0,.87-5.392,4.267,4.267,0,0,0-4.37-3.3h-0.17a1.548,1.548,0,0,0-1.4.87l-1.75,4.87-4.73,4.7H2354v15.655h8.75V847.35a7.449,7.449,0,0,1,2.1,1.043c2.1,1.045,5.07,2.609,7.88,2.609,4.19,0,5.6-.521,6.65-2.261a5.07,5.07,0,0,0,.52-2.434,3.338,3.338,0,0,0,1.05-1.74,3.4,3.4,0,0,0,0-1.914,5.613,5.613,0,0,0,.88-2.261,6.588,6.588,0,0,0-.35-2.087A10.218,10.218,0,0,0,2382,835.348Zm-23.63,11.132a1.74,1.74,0,1,1,1.75-1.739A1.641,1.641,0,0,1,2358.37,846.48Zm21.36-7.654a1.756,1.756,0,0,1,.35,1.218,2.012,2.012,0,0,1-.7,1.566l-0.53.522,0.35,0.521a1.247,1.247,0,0,1,0,1.218,2.627,2.627,0,0,1-.87,1.218l-0.53.521,0.35,0.7a1.692,1.692,0,0,1-.17,1.565c-0.35.7-.71,1.217-5.08,1.217-2.45,0-5.25-1.391-7.17-2.435a7.617,7.617,0,0,0-2.98-1.044h0V835.174h0.18a2.591,2.591,0,0,0,1.05-.348l4.89-4.87c0.18-.175.18-0.349,0.36-0.522l1.75-4.7a2.321,2.321,0,0,1,2.44,1.914,10.024,10.024,0,0,1-1.04,4.87,1.343,1.343,0,0,0,.17,1.392,1.37,1.37,0,0,0,1.22.521h4.38c0.18,0,2.1.349,2.1,1.914a3.668,3.668,0,0,1-.52,2.087l-0.53.7Z" transform="translate(-2354 -823)"/>
</svg>
