<svg id="SvgjsSvg1000" xmlns="http://www.w3.org/2000/svg" version="1.1" xmlns:xlink="http://www.w3.org/1999/xlink" xmlns:svgjs="http://svgjs.com/svgjs" width="76" height="68" viewBox="0 0 76 68"><title>money icon</title><desc>Created with Avocode.</desc><defs id="SvgjsDefs1001"></defs><path id="SvgjsPath1007" d="M296.903 1057C285.80400000000003 1057 276.807 1066.22 276.807 1077.59C276.807 1088.97 285.80400000000003 1098.1899999999998 296.903 1098.1899999999998C308.002 1098.1899999999998 316.999 1088.9699999999998 316.999 1077.59C316.999 1066.22 308.002 1057 296.903 1057ZM312.916 1108.17C308.642 1110.5900000000001 302.765 1112.8200000000002 296.903 1113.76C291.68800000000005 1114.6 281.877 1112.58 281.877 1110.19C281.877 1109.29 290.482 1112.42 295.687 1111C299.678 1109.91 299.111 1106.08 296.94 1105.58C294.782 1105.07 282.137 1100.33 276.736 1100.1599999999999C274.192 1100.09 267.90999999999997 1101.07 264.871 1101.58C263.829 1101.75 263.17699999999996 1101.73 263.111 1102.75C262.80899999999997 1107.5 262.21299999999997 1117.2 261.888 1122.27C261.881 1122.3799999999999 262.02599999999995 1123.82 263.186 1122.81C264.45599999999996 1121.7 266.236 1120.47 267.883 1120.85C270.467 1121.4499999999998 292.822 1125.6499999999999 295.905 1124.9099999999999C300.31699999999995 1123.86 312.804 1116.2799999999997 315.198 1113.9199999999998C318.909 1110.2699999999998 316.024 1106.4099999999999 312.916 1108.1699999999998ZM296.903 1093.42C288.37600000000003 1093.42 281.464 1086.3300000000002 281.464 1077.5900000000001C281.464 1068.8600000000001 288.376 1061.7700000000002 296.903 1061.7700000000002C305.43 1061.7700000000002 312.341 1068.8600000000001 312.341 1077.5900000000001C312.341 1086.3300000000002 305.43 1093.42 296.903 1093.42ZM297.859 1076.01C295.58799999999997 1075.07 294.93199999999996 1074.51 294.93199999999996 1073.49C294.93199999999996 1072.67 295.53499999999997 1071.72 297.23299999999995 1071.72C298.73599999999993 1071.72 299.8879999999999 1072.33 299.89899999999994 1072.33C300.0199999999999 1072.3999999999999 300.15599999999995 1072.4399999999998 300.29099999999994 1072.4399999999998C300.61999999999995 1072.4399999999998 300.90999999999997 1072.2299999999998 301.03099999999995 1071.9199999999998L301.44399999999996 1070.84C301.58699999999993 1070.4399999999998 301.36899999999997 1070.1 301.09099999999995 1069.98C300.16599999999994 1069.56 298.35799999999995 1069.24 298.34 1069.24C298.31 1069.23 298.209 1069.21 298.209 1069.09L298.20300000000003 1067.52C298.20300000000003 1067.05 297.819 1066.67 297.346 1066.67L296.605 1066.67C296.13300000000004 1066.67 295.749 1067.0500000000002 295.749 1067.52L295.75100000000003 1069.17C295.75100000000003 1069.3000000000002 295.617 1069.3500000000001 295.56800000000004 1069.3600000000001C293.28600000000006 1069.92 291.85900000000004 1071.63 291.85900000000004 1073.8000000000002C291.85900000000004 1076.4900000000002 294.03200000000004 1077.7100000000003 296.379 1078.6200000000001C298.255 1079.38 299.02000000000004 1080.14 299.02000000000004 1081.2600000000002C299.02000000000004 1082.4900000000002 297.93600000000004 1083.3400000000001 296.38300000000004 1083.3400000000001C295.05800000000005 1083.3400000000001 293.264 1082.4800000000002 293.24600000000004 1082.4700000000003C293.13100000000003 1082.4100000000003 293.009 1082.3800000000003 292.884 1082.3800000000003C292.543 1082.3800000000003 292.245 1082.6000000000004 292.127 1082.9200000000003L291.733 1084.0200000000002C291.592 1084.4300000000003 291.808 1084.7600000000002 292.084 1084.9000000000003C293.186 1085.4900000000002 295.318 1085.8400000000004 295.413 1085.8500000000004C295.439 1085.8600000000004 295.568 1085.9000000000003 295.568 1086.0200000000004L295.568 1087.6700000000005C295.568 1088.1400000000006 295.953 1088.5200000000004 296.426 1088.5200000000004L297.191 1088.5200000000004C297.664 1088.5200000000004 298.049 1088.1400000000003 298.049 1087.6700000000005L298.049 1085.9400000000005C298.049 1085.7800000000004 298.166 1085.7600000000004 298.19 1085.7600000000004C300.621 1085.2000000000005 302.11899999999997 1083.3700000000003 302.11899999999997 1081.0800000000004C302.118 1078.7300000000005 300.844 1077.2100000000005 297.859 1076.0100000000004ZM256.943 1101.39L245.23199999999997 1100.8000000000002C244.32799999999997 1100.7600000000002 243.40399999999997 1101.4500000000003 243.17899999999997 1102.3500000000001L241.04999999999998 1122.16C240.825 1123.0600000000002 241.38199999999998 1123.8300000000002 242.28599999999997 1123.8600000000001L255.265 1123.8600000000001C256.16999999999996 1123.9 256.966 1123.17 257.036 1122.2500000000002L258.461 1103.1600000000003C258.53000000000003 1102.2300000000002 257.84700000000004 1101.4400000000003 256.94300000000004 1101.3900000000003ZM250.048 1121.24C248.26 1121.24 246.81 1119.75 246.81 1117.92C246.81 1116.0900000000001 248.26 1114.6000000000001 250.048 1114.6000000000001C251.836 1114.6000000000001 253.286 1116.0900000000001 253.286 1117.92C253.286 1119.75 251.837 1121.24 250.048 1121.24Z " fill="#ffce00" fill-opacity="1" transform="matrix(1,0,0,1,-241,-1057)"></path></svg>