<svg xmlns="http://www.w3.org/2000/svg" width="109.781" height="66" viewBox="0 0 219.563 132">
  <defs>
    <style>
      .cls-1 {
      fill: #fff;
      stroke: #babfc4;
      stroke-linejoin: round;
      stroke-width: 2px;
      fill-rule: evenodd;
      }
    </style>
  </defs>
  <path class="cls-1"
        d="M68.514,6.272a4.815,4.815,0,0,1-.2-0.544,1.423,1.423,0,0,0-1.025-.871,6.372,6.372,0,0,1-.821-0.219c-0.049-.023-0.14-0.171-0.2-0.216-0.107-.074-0.212-0.154-0.308-0.217a4.935,4.935,0,0,0-.615-0.435A11.064,11.064,0,0,0,63.9,3.662c-0.453-.1-0.84-0.432-1.232-0.544a4.454,4.454,0,0,0-1.639-.111,8.462,8.462,0,0,1-1.435.436C59.021,3.4,58.871,2.95,58.264,2.9a0.4,0.4,0,0,0-.2.108c-0.651.091-1.795,0.717-1.743,1.307a2.256,2.256,0,0,0,.789,1.663c-0.128.063-.255,0.128-0.378,0.185a3.59,3.59,0,0,1-1.948.655c-0.255-.06.625-0.353,0.357-0.655S53.46,5.569,53.344,5.4a3.526,3.526,0,0,1-.2-0.652,0.741,0.741,0,0,0-.41-0.436A3.183,3.183,0,0,0,51.6,4.53c-0.517.347-.41,1.281-0.821,1.631-0.134.117-.6,0.077-0.923,0.219a1.2,1.2,0,0,0-.306.217,1.567,1.567,0,0,1-1.024.544A6.614,6.614,0,0,1,47.4,6.816c-0.67-.1-1.2.08-2.151,0-0.641-.057-1.588-0.285-2.256-0.327-0.359-.023-0.4.091-0.512-0.216-0.37-1.019,2.4-.327,2.46-0.327a2.367,2.367,0,0,0,1.642-.367,2.621,2.621,0,0,0-.513-1.566,5.046,5.046,0,0,0-1.231.108c-0.292-.011-0.614-0.2-0.923-0.217-0.439-.031-0.872.134-1.126,0.109a5.15,5.15,0,0,1-1.229-.151c-0.207-.074-0.434-0.137-0.617-0.216a4.549,4.549,0,0,0-.615-0.327,7.276,7.276,0,0,0-2.253,0,9.794,9.794,0,0,0-2.256.543c-0.714.237-1.449,0.077-1.435,0.587,0.03,1.07,1.792.051,2.256,0a1.271,1.271,0,0,1,1.537.76c0.142,0.39-.868-0.328-0.639.371a0.79,0.79,0,0,0,.306.367c0.231,0.276,2.964.347,2.79,0.925-0.145.484-2.052-.086-2.253-0.054a2.391,2.391,0,0,1-1.639-.436,6.726,6.726,0,0,0-2.049-.652,9.4,9.4,0,0,0-1.333-.22c-0.512-.017-0.939.142-1.334,0.108-0.52-.043-0.81-0.336-1.435-0.436a9.039,9.039,0,0,0-2.355,0c-0.722.082-1.374,0.453-2.154,0.547A26.119,26.119,0,0,1,18.5,5.182a32.406,32.406,0,0,0-3.281-.544,27.623,27.623,0,0,0-5.331.111c-0.233.037-.6,0.054-0.818,0.108-0.442.114-1.089,0.555-1.642,0.76a3.99,3.99,0,0,0-1.432.544c-0.711.7,0.36,1.731-.15,1.708C4.578,7.813,4.1,8.054,3.961,8.481a0.665,0.665,0,0,0,.357.717c0.247,0.225.719,0.04,0.633,0.444a1.356,1.356,0,0,1-.706.547c-0.126.091-.435,0.265-0.508,0.325a2.477,2.477,0,0,0-.922.868A6.025,6.025,0,0,0,2.77,12.7a5.159,5.159,0,0,1-.1.871,1.42,1.42,0,0,0-.335.681c0.073,0.222.638,0.549,0.706,0.723,0.155,0.413-2.045,2.375-1.7,2.4,0.388,0.031,2.538-2.229,2.717-2.48,0.119-.163.408-0.467,0.526-0.626a2.465,2.465,0,0,1,.9-0.934c0.217-.111.472-0.094,0.716-0.216,0.2-.105.352-0.356,0.513-0.435,0.979-.487,1.312.136,2.358,0.435,0.652,0.185,1.422.245,1.845,0.433a3.748,3.748,0,0,1,.819.544c0.064,0.048.158,0.077,0.206,0.111,0.236,0.165.429,0.3,0.615,0.436a2.274,2.274,0,0,1,.922,1.2,8.518,8.518,0,0,1,0,1.087c0.032,0.41.231,0.811,0.2,1.087a1.611,1.611,0,0,1-.2.544,4.3,4.3,0,0,0-.41,1.631,4.945,4.945,0,0,0-.1,1.087c0.067,0.364.767,0.88,0.617,1-0.217.177-1.22,0.342-1.28,0.481a1.182,1.182,0,0,0,.043.8,2.361,2.361,0,0,0,.4.455,1.806,1.806,0,0,1,.657.553,0.678,0.678,0,0,1-.44.729,2.814,2.814,0,0,0-.617.979c-0.437.729-.917,1.458-1.331,2.068-0.115.17-.19,0.37-0.308,0.543s-0.333.31-.411,0.436c-0.4.632-.654,1.431-1.126,2.283-0.094.171-.325,0.267-0.41,0.435a3.126,3.126,0,0,0-.1.325,5.969,5.969,0,0,0-.512,1.631,10.765,10.765,0,0,0,.308,1.85c0.054,0.464-.045.943,0,1.3a5.357,5.357,0,0,0,.2.547c0.065,0.23.049,0.538,0.1,0.652,0.443,0.914,1.645,1.273,1.846,2.175a7.47,7.47,0,0,1-.1,1.3,4.659,4.659,0,0,0,.891,2,0.51,0.51,0,0,1,.1.361,1.6,1.6,0,0,1,.035.575,3.6,3.6,0,0,0-.215,1.358c0.207,0.692,1.009.817,1.138,1.688,0.061,0.421.722,2.568,1.443,2.9,0.357,0.168-.367-1.811-0.521-2.687a12.979,12.979,0,0,0-.308-1.739,7.283,7.283,0,0,0-.512-0.871,6.619,6.619,0,0,1-.751-1.913c-0.008-.487-0.065-1.54.649-1.566,0.649-.026,1.188,1.913,1.33,2.391,0.086,0.285.021,0.638,0.1,0.872,0.014,0.037.169,0.151,0.2,0.216,0.255,0.478.459,1.01,0.614,1.307,0.065,0.119.1,0.162,0.182,0.3,0.027,0.046.092,0.191,0.127,0.239,0.067,0.1.112,0.23,0.177,0.316,0.118,0.16.22,0.262,0.335,0.444,0.164,0.262.295,0.663,0.41,0.872a11.968,11.968,0,0,1,.716,1.414,5.6,5.6,0,0,1,.41,1.3c0.14,1.127-.142,1.739,0,2.283A3.212,3.212,0,0,0,17.883,55c0.166,0.148.408,0.177,0.614,0.325s0.341,0.31.512,0.435a5.549,5.549,0,0,0,.513.436c0.429,0.244.866,0.435,1.229,0.652,0.217,0.128.413,0.336,0.617,0.436,0.175,0.085.381,0.02,0.615,0.108,0.2,0.077.327,0.248,0.512,0.328a3.671,3.671,0,0,0,2.151.436,7.868,7.868,0,0,1,1.334-.327c0.74,0.074,1.347,1.031,1.845,1.523,0.081,0.08.215,0.034,0.306,0.108,0.048,0.037.059,0.173,0.1,0.217,0.08,0.079.214,0.034,0.306,0.111a5.176,5.176,0,0,0,.82.76c0.55,0.248,1.645.014,2.152,0.217,0.024,0.011.075,0.2,0.1,0.219a1.867,1.867,0,0,1,.308.108,6.349,6.349,0,0,1,.513.979,18.379,18.379,0,0,0,1.333,2.5,5.186,5.186,0,0,0,.923.544c0.04,0.029.062,0.176,0.1,0.216a3.29,3.29,0,0,0,.716.435c0.494,0.316,1.572,1.06,2.05.871a0.789,0.789,0,0,0,.617-0.655c-0.1-.578-1.491-0.5-1.744-0.76-0.067-.068-0.123-0.04-0.2-0.108-0.88-.748-0.974-2.895-0.821-4.352a5.957,5.957,0,0,0,.309-1.74c-0.231-.817-1.5-0.917-2.46-0.868a4.392,4.392,0,0,1-1.435.108c-0.692-.472-0.341-0.911,0-1.742,0.151-.37.346-0.766,0.513-1.088a4.945,4.945,0,0,0,.923-2.391c-0.075-.677-1.717-0.666-2.05-0.327a0.98,0.98,0,0,1-.206.108,7.582,7.582,0,0,0-.924,1.415,5.977,5.977,0,0,1-.716.763,4.432,4.432,0,0,1-2.46.868,2.469,2.469,0,0,1-1.537-1.087,5.176,5.176,0,0,1-.411-0.761,8.528,8.528,0,0,1-.411-0.763,8.117,8.117,0,0,1-.2-0.979,4.155,4.155,0,0,1-.206-0.98,18.58,18.58,0,0,1,.923-3.154c0.115-.41.182-1.116,0.308-1.412,0.016-.043.185-0.06,0.2-0.108,0.064-.157.059-0.325,0.1-0.436a2.206,2.206,0,0,1,1.025-1.2c0.738-.382,1.534-0.78,2.256-1.088a2.435,2.435,0,0,1,1.025-.325,3.946,3.946,0,0,1,1.231.325,2.21,2.21,0,0,0,1.229.435,2.012,2.012,0,0,0,.821-0.652,3.636,3.636,0,0,1,.922-0.543c0.8-.3,1.8.373,2.4,0.478,0.553,0.1.858-.214,1.191-0.071a1.977,1.977,0,0,1,.992,1.23c0.094,0.507-.021,1.31.131,1.953a1.891,1.891,0,0,0,.411,1.087,2.846,2.846,0,0,0,.51.732c0.386-.005.789-0.9,0.826-1.728a6.093,6.093,0,0,0-.413-1.941,3.853,3.853,0,0,1,.615-2.719,6.234,6.234,0,0,1,.923-1.088c0.2-.188.354-0.406,0.512-0.543a1.292,1.292,0,0,1,.41-0.216c0.261-.139.464-0.495,0.717-0.655,0.467-.3,1.027-0.379,1.435-0.652a4.934,4.934,0,0,0,.719-0.76,2,2,0,0,0,.614-0.871,7.923,7.923,0,0,1,.1-1.415,1.184,1.184,0,0,1,.306-0.638,0.351,0.351,0,0,1,.312-0.068,1.717,1.717,0,0,0,.251.187,1.262,1.262,0,0,0,.225-0.755,12,12,0,0,1,1.569-1.338c0.252-.194.469-0.484,0.719-0.652,0.269-.179.644-0.282,0.923-0.436a10.532,10.532,0,0,1,.922-0.544,8.185,8.185,0,0,0,1.025-.328,1.4,1.4,0,0,0,.66-0.128,2.294,2.294,0,0,1,.877-1.5c0.132-.1.392-0.08,0.615-0.216,0.15-.091.271-0.353,0.41-0.435a12.358,12.358,0,0,1,1.127-.544,9.818,9.818,0,0,1,2.459-.76c1.77,0.043-1.1,1.062-.858,1.395s2.446-.6,2.7-0.743a17.176,17.176,0,0,0,1.72-.731c0.765-.513-1.72-0.39-2.028-0.684a1.544,1.544,0,0,1-.716-1.087c0-.549.993-0.974,0.614-1.632A3.123,3.123,0,0,0,59.8,24c-0.405-.137-1.376.393-1.639,0a0.607,0.607,0,0,1,.309-0.544,4.483,4.483,0,0,1,1.845-.652c0.665-.077,1.494.083,2.46,0a15.292,15.292,0,0,0,1.945-.435,2.155,2.155,0,0,1,1.333-.151,0.81,0.81,0,0,1,.606,1.107c-0.123.393-1.792,1.373-1.733,1.626,0.193,0.811,2.285.689,2.342,0.669s2.181-.066,2.1-0.874c-0.027-.288-1.757-1.187-1.889-1.922s-0.722-.862-0.485-1.019c1-.66,2.433-1.555,1.728-2.371a1.881,1.881,0,0,0-.41-0.219,1.31,1.31,0,0,0-.1-0.217c-0.461-.16-0.885.251-1.231,0a3.213,3.213,0,0,1-.411-1.307,9.585,9.585,0,0,1-.411-0.868c-0.241-1.15.247-2.779-.614-3.046-0.515-.162-0.553.233-0.716,0.325-0.327.182-.6,0.262-0.719,0.327a2.558,2.558,0,0,1-1.537.544,0.975,0.975,0,0,1-.717-0.76c-0.12-.461.239-0.931,0.1-1.523a1.832,1.832,0,0,0-.923-0.979,4.789,4.789,0,0,0-.716-0.216c-0.228-.083-0.435-0.284-0.617-0.327a2.293,2.293,0,0,0-2.562.76,3.092,3.092,0,0,0-.2.655,2.924,2.924,0,0,1-.512.76c-0.051.054-.051,0.163-0.1,0.217a3.589,3.589,0,0,1-.407.219c-0.08.1-.137,0.325-0.207,0.436-0.123.2-.276,0.345-0.3,0.436a10.364,10.364,0,0,1-.105,1.3c-0.013.049-.164,0.253-0.2,0.327a6.576,6.576,0,0,1-1.435,1.412,2.855,2.855,0,0,1-.309.111c-0.225.173-.37,0.452-0.614,0.652a9.619,9.619,0,0,0-.818.544,3.571,3.571,0,0,0-.207.324c-0.1.142-.271,0.259-0.308,0.327-0.172.325-.116,0.78-0.306,1.088a9.828,9.828,0,0,1-.719.763,1.549,1.549,0,0,1-.819.108,1.139,1.139,0,0,1-.719-0.979c-0.091-.735.488-1.4,0.41-1.851-0.1-.6-1.223-1.017-1.639-1.3a4.963,4.963,0,0,0-.923-0.435c-0.367-.157-0.947-0.464-1.231-0.544a4.287,4.287,0,0,1-.818-0.108,3.236,3.236,0,0,1-.719-0.871,1.837,1.837,0,0,1-.512-1.088,3.839,3.839,0,0,1,1.333-1.739,9.448,9.448,0,0,1,1.846-1.307c0.378-.188.786-0.234,1.126-0.436,0.837-.492.84-0.976,1.537-1.2a2.172,2.172,0,0,1,.513.108,2.461,2.461,0,0,0,.512-0.108,10.091,10.091,0,0,0,1.5-.324,3.078,3.078,0,0,0,.411-0.436,1.525,1.525,0,0,1,.139-0.436,1.39,1.39,0,0,1,1.334-.108,0.785,0.785,0,0,1-.309.652c0.006-.006-0.711.751-0.37,1.221,0.236,0.324,1.049-.575,1.5-0.57s1.483,0.843,1.765.285c0.19-.376-0.73-1.062-0.842-1.153-0.271-.225-0.853.128-0.821-0.436,0.029-.541.362-0.353,0.821-0.436,0.416-.074.933-0.059,1.126-0.108a10.681,10.681,0,0,0,1.229-.544c0.035-.017.067-0.191,0.1-0.219a1.391,1.391,0,0,0,.615-0.435c0.059-.094.126-0.174,0.171-0.256a0.514,0.514,0,0,0,.269.048c0.432-.009,2.841-1.663,3.146-1.64a1.61,1.61,0,0,1,1.127.652c0.507,0.439.907,0.766,1.333,1.2,0.124,0.125.343,0.119,0.41,0.219a0.539,0.539,0,0,1,.1.544C64.8,8.1,64.3,7.553,63.493,7.684a1.878,1.878,0,0,0-.821.327,1.358,1.358,0,0,0-.716.871,1.523,1.523,0,0,0,.512.977,2.5,2.5,0,0,0,.821.871c0.035,0.017.059,0.191,0.1,0.216a4.215,4.215,0,0,0,1.331.436,1.18,1.18,0,0,0,.41-0.436,1.816,1.816,0,0,1,.513-0.433c0.563-.333.858-0.077,1.129-0.436a1.822,1.822,0,0,0,.2-0.763,1.564,1.564,0,0,1-.1-0.76c0.3-.811.9-0.353,1.741-0.327,0.542,0.02,1.073.157,1.231-.325,0.258-.791-0.791-0.879-1.333-1.631C68.423,6.144,69.056,7.024,68.514,6.272ZM43.61,25.307a7.778,7.778,0,0,0,.305,1.2,1.943,1.943,0,0,0,.633.734c0.37,0.128,1.041-.225,1.288-0.085a1.915,1.915,0,0,1,.429.447,4.382,4.382,0,0,0,.392.347,2.121,2.121,0,0,0,1.3,1.033,7.912,7.912,0,0,1,1.065.083c0.338,0.276-.185.652-0.215,0.686a1.52,1.52,0,0,1-1.8-.154c-0.1-.091.188-0.327,0.094-0.467a0.944,0.944,0,0,0-1.041-.353,1.417,1.417,0,0,0-.81.231,6.246,6.246,0,0,0-1.033,1.3c-0.045.391,1.336,0.322,1.207,0.677a1.954,1.954,0,0,1-1.242.889c-0.786-.142-0.791-0.085-1-0.461-0.193-.338,1.221-0.888.327-2.189-0.174-.256.745-1.227-0.306-1.412a2.876,2.876,0,0,0-1.274.681A5.714,5.714,0,0,0,40.8,29.651c-0.271.41-.646,2.03-1.342,2-0.52-.02-0.5-0.709-0.464-1.128a2.545,2.545,0,0,1,.66-1.039,7.408,7.408,0,0,1,1.084-1.68,1.744,1.744,0,0,0,.2-0.111,5.972,5.972,0,0,1,1.462-.7c0.47-.168-0.971-0.216-1.564-0.712a0.557,0.557,0,0,0-.41-0.108c-0.62,0-1.406.831-1.843,0.216a0.538,0.538,0,0,1,.1-0.652,1.043,1.043,0,0,1,.513-0.436,5.081,5.081,0,0,1,1.435-.327c0.558-.146.968-0.387,1.331-0.436a1.613,1.613,0,0,1,.617-0.108A1.433,1.433,0,0,1,43.61,25.307ZM213.232,6.745a2.311,2.311,0,0,0-.719-0.436,1.9,1.9,0,0,0-.595-0.032,10.2,10.2,0,0,0-1.035.149,0.741,0.741,0,0,1-.111-0.009,2.806,2.806,0,0,1-.719-0.324,5.031,5.031,0,0,0-.716-0.436,0.543,0.543,0,0,0-.239-0.005,1.549,1.549,0,0,0-.233.02,0.714,0.714,0,0,1-.142-0.014c-0.2-.043-0.322-0.182-0.513-0.219-0.424-.08-0.807-0.148-1.231-0.217-1.738-.276-3.072-0.655-4.818-0.979-0.405-.077-0.827-0.162-1.229-0.217a6.919,6.919,0,0,0-1.333-.111l-0.022,0a1.1,1.1,0,0,0-.12.008c-0.425.059-.846,0.459-1.347,0.533-0.44.009-1.037-.266-1.687-0.326-1.339-.125-2.964.216-4.1,0-0.132-.026-0.247-0.159-0.411-0.219a7.461,7.461,0,0,0-1.743-.433c-1.929-.211-3.818.179-5.331-0.219a6.557,6.557,0,0,1-.818-0.436A4.622,4.622,0,0,0,183,2.5a0.767,0.767,0,0,0-.233.01c-0.163.008-.353,0.069-0.528,0.1h-0.06c-0.159-.006-0.454-0.086-0.615-0.108a10.132,10.132,0,0,0-2.483-.175,1.891,1.891,0,0,0-.4.077,3.7,3.7,0,0,0-.921.762,0.339,0.339,0,0,1-.136.051c-0.044,0-.091.007-0.14,0.015a0.962,0.962,0,0,0-.236.042,1.478,1.478,0,0,1-.265.06c-0.585.049-1.307-.121-1.979-0.073-0.045,0-.088.009-0.131,0.015-0.354.03-.67,0.16-0.961,0.2a0.955,0.955,0,0,1-.137,0,2.5,2.5,0,0,1-.719-0.219c-0.26-.128-0.48-0.211-0.716-0.327a9.205,9.205,0,0,0-1.436-.652,7.434,7.434,0,0,0-1.126-.324,4.51,4.51,0,0,0-1.3.04c-0.281.038-.562,0.089-0.85,0.131-0.136.019-.274,0.035-0.414,0.046a18.082,18.082,0,0,1-2.972-.216c-0.775-.06-1.574.031-2.256,0a7.491,7.491,0,0,1-2.152-.328,1.9,1.9,0,0,1-.512-0.76c-0.405-.675-2.173-0.213-3.485-0.328A23.144,23.144,0,0,1,153.375,0a0.068,0.068,0,0,0-.057.02l-0.026,0a0.11,0.11,0,0,0-.1.1,1.8,1.8,0,0,0-.185.031c-0.344.06-.614,0.2-0.913,0.27a1.44,1.44,0,0,1-.153.018,9.2,9.2,0,0,0-1.024-.108l-0.062.014-0.02,0c-0.236.043-.083,0.094-0.206,0.216a0.927,0.927,0,0,1-.453.2c-0.425.077-.969,0.073-1.309,0.112-0.448.049-.915,0.04-1.333,0.108a0.526,0.526,0,0,0-.059.013l-0.018,0a2.093,2.093,0,0,0-.614.324,5.388,5.388,0,0,1-1.127.543l-0.047.01c-0.377.063-.778-0.007-1.178,0.08-0.035.006-.07,0.013-0.1,0.021a13.622,13.622,0,0,0-1.333.543c-0.235.085-.463,0.128-0.717,0.216-0.316.114-.729,0.165-0.817,0.216-0.4.236-.244,0.551-0.643,0.64h-0.007c-0.831.108-1.4-1.051-2.253-1.2a1.583,1.583,0,0,0-.637.01,0.84,0.84,0,0,0-.555,1.417c0.276,0.3.976,0.588,0.716,0.978a0.21,0.21,0,0,1-.132.082,4.639,4.639,0,0,1-1.034-.2c-0.054-.009-1.086-0.051-1.432-0.109a13.155,13.155,0,0,0-1.334-.327,0.789,0.789,0,0,0-.185.021c-0.213.034-.425,0.149-0.694,0.206-0.249.041-.539,0.026-0.773,0.076a1.025,1.025,0,0,0-.15.035c-0.359.114-.678,0.344-1.023,0.432l-0.081.018a18.862,18.862,0,0,1-2.013-.246,1.35,1.35,0,0,0-.209.03c-0.7.127-1.728,0.828-2.577,1a1.243,1.243,0,0,1-.7-0.048,1.6,1.6,0,0,0-.923-0.327l-0.025.007-0.024,0c-0.448.094-.748,0.887-1.126,1.2a0.25,0.25,0,0,1-.1.049,1.332,1.332,0,0,0-.176.019,0.449,0.449,0,0,0-.136.039,1.814,1.814,0,0,0-.512.435,1.689,1.689,0,0,1-.512.432,1.063,1.063,0,0,1-.338.13c-0.1.013-.182,0.009-0.27,0.026a0.631,0.631,0,0,0-.322.14c-0.072.054-.5,0.725-0.592,0.779a0.1,0.1,0,0,1-.031.01c-0.172.016-.547-0.013-0.625-0.013a2.655,2.655,0,0,1-1.056-.86c-0.076-.074-0.231-0.424-0.411-0.652a1.036,1.036,0,0,0-.5-0.444,0.532,0.532,0,0,1-.394-0.077,0.655,0.655,0,0,1-.024-0.2,0.669,0.669,0,0,1,.5-0.318,2.517,2.517,0,0,1,1.541.151,2.877,2.877,0,0,0,1.7.453,0.791,0.791,0,0,0,.191-0.055,1.667,1.667,0,0,0,.95-0.726,0.617,0.617,0,0,0-.293-0.35,8.554,8.554,0,0,0-2.132-.934c-0.749-.174-1.851.057-2.664-0.109a3.9,3.9,0,0,1-.716-0.327,6.73,6.73,0,0,0-2.358-.76,11.522,11.522,0,0,0-4.92.76c-0.42.146-1,.264-1.4,0.426a1.736,1.736,0,0,0-.269.128,13.863,13.863,0,0,0-2.151,2.391c-0.271.279-.965,0.711-1.227,0.975-0.086.088-.22,0.13-0.309,0.219s-0.22.128-.306,0.216a0.175,0.175,0,0,1-.078.057l-0.022.006a0.321,0.321,0,0,0-.105.045c-0.515.324-.89,0.7-1.536,1.089a5.79,5.79,0,0,0-.715.324,2.8,2.8,0,0,0-.515.543,5.47,5.47,0,0,0,.207,2.172,1.385,1.385,0,0,1,.1.219,1.488,1.488,0,0,0,1.262.7,2.077,2.077,0,0,0,.807-0.153,2.512,2.512,0,0,1,.735-0.233,0.8,0.8,0,0,1,.574.341,4.055,4.055,0,0,1,.716,1.413,4.217,4.217,0,0,0,.308.759,0.08,0.08,0,0,0,.054.016,1.826,1.826,0,0,0,.25-0.017h0c0.04,0.011.214,0.447,0.265,0.466a1.309,1.309,0,0,0,.3.081,1.144,1.144,0,0,0,1.2-.98,9.784,9.784,0,0,1,.513-1.3c0.3-.59,1.11-0.712,1.346-1.478,0.143-.458-0.692-1.042-0.834-1.241a2.525,2.525,0,0,1-.1-0.327,0.812,0.812,0,0,1-.2-0.544,2.47,2.47,0,0,1,.716-1.088c0.293-.3.709-0.47,1.025-0.763,0.212-.194.486-0.532,0.821-0.869,0.035-.034.04-0.054,0.076-0.088s0.091-.094.128-0.131a1.869,1.869,0,0,1,.578-0.543,0.487,0.487,0,0,1,.21.007,0.7,0.7,0,0,1,.512.654,3.681,3.681,0,0,1-.614,1.194,2.646,2.646,0,0,0-.512,1.3,2.691,2.691,0,0,0,.306,1.086,1.433,1.433,0,0,0,1.494.656c0.326-.017.691-0.073,1.1-0.113,0.087-.008.206-0.019,0.342-0.027,0.79-.046,2.128-0.042,1.678.433a2.117,2.117,0,0,1-1.535.724c-0.524.007-.964-0.156-1.2-0.142a0.263,0.263,0,0,0-.161.039c-0.388.29-.581,0.427-0.584,0.429a1.526,1.526,0,0,0,.4.609,0.668,0.668,0,0,1-.051.884,2.025,2.025,0,0,0-.322-0.229,1.885,1.885,0,0,0-.279-0.032,0.679,0.679,0,0,0-.27.031,1.507,1.507,0,0,0-.715.435c-0.238.384,0.043,0.919-.2,1.518a1.833,1.833,0,0,1-.921.871,13.736,13.736,0,0,1-1.64,0,16.342,16.342,0,0,0-1.629.756,0.427,0.427,0,0,1-.1-0.007c-0.217-.048-0.477-0.225-0.773-0.287a1.017,1.017,0,0,0-.152-0.025c-0.437-.04-1.215.114-1.627,0.032a0.328,0.328,0,0,1-.225-0.135c-0.212-.373.942-0.655,0.971-0.675,0.387-.267.242-0.319,0.2-0.427a1.01,1.01,0,0,0-.352-0.694,0.245,0.245,0,0,0-.09-0.023c-0.236-.038-0.621.218-0.888,0.191a0.289,0.289,0,0,1-.079-0.025,2.665,2.665,0,0,1-.15-0.851c-0.081-.074.124-0.449,0.048-0.484a0.374,0.374,0,0,0-.152-0.034c-0.482-.033-1.01.876-1.047,1.494a3.559,3.559,0,0,0,.207.651,3.346,3.346,0,0,1,.273.8,1.353,1.353,0,0,1-.537.648c-0.3.145-1.093,0.026-1.377,0.182a11.3,11.3,0,0,0-1.023.978c-0.785.693-1.57,1.285-2.251,1.956a4.806,4.806,0,0,1-1.535,1.194c-0.351.122-.244-0.043-0.718,0.108-0.225.071-.394,0.262-0.614,0.327-0.643.194-1.128,0.068-1.23,0.543a0.427,0.427,0,0,0,.031.387,2.7,2.7,0,0,0,.288.169c0.126,0.128.287,0.316,0.41,0.436,0.075,0.074.228,0.034,0.306,0.108l0,0c0.058,0.078.023,0.234,0.091,0.311l0.01,0.011,0,0c0.092,0.107.169,0.165,0.24,0.246a0.894,0.894,0,0,1,.156.285,2.376,2.376,0,0,1,.1,1.41c-0.145.884-.394,1.564-1.23,1.74a5.208,5.208,0,0,1-1.844-.327,3.584,3.584,0,0,0-1.943,0,4.368,4.368,0,0,0-.514.543,7.125,7.125,0,0,0-.2,1.414,15.174,15.174,0,0,0-.259,4.059,1.107,1.107,0,0,0,.163.42,4.71,4.71,0,0,0,1.228.544,1.777,1.777,0,0,1,.721.652,1,1,0,0,1,.08.3l0.629-.072c0-.025.011-0.055,0.015-0.091h0.012c0-.01,0-0.019,0-0.03,0.022-.723,1.3-0.672,1.923-0.868a2.46,2.46,0,0,0,1.126-.871,4.276,4.276,0,0,0,.617-0.76c0.249-.49.263-1.145,0.614-1.74,0.043-.074.147-0.128,0.2-0.219,0.016-.023.078-0.185,0.1-0.217,0.381-.45,1.087-0.763,1.435-1.2a5.8,5.8,0,0,1,.92-1.415A13.838,13.838,0,0,1,101,28.718c1-.2,1.639-1.048,2.253-0.98a0.909,0.909,0,0,1,.44.2,3.487,3.487,0,0,1,.768.978,5.065,5.065,0,0,0,.2.543c0.021,0.028.053,0.067,0.092,0.114a6.757,6.757,0,0,0,.8,1.034,4.44,4.44,0,0,0,.4.237,2.174,2.174,0,0,1,.417.2,6.307,6.307,0,0,1,.716.435,3.908,3.908,0,0,1,.884.908,2.878,2.878,0,0,1,.094.922,1.043,1.043,0,0,1-.8.739,1.467,1.467,0,0,0-.754-0.157,2.64,2.64,0,0,0-.7.175c0,0.621,1.3,1.441,1.462,1.483a0.385,0.385,0,0,0,.405-0.247,3.635,3.635,0,0,0,.2-0.388,2.307,2.307,0,0,1,.69-0.9c0.024-.025.045-0.051,0.069-0.08a3.3,3.3,0,0,0,.373-0.612,0.145,0.145,0,0,0,.011-0.023c0.027-.071.054-0.136,0.075-0.193h0a1.978,1.978,0,0,0,.064-0.188c0.065-.239-0.515-0.361-0.338-0.76,0.022-.051.08-0.091,0.1-0.131a6.486,6.486,0,0,0,.918.126c0.04-.093.29-0.286,0.306-0.371a0.076,0.076,0,0,0-.043-0.043c-0.074-.069-0.483-0.224-0.6-0.294l0,0a2.96,2.96,0,0,0-.427-0.355A0.918,0.918,0,0,0,109,31.028a7.326,7.326,0,0,1-.611-0.409c-0.46-.341-0.9-0.731-1.242-1.033a11.287,11.287,0,0,1-1.025-1.087c-0.357-.435-1.038-1.335-0.2-1.74a0.53,0.53,0,0,1,.538.058c0.259,0.169.509,0.477,0.766,0.684,0.1,0.08.22,0.142,0.308,0.219,0.07,0.06.142,0.168,0.2,0.216a0.589,0.589,0,0,0,.055.038c0.141,0.095.349,0.154,0.525,0.264l0.036,0.025c0.195,0.145.338,0.316,0.512,0.435,0.042,0.029.091,0.061,0.143,0.094,0.179,0.114.41,0.251,0.642,0.4a3.062,3.062,0,0,1,.851.7,5.11,5.11,0,0,1,.41,1.195,9.915,9.915,0,0,0,.306,1.3,2.348,2.348,0,0,0,.592,1.008,1.19,1.19,0,0,0,.32.171,0.315,0.315,0,0,1,.07.04,0.473,0.473,0,0,1,.181.228c0.026,0.546-.011.392,0,0.554a4.551,4.551,0,0,0,1.272,1.382c0.408,0.316.74,0.947,0.478,1-0.071.014-.051,0.084,0,0.169a1.255,1.255,0,0,0,.265.416,0.807,0.807,0,0,0,.507.094,2,2,0,0,0,.939.379,0.809,0.809,0,0,0,.52-0.591c-0.006-.8-0.855-0.325-1.473-0.889a0.61,0.61,0,0,1-.048-0.7c0.126-.265.907-0.618,0.842-1.042-0.053-.348-2.51-2.03-2.435-2.431a0.426,0.426,0,0,1,.456-0.333,0.848,0.848,0,0,0,1.129-.263,0.6,0.6,0,0,1,.612-0.255c0.017,0,.034.008,0.051,0.013l0.01,0,0.049,0.018,0,0,0.043,0.022a2.485,2.485,0,0,1,.626.9c0.2,0.358.268,0.825,0.512,1.194a2.319,2.319,0,0,0,1.126.979,11.315,11.315,0,0,0,1.636-.22,4.066,4.066,0,0,1,1.069.347,0.731,0.731,0,0,1,.1.341c0.04,0.23.319,0.563,0.038,0.779-0.266.207,0.179,0.671,0.225,0.674a1.125,1.125,0,0,0,.27-0.028,1.642,1.642,0,0,0,.708-0.788c0.034-.272-0.512-0.452-0.475-0.673a0.648,0.648,0,0,1,.1-0.322,5.491,5.491,0,0,1,.63-0.11,1.09,1.09,0,0,1,1.023.107,1.237,1.237,0,0,1,.114,1.066l0.091-.066a11.11,11.11,0,0,1,3.2-.9c0.669-.054,2.278-0.113,2.6-0.863a2.229,2.229,0,0,0,.15-1.955c-0.059-.279.364-0.3,0.564-0.314a1.95,1.95,0,0,0,.96.806c0.465,0.078,1.019-1.074,1.5-.83a1.781,1.781,0,0,1,.54.55,8.337,8.337,0,0,0,.106-1.52,5.456,5.456,0,0,0-1.229-2.064c-0.89-1.265-1.621-2.113-.512-3.367a3.378,3.378,0,0,1,.308-0.219c0.1-.082.512-0.583,0.614-0.651a1.189,1.189,0,0,1,.195-0.1,6.306,6.306,0,0,0-.223-1.055s-1.425-.935-1.473-1.469a3.669,3.669,0,0,1,1.755-2.677,5.755,5.755,0,0,1,1.4.181,1.748,1.748,0,0,0,1.255.428,2.19,2.19,0,0,0,.393-1.064l0.013-.136a0.207,0.207,0,0,1,.055.046,4.306,4.306,0,0,0,1.875.948,4.846,4.846,0,0,1,1.653.474l1.919-.474s1.384-.189,1.742-0.189a3.707,3.707,0,0,0,1.518-.521c0.478-.287-0.714-2.606-0.714-2.606a3.5,3.5,0,0,1,.092-0.364h0a2.209,2.209,0,0,1,1.7.943c0.15,0.2.282,0.382,0.41,0.561a5.03,5.03,0,0,0,1.266,1.377,8.61,8.61,0,0,0,2.146,1.149c0.107,0.028.4,0.113,0.8,0.23a57.514,57.514,0,0,0,5.72,1.5,2.069,2.069,0,0,0,1.664-1.069,1.548,1.548,0,0,0,.128-0.659,1.317,1.317,0,0,1,.415-1.075,1.176,1.176,0,0,1,.391-0.217,0.693,0.693,0,0,0,.1.091,4.3,4.3,0,0,0,2.349.147,3.227,3.227,0,0,1,.352.414l0.039,0.053c0.246,0.331.371,0.5,0.675,0.3a1.6,1.6,0,0,1,.218-0.116,0.547,0.547,0,0,0,.52.384,4.217,4.217,0,0,1,1.429.284c0.509,0.155.431,0.988,0.968,0.487a3.437,3.437,0,0,1,1.533-.894,10.467,10.467,0,0,0,1.362-.739,6.177,6.177,0,0,0,.584.74c1.321,1.484,3.522.793,3.544,0.786h0.007c0.045,0,4.5.349,5.026-.495a1.926,1.926,0,0,0,.283-0.725l1.574-.149,2.177-.693c0.536,0.143,1.691.782,2.545,0.533,0.2-.058,1.6-0.945,2.847-0.213,0.924,0.541,1.664,2.858,2.746,3.59,0.768,0.52,2.492-.228,3.74-0.441l1,3.14,0.339,2.76a0.7,0.7,0,0,1,.364.417l-0.087.087a0.812,0.812,0,0,0,.666.654,0.643,0.643,0,0,0,.211.018,1.312,1.312,0,0,0,.717-0.871,12.494,12.494,0,0,0,.614-2.067A6.409,6.409,0,0,0,195.5,20.45c-0.461-.618-0.759-1.33-1.231-1.85a3.6,3.6,0,0,0-1.127-.869,1.448,1.448,0,0,0-.345-0.039c-0.511-.041-1.045.182-1.587,0.179a1.536,1.536,0,0,1-.22-0.032,1.28,1.28,0,0,1-1.024-.979,0.711,0.711,0,0,1,.2-0.652,22.332,22.332,0,0,1,.512-2.395c0.024-.043.174-0.062,0.207-0.108a2.5,2.5,0,0,1,.1-0.327,2.974,2.974,0,0,1,1.334-.652,3.374,3.374,0,0,1,.527-0.045c0.543,0,1.166.065,1.738,0.055,0.136,0,.269,0,0.4-0.011,0.384-.023.693-0.1,0.949-0.11l0.041,0a11.259,11.259,0,0,0,1.556.383,0.558,0.558,0,0,0,.325-0.056c0.634-.37.174-1.187,0.513-1.85a1.175,1.175,0,0,1,.614-0.436,0.645,0.645,0,0,1,.13-0.029,3.98,3.98,0,0,1,.651.141c0.281,0.071.932,0.341,1.023,0.327a0.194,0.194,0,0,0,.054-0.018,0.291,0.291,0,0,0,.089.015c0.276-.044.7-0.884,1.188-0.975h0a1.271,1.271,0,0,1,.646.328,2.89,2.89,0,0,1,.113,1.735c-0.051.3-.155,0.717-0.206,0.979a7.242,7.242,0,0,0-.306,1.958,3.909,3.909,0,0,0,.534,1.111,1.017,1.017,0,0,0,.141.408c0.072,0.082.032,0.23,0.1,0.324,0.676,0.91.464,1.336,1.244,2.132,0.42,0.43.271,1.614,0.667,2.224,0.193,0.3,1.181-.709,1.213-1.18,0-.03.008-0.067,0.015-0.109a0.846,0.846,0,0,0,.9.419,0.948,0.948,0,0,0,.306-0.871c0.011-.305-0.188-0.65-0.2-1.088-0.048-1.213.15-1.463-.206-2.283a5.732,5.732,0,0,0-1.537-1.959c-0.075-.077-0.182-0.175-0.3-0.287a3.422,3.422,0,0,1,.029-1.016,2.466,2.466,0,0,1,.308-0.543,3.3,3.3,0,0,1,.613-0.327,3.94,3.94,0,0,1,1.14-.512c0.174,0.03.349,0.07,0.516,0.088a0.192,0.192,0,0,0,.11.008,0.9,0.9,0,0,0,.246-0.021,6.27,6.27,0,0,0,1.331-1.2c0.085-.057.139-0.179,0.206-0.219a0.678,0.678,0,0,1,.278-0.081,2.288,2.288,0,0,0,.3,0,0.551,0.551,0,0,0,.242-0.027,0.509,0.509,0,0,0,.41-0.652c-0.043-.789-1.679-0.635-2.05-0.979-0.027-.026-0.174-0.661-0.2-0.661a1.153,1.153,0,0,1,1.126-.676,1.24,1.24,0,0,1,.356.04c0.579,0.171,1.085.29,1.535,0.432a3.483,3.483,0,0,0,1.28.387,0.493,0.493,0,0,0,.312-0.067,1.061,1.061,0,0,0,.309-0.436A0.785,0.785,0,0,0,213.232,6.745ZM125.446,30.109a3.376,3.376,0,0,1-1.536-.432c-0.22-.088-0.472-0.131-0.715-0.219a6.4,6.4,0,0,0-2.253-.543,5.8,5.8,0,0,0-1.739.543c-0.263.1-.558,0.2-0.82,0.327a0.985,0.985,0,0,1-.915.278c-0.022-.013-0.045-0.026-0.069-0.042a0.691,0.691,0,0,1-.207-0.76,2.344,2.344,0,0,1,.309-0.871,10.921,10.921,0,0,1,.821-1.847,2.89,2.89,0,0,1,.818-0.763,0.828,0.828,0,0,1,.309-0.216,1.276,1.276,0,0,1,.655.008,4.46,4.46,0,0,0,.838.41c0.694,0.154.806-.171,0.921-0.651,0.177-.723,0-0.953.716-1.3a3.11,3.11,0,0,1,.41-0.108,0.724,0.724,0,0,1,.308-0.111c0.375-.02.646-0.151,0.82,0.219,0.251,0.54-.354,1.188-0.308,1.522,0.106,0.79,1.642,1.413,2.355,2.064a1.937,1.937,0,0,1,.613.759A1.581,1.581,0,0,1,125.446,30.109ZM95.005,3.39a13.035,13.035,0,0,1-1.231,1.523,2.155,2.155,0,0,1-.306.108,7.459,7.459,0,0,1-.719.544A7.432,7.432,0,0,0,91.314,6c-0.4.53,0.038,1.311-.41,1.631-0.2.143-.164,0.112-0.364,0.254-0.534.378-.49,0.291-0.531,0.444a0.786,0.786,0,0,0-.045.436,1.226,1.226,0,0,0,.315.7c0.262-.047.675,0.176,1.111,0.149,0.864-.055,1.823-0.263,1.912.315a1.157,1.157,0,0,1-.947,1.139c-0.287.134-.722,0.415-1.062,0.532a2.7,2.7,0,0,1-.706.12,0.84,0.84,0,0,1-.4-0.3c-0.41-.4-1.784-0.4-1.91-0.842a2.1,2.1,0,0,1,.617-0.643c0.024-.031.174-0.077,0.2-0.111a1.391,1.391,0,0,1,.719-0.265,1.92,1.92,0,0,0-.963-0.832,5.465,5.465,0,0,1-1.024.108,6.967,6.967,0,0,1-.923.108c-1.043-.006-1.751-0.282-2.46.436-0.1.108-.48,0.279-0.716,0.436a7.055,7.055,0,0,1-1.127.763c-1.008.4-2.189,0.276-3.077,0.652-1.234.521-2.071,1.953-2.871,3.046a2.541,2.541,0,0,0-.2.217,2.622,2.622,0,0,1-.821.871,1.423,1.423,0,0,1-1.33.108,2.456,2.456,0,0,1-1.436-1.088,2.962,2.962,0,0,1-.512-2.394,11.719,11.719,0,0,1,0-1.739,1.589,1.589,0,0,1,.41-0.544A17.134,17.134,0,0,0,74.4,8.5a1.319,1.319,0,0,0,.41-0.763,1.939,1.939,0,0,0-.41-0.652c-0.137-.222-0.22-0.515-0.308-0.652-0.025-.04-0.191-0.074-0.2-0.111a1.957,1.957,0,0,0,0-.217C73.864,6.07,73.7,6.035,73.684,6a1.392,1.392,0,0,0,0-.219c-0.024-.037-0.187-0.074-0.2-0.108a1.51,1.51,0,0,0-.41-0.544,3.514,3.514,0,0,0-1.229-.544c-0.357-.063-1.432.017-2.154,0-0.419-.008-1.787.191-1.538-0.652,0.121-.4.333-0.251,0.821-0.328,0.783-.12,2.258-0.31,2.87-0.436a31.064,31.064,0,0,1,3.587-.76c1.832-.143,3.646.083,5.432,0,1.194-.057,2.374-0.268,3.587-0.328,1.891-.091,3.782-0.014,5.639-0.108a19.883,19.883,0,0,1,2.562-.108c0.384,0.029.842,0.162,1.333,0.216,0.786,0.088,1.73-.151,1.843.544C95.952,3.414,95.343,3.086,95.005,3.39Zm2.381,16.495c-0.07.077,0.341,0.415,0.268,0.481a16.525,16.525,0,0,1-2.017.464c-1.661.6-2.122,0.185-2.063,0.088a2.9,2.9,0,0,1,1.325-.572,0.736,0.736,0,0,0-.032-0.567,0.736,0.736,0,0,1-.453-0.054c-0.043-.06-0.566-0.23-0.6-0.284a1.993,1.993,0,0,1,.569-0.5c-0.067-.5-0.048-0.674.446-0.8,0.252-.066.662-0.068,0.612-0.621-0.11-1.2-.679-0.794-1.058-1.054a1.283,1.283,0,0,0-.92.778,6.709,6.709,0,0,1-.588.783c-0.172.6-.03,1.13-0.808,1.326-0.081.02-.41,0.108-0.41,0.108-0.454.134-1.13,0.461-1.293,0.194-0.335-.552.381-0.683,0.434-1.065a4.518,4.518,0,0,1-.1-1.036,5.532,5.532,0,0,1,1.266-1.03,0.712,0.712,0,0,1,.571-0.069c0.934,0.082,1.312-.157,1.5-0.769-0.011-.057-0.021-0.111-0.032-0.157a1.383,1.383,0,0,1,.142-1.307,0.843,0.843,0,0,1,.376-0.478,0.452,0.452,0,0,1,.475.133,0.589,0.589,0,0,0,.078.413,1.479,1.479,0,0,1,.513.128,1.422,1.422,0,0,1-.062.561c0.065,0.239-.469.529-0.26,0.652,0.166,0.1.44,0.174,0.488,0.208a2.989,2.989,0,0,1,.813.777,4.5,4.5,0,0,1,.241.481c0.115,0.222.324,1.2,0.451,1.5,0.185,0.438.85-.117,0.982,0.33C98.32,19.193,97.7,19.532,97.387,19.885ZM49.463,55.441a6.281,6.281,0,0,1-2.165.677,5.318,5.318,0,0,1-1.243-.108c-0.11-.037-0.668.18-1.011,0.154a1.918,1.918,0,0,1-1.175-.666,14.562,14.562,0,0,0,2.036-.476c0.191-.117-0.153-0.352-0.239-0.437a4.1,4.1,0,0,0-1.308-.547,0.114,0.114,0,0,0-.032.014,8.814,8.814,0,0,1-2.025-.165,3.1,3.1,0,0,1-1.092-.194c-0.046-.04-0.075-0.063-0.113-0.1a2.45,2.45,0,0,0-.14-0.549,2.6,2.6,0,0,0-.821-0.722c-0.658-.239-1.229-0.552-1.589-0.675a1.951,1.951,0,0,0-1.318.284,2.291,2.291,0,0,1-.619.484,3.206,3.206,0,0,1-.441-0.168,0.835,0.835,0,0,1-.258-0.684,2.517,2.517,0,0,1,1.153-.5,0.35,0.35,0,0,1,.3-0.125c0.05-.009,1.985-0.023,2.044-0.046,0.035-.014.257,0.083,0.767,0.182,0.051,0.008.255,0.062,0.292,0.071a4.207,4.207,0,0,1,.467.086c0.443,0.173,1.387.971,2.06,1.375a2.106,2.106,0,0,0,.207.093,2.113,2.113,0,0,1,.268.082,2.667,2.667,0,0,0,.244.136,3.614,3.614,0,0,1,.9.362,0.188,0.188,0,0,0,.035.029,0.009,0.009,0,0,1,.006-0.006c0.037,0,1.154.662,1.277,0.7a1.543,1.543,0,0,0,.695-0.164,6.8,6.8,0,0,1,2.551,1.1C49.326,55.062,49.7,55.287,49.463,55.441Zm73.1-14.493c-0.013-.029-0.148-0.281-0.375-0.7-0.089.04-.179,0.08-0.272,0.127a4.437,4.437,0,0,1-2.251.759,10.07,10.07,0,0,1-1.741-.327,8.356,8.356,0,0,1-1.945-.543c-0.1-.045-0.266-0.04-0.41-0.108-0.5-.236-1.321-1.007-2.149-0.867a1.448,1.448,0,0,0-.922.651c-0.254.467,0,1.5-.715,1.737a3.2,3.2,0,0,1-1.535-.435,2.247,2.247,0,0,1-.922-0.543c-0.147-.111-0.369-0.208-0.512-0.324a4.927,4.927,0,0,0-1.229-.978c-0.582-.241-1.1-0.275-1.637-0.543a1.35,1.35,0,0,1-.718-0.543,1.054,1.054,0,0,0-.1-0.218c-0.276-.3.037-1.57-0.1-2.173a1.661,1.661,0,0,0-.82-1.086c-0.265-.066-1.2.375-1.739,0.435-0.935.1-2.208-.094-3.07,0a10.152,10.152,0,0,0-2.05.543c-0.5.2-1.1,0.708-1.739,0.978a3.643,3.643,0,0,1-2.7-.235,0.155,0.155,0,0,1-.059-0.161l-0.629.073c0,0.035.011,0.067,0.012,0.105a0.893,0.893,0,0,1-.056.32,3.583,3.583,0,0,1-.968,1.2,5.662,5.662,0,0,0-1.433,1.413c-0.016.037-.18,0.063-0.2,0.108a3.948,3.948,0,0,0-.206.762c-0.011.04-.19,0.16-0.2,0.216-0.11.426,0.019,0.973-.1,1.306a3.313,3.313,0,0,1-.718.867c-0.285.273-.7,0.449-0.922,0.651a11.554,11.554,0,0,1-.817.978,0.908,0.908,0,0,0-.206.219,8.709,8.709,0,0,0-1.227,2.064,3.362,3.362,0,0,1-.1.324c-0.151.3-.451,0.557-0.614,0.87-0.171.33-.251,0.745-0.409,1.086a6.324,6.324,0,0,0-.919,2.172,3.308,3.308,0,0,0,.305,1.086,6.462,6.462,0,0,1-.1,4.021,4.334,4.334,0,0,0-.512,1.194,5.056,5.056,0,0,0,.309,1.63c0.075,0.472.011,1.02,0.1,1.3a12.8,12.8,0,0,0,1.637,2.064,9.053,9.053,0,0,1,.82,1.41c0.252,0.554.335,1.259,0.614,1.74a6.872,6.872,0,0,0,.82.867,10.129,10.129,0,0,0,.817.87A4.367,4.367,0,0,0,90.289,68.4c0.885,0.014,2-.751,2.766-0.759,0.613-.009,1.152.389,1.739,0.324a3.513,3.513,0,0,0,1.024-.432c0.4-.185.739-0.318,1.023-0.435,1.042-.432,2.261-0.995,3.277-0.435,0.728,0.4.8,1.462,1.534,1.737a6.971,6.971,0,0,1,1.332,0,2.165,2.165,0,0,1,.613.543,2.055,2.055,0,0,1,.719,1.413c0.144,1.289-.6,2.749-0.41,4.129a4.061,4.061,0,0,0,.41,1.194c0.4,0.788,1.211,1.285,1.637,2.28,0.128,0.3.069,0.66,0.2,1.089,0.051,0.165.225,0.345,0.308,0.543a10.436,10.436,0,0,1,.715,1.954c0.089,0.606-.061,1.347,0,1.956,0.078,0.737.333,1.274,0.309,1.629a3.153,3.153,0,0,1-.309.87c-0.109.285-.2,0.6-0.305,0.868s-0.308.472-.41,0.762c-0.048.131-.059,0.389-0.1,0.543a9.069,9.069,0,0,0-.308,1.522,7.014,7.014,0,0,0-.1,1.086,4.473,4.473,0,0,0,.511,1.737A27.153,27.153,0,0,1,108,97.084a15.646,15.646,0,0,1,.409,1.957c0.057,0.433.041,0.842,0.1,1.3a8.549,8.549,0,0,0,.2,1.3c0.043,0.125.228,0.264,0.308,0.435,0.1,0.2.113,0.489,0.2,0.652s0.286,0.258.41,0.435c0.032,0.042-.036.178,0,0.216s0.179-.038.206,0c0.059,0.082.056,0.25,0.1,0.326a12.323,12.323,0,0,1,.613,1.195,6.121,6.121,0,0,1,.512,1.413,12.519,12.519,0,0,0,.1,1.953,3.068,3.068,0,0,0,.82.654c0.7,0.171,1.428-.441,2.66-0.435a2.44,2.44,0,0,1,.82.216,3.88,3.88,0,0,0,1.125,0,2.325,2.325,0,0,0,.922-0.651,8.933,8.933,0,0,0,1.64-1.521c0.2-.234.49-0.483,0.613-0.651,0.065-.091.033-0.234,0.1-0.327,0.209-.282.488-0.523,0.715-0.87,0.212-.316.4-0.651,0.617-0.976a8.077,8.077,0,0,0,1.227-2.064c0.115-.6-0.1-1.2,0-1.521a3.739,3.739,0,0,1,.41-0.435,11.367,11.367,0,0,0,1.535-1.305,4.8,4.8,0,0,0,.41-1.629c-0.011-.739-0.549-1.231-0.41-2.281a2.952,2.952,0,0,1,.308-0.759,6.3,6.3,0,0,1,.715-0.978c0.078-.1.124-0.325,0.207-0.436a3.467,3.467,0,0,1,.817-0.761,2.611,2.611,0,0,1,.206-0.216c0.458-.314.775-0.475,1.125-0.759a2.322,2.322,0,0,0,.716-0.87c0.016-.034.179-0.072,0.206-0.108a3.669,3.669,0,0,0,.614-1.413,5.691,5.691,0,0,0-.1-2.28,16.312,16.312,0,0,0-.1-1.633c-0.091-.358-0.482-0.8-0.616-1.194-0.048-.142-0.048-0.335-0.1-0.543a9.956,9.956,0,0,1-.41-3.693,5.977,5.977,0,0,1,.41-1.194,3.138,3.138,0,0,1,.512-0.87c0.978-1.3,1.583-2.346,2.663-3.694,0.139-.176.166-0.367,0.306-0.543,0.4-.5.9-0.976,1.331-1.413a9.738,9.738,0,0,0,2.047-2.172c0.174-.375.284-0.9,0.41-1.194,0.171-.415.356-0.827,0.511-1.194,0.062-.142.137-0.256,0.2-0.435,0.357-.939.552-1.385,0.922-2.5a4.487,4.487,0,0,0,.41-1.629c-0.172-1.37-1.833-.171-2.355,0a9.544,9.544,0,0,1-1.329.216,4.3,4.3,0,0,1-1.434.219,2.387,2.387,0,0,1-.717-0.435c-0.665-.671-0.534-1.618-1.024-2.5a6.685,6.685,0,0,0-1.332-1.413,4.478,4.478,0,0,1-.919-0.867,14.647,14.647,0,0,1-1.023-2.064c-0.378-.768-0.914-1.385-1.128-1.956-0.231-.614-0.236-1.328-0.41-1.845a10.85,10.85,0,0,0-.614-1.2c-0.474-1.012-1.278-2.633-1.738-3.694-0.327-.751-0.659-1.655-0.922-2.172a1.6,1.6,0,0,1-.206-0.324,5.042,5.042,0,0,1-.282-0.84c0.02-.171.285-0.063,0.353-0.164a1.323,1.323,0,0,1,.208-0.329,0.038,0.038,0,0,0,.016-0.021c0.009-.09.013-0.19,0.014-0.214A5.36,5.36,0,0,0,122.568,40.948ZM137.1,87.011c0.561-.22.705-0.068,0.922,0.652a3.518,3.518,0,0,1,.1,1.849,10.377,10.377,0,0,1-.922,2.828,0.574,0.574,0,0,1-.1.218,3.639,3.639,0,0,0-.206.544,17.647,17.647,0,0,0-.82,2.936c-0.084.47-.124,0.987-0.205,1.414-0.221,1.165-.263,1.374-1.127,1.849-0.047.025-.064,0.2-0.1,0.217A1.679,1.679,0,0,1,133,99.3a3.751,3.751,0,0,1-.819-2.937c0.1-.975.819-1.522,0.922-2.611,0.056-.584-0.2-1.36-0.1-2.067a3.938,3.938,0,0,1,.308-0.979c0.024-.046.188-0.07,0.2-0.109a2.565,2.565,0,0,1,.82-0.87c0.213-.184.785-0.427,1.127-0.652a2.447,2.447,0,0,0,.308-0.109,6.485,6.485,0,0,0,1.127-1.849A0.241,0.241,0,0,1,137.1,87.011ZM122.663,42.6a0.036,0.036,0,0,1,.03.013,3.491,3.491,0,0,1,.644.591,1.65,1.65,0,0,1,.116.14,4.156,4.156,0,0,1,.393.723,16.967,16.967,0,0,0,.92,1.847c0.206,0.31.435,0.51,0.617,0.763s0.292,0.41.408,0.544a7.514,7.514,0,0,1,.41.652c0.1,0.156.1,0.344,0.207,0.544a7,7,0,0,1,.512.871,5.806,5.806,0,0,1,.1.76,5.089,5.089,0,0,0,.41.979,8.806,8.806,0,0,0,.923,1.415,13.746,13.746,0,0,1,1.127,1.74c0.1,0.17.113,0.364,0.2,0.543a3.889,3.889,0,0,1,.308.544c0.013,0.039.025,0.079,0.037,0.12,0.194,0.681.26,1.582,0.448,2.324a1.544,1.544,0,0,0,1.052,1.361,1.216,1.216,0,0,0,.719-0.108c0.376-.137.759-0.391,1.127-0.544,0.517-.219.743-0.364,1.127-0.543a9.385,9.385,0,0,0,1.947-.98c0.078-.076.223-0.034,0.309-0.108,0.44-.393.772-1.068,1.33-1.523a8.672,8.672,0,0,1,1.537-.76,4.751,4.751,0,0,0,1.436-1.307c0.381-.587.614-1.267,1.024-1.959,0.489-.814,1.2-1.409,1.224-1.885a2.918,2.918,0,0,0-.293-0.3,3.1,3.1,0,0,0-.724-0.755,5.628,5.628,0,0,0-.411-0.543c-0.166-.136-0.447-0.171-0.614-0.328a8.827,8.827,0,0,0-.778-0.578c-0.123-.1-0.142-1.324-0.29-1.327a0.056,0.056,0,0,0-.024.007,5.058,5.058,0,0,0-.547.664,6,6,0,0,0-.63.694,2.691,2.691,0,0,1-1.078.654,1.134,1.134,0,0,1-.331.026c-0.5-.035-0.9-1.45-1.212-1.683a0.17,0.17,0,0,0-.181-0.054,2.8,2.8,0,0,1-.266.608,0.547,0.547,0,0,1-.463-0.118,4.543,4.543,0,0,1-.453-1.176c-0.161-.277-0.255-0.462-0.411-0.763a4.69,4.69,0,0,1-.3-0.544,6.965,6.965,0,0,1-.411-1.956,0.6,0.6,0,0,1,.077-0.165,1.136,1.136,0,0,1,.734-0.479c0.686-.039,1.2,1.013,1.433,1.522a5.494,5.494,0,0,0,.308.762c0.03,0.039.218,0.31,0.258,0.341a2.157,2.157,0,0,1,.356.31,4.229,4.229,0,0,0,2.052.753,0.811,0.811,0,0,0,.289-0.074,4.081,4.081,0,0,0,.436-0.376,0.8,0.8,0,0,1,.6.132,5.86,5.86,0,0,1,1.143,1.021c0.086,0.082.07,0.256,0.153,0.324a1.649,1.649,0,0,0,.34.065,6.263,6.263,0,0,0,3.175.435c0.552-.029,1.134-0.08,1.637-0.108a2.819,2.819,0,0,0,.381-0.054l0.176-.034a1.6,1.6,0,0,1,.673-0.02c0.705,0.165,1.715,1.581,2.25,2.065,0.135,0.119.346,0.384,0.437,0.463a0.211,0.211,0,0,0,.155.033c0.16,0,.4-0.093.538-0.107,0.044,0,.072.011,0.076,0.043,0.11,0.842-.737.583-0.661,0.987a1.681,1.681,0,0,0,.7.835,0.443,0.443,0,0,0,.434.244c0.07,0,.136,0,0.187,0h0.013a0.415,0.415,0,0,0,.062,0c0.617,0.045.851-1.239,1.283-1.276a0.333,0.333,0,0,1,.2.091,1.7,1.7,0,0,1,.23,1.141c-0.032.675-.152,1.45-0.112,1.806a16,16,0,0,0,.821,2.719c0.185,0.586.226,1.22,0.371,1.564,0.062,0.148.21,0.353,0.282,0.518,0.223,0.494.477,0.984,0.722,1.458,0.223,0.459.437,0.9,0.615,1.315,0.1,0.222.2,0.5,0.3,0.789,0.116,0.385.233,0.8,0.374,1.182,0.44,1.19.8,2.03,1.538,1.389a2.481,2.481,0,0,0,.49-0.457l0.048,0,0.7,0.483c-0.095,1.306-.015,2.271.529,2.552a0.664,0.664,0,0,0,.605.36c0.152,0.006.628-.05,0.687-1.134a4.433,4.433,0,0,0-.523-1.839c-0.008-.013-0.014-0.025-0.021-0.038-0.046-.108-0.089-0.206-0.126-0.288-0.028-.063-0.072-0.162-0.12-0.264a0.564,0.564,0,0,0-.119-0.392s-0.011.035-.03,0.089a0.632,0.632,0,0,0-.037-0.062c-0.086-.114-0.364.122-0.439,0.171,0,0,.016.082-0.209,0.045a0.585,0.585,0,0,1-.5-0.42,10.527,10.527,0,0,0,.607-2.928,19.876,19.876,0,0,1-.133-2.6c0.15-.638,1.23-0.824,1.626-1.325,0.84-1.059,1.63-2.749,2.475-3.788,0.1-.123.314-0.2,0.408-0.325,0.131-.17.188-0.375,0.309-0.543a2.855,2.855,0,0,1,.718-0.872c0.191-.108.69-0.162,1.229-0.327a6.017,6.017,0,0,1,1.069-.337,0.565,0.565,0,0,1,.113.014,2,2,0,0,1,1.024,1.194,5.741,5.741,0,0,0,.2.544,2.526,2.526,0,0,0,.308.108,3.79,3.79,0,0,1,.306.543c0.083,0.077.233,0.029,0.308,0.108a3.77,3.77,0,0,1,.715.978,16.591,16.591,0,0,1,.41,1.63,4.936,4.936,0,0,0,.308.762,1.235,1.235,0,0,0,.41.651,0.267,0.267,0,0,0,.067.011,1.209,1.209,0,0,0,.791-0.207c0.952-.965,1.029.8,1.319,1.727a14.9,14.9,0,0,1,.782,2.175,9.34,9.34,0,0,1-.1,2.067,11.323,11.323,0,0,0,.048,1.486c-0.022.2-.04,0.386-0.052,0.542a0.273,0.273,0,0,0,.1.2,2.276,2.276,0,0,0,.443.515,0.77,0.77,0,0,0,.212.207,2.675,2.675,0,0,0,.349.511v0c0.193,0.364.559,0.638,0.688,0.968a7.207,7.207,0,0,1,.413,1.345,4.466,4.466,0,0,0,.332,1.113c0.094,0.239.121,0.609,0.205,0.763,0.021,0.037.174,0.071,0.206,0.108,0.047,0.054.129,0.121,0.2,0.185a0.216,0.216,0,0,0,.036.074c0.063,0.082.144,0.179,0.232,0.281a2.062,2.062,0,0,1-.412.95,2.565,2.565,0,0,1-.271-0.228,8.24,8.24,0,0,1-.754-1.536,6.685,6.685,0,0,0-.706-0.544,2.888,2.888,0,0,0-.1-0.327c-0.024-.022-0.19-0.1-0.206-0.108a8.319,8.319,0,0,0-1.948-1.253,5.449,5.449,0,0,0-.852-0.111,0.1,0.1,0,0,0-.081-0.012,0.4,0.4,0,0,0-.065.445,3.061,3.061,0,0,0,.661,1.6c0.375,0.515,1.071,1,1.3,1.3a22.377,22.377,0,0,1,2.229,3.482c0.4,0.814.689,1.591,1.127,2.394,0.5,0.911,1.4,2.414,2.372,2.283a1.676,1.676,0,0,0,1.024-1.415c0.084-1.247-1.3-2.3-1.947-3.59-0.142-.281-0.222-0.564-0.309-0.76a1.055,1.055,0,0,1,.352-1.511,0.351,0.351,0,0,0,.271-0.058,2.93,2.93,0,0,0,.1-0.933,4.221,4.221,0,0,0-.309-0.98c-0.083-.291-0.2-0.555-0.306-0.868a6.41,6.41,0,0,0-.411-1.09c-0.182-.2-0.671-0.809-1.374-1.654-0.286-.347-0.537-0.78-0.765-1.1-0.118-.484-0.368-1.05-0.483-1.517a6.534,6.534,0,0,1,0-1.848c0.021-.7-0.126-1.381-0.1-1.631a0.38,0.38,0,0,1,.2-0.219,0.879,0.879,0,0,1,.313-0.331,2.83,2.83,0,0,1,.506.345,8.1,8.1,0,0,1,.719.654c0.607,0.643.774,1.6,1.381,1.988a0.41,0.41,0,0,0,.149.05c0.1,0.028.219,0.031,0.328,0.051h0l0.042,0.009,0.022,0.006a0.391,0.391,0,0,0,.415-0.21l0.017,0.019c0.386,0.484-.078.936-0.04,1.345a0.224,0.224,0,0,0,.211.206,0.8,0.8,0,0,0,.17.029c0.542,0.114,1.2-1.113,1.668-1.634a4.719,4.719,0,0,0,1.229-1.414c0.461-1.344-.386-3.266-0.821-4.023a21.031,21.031,0,0,0-2.049-2.394,2.32,2.32,0,0,1-.615-1.3,2.409,2.409,0,0,1,1.876-2.35,0.978,0.978,0,0,1,.314.063,0.413,0.413,0,0,1,.305.219c0.227,1.188.447,1.55,0.652,1.512,0.389,0.1.727-1.351,0.953-1.619,0.034-.04.128-0.151,0.163-0.188a0.1,0.1,0,0,1,.043-0.032,3.383,3.383,0,0,1,.818-0.544c0.524-.171,1.114-0.065,1.642-0.216,0.193-.057.4-0.236,0.614-0.328a3.582,3.582,0,0,0,.821-0.327,4.986,4.986,0,0,0,1.03-1.161,10.282,10.282,0,0,0,.923-1.939c0.164-.481.271-1.1,0.44-1.705,0.158-.569.628-2.135,0.161-2.149-0.861-.029-1.344-0.564-0.99-0.806,0.327-.222.536-0.4,0.432-0.621-0.019-.04-0.421-0.589-0.459-0.646-0.362-.513-0.794-0.874-1.129-1.3-0.446-.574-1.381-1.907-1.331-2.5,0.038-.447,1.674-1.159,1.369-1.839-0.293-.649-1.688-0.171-2.394-0.336a2.153,2.153,0,0,1-1.333-1.415,0.744,0.744,0,0,1,.309-0.543,3.859,3.859,0,0,1,1.277-1.15,0.653,0.653,0,0,1,.289-0.021,1.332,1.332,0,0,1,.512.324,2.224,2.224,0,0,0,0,.327,3.794,3.794,0,0,1,.228.825,0.247,0.247,0,0,0,.122-0.025c0.193-.038.712-0.373,0.99-0.475a1.26,1.26,0,0,1,1.527.546c0.356,0.381-.051,1.188.308,1.217a2.023,2.023,0,0,1,.919.193,2.508,2.508,0,0,1,.616.654,4.69,4.69,0,0,1,.825,1.942,1.458,1.458,0,0,0,.5.924,0.21,0.21,0,0,0,.129-0.011c0.321,0,.667-0.791.928-0.906a0.759,0.759,0,0,0,.112-0.02,0.447,0.447,0,0,0,.388-0.564c0.007,0.073.012,0.133,0-.01-0.015-.17-0.009-0.088,0-0.006a2.889,2.889,0,0,0-.549-1.261c-0.062-.068-0.04-0.139-0.1-0.219-0.553-.7-2.227-1.409-2.256-2.283-0.016-.507.718-1.023,0.82-1.523,0.095-.461-0.118-1.045,0-1.415a5.691,5.691,0,0,1,1-.946l0.044,0,0.1,0.026,0.07,0.017h0l0.06-.033h0l-0.339-2.76-0.993-3.117-0.1.017-0.008-.023c-1.238.234-2.893,0.93-3.641,0.423-0.781-.529-1.384-1.884-2.007-2.8L187.3,19.4a2.386,2.386,0,0,0-.59-0.611l-0.08-.083a3.149,3.149,0,0,0-2.792.244c-0.854.249-2.008-.39-2.545-0.533l-2.177.693-1.574.149a1.923,1.923,0,0,1-.283.726c-0.526.843-4.981,0.5-5.026,0.494h-0.007c-0.022.007-2.223,0.7-3.544-.786a6.338,6.338,0,0,1-.576-0.727l-0.075.042A0.1,0.1,0,0,0,168.018,19a9.05,9.05,0,0,1-1.286.7,3.435,3.435,0,0,0-1.533.894c-0.537.5-.459-0.332-0.968-0.487a4.214,4.214,0,0,0-1.429-.284,0.549,0.549,0,0,1-.521-0.384,1.7,1.7,0,0,0-.217.116c-0.3.2-.428,0.029-0.675-0.3L161.35,19.2a3.431,3.431,0,0,0-.328-0.39l-0.1.009L160.9,18.79a4.034,4.034,0,0,1-2.249-.156,0.706,0.706,0,0,1-.091-0.086l-0.033.008v0a1.145,1.145,0,0,0-.362.206,1.316,1.316,0,0,0-.415,1.074,1.534,1.534,0,0,1-.128.659,2.069,2.069,0,0,1-1.664,1.069,57.658,57.658,0,0,1-5.72-1.5c-0.4-.117-0.692-0.2-0.8-0.23a8.582,8.582,0,0,1-2.145-1.148,5.035,5.035,0,0,1-1.267-1.377c-0.128-.18-0.26-0.365-0.41-0.561a2.209,2.209,0,0,0-1.7-.943h0a3.628,3.628,0,0,0-.091.364s1.192,2.319.715,2.606a3.715,3.715,0,0,1-1.519.521c-0.358,0-1.742.189-1.742,0.189l-1.919.474a4.847,4.847,0,0,0-1.653-.474,4.3,4.3,0,0,1-1.875-.948,0.194,0.194,0,0,0-.055-0.046l-0.013.136a2.186,2.186,0,0,1-.393,1.064,1.746,1.746,0,0,1-1.255-.428,5.456,5.456,0,0,0-1.34-.176,0.731,0.731,0,0,0-.071.023l-0.042,0a3.719,3.719,0,0,0-1.7,2.653c0.049,0.533,1.474,1.468,1.474,1.468a6.307,6.307,0,0,1,.223,1.055l-0.019.008,0,0.02a4.156,4.156,0,0,1,.727-0.226,1.391,1.391,0,0,1,.613-0.111,1.336,1.336,0,0,1,1.024.87,0.869,0.869,0,0,1-.016.29,1.957,1.957,0,0,1-.9.767,1.152,1.152,0,0,0-.323.6,1.535,1.535,0,0,0,.624,1.5c0.078,0.063.22,0.037,0.306,0.108,0.2,0.159.268,0.352,0.41,0.435,0.278,0.159.707,0.119,1.023,0.327a4.722,4.722,0,0,1,.616.651,0.7,0.7,0,0,1-.025.4,1.3,1.3,0,0,1-.273.334c-0.011.023-.018,0.041-0.024,0.056a0.558,0.558,0,0,0-.032.1,0.3,0.3,0,0,1-.046.061,1.183,1.183,0,0,0-.151.282,0.76,0.76,0,0,0-.065.286,1.246,1.246,0,0,0,.41.759,2.579,2.579,0,0,1,.41.654,4.407,4.407,0,0,1,0,1.728c-0.06.074-.475,0.521-0.5,0.534a2.327,2.327,0,0,1-1.435-.328c-0.845-.367-1.747-0.694-1.846-1.956a2.073,2.073,0,0,1,0-.237,1.73,1.73,0,0,0-.531-0.539c-0.482-.245-1.037.908-1.5,0.83a1.945,1.945,0,0,1-.959-0.806c-0.2.012-.624,0.035-0.565,0.314a2.229,2.229,0,0,1-.15,1.955c-0.325.75-1.935,0.808-2.6,0.862a11.156,11.156,0,0,0-3.2.9l-0.091.066-0.034.139a21.678,21.678,0,0,1-.308,2.611,4.827,4.827,0,0,1-.306,1.088,1.959,1.959,0,0,1-.952.632c0.22,0.405.351,0.649,0.364,0.679a5.4,5.4,0,0,1,.276,1.445c0,0.024.015,0.086,0.024,0.184m81.023-7.563a1.033,1.033,0,0,1-.381.817,3.006,3.006,0,0,1-1.537.652c-1.1.1-.673,1.37-0.944,1.187-0.5-.336-0.585-0.931-1.309-0.968-0.417-.023-2.211.629-2.484,0.051-0.033-.068-0.164-0.23-0.065-0.27a9.948,9.948,0,0,0,1.215-.544,10.077,10.077,0,0,1,1.334-.544,2.011,2.011,0,0,0,.818-0.436c0.016-.014.1-0.1,0.1-0.108a3.008,3.008,0,0,0,.718-0.652,3.362,3.362,0,0,0,.716-1.2,3.19,3.19,0,0,0-.2-1.307,1.771,1.771,0,0,0-.213-0.342c-0.376-.629-1.039-1.616-1.045-1.618a0.6,0.6,0,0,1-.265-0.148,4.6,4.6,0,0,1-.028-2.025,1.064,1.064,0,0,1,.526-0.979,0.587,0.587,0,0,1,.716.111c0.07,0.04.164,0.2,0.207,0.216,0.086,0.037.223-.043,0.305,0a3.706,3.706,0,0,0,.411.328,2.059,2.059,0,0,1,.513.108,2.468,2.468,0,0,1,.206.757,2.976,2.976,0,0,1-.646.8c-0.835-.031-0.464-0.464-0.985-0.441-0.088,0-.727.057,0.942,2.033a0.158,0.158,0,0,1,.016.023,2.054,2.054,0,0,1,.673.848,6.048,6.048,0,0,1,.215,2.109C203.218,33.919,203.655,34.616,203.658,34.984ZM191.739,47.026a1.313,1.313,0,0,1,.769-0.341,4.561,4.561,0,0,1-.28,2.457c-0.074.152-.047,0.4-0.63-0.1A1.471,1.471,0,0,1,191.739,47.026Zm5.98,19.536a0.778,0.778,0,0,1-.682.128c-0.069-.02-0.375-0.491-0.449-0.525a7.378,7.378,0,0,0-.411-0.763c-0.212-.248-1.4-0.218-1.388-0.841,0.014-.7.805-0.668,1.633-0.97,0.459-.168.328-0.795,0.387-1.222a7.574,7.574,0,0,0-.149-1.6,5.164,5.164,0,0,0-1.764-.828,0.631,0.631,0,0,0-.811.208c-0.035.037-.124,0.091-0.158,0.131a0.5,0.5,0,0,1-.067.087,0.327,0.327,0,0,0-.051.034c-0.569.648-1.347,2.737-1.663,3.073a0.571,0.571,0,0,1-.949.108c-0.273-.227-0.875-0.694-0.081-1.352a1.354,1.354,0,0,1,.308-0.216c0-.005.245-0.4,0.548-0.882a9.6,9.6,0,0,0,.644-1.586c0.171-.5.265-0.742,0.415-1.172a4.132,4.132,0,0,0-.23-0.712c-0.113-.151-0.265-0.3-0.4-0.5a1.059,1.059,0,0,0-.1-0.217c-0.491-.544,0-1.389.2-2.177,0.129-.492-0.148-1.307.341-1.449,0.048-.015.8,0.62,0.945,0.688a2.015,2.015,0,0,1,.615,1.415,8.46,8.46,0,0,0-.2,1.848,3.441,3.441,0,0,0,1.034.924c0.559,0.332,1.463,1.493,2.1,1.552a0.06,0.06,0,0,1,.011-0.006c0.722,0.31.983,3.016,1.087,3.1,0.043,0.032.094,1.122,0.115,1.247a3.832,3.832,0,0,1-.832,2.48h0Zm-7.048-.413a0.867,0.867,0,0,1,1.025.326,3.488,3.488,0,0,1,.205.435,0.446,0.446,0,0,1,.2.326,1.35,1.35,0,0,1-.41.979,3.821,3.821,0,0,0-.307.979c-0.062,1.09.848,1.533,0.307,2.72-0.048.1-.148,0.2-0.2,0.326-0.031.07-.052,0.206-0.1,0.327-0.206.494-.465,0.957-0.616,1.305-0.494,1.144-.663,2.11-1.434,2.284a5.635,5.635,0,0,1-1.435-.326c-0.912-.144-1.584.058-2.153-0.327s-0.829-1.581-1.024-2.5a2.8,2.8,0,0,1-.1-1.741,2.352,2.352,0,0,1,1.127-.544,5.807,5.807,0,0,0,1.026-.87,5.021,5.021,0,0,0,1.024-1.305,4.157,4.157,0,0,1,1.64-1.523,4.5,4.5,0,0,1,1.23-.87h0Zm4.367,5.975a4.87,4.87,0,0,0-.692.017A1.1,1.1,0,0,1,195.038,72.124Zm2.345-.4a1.067,1.067,0,0,1-1.6.823,3.731,3.731,0,0,1-.646-0.392h0a0.266,0.266,0,0,0-.08-0.023,0.029,0.029,0,0,0-.014,0,0.638,0.638,0,0,0-.536.141,1.635,1.635,0,0,0-.739.344,1.944,1.944,0,0,0-.119.728,1.683,1.683,0,0,0,.44.538,0.739,0.739,0,0,0,.826-0.125,1.786,1.786,0,0,1,.352-0.259,0.315,0.315,0,0,1,.429.067,0.415,0.415,0,0,1,.1.42,1.584,1.584,0,0,0-.764,1.041,6.592,6.592,0,0,0-.026.706,5.737,5.737,0,0,1,.323,1.467,1.37,1.37,0,0,1-.925-0.763,2.361,2.361,0,0,0-.354-0.809c-0.312-.151-0.36.088-0.607,0.359-0.284.319,0.58,1.312,0.342,2.044-0.142.436-1.126-.094-1.193-0.16a10.113,10.113,0,0,1,.064-1.07,1.429,1.429,0,0,0-.147-0.2c-0.067-.256-0.387-0.706-0.354-0.774,0.179-.4.324-0.783,0.493-1.267a4.118,4.118,0,0,0,.194-1.306,6.292,6.292,0,0,1,.413-1.5l0.89-.5,0,0a0.41,0.41,0,0,1,.373-0.1c0.512,0,.825.379,1.457,0.442,0.368,0.037,1.13-.464,1.358-0.43A0.635,0.635,0,0,1,197.383,71.72Zm6.111,1.687a1.9,1.9,0,0,1,.986.186,1.175,1.175,0,0,1,.161.144c0.377,0.352.131,1.993,0.8,2.085,0.47,0.064.521-.623,0.81-0.862a2.386,2.386,0,0,1,1.64-.653,2.937,2.937,0,0,1,1.23.653c0.73,0.462,1.5.9,2.255,1.414a7.365,7.365,0,0,1,1.025.761,6.916,6.916,0,0,1,1.127,1.632,1.5,1.5,0,0,0,.916.18c0.727-.262,1.183-1.33,1.563-1.022,0.362,0.291-.28,1.616-0.459,1.806a5.339,5.339,0,0,1-1.341.532c-0.388.181-.248,0.365-0.2,0.533a0.542,0.542,0,0,0,.036.473c0.024,0.044.048,0.09,0.064,0.128a1.847,1.847,0,0,0,.141.2,1.7,1.7,0,0,1,.089.159,1.206,1.206,0,0,0,.116.168c0.084,0.128,1.628,1.425,1.283,1.873a0.671,0.671,0,0,1-.584-0.078,7.675,7.675,0,0,1-1.117-.489,2.838,2.838,0,0,1-.959-0.8c-0.059-.087-0.279-0.439-0.328-0.526-0.087-.155-0.112-0.253-0.2-0.38-0.309-.457-0.161-1.14-0.543-1.159a1.358,1.358,0,0,0-1.273.92,0.892,0.892,0,0,1-.917.773,1.521,1.521,0,0,1-1.054-.489c-0.222-.18-0.819-0.617-1.116-0.338s-0.4-.4-0.461-0.565c-0.073-.186.413-0.229,0.487-0.549,0.057-.241.022-0.176-0.3-0.476a1.53,1.53,0,0,1-.46-0.458,2.594,2.594,0,0,0-.1-0.326c-0.1-.107-0.259-0.2-0.41-0.326-0.216-.187-0.424-0.3-0.717-0.544a2.609,2.609,0,0,0-.493-0.255c-0.663-.38-1.306-0.247-1.707-0.788-0.064-.085-0.216-0.825-0.289-0.917a0.238,0.238,0,0,1,.018-0.319,0.628,0.628,0,0,0-.091-0.582c-0.237-.495-1.4-0.7-1.325-1.2a7.034,7.034,0,0,1,.972-0.53,1.98,1.98,0,0,1,.727.009h0Zm-21.023,5.4c0.854-.394,1.5.415,2.153,0.544s1.666-.159,2.153,0a3.634,3.634,0,0,1,1.379.65,1.923,1.923,0,0,0,1.253.566c0.2,0.023.287,0.152,0.516,0.177,0.432,0.047.692-.34,1.193-0.288,0.376,0.04,1.316.5,1.711,0.538,0.78,0.081.5-.406,1.256-0.329,0.556,0.058.46,0.371,0.935,0.427a12.55,12.55,0,0,0,1.791.163c0.977,0.014.854,0.105,2.124,0.2,0.076,0.007.025,0.163-.028,0.251a9.02,9.02,0,0,1-1.673.753,10.722,10.722,0,0,1-1.5.776c-0.387.011,0.136-.489,0-0.738a0.994,0.994,0,0,0-.752-0.327c-0.821.481-.672,0.147-1.41,0.162-0.336.007-.659-0.269-0.961-0.266-0.638,0-1.441.234-1.776,0.194a6.749,6.749,0,0,0-1.021-.459c-0.357-.087-1.07.088-1.522-0.022-0.866-.211-0.954-0.341-1.306-0.4a14.088,14.088,0,0,1-2.152-.435c-0.213-.068-0.371-0.2-0.512-0.217-0.929-.139-1.726.242-2.358-0.424a1.338,1.338,0,0,1-.565-0.712,1.4,1.4,0,0,1,.975-0.788A0.4,0.4,0,0,0,182.471,78.8Zm36.065,26.479a5.381,5.381,0,0,1-1.376,1.3,6.01,6.01,0,0,0-1.725,1.235c-0.566.7-1.419,1.406-1.939,2.044-0.18.221-1.777,1.339-2.338,1.075a3.475,3.475,0,0,1-.309-0.436,2.164,2.164,0,0,1,.882-1.739c0.266-.226.559-0.441,0.819-0.656,0.292-.224,1.006-0.369,1.17-0.543,0.217-.231,1.52-2.316,1.528-2.328a2.371,2.371,0,0,1,.206-0.216,8.5,8.5,0,0,0,1.136-1.238s-0.033-1.509.343-1.639c0.549-.19,1.553,1.762,1.843,1.949A1.411,1.411,0,0,1,218.536,105.283Zm-5.844-5a7.7,7.7,0,0,1-.309.76,7.878,7.878,0,0,1-.2.763c-0.068.128-.362,0.3-0.41,0.435a6.81,6.81,0,0,1-1.232,1.523,15.735,15.735,0,0,0-1.443,2.392,6.845,6.845,0,0,1-.687,1.195c-0.032.032-.182,0.145-0.308,0.269-0.088.307-1.4,0.6-1.956,0.911a5.275,5.275,0,0,0-.852,1.491,0.693,0.693,0,0,1-.226.764,7.475,7.475,0,0,1-.77.735,2.523,2.523,0,0,1-.977.2,0.712,0.712,0,0,1-.219-0.772c0.153-.556-0.237-1.356.2-1.314,1.213,0.117,1.076-.623,1.095-1.135-0.269-.06-0.559-0.154-0.719-0.168a4.954,4.954,0,0,1-1.843-.108,1.907,1.907,0,0,1-.617-0.544c-0.285-.316-0.075-0.883-0.2-1.631a5.9,5.9,0,0,0-.41-0.979c-0.11-.282.013-0.456-0.1-0.653a1.829,1.829,0,0,0-.309-0.327c-0.239-.083-0.641.487-1.228,0.436-0.813-.072-1.293-1.25-2.05-1.524a5.222,5.222,0,0,0-.923-0.107c-1.537-.058-3.088.7-4.509,1.087-0.2.054-.491,0.048-0.719,0.108-0.786.214-1.484,0.51-2.46,0.763-0.445.114-.9,0.214-1.331,0.324-0.244.063-.52,0.041-0.719,0.109a4.2,4.2,0,0,1-1.845.544,1.981,1.981,0,0,1-.92-0.76,1.339,1.339,0,0,1,.407-0.98,3.651,3.651,0,0,0,.513-0.76,4.038,4.038,0,0,0,.1-0.763c0.068-.931-0.292-1.871-0.308-2.827-0.011-.641.244-1.474,0.308-2.394a12.8,12.8,0,0,1,.1-2.5,2.768,2.768,0,0,1,.717-0.98A7.042,7.042,0,0,1,186.861,93a15.642,15.642,0,0,1,2.564-1.2,5.562,5.562,0,0,0,1.331-.436,4.909,4.909,0,0,0,1.642-1.851,2.035,2.035,0,0,1,.1-0.324c0.1-.12.383-0.137,0.614-0.327a8.552,8.552,0,0,0,1.025-1.3,17.56,17.56,0,0,0,1.231-1.307A1.942,1.942,0,0,1,196.4,85.6a1.552,1.552,0,0,1,.923.328,1.823,1.823,0,0,0,.716.432c0.593-.056.7-0.91,1.025-1.522a1.661,1.661,0,0,1,.206-0.217,3.511,3.511,0,0,1,.92-0.98,5.93,5.93,0,0,1,.821-0.324,3.508,3.508,0,0,1,.821-0.219c0.647-.088,1.623-0.005,1.843.763,0.139,0.472-.451,1.158-0.408,1.955a2.814,2.814,0,0,0,1.127,1.85c0.21,0.176.52,0.242,0.716,0.436a1.386,1.386,0,0,0,1.025.652c0.652-.06,1.057-1.065,1.231-1.739,0.242-.945.233-1.221,0.512-2.5,0.151-.694,0-1.964.475-2.015a3.282,3.282,0,0,1,.344.544A4.45,4.45,0,0,1,209,84.08a3.438,3.438,0,0,0,.719,1.851,5,5,0,0,1,.41.76c0.288,1.11-.153,1.913,0,2.938a5.735,5.735,0,0,0,.717,1.52c0.123,0.259.179,0.518,0.308,0.763a30.02,30.02,0,0,1,1.127,2.827,12.114,12.114,0,0,1,.821,2.067,11.949,11.949,0,0,1-.41,3.482c-0.062.242,0.176-.7,0,0-0.062.242,0.176-.7,0,0-0.062.242,0.176-.7,0,0-0.062.242,0.176-.7,0,0C212.63,100.53,212.868,99.588,212.692,100.288ZM77.134,83.089a6.994,6.994,0,0,1-.41.977s-0.1.2-.1,0.219a1.67,1.67,0,0,0-.2,0c-0.067.094-.038,0.236-0.1,0.327-0.362.5-.832,1.027-1.229,1.631-0.247.373-.475,0.783-0.719,1.2a7.838,7.838,0,0,0-.716,1.2,15.471,15.471,0,0,0,0,2.611,18.6,18.6,0,0,1-.206,2.177c-0.049.291-.247,0.575-0.306,0.868a10.5,10.5,0,0,1-.207,1.415c-0.1.308-.44,0.84-0.615,1.2a7.441,7.441,0,0,1-.614,1.2c-0.03.036-.172-0.034-0.2,0s0.032,0.188,0,.219c-0.078.071-.222,0.034-0.308,0.108a2.78,2.78,0,0,1-.41.435,5.345,5.345,0,0,1-1.025-.108A7.3,7.3,0,0,0,67.7,99.841a5.534,5.534,0,0,0-.923.652,2.15,2.15,0,0,0-.716.87c-0.142.542,0.094,1.658,0,2.392a9.425,9.425,0,0,1-.821,2.175c-0.233.53-.453,1.033-0.719,1.523a25.541,25.541,0,0,1-1.435,2.286,2.4,2.4,0,0,1-1.537,1.3c-0.421.027-1.573-.836-1.948-0.434-0.4.434,0.611,0.99,0.821,1.306a2.945,2.945,0,0,1,.207,2.067,2.169,2.169,0,0,1-.207.108,2.473,2.473,0,0,1-2.049,1.088,5.715,5.715,0,0,0-.821.108,3.281,3.281,0,0,0-.513.544c-0.265.578,0.154,1.036-.2,1.415a0.742,0.742,0,0,1-.411.216,2.684,2.684,0,0,0-.41-0.108,0.9,0.9,0,0,0-.717.327c-0.083.217,0.04,0.179,0.2,0.436a2.114,2.114,0,0,1,.513,1.956c-0.051.273-.043,0.574-0.1,0.762a3.352,3.352,0,0,0-.614,1.416c0.038,0.822,1.282,1.469,1.331,2.39a3.662,3.662,0,0,1-.408,1.2,4.771,4.771,0,0,0-.41,1.087,10.919,10.919,0,0,0,.2,1.238,20.717,20.717,0,0,0,1.443,1.591,28.071,28.071,0,0,1,2.87,1.576,0.124,0.124,0,0,1-.075.192,4.569,4.569,0,0,0-1.221.094,1.685,1.685,0,0,1-1.676-.121,3.084,3.084,0,0,1-.719-0.217c-1.114-.928-0.561-1.415-1.66-1.964a3.274,3.274,0,0,1-1.824-.647,11.582,11.582,0,0,1-1.741-2.175,5.69,5.69,0,0,1-.719-1.306c-0.054-.157-0.029-0.373-0.1-0.545-0.483-1.143-1.191-1.3-.818-2.61a2.15,2.15,0,0,0,.2-0.652,3.3,3.3,0,0,0-.1-0.871c-0.051-.174-0.239-0.342-0.309-0.544a13.274,13.274,0,0,0-.41-1.3c-0.432-.877-1.336-1.245-1.537-2.067-0.1-.393.062-0.934,0-1.415a16.589,16.589,0,0,0-.513-1.74,11.9,11.9,0,0,1,.207-1.851,17.291,17.291,0,0,0,0-2.174c-0.1-1.657-.6-3.266-0.719-4.894-0.081-1.125.078-2.283,0-3.373-0.038-.525-0.212-1.023-0.2-1.524a10.593,10.593,0,0,1,.306-1.631,5.97,5.97,0,0,0-.819-3.479A7.358,7.358,0,0,0,44.744,93.2a3.424,3.424,0,0,0-.306-0.325c-0.11-.088-0.282-0.108-0.41-0.219-0.2-.176-0.308-0.5-0.513-0.652s-0.483-.181-0.719-0.327c-0.177-.108-0.333-0.33-0.512-0.435a6.162,6.162,0,0,1-1.229-.652A9.619,9.619,0,0,1,39.722,88.2a0.5,0.5,0,0,0-.1-0.219c-0.083-.091-0.075-0.336-0.2-0.543-0.059-.091-0.255-0.128-0.308-0.217-0.132-.214-0.188-0.566-0.309-0.763-0.287-.467-0.611-0.817-0.818-1.2-0.45-.826-0.722-1.965-1.334-2.938-0.928-1.472-2.036-1.945-1.333-3.479a2.344,2.344,0,0,0,.411-0.871,2.829,2.829,0,0,0-.1-0.979,1.061,1.061,0,0,1-.207-0.325,1.814,1.814,0,0,1,.309-1.307,6.805,6.805,0,0,1,.309-0.76c0.11-.171.364-0.344,0.512-0.544A15.973,15.973,0,0,0,37.775,72.1c0.121-.228.185-0.524,0.309-0.763a5.527,5.527,0,0,0,.41-0.652,4.036,4.036,0,0,0,.1-2.175c-0.1-.371-0.3-0.678-0.411-1.088-0.191-.68-0.335-1.281.411-1.523a3.018,3.018,0,0,0,.716-0.108,5.384,5.384,0,0,0,1.025-1.088c0.174-.194.346-0.338,0.512-0.543a3.23,3.23,0,0,1,.618-0.655c0.485-.35,1.075-0.518,1.435-0.76a0.5,0.5,0,0,1,.2-0.108c0.448-.068.6-0.182,0.821,0.108a0.457,0.457,0,0,1,.1.324c-0.024,0-1.049,2.1.2,1.634,0.338-.128.151-0.256,0.207-0.543a1.756,1.756,0,0,1,.818-1.415c0.035-.014.51-0.108,0.512-0.108,0.628,0.04,1.076.746,1.642,1.087,0.078,0.045.226-.04,0.306,0,0.046,0.023.07,0.2,0.1,0.217,0.088,0.04.376,0.045,0.614,0.111a8.407,8.407,0,0,0,1.639.433c0.372,0.016.815-.148,1.231-0.109a3.668,3.668,0,0,1,.614.219,1.825,1.825,0,0,1,.923.433c0.1,0.085.2,0.136,0.306,0.219,0.126,0.1.279,0.105,0.41,0.216,0.18,0.15.346,0.327,0.614,0.543,0.035,0.028.072,0.205,0.1,0.219a2.886,2.886,0,0,1,.717.544,17.551,17.551,0,0,0,1.743,1.631,3.054,3.054,0,0,0,.615.435c0.88,0.293,2.318-.125,2.972.325a6.6,6.6,0,0,1,.821.544,6.384,6.384,0,0,1,.408.544,5.029,5.029,0,0,1,.41.435,5.507,5.507,0,0,1,.1.763c0.056,0.194.241,0.37,0.308,0.544a4.823,4.823,0,0,1,.411,1.2,2.379,2.379,0,0,1-.207.871,1.74,1.74,0,0,0-.2.868,1.012,1.012,0,0,0,.821.108,1,1,0,0,1,.923.435,0.983,0.983,0,0,0,.408.871c0.6,0.248,1.237-.544,2.052-0.436a1.908,1.908,0,0,1,.818.436c0.418,0.293.475,1.361,1.025,1.523a4.535,4.535,0,0,0,1.13-.327,6.312,6.312,0,0,1,3.484.763c0.59,0.37,1.086,1.323,1.843,1.631a4.724,4.724,0,0,1,1.537.652A2.394,2.394,0,0,1,77.134,83.089Z"
        transform="translate(-0.313)"/>
</svg>
