<svg xmlns="http://www.w3.org/2000/svg" width="35.905" height="36.203" viewBox="0 0 71.81 72.406">
  <metadata><?xpacket begin="﻿" id="W5M0MpCehiHzreSzNTczkc9d"?>
<x:xmpmeta xmlns:x="adobe:ns:meta/" x:xmptk="Adobe XMP Core 5.6-c138 79.159824, 2016/09/14-01:09:01        ">
   <rdf:RDF xmlns:rdf="http://www.w3.org/1999/02/22-rdf-syntax-ns#">
      <rdf:Description rdf:about=""/>
   </rdf:RDF>
</x:xmpmeta>
                                                                                                    
                                                                                                    
                                                                                                    
                                                                                                    
                                                                                                    
                                                                                                    
                                                                                                    
                                                                                                    
                                                                                                    
                                                                                                    
                                                                                                    
                                                                                                    
                                                                                                    
                                                                                                    
                                                                                                    
                                                                                                    
                                                                                                    
                                                                                                    
                                                                                                    
                                                                                                    
                           
<?xpacket end="w"?></metadata>
<defs>
    <style>
      .cls-1 {
        fill: #fff;
        fill-rule: evenodd;
      }
    </style>
  </defs>
  <path id="_" data-name="+" class="cls-1" d="M5251.96,611.109h26.68V638.3a4.26,4.26,0,0,0,1.45,3.281,5.516,5.516,0,0,0,7.18,0,4.294,4.294,0,0,0,1.45-3.281V611.109h26.6a4.009,4.009,0,0,0,3-1.3,4.356,4.356,0,0,0,1.26-3.157,4.5,4.5,0,0,0-1.26-3.2,3.959,3.959,0,0,0-3-1.335h-26.6V575.049a4.235,4.235,0,0,0-1.45-3.249,5.555,5.555,0,0,0-7.18,0,4.2,4.2,0,0,0-1.45,3.249v27.076h-26.68a3.862,3.862,0,0,0-2.96,1.335,4.6,4.6,0,0,0-1.22,3.2,4.446,4.446,0,0,0,1.22,3.157,3.909,3.909,0,0,0,2.96,1.3h0Z" transform="translate(-5247.78 -570.5)"/>
</svg>
