<svg xmlns="http://www.w3.org/2000/svg" xmlns:xlink="http://www.w3.org/1999/xlink" width="46" height="46" viewBox="0 0 46 46"><defs><path id="a" d="M864 95a22 22 0 1 1 0 44 22 22 0 0 1 0-44z"/><path id="c" d="M865.26 117.03l8.47-8.5a.88.88 0 0 0 0-1.28.87.87 0 0 0-1.28 0l-8.46 8.5-8.47-8.5a.88.88 0 0 0-1.27 0 .89.89 0 0 0 0 1.28l8.46 8.5-8.46 8.5a.89.89 0 0 0 0 1.29c.18.18.54.18.72.18.19 0 .55 0 .55-.18l8.47-8.5 8.46 8.5c.18.18.55.18.73.18.18 0 .55 0 .55-.18a.89.89 0 0 0 0-1.28z"/><clipPath id="b"><use fill="#fff" xlink:href="#a"/></clipPath></defs><g transform="translate(-841 -94)"><use fill="#394450" xlink:href="#a"/><use fill="#fff" fill-opacity="0" stroke="#fff" stroke-linecap="round" stroke-linejoin="round" stroke-miterlimit="50" stroke-width="4" clip-path="url(&quot;#b&quot;)" xlink:href="#a"/></g><g transform="translate(-841 -94)"><use fill="#fff" xlink:href="#c"/></g></svg>