<svg xmlns="http://www.w3.org/2000/svg" width="48" height="48" viewBox="0 0 48 48">
  <defs>
    <style>
      .cls-1 {
        fill: #e0e7ef;
        fill-rule: evenodd;
      }
    </style>
  </defs>
  <path class="cls-1" d="M38,0H10A10.029,10.029,0,0,0,0,10V38A10.029,10.029,0,0,0,10,48H38A10.029,10.029,0,0,0,48,38V10A10.029,10.029,0,0,0,38,0ZM36.5,17.5v0.9a18.208,18.208,0,0,1-.8,5.2,17.527,17.527,0,0,1-2.3,5,18.77,18.77,0,0,1-3.7,4.3,15.3,15.3,0,0,1-5.1,2.9,20.02,20.02,0,0,1-6.4,1.1A18.43,18.43,0,0,1,8.3,34a8.083,8.083,0,0,0,1.6.1,12.4,12.4,0,0,0,8-2.8A5.941,5.941,0,0,1,14.2,30a6.179,6.179,0,0,1-2.3-3.2,4.869,4.869,0,0,0,1.2.1,9.852,9.852,0,0,0,1.7-.2,6.537,6.537,0,0,1-5.2-6.4V20.2a6.026,6.026,0,0,0,2.9.8,6.6,6.6,0,0,1-2-8.7,18.351,18.351,0,0,0,5.9,4.8,17.392,17.392,0,0,0,7.4,2,7.719,7.719,0,0,1-.2-1.5A6.191,6.191,0,0,1,25.5,13l0.2-.2a6.345,6.345,0,0,1,9,.4,12.949,12.949,0,0,0,4.1-1.6A6.732,6.732,0,0,1,36,15.2a11.956,11.956,0,0,0,3.7-1A16.683,16.683,0,0,1,36.5,17.5Z"/>
</svg>
