<svg xmlns="http://www.w3.org/2000/svg" width="48" height="35" viewBox="0 0 48 35">
  <defs>
    <style>
      .cls-1 {
        fill: #ffffff;
        fill-rule: evenodd;
      }
    </style>
  </defs>
  <path id="video-camera" class="cls-1" d="M46.947,8.02a1.833,1.833,0,0,0-.67-0.137,1.578,1.578,0,0,0-1.205.519L34.277,19.389V14.88a7.66,7.66,0,0,0-2.263-5.562,7.358,7.358,0,0,0-5.451-2.309H7.706A7.357,7.357,0,0,0,2.255,9.318,7.659,7.659,0,0,0-.009,14.88V34.12a7.657,7.657,0,0,0,2.263,5.562,7.355,7.355,0,0,0,5.451,2.309H26.563a7.356,7.356,0,0,0,5.451-2.309,7.659,7.659,0,0,0,2.263-5.562V29.583L45.072,40.6a1.576,1.576,0,0,0,1.205.519,1.824,1.824,0,0,0,.67-0.137,1.634,1.634,0,0,0,1.045-1.612V9.632A1.635,1.635,0,0,0,46.947,8.02h0Z" transform="translate(0 -7)"/>
</svg>
