<svg xmlns="http://www.w3.org/2000/svg" width="74" height="74" viewBox="0 0 74 74">
  <metadata><?xpacket begin="﻿" id="W5M0MpCehiHzreSzNTczkc9d"?>
<x:xmpmeta xmlns:x="adobe:ns:meta/" x:xmptk="Adobe XMP Core 5.6-c138 79.159824, 2016/09/14-01:09:01        ">
   <rdf:RDF xmlns:rdf="http://www.w3.org/1999/02/22-rdf-syntax-ns#">
      <rdf:Description rdf:about=""/>
   </rdf:RDF>
</x:xmpmeta>
                                                                                                    
                                                                                                    
                                                                                                    
                                                                                                    
                                                                                                    
                                                                                                    
                                                                                                    
                                                                                                    
                                                                                                    
                                                                                                    
                                                                                                    
                                                                                                    
                                                                                                    
                                                                                                    
                                                                                                    
                                                                                                    
                                                                                                    
                                                                                                    
                                                                                                    
                                                                                                    
                           
<?xpacket end="w"?></metadata>
<defs>
    <style>
      .cls-1 {
        fill: #ffce00;
        fill-rule: evenodd;
      }
    </style>
  </defs>
  <path id="backers_icon" data-name="backers icon" class="cls-1" d="M258.761,4918a7.31,7.31,0,1,1-7.3,7.31A7.3,7.3,0,0,1,258.761,4918Zm-8.141,40.23h0.723v14.5a3.631,3.631,0,0,0,3.619,3.62h7.6a3.63,3.63,0,0,0,3.619-3.62v-0.85a9.188,9.188,0,0,1-1.086-4.23v-18.96a9.042,9.042,0,0,1,5.428-8.28v-1.45a3.63,3.63,0,0,0-3.618-3.62H250.62a3.631,3.631,0,0,0-3.619,3.62v15.65A3.592,3.592,0,0,0,250.62,4958.23ZM309.3,4918a7.31,7.31,0,1,1-7.3,7.31A7.3,7.3,0,0,1,309.3,4918Zm-11.821,20.9v1.45a9.041,9.041,0,0,1,5.428,8.28v18.9a8.506,8.506,0,0,1-1.085,4.23v0.85a3.63,3.63,0,0,0,3.618,3.62h7.6a3.63,3.63,0,0,0,3.618-3.62v-14.5h0.724a3.63,3.63,0,0,0,3.618-3.62V4938.9a3.63,3.63,0,0,0-3.618-3.62H301.1A3.631,3.631,0,0,0,297.478,4938.9Zm-26.9,9.79h0v18.96a3.633,3.633,0,0,0,3.619,3.63h1.387v17.09a3.632,3.632,0,0,0,3.618,3.63h9.71a3.632,3.632,0,0,0,3.618-3.63v-17.15h1.387a3.633,3.633,0,0,0,3.619-3.63v-18.9h0a3.633,3.633,0,0,0-3.619-3.63H274.2A3.594,3.594,0,0,0,270.581,4948.69Zm13.449-23.44a8.4,8.4,0,1,1-8.383,8.4A8.391,8.391,0,0,1,284.03,4925.25Z" transform="translate(-247 -4918)"/>
</svg>
