<svg xmlns="http://www.w3.org/2000/svg" width="240" height="60" viewBox="0 0 240 60">
  <metadata><?xpacket begin="﻿" id="W5M0MpCehiHzreSzNTczkc9d"?>
<x:xmpmeta xmlns:x="adobe:ns:meta/" x:xmptk="Adobe XMP Core 5.6-c138 79.159824, 2016/09/14-01:09:01        ">
   <rdf:RDF xmlns:rdf="http://www.w3.org/1999/02/22-rdf-syntax-ns#">
      <rdf:Description rdf:about=""/>
   </rdf:RDF>
</x:xmpmeta>
                                                                                                    
                                                                                                    
                                                                                                    
                                                                                                    
                                                                                                    
                                                                                                    
                                                                                                    
                                                                                                    
                                                                                                    
                                                                                                    
                                                                                                    
                                                                                                    
                                                                                                    
                                                                                                    
                                                                                                    
                                                                                                    
                                                                                                    
                                                                                                    
                                                                                                    
                                                                                                    
                           
<?xpacket end="w"?></metadata>
<defs>
    <style>
      .cls-1 {
        fill: #364552;
        fill-rule: evenodd;
      }
    </style>
  </defs>
  <path id="creative-commons" class="cls-1" d="M314.668,6506.71c-2.185-4.17-5.912-5.82-10.239-5.82-6.3,0-11.309,4.66-11.309,12.55,0,8.03,4.712,12.56,11.523,12.56a11.522,11.522,0,0,0,10.153-6.33l-4.8-2.55c-1.071,2.69-2.7,3.5-4.754,3.5-3.556,0-5.184-3.1-5.184-7.18s1.371-7.17,5.184-7.17c1.027,0,3.083.58,4.282,3.27l5.142-2.83m12.247-5.82c-7.111,0-12.123,4.52-12.123,12.55S319.8,6526,326.915,6526s12.123-4.53,12.123-12.56-5.012-12.55-12.123-12.55m0,5.38c3.812,0,5.44,3.09,5.44,6.9,0,4.35-1.628,7.45-5.44,7.45s-5.44-3.1-5.44-7.18S323.1,6506.27,326.915,6506.27Zm13.492,19.1h6.683v-14.84c0-2.16.856-3.99,3.555-3.99,2.571,0,3.256,1.56,3.256,3.9v14.93h6.683V6510.7c0-2.42,1.156-4.16,3.384-4.16,2.527,0,3.427,1.52,3.427,4.88v13.95h6.683v-18.21c0-5.47-4.8-6.27-7.026-6.27a9.561,9.561,0,0,0-7.325,3.18,6.957,6.957,0,0,0-6.04-3.18,8.537,8.537,0,0,0-6.6,2.73v-2.11h-6.683v23.86m35.808,0H382.9v-14.84c0-2.16.857-3.99,3.555-3.99,2.571,0,3.256,1.56,3.256,3.9v14.93h6.683V6510.7c0-2.42,1.157-4.16,3.384-4.16,2.528,0,3.427,1.52,3.427,4.88v13.95h6.683v-18.21c0-5.47-4.8-6.27-7.026-6.27a9.559,9.559,0,0,0-7.324,3.18,6.957,6.957,0,0,0-6.041-3.18,8.539,8.539,0,0,0-6.6,2.73v-2.11h-6.682v23.86m47.16-24.48c-7.111,0-12.123,4.52-12.123,12.55s5.012,12.56,12.123,12.56,12.123-4.53,12.123-12.56-5.012-12.55-12.123-12.55m0,5.38c3.812,0,5.44,3.09,5.44,6.9,0,4.35-1.628,7.45-5.44,7.45s-5.441-3.1-5.441-7.18S419.562,6506.27,423.375,6506.27Zm13.92,19.1h6.683v-14.84c0-2.16.857-3.99,3.556-3.99,2.569,0,3.254,1.56,3.254,3.9v14.93h6.684v-17.62c0-3.59-1.5-6.86-6.9-6.86a8.536,8.536,0,0,0-6.6,2.73v-2.11H437.3v23.86m42.491-21.03a17.772,17.772,0,0,0-10.066-3.45c-4.628,0-9.639,2.33-9.639,8.34,0,8.47,13.493,5.51,13.493,9.23,0,2.16-2.526,2.42-3.641,2.42-3.042,0-5.14-1.3-7.2-3.36l-4.155,3.77c3.342,3.23,6.168,4.71,11.139,4.71s10.28-2.25,10.28-8.52c0-8.93-13.493-5.56-13.493-9.65,0-1.21,1.2-1.83,2.869-1.83,2.1,0,4.97.89,6.3,2.55l4.113-4.21m-165.118-25.07c-2.185-4.17-5.912-5.83-10.239-5.83-6.3,0-11.309,4.66-11.309,12.56,0,8.02,4.712,12.55,11.523,12.55a11.531,11.531,0,0,0,10.153-6.32l-4.8-2.56c-1.071,2.69-2.7,3.5-4.754,3.5-3.556,0-5.184-3.09-5.184-7.17s1.371-7.18,5.184-7.18c1.027,0,3.083.58,4.282,3.28l5.142-2.83m1.63,18.65h6.682v-13.81c0-2.64,1.586-3.36,5.569-3.85l0.728-.09-0.042-6.19a10.333,10.333,0,0,0-6.255,2.51v-2.42H316.3v23.85m19.911-14.79a4.7,4.7,0,0,1,4.54-4.58c1.928,0,4.326,1.08,4.54,4.58h-9.08m15.764,4.3c-0.043-7.35-2.87-13.99-11.181-13.99-6.939,0-11.18,4.84-11.18,13.27,0,6.73,4.112,11.84,11.18,11.84,5.1,0,8.738-2.11,11.052-6.59l-5.012-2.74c-1.928,2.87-3.085,4.22-5.569,4.22-2.141,0-4.926-1.44-4.969-6.01h15.679Zm21.754-7.08c-0.043-5.38-3.941-6.91-10.152-6.91-3.085,0-9.167.63-9.382,7.49h6.426c0.343-2.38,1.37-3.18,3.513-3.18,1.8,0,3.17.76,3.17,2.55v1.97l-2.442.36c-7.282,1.08-11.695,3.1-11.695,8.84,0,4.57,3.256,7.08,7.625,7.08,2.4,0,5.741-1.21,6.854-3.09h0.086a9.9,9.9,0,0,0,.428,2.46h6.169a14.643,14.643,0,0,1-.6-4.97v-12.6m-6.425,7.62c0,3.63-1.97,5.47-4.584,5.47-1.627,0-3.127-.81-3.127-2.69,0-1.93,1.542-2.6,3.212-3.09l4.5-1.35v1.66Zm22.14-13.45h-3.984v-6.91h-6.683v6.91h-3.256v4.3h3.256v12.56c0,3.45.814,7.17,6.512,7.17,1.456,0,3.427-.18,4.284-0.27v-5.51c-0.344.04-1.285,0.13-2.013,0.13-1.2,0-2.1-.49-2.1-2.38v-11.7h3.984v-4.3m2.517-3.14h6.683V6466h-6.683v5.38Zm0,26.54h6.683v-23.85h-6.683v23.85Zm15.676,0h6.725l7.8-23.85h-7.111l-3.941,16.86H411.02l-3.942-16.86h-7.154l7.711,23.85m20.339-14.79a4.7,4.7,0,0,1,4.54-4.58c1.928,0,4.327,1.08,4.542,4.58h-9.082m15.764,4.3c-0.043-7.35-2.87-13.99-11.181-13.99-6.94,0-11.18,4.84-11.18,13.27,0,6.73,4.111,11.84,11.18,11.84,5.1,0,8.739-2.11,11.052-6.59l-5.012-2.74c-1.928,2.87-3.085,4.22-5.568,4.22-2.143,0-4.927-1.44-4.97-6.01h15.679ZM265.1,6477.79a19.771,19.771,0,0,1,14.577,6.33,21.677,21.677,0,0,1,5.913,15.19,21.021,21.021,0,0,1-5.844,15.04,20.378,20.378,0,0,1-14.646,6.41,19.807,19.807,0,0,1-14.439-6.33,21.926,21.926,0,0,1-6.12-15.12,22.244,22.244,0,0,1,6.12-15.26,19.3,19.3,0,0,1,14.439-6.26m-0.068-4.75a23.594,23.594,0,0,0-17.6,7.63A27.088,27.088,0,0,0,240,6499.31a26.438,26.438,0,0,0,7.356,18.5,24.285,24.285,0,0,0,17.672,7.77,24.919,24.919,0,0,0,17.946-7.84,25.944,25.944,0,0,0,7.15-18.43,26.415,26.415,0,0,0-7.219-18.57A24.215,24.215,0,0,0,265.028,6473.04Zm-0.255,21.91a6.98,6.98,0,0,0-6.644-3.79c-4.087,0-7.339,3.03-7.339,8.15,0,5.21,3.058,8.15,7.478,8.15a7.489,7.489,0,0,0,6.589-4.1l-3.114-1.66a3.061,3.061,0,0,1-3.086,2.27c-2.308,0-3.363-2.01-3.363-4.66s0.889-4.66,3.363-4.66a3.183,3.183,0,0,1,2.78,2.13l3.336-1.83m14.478,0a6.98,6.98,0,0,0-6.644-3.79c-4.087,0-7.339,3.03-7.339,8.15,0,5.21,3.057,8.15,7.477,8.15a7.487,7.487,0,0,0,6.589-4.1l-3.113-1.66a3.06,3.06,0,0,1-3.086,2.27c-2.307,0-3.364-2.01-3.364-4.66s0.89-4.66,3.364-4.66a3.183,3.183,0,0,1,2.78,2.13l3.336-1.83" transform="translate(-240 -6466)"/>
</svg>
