<svg xmlns="http://www.w3.org/2000/svg" width="76" height="68" viewBox="0 0 76 68">
  <metadata><?xpacket begin="﻿" id="W5M0MpCehiHzreSzNTczkc9d"?>
<x:xmpmeta xmlns:x="adobe:ns:meta/" x:xmptk="Adobe XMP Core 5.6-c138 79.159824, 2016/09/14-01:09:01        ">
   <rdf:RDF xmlns:rdf="http://www.w3.org/1999/02/22-rdf-syntax-ns#">
      <rdf:Description rdf:about=""/>
   </rdf:RDF>
</x:xmpmeta>
                                                                                                    
                                                                                                    
                                                                                                    
                                                                                                    
                                                                                                    
                                                                                                    
                                                                                                    
                                                                                                    
                                                                                                    
                                                                                                    
                                                                                                    
                                                                                                    
                                                                                                    
                                                                                                    
                                                                                                    
                                                                                                    
                                                                                                    
                                                                                                    
                                                                                                    
                                                                                                    
                           
<?xpacket end="w"?></metadata>
<defs>
    <style>
      .cls-1 {
        fill: #ffce00;
        fill-rule: evenodd;
      }
    </style>
  </defs>
  <path id="donate_time" data-name="donate time" class="cls-1" d="M312.916,3661.17a50.185,50.185,0,0,1-16.013,5.59c-5.215.84-15.026-1.18-15.026-3.57,0-.9,8.605,2.23,13.81.81,3.991-1.09,3.424-4.92,1.253-5.42s-14.8-5.25-20.2-5.42c-2.544-.07-8.826.91-11.865,1.42-1.042.17-1.694,0.15-1.76,1.17-0.3,4.75-.9,14.45-1.223,19.52-0.007.11,0.138,1.55,1.3,0.54,1.27-1.11,3.05-2.34,4.7-1.96,2.584,0.6,24.939,4.8,28.022,4.06,4.412-1.05,16.9-8.63,19.293-10.99C318.909,3663.27,316.024,3659.41,312.916,3661.17Zm-55.973-6.78-11.711-.59a2.12,2.12,0,0,0-2.053,1.55l-2.129,19.81a1.3,1.3,0,0,0,1.236,1.7h12.979a1.74,1.74,0,0,0,1.771-1.61l1.425-19.09A1.628,1.628,0,0,0,256.943,3654.39Zm-6.895,19.85a3.321,3.321,0,1,1,3.238-3.32A3.282,3.282,0,0,1,250.048,3674.24ZM296.5,3610a20.5,20.5,0,1,0,20.5,20.5A20.526,20.526,0,0,0,296.5,3610Zm0,36.64a16.14,16.14,0,1,1,16.139-16.14A16.158,16.158,0,0,1,296.5,3646.64Zm10.684-16.77h-9.212v-11.08a1.688,1.688,0,1,0-3.376,0v12.77a1.682,1.682,0,0,0,1.688,1.68h10.9A1.685,1.685,0,1,0,307.184,3629.87Z" transform="translate(-241 -3610)"/>
</svg>
