<svg xmlns="http://www.w3.org/2000/svg" width="80" height="73" viewBox="0 0 80 73">
  <metadata><?xpacket begin="﻿" id="W5M0MpCehiHzreSzNTczkc9d"?>
<x:xmpmeta xmlns:x="adobe:ns:meta/" x:xmptk="Adobe XMP Core 5.6-c138 79.159824, 2016/09/14-01:09:01        ">
   <rdf:RDF xmlns:rdf="http://www.w3.org/1999/02/22-rdf-syntax-ns#">
      <rdf:Description rdf:about=""/>
   </rdf:RDF>
</x:xmpmeta>
                                                                                                    
                                                                                                    
                                                                                                    
                                                                                                    
                                                                                                    
                                                                                                    
                                                                                                    
                                                                                                    
                                                                                                    
                                                                                                    
                                                                                                    
                                                                                                    
                                                                                                    
                                                                                                    
                                                                                                    
                                                                                                    
                                                                                                    
                                                                                                    
                                                                                                    
                                                                                                    
                           
<?xpacket end="w"?></metadata>
<defs>
    <style>
      .cls-1 {
        fill: #ffce00;
        fill-rule: evenodd;
      }
    </style>
  </defs>
  <path id="faq_icon" data-name="faq icon" class="cls-1" d="M2141.21,4940.21c0,2.43-1.77,3.9-3.06,4.99a5.151,5.151,0,0,0-1.39,1.44,1.955,1.955,0,0,1-1.97,1.97h-0.01a1.966,1.966,0,0,1-1.99-1.94c-0.01-2.15,1.55-3.44,2.81-4.5,0.99-.83,1.64-1.42,1.64-1.95a1.96,1.96,0,1,0-3.92,0,1.985,1.985,0,0,1-3.97,0A5.93,5.93,0,1,1,2141.21,4940.21Zm-6.38,10.23a1.953,1.953,0,0,0-1.94,1.99v0.02a1.951,1.951,0,0,0,1.94,1.98A2,2,0,0,0,2134.83,4950.44Zm-39.98,13.85a1.985,1.985,0,0,0,0,3.97h0.17a1.985,1.985,0,0,0,0-3.97h-0.17Zm6.9,0a1.985,1.985,0,1,0,0,3.97h0.16a1.985,1.985,0,0,0,0-3.97h-0.16Zm58.25-31.74v22.36a9.547,9.547,0,0,1-9.52,9.6h-25.73c-0.5,0-.91-0.01-1.26-0.01s-0.77-.01-0.93,0c-0.17.11-.57,0.49-0.97,0.85-0.15.14-.33,0.3-0.52,0.47l-7.27,6.65a2.036,2.036,0,0,1-3.39-1.47v-21.07h-20.77a5.694,5.694,0,0,0-5.67,5.65v22.37a5.6,5.6,0,0,0,5.67,5.54h28.73a2,2,0,0,1,1.32.56l5.93,5.48v-18.88a1.985,1.985,0,1,1,3.97,0v23.38a1.962,1.962,0,0,1-1.17,1.81,1.833,1.833,0,0,1-.79.16,2.038,2.038,0,0,1-1.34-.54l-8.69-7.99h-27.96a9.582,9.582,0,0,1-9.64-9.52v-22.37a9.667,9.667,0,0,1,9.64-9.62h20.77v-13.41a9.633,9.633,0,0,1,9.67-9.55h30.4A9.5,9.5,0,0,1,2160,4932.55Zm-3.97,0a5.531,5.531,0,0,0-5.55-5.58h-30.4a5.653,5.653,0,0,0-5.7,5.58v33.95l3.99-3.61c0.18-.17.39-0.33,0.54-0.47,1.82-1.68,2.29-1.95,4.66-1.9,0.33,0.01.71,0.01,1.18,0.01h25.73a5.566,5.566,0,0,0,5.55-5.62v-22.36h0Z" transform="translate(-2080 -4923)"/>
</svg>
