<svg xmlns="http://www.w3.org/2000/svg" width="54" height="42" viewBox="0 0 54 42">
  <metadata><?xpacket begin="﻿" id="W5M0MpCehiHzreSzNTczkc9d"?>
<x:xmpmeta xmlns:x="adobe:ns:meta/" x:xmptk="Adobe XMP Core 5.6-c138 79.159824, 2016/09/14-01:09:01        ">
   <rdf:RDF xmlns:rdf="http://www.w3.org/1999/02/22-rdf-syntax-ns#">
      <rdf:Description rdf:about=""/>
   </rdf:RDF>
</x:xmpmeta>
                                                                                                    
                                                                                                    
                                                                                                    
                                                                                                    
                                                                                                    
                                                                                                    
                                                                                                    
                                                                                                    
                                                                                                    
                                                                                                    
                                                                                                    
                                                                                                    
                                                                                                    
                                                                                                    
                                                                                                    
                                                                                                    
                                                                                                    
                                                                                                    
                                                                                                    
                                                                                                    
                           
<?xpacket end="w"?></metadata>
<defs>
    <style>
      .cls-1 {
        fill: #364552;
        fill-rule: evenodd;
      }
    </style>
  </defs>
  <path id="gamburger_menu_icon" data-name="gamburger menu icon" class="cls-1" d="M2907.5,40h51a1.5,1.5,0,0,1,1.5,1.5v3a1.5,1.5,0,0,1-1.5,1.5h-51a1.5,1.5,0,0,1-1.5-1.5v-3A1.5,1.5,0,0,1,2907.5,40Zm0,18h51a1.5,1.5,0,0,1,1.5,1.5v3a1.5,1.5,0,0,1-1.5,1.5h-51a1.5,1.5,0,0,1-1.5-1.5v-3A1.5,1.5,0,0,1,2907.5,58Zm0,18h51a1.5,1.5,0,0,1,1.5,1.5v3a1.5,1.5,0,0,1-1.5,1.5h-51a1.5,1.5,0,0,1-1.5-1.5v-3A1.5,1.5,0,0,1,2907.5,76Z" transform="translate(-2906 -40)"/>
</svg>
