<svg id="in" xmlns="http://www.w3.org/2000/svg" width="48" height="48" viewBox="0 0 48 48">
  <metadata><?xpacket begin="﻿" id="W5M0MpCehiHzreSzNTczkc9d"?>
<x:xmpmeta xmlns:x="adobe:ns:meta/" x:xmptk="Adobe XMP Core 5.6-c138 79.159824, 2016/09/14-01:09:01        ">
   <rdf:RDF xmlns:rdf="http://www.w3.org/1999/02/22-rdf-syntax-ns#">
      <rdf:Description rdf:about=""/>
   </rdf:RDF>
</x:xmpmeta>
                                                                                                    
                                                                                                    
                                                                                                    
                                                                                                    
                                                                                                    
                                                                                                    
                                                                                                    
                                                                                                    
                                                                                                    
                                                                                                    
                                                                                                    
                                                                                                    
                                                                                                    
                                                                                                    
                                                                                                    
                                                                                                    
                                                                                                    
                                                                                                    
                                                                                                    
                                                                                                    
                           
<?xpacket end="w"?></metadata>
<defs>
    <style>
      .cls-1 {
        fill: #364552;
      }

      .cls-2 {
        fill: #fff;
        fill-rule: evenodd;
      }
    </style>
  </defs>
  <rect id="body" class="cls-1" width="48" height="48" rx="10" ry="10"/>
  <path id="in-2" data-name="in" class="cls-2" d="M2834.7,6490.51v21.19h6.95v-21.19h-6.95Zm6.31-9.16a3.8,3.8,0,0,0-2.79-1.03,3.911,3.911,0,0,0-2.83,1.03,3.471,3.471,0,0,0-1.09,2.62,3.543,3.543,0,0,0,1.05,2.61,3.779,3.779,0,0,0,2.78,1.05h0.04a3.914,3.914,0,0,0,2.85-1.05,3.412,3.412,0,0,0,1.07-2.61A3.614,3.614,0,0,0,2841.01,6481.35Zm23.43,11.1a7.418,7.418,0,0,0-5.79-2.43,8.213,8.213,0,0,0-2.41.33,5.831,5.831,0,0,0-1.83.93,8.239,8.239,0,0,0-1.19,1.12,8.912,8.912,0,0,0-.86,1.19h0.04v-3.08h-6.92l0.02,1.03q0.015,1.02.02,6.33,0,5.295-.04,13.83h6.92v-11.82a5.311,5.311,0,0,1,.23-1.73,4.449,4.449,0,0,1,1.34-1.83,3.361,3.361,0,0,1,2.22-.74,3,3,0,0,1,2.66,1.27,6.255,6.255,0,0,1,.85,3.52v11.33h6.92v-12.14Q2866.62,6494.88,2864.44,6492.45Z" transform="translate(-2826 -6472)"/>
</svg>
