<svg id="inst" xmlns="http://www.w3.org/2000/svg" width="48" height="48" viewBox="0 0 48 48">
  <metadata><?xpacket begin="﻿" id="W5M0MpCehiHzreSzNTczkc9d"?>
<x:xmpmeta xmlns:x="adobe:ns:meta/" x:xmptk="Adobe XMP Core 5.6-c138 79.159824, 2016/09/14-01:09:01        ">
   <rdf:RDF xmlns:rdf="http://www.w3.org/1999/02/22-rdf-syntax-ns#">
      <rdf:Description rdf:about=""/>
   </rdf:RDF>
</x:xmpmeta>
                                                                                                    
                                                                                                    
                                                                                                    
                                                                                                    
                                                                                                    
                                                                                                    
                                                                                                    
                                                                                                    
                                                                                                    
                                                                                                    
                                                                                                    
                                                                                                    
                                                                                                    
                                                                                                    
                                                                                                    
                                                                                                    
                                                                                                    
                                                                                                    
                                                                                                    
                                                                                                    
                           
<?xpacket end="w"?></metadata>
<defs>
    <style>
      .cls-1 {
        fill: #364552;
      }

      .cls-2 {
        fill: #fff;
        fill-rule: evenodd;
      }
    </style>
  </defs>
  <rect id="body" class="cls-1" width="48" height="48" rx="10" ry="10"/>
  <path id="ins" class="cls-2" d="M2936,6501.23a5.224,5.224,0,1,1,3.7-1.53A5.035,5.035,0,0,1,2936,6501.23Zm0-13.28a8.024,8.024,0,1,0,5.7,2.35A7.766,7.766,0,0,0,2936,6487.95Zm8.38-2.21a1.814,1.814,0,0,0-1.33.56,1.782,1.782,0,0,0-.55,1.32,1.88,1.88,0,1,0,3.76,0,1.782,1.782,0,0,0-.55-1.32A1.814,1.814,0,0,0,2944.38,6485.74Zm-4.66-2.62c0.49,0.01,1.15.03,1.97,0.06a15.952,15.952,0,0,1,2.11.2,8.982,8.982,0,0,1,1.46.38,5.363,5.363,0,0,1,2.98,2.98,8.187,8.187,0,0,1,.38,1.47,17.44,17.44,0,0,1,.21,2.1c0.03,0.82.05,1.48,0.06,1.97v2.16c-0.01.94-.01,1.46-0.01,1.56s0,0.62.01,1.56v2.16c-0.01.49-.03,1.14-0.06,1.97a17.657,17.657,0,0,1-.21,2.1,7.844,7.844,0,0,1-.38,1.46,5.34,5.34,0,0,1-2.98,2.99,8.123,8.123,0,0,1-1.46.37,15.776,15.776,0,0,1-2.11.21c-0.82.03-1.48,0.05-1.97,0.06s-1.21.01-2.16,0-1.47-.01-1.56-0.01-0.62,0-1.57.01-1.66.01-2.15,0-1.15-.03-1.97-0.06a15.776,15.776,0,0,1-2.11-.21,7.908,7.908,0,0,1-1.46-.37,5.4,5.4,0,0,1-2.99-2.99,7.908,7.908,0,0,1-.37-1.46,14.27,14.27,0,0,1-.21-2.1c-0.03-.83-0.05-1.48-0.06-1.97s-0.01-1.21,0-2.16,0.01-1.47.01-1.56,0-.62-0.01-1.56-0.01-1.67,0-2.16,0.03-1.15.06-1.97a14.126,14.126,0,0,1,.21-2.1,8.251,8.251,0,0,1,.37-1.47,5.421,5.421,0,0,1,2.99-2.98,8.715,8.715,0,0,1,1.46-.38,15.952,15.952,0,0,1,2.11-.2c0.82-.03,1.48-0.05,1.97-0.06s1.21-.01,2.15,0,1.47,0.01,1.57.01,0.61,0,1.56-.01S2939.23,6483.11,2939.72,6483.12Zm11.88,6.4a8.706,8.706,0,0,0-9.12-9.11q-1.8-.1-6.48-0.1t-6.48.1a8.706,8.706,0,0,0-9.12,9.11q-0.105,1.8-.1,6.48t0.1,6.48a8.706,8.706,0,0,0,9.12,9.11c1.2,0.06,3.36.1,6.48,0.1s5.28-.04,6.48-0.1a8.706,8.706,0,0,0,9.12-9.11c0.06-1.2.1-3.36,0.1-6.48s-0.04-5.28-.1-6.48h0Z" transform="translate(-2912 -6472)"/>
</svg>
