<svg xmlns="http://www.w3.org/2000/svg" width="76" height="68" viewBox="0 0 76 68">
  <metadata><?xpacket begin="﻿" id="W5M0MpCehiHzreSzNTczkc9d"?>
<x:xmpmeta xmlns:x="adobe:ns:meta/" x:xmptk="Adobe XMP Core 5.6-c138 79.159824, 2016/09/14-01:09:01        ">
   <rdf:RDF xmlns:rdf="http://www.w3.org/1999/02/22-rdf-syntax-ns#">
      <rdf:Description rdf:about=""/>
   </rdf:RDF>
</x:xmpmeta>
                                                                                                    
                                                                                                    
                                                                                                    
                                                                                                    
                                                                                                    
                                                                                                    
                                                                                                    
                                                                                                    
                                                                                                    
                                                                                                    
                                                                                                    
                                                                                                    
                                                                                                    
                                                                                                    
                                                                                                    
                                                                                                    
                                                                                                    
                                                                                                    
                                                                                                    
                                                                                                    
                           
<?xpacket end="w"?></metadata>
<defs>
    <style>
      .cls-1 {
        fill: #ffce00;
        fill-rule: evenodd;
      }
    </style>
  </defs>
  <path id="money_icon" data-name="money icon" class="cls-1" d="M297.859,1076.01c-2.271-.94-2.927-1.5-2.927-2.52,0-.82.6-1.77,2.3-1.77a6.386,6.386,0,0,1,2.666.61,0.79,0.79,0,0,0,.392.11,0.8,0.8,0,0,0,.74-0.52l0.413-1.08a0.671,0.671,0,0,0-.353-0.86,14.881,14.881,0,0,0-2.751-.74,0.151,0.151,0,0,1-.131-0.15l-0.006-1.57a0.853,0.853,0,0,0-.857-0.85h-0.741a0.853,0.853,0,0,0-.856.85l0,1.65a0.214,0.214,0,0,1-.183.19,4.527,4.527,0,0,0-3.709,4.44c0,2.69,2.173,3.91,4.52,4.82,1.876,0.76,2.641,1.52,2.641,2.64,0,1.23-1.084,2.08-2.637,2.08a9.1,9.1,0,0,1-3.137-.87,0.776,0.776,0,0,0-.362-0.09,0.812,0.812,0,0,0-.757.54l-0.394,1.1a0.7,0.7,0,0,0,.351.88,13.409,13.409,0,0,0,3.329.95,0.2,0.2,0,0,1,.155.17v1.65a0.854,0.854,0,0,0,.858.85h0.765a0.854,0.854,0,0,0,.858-0.85v-1.73a0.156,0.156,0,0,1,.141-0.18,4.74,4.74,0,0,0,3.929-4.68C302.118,1078.73,300.844,1077.21,297.859,1076.01ZM296.9,1057a20.6,20.6,0,1,0,20.1,20.59A20.348,20.348,0,0,0,296.9,1057Zm0,36.42a15.83,15.83,0,1,1,15.438-15.83A15.64,15.64,0,0,1,296.9,1093.42Zm16.013,14.75a50.185,50.185,0,0,1-16.013,5.59c-5.215.84-15.026-1.18-15.026-3.57,0-.9,8.605,2.23,13.81.81,3.991-1.09,3.424-4.92,1.253-5.42s-14.8-5.25-20.2-5.42c-2.544-.07-8.826.91-11.865,1.42-1.042.17-1.694,0.15-1.76,1.17-0.3,4.75-.9,14.45-1.223,19.52-0.007.11,0.138,1.55,1.3,0.54,1.27-1.11,3.05-2.34,4.7-1.96,2.584,0.6,24.939,4.8,28.022,4.06,4.412-1.05,16.9-8.63,19.293-10.99C318.909,1110.27,316.024,1106.41,312.916,1108.17Zm-55.973-6.78-11.711-.59a2.12,2.12,0,0,0-2.053,1.55l-2.129,19.81a1.3,1.3,0,0,0,1.236,1.7h12.979a1.74,1.74,0,0,0,1.771-1.61l1.425-19.09A1.628,1.628,0,0,0,256.943,1101.39Zm-6.895,19.85a3.321,3.321,0,1,1,3.238-3.32A3.282,3.282,0,0,1,250.048,1121.24Z" transform="translate(-241 -1057)"/>
</svg>
