<svg id="tw" xmlns="http://www.w3.org/2000/svg" width="48" height="48" viewBox="0 0 48 48">
  <metadata><?xpacket begin="﻿" id="W5M0MpCehiHzreSzNTczkc9d"?>
<x:xmpmeta xmlns:x="adobe:ns:meta/" x:xmptk="Adobe XMP Core 5.6-c138 79.159824, 2016/09/14-01:09:01        ">
   <rdf:RDF xmlns:rdf="http://www.w3.org/1999/02/22-rdf-syntax-ns#">
      <rdf:Description rdf:about=""/>
   </rdf:RDF>
</x:xmpmeta>
                                                                                                    
                                                                                                    
                                                                                                    
                                                                                                    
                                                                                                    
                                                                                                    
                                                                                                    
                                                                                                    
                                                                                                    
                                                                                                    
                                                                                                    
                                                                                                    
                                                                                                    
                                                                                                    
                                                                                                    
                                                                                                    
                                                                                                    
                                                                                                    
                                                                                                    
                                                                                                    
                           
<?xpacket end="w"?></metadata>
<defs>
    <style>
      .cls-1 {
        fill: #364552;
      }

      .cls-2 {
        fill: #fff;
        fill-rule: evenodd;
      }
    </style>
  </defs>
  <rect id="body" class="cls-1" width="48" height="48" rx="10" ry="10"/>
  <path id="tw-2" data-name="tw" class="cls-2" d="M2689.99,6487.15a6.344,6.344,0,0,0,2.83-3.6,12.493,12.493,0,0,1-4.08,1.58,6.383,6.383,0,0,0-9.25-.15,6.3,6.3,0,0,0-1.88,4.61,7.09,7.09,0,0,0,.16,1.5,17.874,17.874,0,0,1-7.4-2.01,18.261,18.261,0,0,1-5.86-4.82,6.591,6.591,0,0,0,1.99,8.73,6.316,6.316,0,0,1-2.91-.83v0.08a6.488,6.488,0,0,0,5.16,6.4,6.481,6.481,0,0,1-1.69.22,7.7,7.7,0,0,1-1.22-.1,6.354,6.354,0,0,0,2.27,3.22,6.181,6.181,0,0,0,3.74,1.31,12.487,12.487,0,0,1-7.98,2.78,12.222,12.222,0,0,1-1.55-.08,17.576,17.576,0,0,0,9.87,2.93,18.638,18.638,0,0,0,6.43-1.1,16.215,16.215,0,0,0,5.14-2.95,19.673,19.673,0,0,0,3.67-4.25,18.914,18.914,0,0,0,2.3-5.02,18.556,18.556,0,0,0,.76-5.24c0-.38-0.01-0.66-0.02-0.85a13.588,13.588,0,0,0,3.22-3.37,12.774,12.774,0,0,1-3.7,1.01h0Z" transform="translate(-2654 -6472)"/>
</svg>
