<svg xmlns="http://www.w3.org/2000/svg" width="24" height="24" viewBox="0 0 48 48">
  <defs>
    <style>
      .cls-1 {
        fill: #374551;
        fill-rule: evenodd;
      }
    </style>
  </defs>
  <path id="apply" class="cls-1" d="M2087.08,1227.59a1.694,1.694,0,0,0-2.39,2.4l7.81,7.81a1.678,1.678,0,0,0,1.2.49h0.09a1.9,1.9,0,0,0,1.24-.62l19.57-23.42a1.7,1.7,0,1,0-2.61-2.19l-18.41,22.02Zm0,0,22.6-18.92a24,24,0,1,0,7.61,7.6,1.684,1.684,0,0,0-2.86,1.78,20.425,20.425,0,0,1-2.89,25.53,20.612,20.612,0,1,1-3.64-32.06,1.68,1.68,0,0,0,1.78-2.85h0Zm0,0" transform="translate(-2073 -1205)"/>
</svg>
