<svg id="rectangles_copy_6" data-name="rectangles copy 6" xmlns="http://www.w3.org/2000/svg" width="164" height="164"
     viewBox="0 0 164 164">
  <defs>
    <style>
      .cls-1 {
      fill: #374551;
      stroke: #303e4a;
      stroke-linejoin: round;
      stroke-width: 2px;
      }

      .cls-2 {
      fill: #fff;
      fill-rule: evenodd;
      }
    </style>
  </defs>
  <g id="_1" data-name="1">
    <rect id="Rounded_Rectangle_1_copy" data-name="Rounded Rectangle 1 copy" class="cls-1" x="1" y="1" width="75.281"
          height="75.281" rx="6" ry="6"/>
    <path class="cls-2" d="M62.031,44.127V68H27.969V44.127H22.013L45.011,22l23,22.128H62.031Z"
          transform="translate(-6 -6)"/>
  </g>
  <g id="_1_copy_4" data-name="1 copy 4">
    <rect id="Rounded_Rectangle_1_copy-2" data-name="Rounded Rectangle 1 copy" class="cls-1" x="87.719" y="1"
          width="75.281" height="75.281" rx="6" ry="6"/>
    <path id="Shape_1_copy" data-name="Shape 1 copy" class="cls-2"
          d="M149.031,44.127V68H114.969V44.127h-5.957l23-22.128,23,22.128h-5.979Z" transform="translate(-6 -6)"/>
  </g>
  <g id="_1_copy_5" data-name="1 copy 5">
    <rect id="Rounded_Rectangle_1_copy-3" data-name="Rounded Rectangle 1 copy" class="cls-1" x="87.719" y="87.719"
          width="75.281" height="75.281" rx="6" ry="6"/>
    <path id="Shape_1_copy_3" data-name="Shape 1 copy 3" class="cls-2"
          d="M149.031,131.127V155H114.969V131.127h-5.957l23-22.127,23,22.127h-5.979Z" transform="translate(-6 -6)"/>
  </g>
  <g id="_1_copy_6" data-name="1 copy 6">
    <rect id="Rounded_Rectangle_1_copy-4" data-name="Rounded Rectangle 1 copy" class="cls-1" x="1" y="87.719"
          width="75.281" height="75.281" rx="6" ry="6"/>
    <path id="Shape_1_copy_2" data-name="Shape 1 copy 2" class="cls-2"
          d="M62.031,131.127V155H27.969V131.127H22.013l23-22.127,23,22.127H62.031Z" transform="translate(-6 -6)"/>
  </g>
</svg>
