<svg xmlns="http://www.w3.org/2000/svg" width="16.985" height="16.985" viewBox="0 0 33.97 33.97">
  <defs>
    <style>
      .cls-1 {
      fill: #374551;
      fill-rule: evenodd;
      }
    </style>
  </defs>
  <path id="fullsize-icon" class="cls-1"
        d="M1868.55,2353.54l-8.16-8.16a14.359,14.359,0,1,0-2.01,2l8.17,8.15a1.411,1.411,0,0,0,2-1.99h0Zm-19.23-5.78a11.46,11.46,0,1,1,11.47-11.45A11.48,11.48,0,0,1,1849.32,2347.76Zm5.91-12.05a0.613,0.613,0,0,0-.6-0.59h-4.13v-4.13a0.6,0.6,0,0,0-.59-0.59h-1.19a0.6,0.6,0,0,0-.59.59v4.13H1844a0.6,0.6,0,0,0-.59.59v1.18a0.6,0.6,0,0,0,.59.59h4.13v4.14a0.612,0.612,0,0,0,.59.59h1.19a0.612,0.612,0,0,0,.59-0.59v-4.14h4.13a0.606,0.606,0,0,0,.6-0.59v-1.18Z"
        transform="translate(-1835 -2322)"/>
</svg>
