<svg xmlns="http://www.w3.org/2000/svg" width="64" height="64" viewBox="0 0 64 64">
  <defs>
    <style>
      .cls-1 {
      fill: #fff;
      fill-rule: evenodd;
      }
    </style>
  </defs>
  <path id="in" class="cls-1"
        d="M2531.83,3274.45a5.126,5.126,0,0,0-4.65,2.56v-2.19h-5.16c0.07,1.45,0,15.51,0,15.51h5.16v-8.66a3.435,3.435,0,0,1,.17-1.26,2.819,2.819,0,0,1,2.65-1.89c1.86,0,2.61,1.43,2.61,3.51v8.3h5.16v-8.9C2537.77,3276.67,2535.22,3274.45,2531.83,3274.45Zm-4.65,2.62h-0.03a0.219,0.219,0,0,1,.03-0.05v0.05Zm-13.17-2.25h5.16v15.51h-5.16v-15.51Zm11.99-27.81a31.99,31.99,0,1,0,31.99,31.99A32.025,32.025,0,0,0,2526,3247.01Zm16.96,46.46a2.491,2.491,0,0,1-2.52,2.46h-29.1a2.491,2.491,0,0,1-2.52-2.46v-29.44a2.491,2.491,0,0,1,2.52-2.46h29.1a2.491,2.491,0,0,1,2.52,2.46v29.44Zm-26.34-26.13a2.687,2.687,0,1,0-.06,5.36h0.03A2.689,2.689,0,1,0,2516.62,3267.34Z"
        transform="translate(-2494 -3247)"/>
</svg>
