<svg id="info_button" data-name="info button" xmlns="http://www.w3.org/2000/svg" width="36" height="36"
     viewBox="0 0 36 36">
  <defs>
    <style>
      .cls-1 {
      fill: #dde4ef;
      }

      .cls-2 {
      fill: #5f6a74;
      fill-rule: evenodd;
      }
    </style>
  </defs>
  <circle class="cls-1" cx="18" cy="18" r="18"/>
  <path id="i" class="cls-2"
        d="M1466.05,174.109a1.955,1.955,0,1,0,.59,1.4A1.906,1.906,0,0,0,1466.05,174.109Zm-2.33,15.012a1.366,1.366,0,0,1-.84.571,0.358,0.358,0,0,1-.24-0.076,0.3,0.3,0,0,1-.08-0.216,4.7,4.7,0,0,1,.32-1.066l1.47-4.012a6.95,6.95,0,0,0,.52-2.095,1.784,1.784,0,0,0-.58-1.415,2.407,2.407,0,0,0-1.64-.514q-2.985,0-4.62,3.542h1.22c0.58-1.1,1.09-1.651,1.52-1.651a0.252,0.252,0,0,1,.29.292,3,3,0,0,1-.17.66l-1.53,4.38a7.353,7.353,0,0,0-.49,2.006,1.824,1.824,0,0,0,.59,1.473,2.738,2.738,0,0,0,1.78.5c1.95,0,3.46-1.155,4.55-3.466h-1.29A4.736,4.736,0,0,1,1463.72,189.121Z"
        transform="translate(-1444 -165)"/>
</svg>
