<svg id="info_button" data-name="info button" xmlns="http://www.w3.org/2000/svg" width="36" height="36"
     viewBox="0 0 36 36">
  <defs>
    <style>
      .cls-1 {
      fill: #dde4ef;
      }

      .cls-2 {
      fill: #5f6a74;
      fill-rule: evenodd;
      }
    </style>
  </defs>
  <circle class="cls-1" cx="18" cy="18" r="18"/>
  <path id="i" class="cls-2"
        d="M904.052,1870.11a1.981,1.981,0,0,0-3.377,1.4,1.919,1.919,0,0,0,.584,1.4,1.971,1.971,0,0,0,2.793,0,1.919,1.919,0,0,0,.584-1.4A1.887,1.887,0,0,0,904.052,1870.11Zm-2.329,15.01a1.382,1.382,0,0,1-.845.57,0.334,0.334,0,0,1-.234-0.07,0.289,0.289,0,0,1-.083-0.22,4.675,4.675,0,0,1,.317-1.07l1.473-4.01a7,7,0,0,0,.521-2.09,1.8,1.8,0,0,0-.584-1.42,2.412,2.412,0,0,0-1.638-.51q-2.984,0-4.621,3.54h1.219q0.876-1.65,1.523-1.65a0.288,0.288,0,0,1,.222.07,0.3,0.3,0,0,1,.07.22,2.737,2.737,0,0,1-.178.66l-1.523,4.38a7.472,7.472,0,0,0-.5,2.01,1.8,1.8,0,0,0,.6,1.47,2.734,2.734,0,0,0,1.778.49q2.919,0,4.545-3.46H902.5A5.129,5.129,0,0,1,901.723,1885.12Z"
        transform="translate(-882 -1861)"/>
</svg>
