<?xml version="1.0" encoding="utf-8"?>
<!-- Generator: Adobe Illustrator 19.2.1, SVG Export Plug-In . SVG Version: 6.00 Build 0)  -->
<svg version="1.1" id="Lager_1" xmlns="http://www.w3.org/2000/svg"  x="0px" y="0px"
	 viewBox="0 0 191.6 116.2" style="enable-background:new 0 0 191.6 116.2;" xml:space="preserve">
<style type="text/css">
	.st0{fill:#BABFC4;}
	.st1{fill-rule:evenodd;clip-rule:evenodd;fill:#BABFC4;}
</style>
<path class="st0" d="M59.2,5.5C59.1,5.4,59.1,5.2,59,5c-0.2-0.5-0.4-0.6-0.9-0.8c-0.2-0.1-0.5-0.1-0.7-0.2c0,0-0.1-0.2-0.2-0.2
	c-0.1-0.1-0.2-0.1-0.3-0.2c-0.2-0.1-0.4-0.3-0.5-0.4c-0.4-0.1-0.9,0-1.3-0.1c-0.4-0.1-0.7-0.4-1.1-0.5c-0.4-0.1-1-0.2-1.4-0.1
	c-0.4,0.1-0.8,0.4-1.3,0.4c-0.5,0-0.6-0.4-1.2-0.5c-0.1,0-0.1,0.1-0.2,0.1c-0.6,0.1-1.6,0.6-1.5,1.2c0,0.6,0.2,1.1,0.7,1.5
	c-0.1,0.1-0.2,0.1-0.3,0.2c-0.5,0.2-1.2,0.7-1.7,0.6c-0.2-0.1,0.6-0.3,0.3-0.6c-0.2-0.3-1.5-0.5-1.6-0.7c-0.1-0.2-0.1-0.4-0.2-0.6
	c-0.1-0.1-0.1-0.3-0.4-0.4c-0.2-0.1-1,0.2-1,0.2c-0.5,0.3-0.4,1.1-0.7,1.4c-0.1,0.1-0.5,0.1-0.8,0.2c-0.1,0-0.2,0.1-0.3,0.2
	C42.2,6,42,6.3,41.6,6.3c-0.3,0-0.7-0.2-1-0.3c-0.6-0.1-1.1,0.1-1.9,0c-0.6-0.1-1.4-0.3-2-0.3c-0.3,0-0.3,0.1-0.5-0.2
	c-0.3-0.9,2.1-0.3,2.2-0.3c0.7,0,1.4-0.1,1.4-0.3c0.1-0.3-0.3-1.3-0.5-1.4c-0.2-0.1-0.6,0.1-1.1,0.1c-0.3,0-0.5-0.2-0.8-0.2
	c-0.4,0-0.8,0.1-1,0.1c-0.4,0-0.8,0-1.1-0.1c-0.2-0.1-0.4-0.1-0.5-0.2c-0.2-0.1-0.4-0.2-0.5-0.3c-0.6-0.1-1.5-0.1-2,0
	c-0.8,0.1-1.2,0.2-2,0.5c-0.6,0.2-1.3,0.1-1.3,0.5c0,0.9,1.6,0,2,0c0.8-0.1,1.2,0.2,1.4,0.7c0.1,0.3-0.8-0.3-0.6,0.3
	c0.1,0.2,0.2,0.3,0.3,0.3c0.2,0.2,2.6,0.3,2.5,0.8c-0.1,0.4-1.8-0.1-2,0c-0.7,0.1-1.1-0.2-1.4-0.4c-0.6-0.3-1.1-0.4-1.8-0.6
	C29,5,28.6,4.9,28.2,4.9c-0.5,0-0.8,0.1-1.2,0.1c-0.5,0-0.7-0.3-1.3-0.4c-0.7-0.1-1.5-0.1-2.1,0C23.1,4.6,22.5,5,21.8,5
	c-2.4,0.3-4.9-0.2-6.7-0.5c-1-0.2-1.9-0.4-2.9-0.5C10.7,4,8.8,4,7.6,4.2c-0.2,0-0.5,0-0.7,0.1C6.4,4.4,5.9,4.8,5.4,5
	C5,5.1,4.4,5.1,4.1,5.4C3.5,6,4.4,7,4,6.9C2.9,6.9,2.5,7.1,2.3,7.5C2.2,7.8,2.5,8,2.7,8.1c0.2,0.2,0.6,0,0.6,0.4
	C3.2,8.7,2.9,8.8,2.6,9C2.5,9.1,2.2,9.2,2.1,9.3C1.8,9.5,1.5,9.7,1.3,10c-0.1,0.2,0,0.8,0,1.2c0,0.4,0,0.4-0.1,0.8
	c0,0.2-0.4,0.4-0.3,0.6C1,12.8,1.5,13,1.5,13.2c0.1,0.4-1.8,2.1-1.5,2.1c0.3,0,2.2-2,2.4-2.2c0.1-0.1,0.4-0.4,0.5-0.6
	c0.3-0.4,0.4-0.6,0.8-0.8c0.2-0.1,0.4-0.1,0.6-0.2c0.2-0.1,0.3-0.3,0.5-0.4c0.9-0.4,1.2,0.1,2.1,0.4c0.6,0.2,1.3,0.2,1.6,0.4
	c0.4,0.2,0.5,0.3,0.7,0.5c0.1,0,0.1,0.1,0.2,0.1c0.2,0.1,0.4,0.3,0.5,0.4c0.4,0.3,0.7,0.6,0.8,1.1c0.1,0.3,0,0.6,0,1
	c0,0.4,0.2,0.7,0.2,1c0,0.2-0.1,0.3-0.2,0.5c-0.2,0.5-0.3,0.7-0.4,1.4c0,0.3-0.1,0.7-0.1,1c0.1,0.3,0.7,0.8,0.5,0.9
	c-0.2,0.2-1.1,0.3-1.1,0.4c-0.1,0.3,0,0.7,0,0.7c0.1,0.1,0.3,0.3,0.4,0.4c0.2,0.2,0.6,0.3,0.6,0.5c0,0.2,0,0.5-0.4,0.6
	C10,22.4,9.8,23,9.7,23.2c-0.4,0.6-0.8,1.3-1.2,1.8c-0.1,0.1-0.2,0.3-0.3,0.5c-0.1,0.1-0.3,0.3-0.4,0.4c-0.4,0.6-0.6,1.3-1,2
	c-0.1,0.2-0.3,0.2-0.4,0.4c0,0.1-0.1,0.3-0.1,0.3C6.3,29,6.1,29.5,6,30c0,0.6,0.2,1,0.3,1.6c0,0.4,0,0.8,0,1.1
	c0,0.1,0.1,0.3,0.2,0.5c0.1,0.2,0,0.5,0.1,0.6C7,34.6,8,34.9,8.2,35.7c0.1,0.5-0.1,0.7-0.1,1.1c0,0.5,0.5,1.5,0.8,1.8
	C9,38.7,8.9,38.8,9,39c0,0.1,0.1,0.3,0,0.5c-0.1,0.5-0.3,0.9-0.2,1.2c0.2,0.6,0.9,0.7,1,1.5c0.1,0.4,0.6,2.3,1.3,2.6
	c0.3,0.1-0.3-1.6-0.5-2.4c-0.1-0.5-0.1-1.1-0.3-1.5c-0.1-0.2-0.3-0.5-0.5-0.8c-0.2-0.4-0.7-1.3-0.7-1.7c0-0.4-0.1-1.4,0.6-1.4
	c0.6,0,1,1.7,1.2,2.1c0.1,0.3,0,0.6,0.1,0.8c0,0,0.1,0.1,0.2,0.2c0.2,0.4,0.4,0.9,0.5,1.2c0.1,0.1,0.1,0.1,0.2,0.3
	c0,0,0.1,0.2,0.1,0.2c0.1,0.1,0.1,0.2,0.2,0.3c0.1,0.1,0.2,0.2,0.3,0.4c0.1,0.2,0.3,0.6,0.4,0.8c0.2,0.4,0.4,0.8,0.6,1.2
	c0.1,0.3,0.3,0.8,0.4,1.1c0.1,1-0.1,1.5,0,2c0.1,0.2,0.4,0.7,0.7,1c0.1,0.1,0.4,0.2,0.5,0.3c0.2,0.1,0.3,0.3,0.5,0.4
	c0.2,0.1,0.3,0.3,0.5,0.4c0.4,0.2,0.8,0.4,1.1,0.6c0.2,0.1,0.4,0.3,0.5,0.4c0.2,0.1,0.3,0,0.5,0.1c0.2,0.1,0.3,0.2,0.5,0.3
	c0.7,0.3,1.1,0.5,1.9,0.4c0.4-0.1,0.8-0.3,1.2-0.3c0.7,0.1,1.2,0.9,1.6,1.3c0.1,0.1,0.2,0,0.3,0.1c0,0,0.1,0.2,0.1,0.2
	c0.1,0.1,0.2,0,0.3,0.1c0.2,0.2,0.5,0.6,0.7,0.7c0.5,0.2,1.4,0,1.9,0.2c0,0,0.1,0.2,0.1,0.2c0.1,0.1,0.2,0,0.3,0.1
	c0.2,0.2,0.3,0.7,0.5,0.9c0.4,0.7,0.7,1.7,1.2,2.2c0.2,0.2,0.6,0.3,0.8,0.5c0,0,0.1,0.2,0.1,0.2c0.2,0.2,0.4,0.2,0.6,0.4
	c0.4,0.3,1.4,0.9,1.8,0.8c0.3-0.1,0.6-0.4,0.5-0.6c-0.1-0.5-1.3-0.4-1.5-0.7c-0.1-0.1-0.1,0-0.2-0.1c-0.8-0.7-0.9-2.6-0.7-3.8
	c0.1-0.6,0.4-1.1,0.3-1.5c-0.2-0.7-1.3-0.8-2.2-0.8c-0.5,0-1.1,0.2-1.3,0.1c-0.6-0.4-0.3-0.8,0-1.5c0.1-0.3,0.3-0.7,0.5-1
	c0.4-0.8,0.9-1.5,0.8-2.1c-0.1-0.6-1.5-0.6-1.8-0.3c-0.1,0.1-0.1,0-0.2,0.1c-0.4,0.3-0.6,1-0.8,1.2c-0.2,0.3-0.4,0.5-0.6,0.7
	c-0.4,0.3-1.4,0.8-2.2,0.8c-0.5,0-1-0.5-1.4-1c-0.1-0.2-0.2-0.4-0.4-0.7c-0.1-0.2-0.3-0.4-0.4-0.7c-0.1-0.3-0.1-0.6-0.2-0.9
	c-0.1-0.4-0.2-0.6-0.2-0.9c0-0.7,0.5-1.7,0.8-2.8c0.1-0.4,0.2-1,0.3-1.2c0,0,0.2-0.1,0.2-0.1c0.1-0.1,0.1-0.3,0.1-0.4
	c0.2-0.5,0.5-0.8,0.9-1.1c0.6-0.3,1.4-0.7,2-1c0.2-0.1,0.5-0.3,0.9-0.3c0.4,0,0.8,0.2,1.1,0.3c0.2,0.1,0.6,0.5,1.1,0.4
	c0.3,0,0.4-0.4,0.7-0.6c0.3-0.2,0.5-0.4,0.8-0.5c0.7-0.3,1.6,0.3,2.1,0.4c0.5,0.1,0.8-0.2,1-0.1c0.4,0.2,0.8,0.7,0.9,1.1
	c0.1,0.4,0,1.2,0.1,1.7c0.1,0.4,0.1,0.7,0.4,1c0.2,0.2,0.3,0.6,0.4,0.6c0.3,0,0.7-0.8,0.7-1.5c0-0.9-0.3-1.3-0.4-1.7
	c-0.1-1.2,0.2-1.9,0.5-2.4c0.3-0.4,0.5-0.7,0.8-1c0.2-0.2,0.3-0.4,0.5-0.5c0.1-0.1,0.2-0.1,0.4-0.2c0.2-0.1,0.4-0.4,0.6-0.6
	c0.4-0.3,0.9-0.3,1.3-0.6c0.2-0.2,0.4-0.4,0.6-0.7c0.3-0.3,0.4-0.4,0.5-0.8c0.1-0.2-0.1-0.7,0.1-1.2c0-0.1,0.1-0.4,0.3-0.6
	c0.2-0.1,0.2,0,0.3-0.1c0,0,0.2,0.2,0.2,0.2c0.2,0,0.2-0.6,0.2-0.7c0.5-0.5,0.8-0.8,1.4-1.2c0.2-0.2,0.4-0.4,0.6-0.6
	c0.2-0.2,0.6-0.2,0.8-0.4c0.3-0.2,0.5-0.4,0.8-0.5c0.3-0.1,0.6-0.1,0.9-0.3c0.1-0.1,0.6,0,0.6-0.1c0-0.5,0.4-1,0.8-1.3
	c0.1-0.1,0.3-0.1,0.5-0.2c0.1-0.1,0.2-0.3,0.4-0.4c0.4-0.2,0.7-0.4,1-0.5c0.3-0.1,1.7-0.7,2.2-0.7c1.6,0-1,0.9-0.8,1.2
	c0.2,0.3,2.2-0.5,2.4-0.7c0.3-0.2,1.1-0.4,1.5-0.6c0.7-0.5-1.5-0.3-1.8-0.6c-0.1-0.1-0.6-0.4-0.6-1c0-0.5,0.9-0.9,0.5-1.4
	c0,0-0.3-0.3-0.3-0.3c-0.4-0.1-1.2,0.3-1.4,0c-0.1-0.1,0.1-0.3,0.3-0.5c0.3-0.3,1.2-0.5,1.6-0.6c0.6-0.1,1.3,0.1,2.2,0
	c0.4,0,1.1-0.2,1.7-0.4c0.5-0.1,0.8-0.3,1.2-0.1c0.2,0.1,0.8,0.3,0.5,1C57.4,20.9,56,21.8,56,22c0.2,0.7,2,0.6,2.1,0.6
	c0,0,1.9-0.1,1.8-0.8c0-0.3-1.5-1-1.7-1.7c-0.1-0.7-0.6-0.8-0.4-0.9c0.9-0.6,2.1-1.4,1.5-2.1C59.3,17,59.1,17,59,16.9
	c0,0,0-0.2-0.1-0.2c-0.4-0.1-0.8,0.2-1.1,0c-0.3-0.2-0.2-0.6-0.4-1.2c-0.1-0.3-0.3-0.5-0.4-0.8c-0.2-1,0.2-2.4-0.5-2.7
	c-0.5-0.1-0.5,0.2-0.6,0.3c-0.3,0.2-0.5,0.2-0.6,0.3c-0.4,0.2-0.9,0.6-1.4,0.5c-0.4-0.1-0.6-0.4-0.6-0.7c-0.1-0.4,0.2-0.8,0.1-1.3
	c-0.1-0.3-0.4-0.7-0.8-0.9c-0.2-0.1-0.4-0.1-0.6-0.2c-0.2-0.1-0.4-0.3-0.5-0.3c-1.1-0.3-1.9,0.1-2.3,0.7c-0.1,0.2-0.1,0.4-0.2,0.6
	c-0.1,0.3-0.3,0.5-0.5,0.7c0,0,0,0.1-0.1,0.2c-0.1,0.1-0.3,0.1-0.4,0.2c-0.1,0.1-0.1,0.3-0.2,0.4c-0.1,0.2-0.2,0.3-0.3,0.4
	c-0.1,0.2,0,0.7-0.1,1.1c0,0-0.1,0.2-0.2,0.3c-0.3,0.6-0.9,0.9-1.3,1.2c-0.1,0.1-0.2,0-0.3,0.1c-0.2,0.2-0.3,0.4-0.5,0.6
	c-0.3,0.2-0.6,0.3-0.7,0.5c-0.1,0.1-0.1,0.2-0.2,0.3c-0.1,0.1-0.2,0.2-0.3,0.3c-0.2,0.3-0.1,0.7-0.3,1c-0.1,0.1-0.6,0.7-0.6,0.7
	c-0.2,0.1-0.6,0.1-0.7,0.1c-0.4-0.1-0.6-0.6-0.6-0.9c-0.1-0.6,0.4-1.2,0.4-1.6c-0.1-0.5-1.1-0.9-1.4-1.1c-0.3-0.2-0.5-0.3-0.8-0.4
	c-0.3-0.1-0.8-0.4-1.1-0.5c-0.2-0.1-0.5,0-0.7-0.1c-0.2-0.1-0.4-0.4-0.6-0.8c-0.2-0.3-0.5-0.6-0.5-1c0-0.4,0.7-1.1,1.2-1.5
	c0.5-0.4,1.1-0.9,1.6-1.2c0.3-0.2,0.7-0.2,1-0.4c0.7-0.4,0.7-0.9,1.4-1.1c0.1,0,0.3,0.1,0.5,0.1c0.2,0,0.3-0.1,0.5-0.1
	c0.2,0,1.2-0.2,1.3-0.3c0.1-0.1,0.3-0.3,0.4-0.4c0.1-0.1,0-0.3,0.1-0.4c0.3-0.2,1-0.3,1.2-0.1C46.2,7.6,45.9,8,45.8,8
	c0,0-0.6,0.7-0.3,1.1c0.2,0.3,0.9-0.5,1.3-0.5c0.4,0,1.3,0.7,1.6,0.3c0.2-0.3-0.6-0.9-0.7-1c-0.2-0.2-0.8,0.1-0.7-0.4
	c0-0.5,0.3-0.3,0.7-0.4C48,7,48.5,7,48.6,7c0.3-0.1,0.9-0.4,1.1-0.5c0,0,0.1-0.2,0.1-0.2c0.2-0.2,0.4-0.1,0.5-0.4
	c0.1-0.1,0.1-0.2,0.2-0.2c0.1,0,0.1,0,0.2,0c0.4,0,2.5-1.5,2.8-1.4c0.5,0,0.6,0.3,1,0.6c0.4,0.4,0.8,0.7,1.2,1.1C55.8,6,56,6,56,6.1
	c0.1,0.1,0.2,0.3,0.1,0.5c-0.2,0.6-0.6,0.1-1.4,0.2c-0.3,0.1-0.6,0.2-0.7,0.3c-0.3,0.2-0.6,0.4-0.6,0.8c0,0.3,0.2,0.5,0.5,0.9
	c0.2,0.3,0.5,0.6,0.7,0.8c0,0,0.1,0.2,0.1,0.2c0.2,0.1,1,0.4,1.2,0.4c0.1,0,0.2-0.2,0.4-0.4c0.2-0.2,0.3-0.3,0.5-0.4
	c0.5-0.3,0.8-0.1,1-0.4c0.1-0.1,0.2-0.5,0.2-0.7c0-0.3-0.2-0.4-0.1-0.7c0.3-0.7,0.8-0.3,1.5-0.3c0.5,0,0.9,0.1,1.1-0.3
	C60.6,6.3,59.7,6.2,59.2,5.5C59.1,5.4,59.7,6.2,59.2,5.5z M37.3,22.3c0.1,0.3,0.1,0.7,0.3,1.1c0.1,0.2,0.4,0.6,0.6,0.6
	c0.3,0.1,0.9-0.2,1.1-0.1c0.1,0.1,0.2,0.2,0.4,0.4c0.1,0.1,0.3,0.2,0.3,0.3c0.1,0.1,0.3,0.7,1.1,0.9c0.1,0,0.9,0,0.9,0.1
	c0.3,0.2-0.2,0.6-0.2,0.6c0,0.1-0.9,0.5-1.6-0.1c-0.1-0.1,0.2-0.3,0.1-0.4c-0.3-0.5-0.8-0.3-0.9-0.3c-0.2,0-0.6,0.1-0.7,0.2
	c-0.1,0.2-0.9,0.9-0.9,1.1c0,0.3,1.2,0.3,1.1,0.6c-0.2,0.5-1,0.8-1.1,0.8c-0.7-0.1-0.7-0.1-0.9-0.4c-0.2-0.3,1.1-0.8,0.3-1.9
	c-0.2-0.2,0.7-1.1-0.3-1.2c-0.2,0-0.8,0.4-1.1,0.6c-0.4,0.3-0.8,0.8-1,1c-0.2,0.4-0.6,1.8-1.2,1.8c-0.5,0-0.4-0.6-0.4-1
	c0-0.4,0.4-0.6,0.6-0.9c0.4-0.7,0.6-1.2,1-1.5c0.1-0.1,0.1,0,0.2-0.1c0.1-0.1,0.8-0.4,1.3-0.6c0.4-0.1-0.9-0.2-1.4-0.6
	c-0.1-0.1-0.2-0.1-0.4-0.1c-0.5,0-1.2,0.7-1.6,0.2c-0.2-0.2,0-0.4,0.1-0.6c0.1-0.2,0.2-0.3,0.5-0.4c0.4-0.2,0.9-0.2,1.3-0.3
	c0.5-0.1,0.9-0.3,1.2-0.4c0.1,0,0.3-0.1,0.5-0.1C36.8,21.6,37.1,22,37.3,22.3z"/>
<g>
	<path class="st0" d="M186.6,5.9c-0.1-0.1-0.5-0.3-0.6-0.4c-0.2,0-0.4,0-0.5,0c-0.3,0-0.7,0.1-0.9,0.1c0,0-0.1,0-0.1,0
		c-0.2,0-0.4-0.2-0.6-0.3c-0.2-0.1-0.4-0.3-0.6-0.4c-0.1,0-0.1,0-0.2,0c-0.1,0-0.1,0-0.2,0c0,0-0.1,0-0.1,0c-0.2,0-0.3-0.2-0.5-0.2
		c-0.4-0.1-0.7-0.1-1.1-0.2c-1.5-0.2-2.7-0.6-4.2-0.9c-0.4-0.1-0.7-0.1-1.1-0.2c-0.4-0.1-0.9-0.1-1.2-0.1c0,0,0,0,0,0
		c0,0-0.1,0-0.1,0c-0.4,0.1-0.7,0.4-1.2,0.5c-0.4,0-0.9-0.2-1.5-0.3c-1.2-0.1-2.6,0.2-3.6,0c-0.1,0-0.2-0.1-0.4-0.2
		c-0.6-0.2-1-0.3-1.5-0.4c-1.7-0.2-3.4,0.2-4.7-0.2c-0.3-0.1-0.5-0.3-0.7-0.4c-0.3-0.1-0.6-0.2-0.9-0.3c-0.1,0-0.1,0-0.2,0
		c-0.1,0-0.3,0.1-0.5,0.1c0,0,0,0-0.1,0c-0.1,0-0.4-0.1-0.5-0.1c-0.7-0.1-1.6-0.2-2.2-0.2c-0.1,0-0.3,0-0.4,0.1
		c-0.4,0.1-0.6,0.5-0.8,0.7c0,0-0.1,0-0.1,0c0,0-0.1,0-0.1,0c-0.1,0-0.1,0-0.2,0c-0.1,0-0.2,0-0.2,0.1c-0.5,0-1.2-0.1-1.7-0.1
		c0,0-0.1,0-0.1,0c-0.3,0-0.6,0.1-0.8,0.2c0,0-0.1,0-0.1,0c-0.2,0-0.5-0.1-0.6-0.2c-0.2-0.1-0.4-0.2-0.6-0.3
		c-0.4-0.2-0.7-0.4-1.3-0.6c-0.3-0.1-0.7-0.2-1-0.3c-0.4-0.1-0.8,0-1.1,0c-0.2,0-0.5,0.1-0.7,0.1c-0.1,0-0.2,0-0.4,0
		c-0.9,0.1-1.9-0.1-2.6-0.2c-0.7-0.1-1.4,0-2,0c-0.5,0-1.7-0.1-1.9-0.3c-0.3-0.2-0.3-0.5-0.5-0.7c-0.4-0.6-1.9-0.2-3.1-0.3
		c-1-0.1-1.8-0.4-2.2-0.5c0,0,0,0-0.1,0c0,0,0,0,0,0c-0.1,0-0.1,0.1-0.1,0.1c-0.1,0-0.1,0-0.2,0c-0.3,0.1-0.5,0.2-0.8,0.2
		c0,0-0.1,0-0.1,0c-0.3,0-0.6-0.2-0.9-0.1c0,0,0,0-0.1,0c0,0,0,0,0,0c-0.2,0-0.1,0.1-0.2,0.2c-0.1,0.1-0.2,0.1-0.4,0.2
		c-0.4,0.1-0.9,0.1-1.2,0.1c-0.4,0-0.8,0-1.2,0.1c0,0,0,0-0.1,0c0,0,0,0,0,0c-0.2,0-0.4,0.2-0.5,0.3c-0.4,0.2-0.7,0.4-1,0.5
		c0,0,0,0,0,0c-0.3,0.1-0.7,0-1,0.1c0,0-0.1,0-0.1,0c-0.4,0.1-0.8,0.3-1.2,0.5c-0.2,0.1-0.4,0.1-0.6,0.2c-0.3,0.1-0.6,0.1-0.7,0.2
		c-0.4,0.2-0.2,0.5-0.6,0.6c0,0,0,0,0,0c-0.7,0.1-1.2-0.9-2-1.1c-0.2,0-0.4,0-0.6,0c-0.7,0.1-0.9,0.8-0.5,1.2
		c0.2,0.3,0.9,0.5,0.6,0.9c0,0-0.1,0.1-0.1,0.1c-0.3,0-0.8-0.2-0.9-0.2c0,0-1,0-1.3-0.1c-0.3-0.1-0.9-0.3-1.2-0.3
		c-0.1,0-0.1,0-0.2,0c-0.2,0-0.4,0.1-0.6,0.2c-0.2,0-0.5,0-0.7,0.1c0,0-0.1,0-0.1,0c-0.3,0.1-0.6,0.3-0.9,0.4c0,0,0,0-0.1,0
		c-0.6,0.1-1.2-0.2-1.8-0.2c-0.1,0-0.1,0-0.2,0c-0.6,0.1-1.5,0.7-2.3,0.9c-0.2,0-0.4,0-0.6,0c-0.3-0.1-0.5-0.4-0.8-0.3c0,0,0,0,0,0
		c0,0,0,0,0,0c-0.4,0.1-0.7,0.8-1,1.1c0,0-0.1,0-0.1,0c0,0-0.1,0-0.2,0c0,0-0.1,0-0.1,0C107.3,6,107,6.3,107,6.3
		c-0.2,0.2-0.3,0.3-0.5,0.4c-0.1,0.1-0.2,0.1-0.3,0.1c-0.1,0-0.2,0-0.2,0c-0.1,0-0.2,0-0.3,0.1c-0.1,0-0.4,0.6-0.5,0.7c0,0,0,0,0,0
		c-0.2,0-0.5,0-0.5,0c-0.3,0-0.7-0.5-0.9-0.8c-0.1-0.1-0.2-0.4-0.4-0.6c-0.2-0.2-0.1-0.2-0.4-0.4c0,0-0.3,0-0.3-0.1c0,0,0-0.2,0-0.2
		c0-0.1,0.2-0.2,0.4-0.3c0.4-0.1,1-0.1,1.4,0.1c0.4,0.2,1.1,0.5,1.5,0.4c0.1,0,0.1,0,0.2,0c0.2-0.1,0.8-0.4,0.8-0.6
		c0-0.1-0.1-0.2-0.3-0.3c-0.4-0.3-1.3-0.7-1.9-0.8C104,4,103,4.2,102.3,4c-0.2,0-0.4-0.2-0.6-0.3c-0.7-0.3-1.3-0.6-2.1-0.7
		c-1.7-0.2-3.2,0.3-4.3,0.7c-0.4,0.1-0.9,0.2-1.2,0.4c-0.1,0-0.2,0.1-0.2,0.1c-0.7,0.4-1.4,1.6-1.9,2.1c-0.2,0.2-0.8,0.6-1.1,0.9
		c-0.1,0.1-0.2,0.1-0.3,0.2c-0.1,0.1-0.2,0.1-0.3,0.2c0,0-0.1,0-0.1,0.1c0,0,0,0,0,0c0,0,0,0-0.1,0c-0.5,0.3-0.8,0.6-1.4,1
		c-0.2,0.1-0.4,0.1-0.6,0.3C88,9,87.7,9.3,87.7,9.4c-0.1,0.5,0.1,1.8,0.2,1.9c0.1,0.1,0,0.1,0.1,0.2c0.3,0.4,0.7,0.6,1.1,0.6
		c0.2,0,0.5,0,0.7-0.1c0.3-0.1,0.5-0.2,0.6-0.2c0.2,0,0.3,0.1,0.5,0.3c0.3,0.4,0.4,0.8,0.6,1.2c0.1,0.2,0.2,0.6,0.3,0.7c0,0,0,0,0,0
		c0.1,0,0.2,0,0.2,0c0,0,0,0,0,0c0,0,0.2,0.4,0.2,0.4c0.1,0,0.2,0.1,0.3,0.1c0.6,0.1,0.9-0.3,1.1-0.9c0.1-0.4,0.2-0.8,0.5-1.1
		c0.3-0.5,1-0.6,1.2-1.3c0.1-0.4-0.6-0.9-0.7-1.1c0-0.1-0.1-0.2-0.1-0.3c-0.1-0.2-0.2-0.2-0.2-0.5c0-0.2,0.3-0.6,0.6-1
		c0.3-0.3,0.6-0.4,0.9-0.7c0.2-0.2,0.4-0.5,0.7-0.8c0,0,0,0,0.1-0.1c0,0,0.1-0.1,0.1-0.1c0.2-0.2,0.3-0.4,0.5-0.5c0.1,0,0.1,0,0.2,0
		c0.3,0.1,0.4,0.3,0.5,0.6c0,0.3-0.4,0.8-0.5,1.1c-0.2,0.4-0.5,0.7-0.5,1.1c0,0.2,0.1,0.7,0.3,1c0.3,0.5,0.8,0.6,1.3,0.6
		c0.3,0,0.6-0.1,1-0.1c0.1,0,0.2,0,0.3,0c0.7,0,1.9,0,1.5,0.4c-0.5,0.5-0.9,0.6-1.4,0.6c-0.5,0-0.8-0.1-1.1-0.1c-0.1,0-0.1,0-0.1,0
		c-0.3,0.3-0.5,0.4-0.5,0.4c0,0.1,0.3,0.5,0.4,0.5c0.3,0.3,0,0.7,0,0.8c-0.1,0-0.2-0.2-0.3-0.2c-0.1,0-0.2,0-0.2,0
		c-0.1,0-0.2,0-0.2,0c-0.3,0.1-0.5,0.2-0.6,0.4c-0.2,0.3,0,0.8-0.2,1.3c-0.1,0.2-0.5,0.7-0.8,0.8c-0.4,0.1-1-0.1-1.4,0
		C94,15.4,93.5,16,93.2,16c0,0-0.1,0-0.1,0c-0.2,0-0.4-0.2-0.7-0.3c0,0-0.1,0-0.1,0c-0.4,0-1.1,0.1-1.4,0c-0.1,0-0.2-0.1-0.2-0.1
		c-0.2-0.3,0.8-0.6,0.9-0.6c0.3-0.2,0.2-0.3,0.2-0.4c0-0.1-0.1-0.5-0.3-0.6c0,0-0.1,0-0.1,0c-0.2,0-0.5,0.2-0.8,0.2c0,0,0,0-0.1,0
		c-0.2-0.1,0-0.7-0.1-0.8c-0.1-0.1,0.1-0.4,0-0.4c0,0-0.1,0-0.1,0c-0.4,0-0.9,0.8-0.9,1.3c0,0.2,0.2,0.4,0.2,0.6
		c0,0.4,0.3,0.5,0.2,0.7c-0.1,0.2-0.3,0.5-0.5,0.6c-0.3,0.1-1,0-1.2,0.2c-0.2,0.1-0.5,0.5-0.9,0.9c-0.7,0.6-1.4,1.1-2,1.7
		c-0.5,0.5-0.9,0.9-1.4,1.1c-0.3,0.1-0.2,0-0.6,0.1c-0.2,0.1-0.3,0.2-0.5,0.3c-0.6,0.2-1,0.1-1.1,0.5c0,0.2,0,0.3,0,0.3
		c0.1,0.1,0.2,0.1,0.3,0.1c0.1,0.1,0.3,0.3,0.4,0.4c0.1,0.1,0.2,0,0.3,0.1c0,0,0,0,0,0c0.1,0.1,0,0.2,0.1,0.3c0,0,0,0,0,0
		c0,0,0,0,0,0c0.1,0.1,0.1,0.1,0.2,0.2c0,0.1,0.1,0.1,0.1,0.3c0.2,0.4,0.2,0.7,0.1,1.2c-0.1,0.8-0.3,1.4-1.1,1.5
		c-0.5,0.1-1.1-0.2-1.6-0.3c-0.6-0.1-1.3-0.2-1.7,0c-0.1,0-0.4,0.5-0.5,0.5C78,25.7,78,26.3,78,26.7c-0.1,0.8-0.4,2.7-0.2,3.6
		c0,0.2,0.1,0.3,0.1,0.4c0.2,0.3,0.7,0.2,1.1,0.5c0.3,0.2,0.5,0.3,0.6,0.6c0,0.1,0.1,0.2,0.1,0.3l0.6-0.1c0,0,0,0,0-0.1l0,0
		c0,0,0,0,0,0c0-0.6,1.1-0.6,1.7-0.8c0.4-0.1,0.7-0.4,1-0.8c0.2-0.2,0.4-0.4,0.5-0.7c0.2-0.4,0.2-1,0.5-1.5c0-0.1,0.1-0.1,0.2-0.2
		c0,0,0.1-0.2,0.1-0.2c0.3-0.4,1-0.7,1.3-1.1c0.3-0.3,0.5-1.1,0.8-1.2c0.3-0.1,1,0,1.4-0.1c0.9-0.2,1.4-0.9,2-0.9
		c0.1,0,0.3,0.1,0.4,0.2c0.3,0.2,0.5,0.6,0.7,0.9c0.1,0.1,0.1,0.4,0.2,0.5c0,0,0,0.1,0.1,0.1c0.2,0.2,0.5,0.8,0.7,0.9
		c0.1,0,0.3,0.2,0.4,0.2c0.1,0,0.2,0.1,0.4,0.2c0.2,0.1,0.5,0.2,0.6,0.4c0.3,0.3,0.5,0.4,0.8,0.8c0.1,0.1,0.1,0.5,0.1,0.8
		c-0.2,0.5-0.6,0.7-0.7,0.7c-0.2-0.1-0.4-0.2-0.7-0.1C92.5,29.9,92,30,92,30c0,0.5,1.1,1.3,1.3,1.3c0.2,0,0.3-0.1,0.4-0.2
		c0,0,0.2-0.3,0.2-0.3c0.1-0.3,0.3-0.5,0.6-0.8c0,0,0,0,0.1-0.1c0.1-0.2,0.3-0.4,0.3-0.5c0,0,0,0,0,0c0-0.1,0-0.1,0.1-0.2
		c0,0,0,0,0,0c0-0.1,0-0.1,0.1-0.2c0.1-0.2-0.5-0.3-0.3-0.7c0,0,0.1-0.1,0.1-0.1c0-0.1,0.7,0.3,0.8,0.1c0-0.1,0.3-0.3,0.3-0.3
		c0,0,0,0,0,0c-0.1-0.1-0.4-0.2-0.5-0.3c0,0,0,0,0,0c0,0-0.3-0.2-0.4-0.3c0,0-0.1,0-0.1,0c-0.2-0.1-0.4-0.2-0.5-0.4
		c-0.4-0.3-0.8-0.6-1.1-0.9c-0.3-0.3-0.7-0.7-0.9-1c-0.3-0.4-0.9-1.2-0.2-1.5c0.2-0.1,0.3,0,0.5,0.1c0.2,0.1,0.4,0.4,0.7,0.6
		c0.1,0.1,0.2,0.1,0.3,0.2c0.1,0.1,0.1,0.1,0.2,0.2c0,0,0,0,0,0c0.1,0.1,0.3,0.1,0.5,0.2c0,0,0,0,0,0c0.2,0.1,0.3,0.3,0.5,0.4
		c0,0,0.1,0.1,0.1,0.1c0.2,0.1,0.4,0.2,0.6,0.4c0.3,0.2,0.6,0.4,0.8,0.6c0.2,0.3,0.3,0.7,0.4,1.1c0.1,0.4,0.1,0.8,0.3,1.2
		c0.2,0.5,0.3,0.7,0.5,0.9c0.1,0.1,0.2,0.1,0.3,0.2c0,0,0,0,0.1,0c0.1,0.1,0.2,0.1,0.2,0.2c0,0.5,0,0.3,0,0.5c0,0.3,0.9,1.1,1.1,1.2
		c0.4,0.3,0.7,0.8,0.4,0.9c-0.1,0,0,0.1,0,0.1c0,0.1,0.2,0.3,0.2,0.4C99.7,33,99.9,33,100,33c0.2,0,0.3,0.3,0.8,0.3
		c0.3,0,0.5-0.5,0.5-0.5c0-0.7-0.8-0.3-1.3-0.8c-0.2-0.2-0.1-0.6,0-0.6c0.1-0.2,0.8-0.5,0.7-0.9c0-0.3-2.2-1.8-2.1-2.1
		c0-0.2,0.2-0.3,0.4-0.3c0.4,0.1,0.6,0.2,1-0.2c0.2-0.2,0.3-0.3,0.5-0.2c0,0,0,0,0,0c0,0,0,0,0,0c0,0,0,0,0,0c0,0,0,0,0,0
		c0,0,0,0,0,0c0.2,0.2,0.4,0.5,0.6,0.8c0.2,0.3,0.2,0.7,0.5,1.1c0.2,0.3,0.6,0.8,1,0.9c0.5,0.1,0.9-0.2,1.4-0.2
		c0.3,0,0.6,0.2,0.9,0.3c0,0,0.1,0.1,0.1,0.3c0,0.2,0.3,0.5,0,0.7c-0.2,0.2,0.2,0.6,0.2,0.6c0.1,0,0.1,0,0.2,0c0,0,0.6-0.4,0.6-0.7
		c0-0.2-0.5-0.4-0.4-0.6c0-0.2,0.1-0.3,0.1-0.3c0.2,0,0.3-0.1,0.6-0.1c0.3,0,0.7-0.2,0.9,0.1c0.2,0.2,0.1,0.5,0.1,0.9l0.1-0.1
		c0.2-0.1,1.7-0.7,2.8-0.8c0.6,0,2-0.1,2.3-0.8c0.3-0.7,0.3-0.8,0.1-1.7c-0.1-0.2,0.3-0.3,0.5-0.3c0.1,0,0.3,0.6,0.8,0.7
		c0.4,0.1,0.9-0.9,1.3-0.7c0.2,0.1,0.3,0.3,0.5,0.5c0-0.4,0.2-0.9,0.1-1.3c-0.1-0.7-0.7-1.3-1.1-1.8c-0.8-1.1-1.4-1.9-0.5-3
		c0.1-0.1,0.2-0.1,0.3-0.2c0.1-0.1,0.5-0.5,0.5-0.6c0,0,0.1-0.1,0.2-0.1c-0.1-0.4-0.1-0.8-0.2-0.9c0,0-1.3-0.8-1.3-1.3
		c-0.1-0.7,0.9-2.1,1.5-2.4c0.7,0,1.2,0.1,1.2,0.2c0.2,0.2,0.9,0.5,1.1,0.4c0.2-0.1,0.3-0.9,0.3-0.9l0-0.1c0,0,0,0,0,0
		c0.2,0.2,1.4,1,1.7,0.8c0.2-0.1,1.5,0.4,1.5,0.4l1.7-0.4c0,0,1.2-0.2,1.5-0.2c0.3,0,0.9-0.2,1.3-0.5s-0.6-2.3-0.6-2.3
		s0-0.1,0.1-0.3l0,0c0.1,0,0.9,0,1.5,0.8c0.1,0.2,0.2,0.3,0.4,0.5c0.3,0.5,0.6,0.9,1.1,1.2c0.8,0.5,1.5,0.9,1.9,1
		c0.1,0,0.3,0.1,0.7,0.2c1.5,0.4,4.5,1.3,5,1.3c0.6,0,1.2-0.5,1.5-0.9c0.1-0.2,0.1-0.4,0.1-0.6c0-0.3,0-0.7,0.4-0.9
		c0.1-0.1,0.2-0.2,0.3-0.2c0,0,0.1,0.1,0.1,0.1c0.4,0.3,1.4,0.2,2.1,0.1c0.1,0.1,0.2,0.3,0.3,0.4l0,0c0.2,0.3,0.3,0.4,0.6,0.3
		c0.1,0,0.1-0.1,0.2-0.1c0.1,0.2,0.2,0.3,0.5,0.3c0.6,0,0.9,0.1,1.3,0.3c0.4,0.1,0.4,0.9,0.9,0.4c0.5-0.4,0.9-0.7,1.4-0.8
		c0.3-0.1,0.8-0.4,1.2-0.7c0.2,0.3,0.4,0.5,0.5,0.7c1.2,1.3,3.1,0.7,3.1,0.7l0,0l0,0c0,0,4,0.3,4.4-0.4c0.2-0.2,0.2-0.5,0.2-0.6
		l1.4-0.1l1.9-0.6c0.5,0.1,1.5,0.7,2.2,0.5c0.2-0.1,1.4-0.8,2.5-0.2c0.8,0.5,1.5,2.5,2.4,3.2c0.7,0.5,2.2-0.2,3.3-0.4l0.9,2.8
		l0.3,2.4c0.2,0.1,0.2,0.2,0.3,0.4l-0.1,0.1c0.1,0.3,0.2,0.6,0.6,0.6c0.1,0,0.1,0,0.2,0c0.3,0,0.6-0.6,0.6-0.8
		c0.2-0.6,0.4-1.2,0.5-1.8c0.4-2.3-0.3-3.7-1.1-4.8c-0.4-0.5-0.7-1.2-1.1-1.6c-0.3-0.4-0.8-0.7-1-0.8c-0.1,0-0.2,0-0.3,0
		c-0.5,0-0.9,0.2-1.4,0.2c-0.1,0-0.1,0-0.2,0c-0.4-0.1-0.8-0.4-0.9-0.9c-0.1-0.4,0.1-0.5,0.2-0.6c0.2-0.8,0.2-1.7,0.5-2.1
		c0,0,0.2-0.1,0.2-0.1c0.1-0.1,0-0.2,0.1-0.3c0.2-0.2,0.7-0.5,1.2-0.6c0.1,0,0.3,0,0.5,0c0.5,0,1,0.1,1.5,0c0.1,0,0.2,0,0.4,0
		c0.3,0,0.6-0.1,0.8-0.1c0,0,0,0,0,0c0.4,0,1,0.4,1.4,0.3c0.1,0,0.2,0,0.3,0c0.6-0.3,0.2-1,0.5-1.6c0.1-0.2,0.3-0.3,0.5-0.4
		c0,0,0.1,0,0.1,0c0.2,0,0.4,0.1,0.6,0.1c0.2,0.1,0.8,0.3,0.9,0.3c0,0,0,0,0,0c0,0,0.1,0,0.1,0c0.2,0,0.6-0.8,1-0.9c0,0,0,0,0,0
		c0.2,0,0.4,0.1,0.6,0.3c0.2,0.4,0.2,1.1,0.1,1.5c0,0.3-0.1,0.6-0.2,0.9c-0.1,0.6-0.3,1.2-0.3,1.7c0,0.2,0.3,0.7,0.5,1
		c0,0.2,0.1,0.3,0.1,0.4c0.1,0.1,0,0.2,0.1,0.3c0.6,0.8,0.4,1.2,1.1,1.9c0.4,0.4,0.2,1.4,0.6,2c0.2,0.3,1-0.6,1.1-1c0,0,0-0.1,0-0.1
		c0.3,0.3,0.5,0.5,0.8,0.4c0.2-0.1,0.3-0.4,0.3-0.8c0-0.3-0.2-0.6-0.2-1c0-1.1,0.1-1.3-0.2-2c-0.3-0.8-0.7-1.1-1.4-1.7
		c-0.1-0.1-0.2-0.2-0.3-0.3c-0.1-0.3,0-0.6,0-0.9c0,0,0.2-0.4,0.3-0.5c0.1-0.1,0.4-0.2,0.5-0.3c0.3-0.2,0.7-0.4,1-0.5
		c0.2,0,0.3,0.1,0.5,0.1c0,0,0,0,0.1,0c0.1,0,0.1,0,0.2,0c0.4-0.1,0.9-0.9,1.2-1.1c0.1-0.1,0.1-0.2,0.2-0.2c0.1,0,0.2-0.1,0.2-0.1
		c0.1,0,0.2,0,0.3,0c0.1,0,0.2,0,0.2,0c0.2-0.1,0.4-0.1,0.4-0.6c0-0.7-1.5-0.6-1.8-0.9c0,0-0.2-0.6-0.2-0.6c0-0.4,0.6-0.6,1-0.6
		c0.1,0,0.2,0,0.3,0c0.5,0.2,1,0.3,1.4,0.4c0.4,0.1,0.8,0.4,1.1,0.3c0.1,0,0.2,0,0.3-0.1c0.1-0.1,0.3-0.3,0.3-0.4
		C187,6.4,186.9,6.2,186.6,5.9z M109.3,26.5c-0.4,0.1-0.9-0.2-1.4-0.4c-0.2-0.1-0.4-0.1-0.6-0.2c-0.4-0.1-1.3-0.5-2-0.5
		c-0.5,0-1.1,0.3-1.5,0.5c-0.2,0.1-0.5,0.2-0.7,0.3c-0.3,0.1-0.5,0.4-0.8,0.2c0,0,0,0-0.1,0c-0.3-0.2-0.2-0.4-0.2-0.7
		c0-0.4,0.2-0.5,0.3-0.8c0.2-0.6,0.4-1.2,0.7-1.6c0.2-0.3,0.4-0.4,0.7-0.7c0.1-0.1,0.2-0.2,0.3-0.2c0.3-0.1,0.4,0,0.6,0
		c0.3,0.1,0.4,0.3,0.7,0.4c0.6,0.1,0.7-0.2,0.8-0.6c0.2-0.6,0-0.8,0.6-1.1c0.1-0.1,0.3-0.1,0.4-0.1c0.1,0,0.1-0.1,0.3-0.1
		c0.3,0,0.6-0.1,0.7,0.2c0.2,0.5-0.3,1-0.3,1.3c0.1,0.7,1.4,1.2,2.1,1.8c0.3,0.2,0.5,0.5,0.5,0.7C110.7,25.6,110,26.4,109.3,26.5z"
		/>
	<path class="st1" d="M82.5,3c-0.3,0.2-0.6,0.9-1.1,1.3c-0.1,0.1-0.2,0.1-0.3,0.1c-0.1,0.1-0.4,0.4-0.6,0.5
		c-0.4,0.2-1.1,0.2-1.3,0.4c-0.3,0.5,0,1.2-0.4,1.4c-0.2,0.1-0.1,0.1-0.3,0.2c-0.5,0.3-0.4,0.3-0.5,0.4c-0.1,0.2-0.1,0.2,0,0.4
		c0,0.2,0.1,0.4,0.3,0.6c0.2,0,0.6,0.2,1,0.1c0.8,0,1.6-0.2,1.7,0.3c0.1,0.5-0.3,0.7-0.8,1c-0.3,0.1-0.6,0.4-0.9,0.5
		c-0.2,0.1-0.5,0.1-0.6,0.1c-0.1,0-0.2-0.2-0.4-0.3c-0.4-0.4-1.6-0.4-1.7-0.7c0-0.1,0.4-0.4,0.5-0.6c0,0,0.2-0.1,0.2-0.1
		c0.1-0.1,0.3-0.2,0.6-0.2c-0.1-0.4-0.8-0.7-0.8-0.7c-0.2,0.1-0.6,0.1-0.9,0.1c-0.3,0-0.6,0.1-0.8,0.1c-0.9,0-1.5-0.2-2.2,0.4
		c-0.1,0.1-0.4,0.2-0.6,0.4c-0.3,0.2-0.6,0.5-1,0.7c-0.9,0.4-1.9,0.2-2.7,0.6c-1.1,0.5-1.8,1.7-2.5,2.7c-0.1,0.1-0.1,0.1-0.2,0.2
		c-0.2,0.3-0.3,0.5-0.7,0.8c-0.3,0.2-0.6,0.3-1.2,0.1c-0.6-0.2-0.9-0.5-1.3-1c-0.5-0.7-0.5-1-0.5-2.1c0-0.5-0.1-1.2,0-1.5
		c0-0.2,0.2-0.4,0.4-0.5c0.4-0.4,1-0.5,1.4-1.1c0.1-0.2,0.4-0.4,0.4-0.7c0-0.2-0.3-0.4-0.4-0.6c-0.1-0.2-0.2-0.5-0.3-0.6
		c0,0-0.2-0.1-0.2-0.1c0,0,0-0.1,0-0.2c0,0-0.2-0.1-0.2-0.1c0-0.1,0-0.1,0-0.2c0,0-0.2-0.1-0.2-0.1c-0.1-0.2-0.2-0.3-0.4-0.5
		c-0.1-0.1-0.8-0.4-1.1-0.5c-0.3-0.1-1.3,0-1.9,0c-0.4,0-1.6,0.2-1.4-0.6c0.1-0.4,0.3-0.2,0.7-0.3c0.7-0.1,2-0.3,2.5-0.4
		c1.2-0.2,2.1-0.6,3.2-0.7c1.6-0.1,3.2,0.1,4.8,0c1.1-0.1,2.1-0.2,3.2-0.3c1.7-0.1,3.3,0,5-0.1c0.5,0,1.5-0.2,2.3-0.1
		c0.3,0,0.7,0.1,1.2,0.2c0.7,0.1,1.5-0.1,1.6,0.5C83.4,3,82.8,2.7,82.5,3z"/>
	<path class="st1" d="M84.6,17.5c-0.1,0.1,0.3,0.4,0.2,0.4c-0.2,0.2-1.2,0.2-1.8,0.4c-1.5,0.5-1.9,0.2-1.8,0.1
		c0.2-0.4,1.2-0.5,1.2-0.5c0-0.1,0.1-0.4,0-0.5c-0.1,0-0.3,0.1-0.4,0c0-0.1-0.5-0.2-0.5-0.3C81.4,17,82,16.7,82,16.7
		c-0.1-0.4,0-0.6,0.4-0.7c0.2-0.1,0.6-0.1,0.5-0.5c-0.1-1.1-0.6-0.7-0.9-0.9c-0.5,0.1-0.8,0.6-0.8,0.7c0.1,0.2-0.4,0.4-0.5,0.7
		c-0.2,0.5,0,1-0.7,1.2c-0.1,0-0.4,0.1-0.4,0.1c-0.4,0.1-1,0.4-1.1,0.2c-0.3-0.5,0.3-0.6,0.4-0.9c0.1-0.4-0.2-0.6-0.1-0.9
		c0.2-0.3,0.6-0.4,1.1-0.9c0.1-0.1,0.4-0.1,0.5-0.1c0.8,0.1,1.2-0.1,1.3-0.7c0-0.1,0-0.1,0-0.1c-0.1-0.7-0.1-0.8,0.1-1.2
		c0.1-0.1,0.1-0.4,0.3-0.4c0.1,0,0.4,0,0.4,0.1c0,0.2,0,0.3,0.1,0.4c0.1,0,0.3,0,0.5,0.1c0.1,0.1-0.1,0.4-0.1,0.5
		c0.1,0.2-0.4,0.5-0.2,0.6c0.1,0.1,0.4,0.2,0.4,0.2c0.3,0.2,0.4,0.3,0.7,0.7c0.1,0.1,0.2,0.3,0.2,0.4c0.1,0.2,0.3,1.1,0.4,1.3
		c0.2,0.4,0.7-0.1,0.9,0.3C85.4,16.9,84.9,17.2,84.6,17.5z"/>
</g>
<path class="st1" d="M42.4,48.9c-0.3,0.2-1.4,0.6-1.9,0.6c-0.2,0-0.8,0-1.1-0.1c-0.1,0-0.6,0.2-0.9,0.1c-0.6,0-1-0.6-1-0.6
	c0-0.1,1.3-0.1,1.8-0.4c0.2-0.1-0.1-0.3-0.2-0.4c-0.1-0.1-0.8-0.4-1.2-0.5c0,0,0,0,0,0c-0.4,0.1-1.3-0.1-1.8-0.1c-0.3,0-0.8,0-1-0.2
	c0,0-0.1-0.1-0.1-0.1c-0.1-0.1,0-0.3-0.1-0.5c-0.2-0.2-0.4-0.5-0.7-0.6c-0.6-0.2-1.1-0.5-1.4-0.6c-0.4-0.1-0.9,0.1-1.2,0.3
	c-0.2,0.1-0.2,0.4-0.5,0.4c-0.1,0-0.3-0.1-0.4-0.1c-0.2,0-0.2-0.5-0.2-0.6c0-0.2,1-0.4,1-0.4c0-0.1,0.1-0.1,0.3-0.1c0,0,1.7,0,1.8,0
	c0,0,0.2,0.1,0.7,0.2c0,0,0.2,0.1,0.3,0.1c0.1,0,0.3,0,0.4,0.1c0.4,0.2,1.2,0.9,1.8,1.2c0.1,0,0.1,0.1,0.2,0.1c0.1,0,0.2,0,0.2,0.1
	c0,0,0.2,0.1,0.2,0.1c0.1,0,0.7,0.2,0.8,0.3c0,0,0,0,0,0c0,0,0,0,0,0c0,0,1,0.6,1.1,0.6c0.2,0.1,0.6-0.1,0.6-0.1
	c0.2,0,1.7,0.5,2.2,1C42.3,48.5,42.6,48.7,42.4,48.9z"/>
<g>
	<path class="st0" d="M106.8,36.1c0,0-0.1-0.2-0.3-0.6c-0.1,0-0.2,0.1-0.2,0.1c-0.7,0.3-1.1,0.7-2,0.7c-0.5,0-1-0.2-1.5-0.3
		c-0.7-0.1-1.2-0.3-1.7-0.5c-0.1,0-0.2,0-0.4-0.1c-0.4-0.2-1.2-0.9-1.9-0.8c-0.3,0.1-0.7,0.3-0.8,0.6c-0.2,0.4,0,1.3-0.6,1.5
		c-0.3,0.1-1-0.2-1.4-0.4c-0.5-0.2-0.4-0.1-0.8-0.5c-0.1-0.1-0.3-0.2-0.5-0.3c-0.3-0.3-0.6-0.7-1.1-0.9c-0.5-0.2-1-0.2-1.4-0.5
		c-0.3-0.2-0.5-0.2-0.6-0.5c-0.1-0.1,0-0.1-0.1-0.2c-0.2-0.3,0-1.4-0.1-1.9c-0.1-0.4-0.5-0.9-0.7-1c-0.2-0.1-1.1,0.3-1.5,0.4
		c-0.8,0.1-1.9-0.1-2.7,0c-0.6,0.1-1.4,0.3-1.8,0.5c-0.4,0.2-1,0.6-1.5,0.9c-0.5,0.2-2,0.2-2.4-0.2c-0.1-0.1-0.1-0.1-0.1-0.1
		l-0.6,0.1c0,0,0,0.1,0,0.1c0,0.1,0,0.2,0,0.3c-0.1,0.4-0.5,0.8-0.9,1.1c-0.5,0.5-1.1,0.8-1.3,1.2c0,0-0.2,0.1-0.2,0.1
		c-0.1,0.2-0.1,0.5-0.2,0.7c0,0-0.2,0.1-0.2,0.2c-0.1,0.4,0,0.9-0.1,1.2c-0.1,0.2-0.4,0.6-0.6,0.8c-0.3,0.2-0.6,0.4-0.8,0.6
		c-0.2,0.2-0.5,0.7-0.7,0.9c-0.1,0.1-0.1,0.1-0.2,0.2c-0.4,0.5-0.8,1.2-1.1,1.8c0,0,0,0.2-0.1,0.3c-0.1,0.3-0.4,0.5-0.5,0.8
		c-0.2,0.3-0.2,0.7-0.4,1c-0.3,0.7-0.8,1.3-0.8,1.9c0,0.4,0.2,0.7,0.3,1c0.4,1.2,0.3,2.6-0.1,3.5c-0.1,0.4-0.4,0.6-0.5,1.1
		c-0.1,0.6,0.2,1,0.3,1.4c0.1,0.4,0,0.9,0.1,1.2c0.2,0.5,1,1.2,1.4,1.8c0.2,0.3,0.5,0.8,0.7,1.2c0.2,0.5,0.3,1.1,0.5,1.5
		c0.1,0.2,0.4,0.5,0.7,0.8c0.2,0.3,0.5,0.6,0.7,0.8c0.6,0.5,1.5,1,2.1,1c0.8,0,1.8-0.7,2.4-0.7c0.5,0,1,0.3,1.5,0.3
		c0.3,0,0.7-0.3,0.9-0.4c0.4-0.2,0.7-0.3,0.9-0.4c0.9-0.4,2-0.9,2.9-0.4c0.6,0.4,0.7,1.3,1.4,1.5c0.1,0,0.8-0.1,1.2,0
		c0.2,0.1,0.4,0.3,0.5,0.5c0.4,0.4,0.6,0.7,0.6,1.2c0.1,1.1-0.5,2.4-0.4,3.6c0,0.4,0.2,0.8,0.4,1.1c0.4,0.7,1.1,1.1,1.4,2
		c0.1,0.3,0.1,0.6,0.2,1c0,0.1,0.2,0.3,0.3,0.5c0.2,0.6,0.6,1.3,0.6,1.7c0.1,0.5-0.1,1.2,0,1.7c0.1,0.6,0.3,1.1,0.3,1.4
		c0,0.3-0.2,0.5-0.3,0.8c-0.1,0.3-0.2,0.5-0.3,0.8c-0.1,0.2-0.3,0.4-0.4,0.7c0,0.1-0.1,0.3-0.1,0.5c-0.1,0.4-0.2,0.8-0.3,1.3
		c0,0.3-0.1,0.7-0.1,1c0,0.6,0.3,1.2,0.5,1.5c0.6,1.2,1,2.7,1.4,4c0.2,0.6,0.3,1.2,0.4,1.7c0.1,0.4,0,0.7,0.1,1.1
		c0,0.3,0.1,0.8,0.2,1.2c0,0.1,0.2,0.2,0.3,0.4c0.1,0.2,0.1,0.4,0.2,0.6c0.1,0.1,0.3,0.2,0.4,0.4c0,0,0,0.2,0,0.2c0,0,0.2,0,0.2,0
		c0.1,0.1,0,0.2,0.1,0.3c0.2,0.3,0.4,0.7,0.5,1.1c0.2,0.4,0.4,0.9,0.5,1.2c0.1,0.5-0.1,1.4,0.1,1.7c0,0.1,0.5,0.5,0.7,0.6
		c0.6,0.2,1.3-0.4,2.3-0.4c0.4,0,0.5,0.2,0.7,0.2c0.3,0.1,0.8,0,1,0c0.4-0.1,0.6-0.4,0.8-0.6c0.6-0.4,1-0.8,1.4-1.3
		c0.2-0.2,0.4-0.4,0.5-0.6c0.1-0.1,0-0.2,0.1-0.3c0.2-0.2,0.4-0.5,0.6-0.8c0.2-0.3,0.4-0.6,0.5-0.9c0.4-0.6,1-1.3,1.1-1.8
		c0.1-0.5-0.1-1.1,0-1.3c0-0.1,0.3-0.3,0.4-0.4c0.4-0.4,1.1-0.7,1.4-1.2c0.2-0.3,0.4-1.1,0.4-1.4c0-0.7-0.5-1.1-0.4-2
		c0-0.2,0.2-0.4,0.3-0.7c0.2-0.4,0.5-0.6,0.6-0.9c0.1-0.1,0.1-0.3,0.2-0.4c0.3-0.4,0.5-0.5,0.7-0.7c0.1-0.1,0.1-0.1,0.2-0.2
		c0.4-0.3,0.7-0.4,1-0.7c0.3-0.2,0.5-0.5,0.6-0.8c0,0,0.2-0.1,0.2-0.1c0.3-0.4,0.4-0.7,0.5-1.2c0.2-0.8,0-1.3-0.1-2
		c-0.1-0.5,0-1-0.1-1.4c-0.1-0.3-0.4-0.7-0.5-1.1c0-0.1,0-0.3-0.1-0.5c-0.2-0.8-0.5-2.1-0.4-3.3c0-0.3,0.3-0.8,0.4-1.1
		c0.2-0.4,0.3-0.5,0.5-0.8c0.9-1.1,1.4-2.1,2.3-3.3c0.1-0.2,0.1-0.3,0.3-0.5c0.4-0.4,0.8-0.9,1.2-1.2c0.6-0.6,1.5-1.2,1.8-1.9
		c0.2-0.3,0.2-0.8,0.4-1.1c0.2-0.4,0.3-0.7,0.5-1.1c0.1-0.1,0.1-0.2,0.2-0.4c0.3-0.8,0.5-1.2,0.8-2.2c0.1-0.4,0.4-1,0.4-1.4
		c-0.2-1.2-1.6-0.2-2.1,0c-0.4,0.1-0.8,0.1-1.2,0.2c-0.5,0.1-0.9,0.3-1.3,0.2c-0.2,0-0.5-0.3-0.6-0.4c-0.6-0.6-0.5-1.4-0.9-2.2
		c-0.2-0.4-0.9-1-1.2-1.2c-0.3-0.3-0.6-0.4-0.8-0.8c-0.3-0.5-0.6-1.2-0.9-1.8c-0.3-0.7-0.8-1.2-1-1.7c-0.2-0.5-0.2-1.2-0.4-1.6
		c-0.1-0.4-0.4-0.7-0.5-1.1c-0.4-0.9-1.1-2.3-1.5-3.3c-0.3-0.7-0.6-1.5-0.8-1.9c-0.1-0.1-0.2-0.2-0.2-0.3c-0.1-0.2-0.3-0.6-0.2-0.7
		c0-0.2,0.3-0.1,0.3-0.1c0.1-0.1,0.1-0.2,0.2-0.3c0,0,0,0,0,0c0-0.1,0-0.2,0-0.2C107,37,106.9,36.3,106.8,36.1z"/>
	<path class="st1" d="M119.6,76.7c0.5-0.2,0.6-0.1,0.8,0.6c0.2,0.6,0.2,0.9,0.1,1.6c-0.1,0.9-0.4,1.7-0.8,2.5
		c-0.1,0.1,0,0.1-0.1,0.2c-0.1,0.1-0.1,0.3-0.2,0.5c-0.2,0.6-0.6,1.7-0.7,2.6c-0.1,0.4-0.1,0.9-0.2,1.2c-0.2,1-0.2,1.2-1,1.6
		c0,0-0.1,0.2-0.1,0.2c-0.4,0.2-1,0.1-1.4-0.2c-0.5-0.4-0.8-1.5-0.7-2.6c0.1-0.9,0.7-1.3,0.8-2.3c0-0.5-0.2-1.2-0.1-1.8
		c0-0.3,0.2-0.7,0.3-0.9c0,0,0.2-0.1,0.2-0.1c0.1-0.3,0.4-0.5,0.7-0.8c0.2-0.2,0.7-0.4,1-0.6c0.1,0,0.2,0,0.3-0.1
		c0.5-0.4,0.7-1.1,1-1.6C119.5,76.7,119.5,76.7,119.6,76.7z"/>
</g>
<g>
	<path class="st0" d="M106.9,37.5C106.9,37.5,106.9,37.6,106.9,37.5c0.1,0.1,0.4,0.3,0.6,0.5c0,0,0.1,0.1,0.1,0.1
		c0.1,0.2,0.2,0.4,0.3,0.6c0.3,0.6,0.5,1.2,0.8,1.6c0.2,0.3,0.4,0.4,0.5,0.7c0.2,0.2,0.3,0.4,0.4,0.5c0.1,0.1,0.3,0.4,0.4,0.6
		c0.1,0.1,0.1,0.3,0.2,0.5c0.1,0.2,0.4,0.5,0.5,0.8c0.1,0.2,0,0.5,0.1,0.7c0.1,0.3,0.3,0.7,0.4,0.9c0.2,0.5,0.6,1,0.8,1.2
		c0.3,0.4,0.7,1.1,1,1.5c0.1,0.1,0.1,0.3,0.2,0.5c0.1,0.2,0.2,0.3,0.3,0.5c0,0,0,0.1,0,0.1c0.2,0.6,0.2,1.4,0.4,2
		c0.2,0.6,0.4,1.1,0.9,1.2c0.3,0,0.4,0,0.6-0.1c0.3-0.1,0.7-0.3,1-0.5c0.5-0.2,0.7-0.3,1-0.5c0.6-0.3,1.4-0.6,1.7-0.9
		c0.1-0.1,0.2,0,0.3-0.1c0.4-0.3,0.7-0.9,1.2-1.3c0.4-0.3,1-0.5,1.4-0.7c0.4-0.2,1-0.8,1.3-1.2c0.3-0.5,0.5-1.1,0.9-1.7
		c0.4-0.7,1.1-1.2,1.1-1.7c0,0-0.2-0.2-0.3-0.3c-0.3-0.5-0.3-0.4-0.6-0.7c-0.1-0.1-0.2-0.3-0.4-0.5c-0.1-0.1-0.4-0.2-0.5-0.3
		c-0.3-0.3-0.4-0.3-0.7-0.5c-0.1-0.1-0.1-1.2-0.3-1.2c0,0,0,0,0,0c-0.1,0-0.4,0.5-0.5,0.6c-0.2,0.1-0.3,0.4-0.6,0.6
		c-0.4,0.3-0.7,0.5-0.9,0.6c-0.1,0-0.2,0-0.3,0c-0.4,0-0.8-1.3-1.1-1.5c-0.1-0.1-0.1-0.1-0.2,0c-0.1,0,0,0.4-0.2,0.5
		c-0.1,0-0.2,0-0.4-0.1c-0.2-0.1-0.3-0.9-0.4-1c-0.1-0.2-0.2-0.4-0.4-0.7c-0.1-0.2-0.2-0.3-0.3-0.5c0-0.1-0.4-1.4-0.4-1.7
		c0,0,0-0.1,0.1-0.1c0.1-0.2,0.4-0.4,0.6-0.4c0.6,0,1.1,0.9,1.3,1.3c0.1,0.2,0.2,0.5,0.3,0.7c0,0,0.2,0.3,0.2,0.3
		c0.2,0.1,0.2,0.2,0.3,0.3c0.2,0.3,1.4,0.7,1.8,0.7c0.1,0,0.2,0,0.3-0.1c0.2-0.1,0.2-0.3,0.4-0.3c0.1,0,0.2,0,0.5,0.1
		c0.3,0.2,0.7,0.6,1,0.9c0.1,0.1,0.1,0.2,0.1,0.3c0.1,0.1,0.2,0,0.3,0.1c0.8,0.4,1.7,0.4,2.8,0.4c0.5,0,1-0.1,1.4-0.1
		c0.1,0,0.2,0,0.3,0c0.1,0,0.1,0,0.2,0c0.2,0,0.4-0.1,0.6,0c0.6,0.1,1.5,1.4,2,1.8c0.1,0.1,0.3,0.3,0.4,0.4c0,0,0.1,0,0.1,0
		c0.1,0,0.4-0.1,0.5-0.1c0,0,0.1,0,0.1,0c0.1,0.7-0.6,0.5-0.6,0.9c0.1,0.5,0.6,0.6,0.6,0.7c0.1,0.2,0.2,0.2,0.4,0.2
		c0.1,0,0.1,0,0.2,0c0,0,0,0,0,0c0,0,0,0,0.1,0c0.5,0,0.7-1.1,1.1-1.1c0.1,0,0.1,0,0.2,0.1c0.2,0.1,0.2,0.5,0.2,1
		c0,0.6-0.1,1.3-0.1,1.6c0.1,0.8,0.5,1.8,0.7,2.4c0.2,0.5,0.2,1.1,0.3,1.4c0.1,0.1,0.2,0.3,0.2,0.5c0.2,0.4,0.4,0.9,0.6,1.3
		c0.2,0.4,0.4,0.8,0.5,1.2c0.1,0.2,0.2,0.4,0.3,0.7c0.1,0.3,0.2,0.7,0.3,1c0.4,1,0.7,1.8,1.4,1.2c0.1-0.1,0.3-0.2,0.4-0.4
		c0,0,0,0,0,0l0.6,0.4c-0.1,1.2,0,2,0.5,2.2c0.1,0.2,0.3,0.3,0.5,0.3c0.1,0,0.6,0,0.6-1c0-0.5-0.2-1.2-0.5-1.6c0,0,0,0,0,0
		c0-0.1-0.1-0.2-0.1-0.3c0-0.1-0.1-0.1-0.1-0.2c0-0.2-0.1-0.4-0.1-0.3c0,0,0,0,0,0.1c0,0,0,0,0-0.1c-0.1-0.1-0.3,0.1-0.4,0.2
		c0,0,0,0.1-0.2,0c-0.3-0.1-0.4-0.2-0.4-0.4c0.3-0.7,0.5-1.7,0.5-2.6c0-0.5-0.3-1.7-0.1-2.3c0.1-0.6,1.1-0.7,1.4-1.2
		c0.7-0.9,1.4-2.4,2.2-3.3c0.1-0.1,0.3-0.2,0.4-0.3c0.1-0.2,0.2-0.3,0.3-0.5c0.2-0.3,0.4-0.6,0.6-0.8c0.2-0.1,0.6-0.1,1.1-0.3
		c0.4-0.1,0.7-0.3,0.9-0.3c0,0,0.1,0,0.1,0c0.5,0.1,0.7,0.7,0.9,1.1c0.1,0.1,0.1,0.4,0.2,0.5c0,0,0.2,0.1,0.3,0.1
		c0.2,0.1,0.2,0.4,0.3,0.5c0.1,0.1,0.2,0,0.3,0.1c0.3,0.3,0.5,0.6,0.6,0.9c0.2,0.3,0.2,1,0.4,1.4c0.1,0.3,0.2,0.5,0.3,0.7
		c0.1,0.3,0.2,0.5,0.4,0.6c0,0,0,0,0.1,0c0.2,0.1,0.6-0.1,0.7-0.2c0.8-0.9,0.9,0.7,1.2,1.5c0.2,0.6,0.6,1.3,0.7,1.9
		c0.1,0.6,0,1.3-0.1,1.8c0,0.4,0,0.9,0,1.3c0,0.2,0,0.3,0,0.5c0,0.1,0,0.1,0.1,0.2c0.1,0.2,0.4,0.4,0.4,0.5c0.1,0.1,0.1,0.1,0.2,0.2
		c0.1,0.1,0.2,0.4,0.3,0.5c0,0,0,0,0,0c0.2,0.3,0.5,0.6,0.6,0.9c0.3,0.7,0.3,1,0.4,1.2c0.1,0.5,0.2,0.6,0.3,1
		c0.1,0.2,0.1,0.5,0.2,0.7c0,0,0.2,0.1,0.2,0.1c0,0,0.1,0.1,0.2,0.2c0,0,0,0,0,0.1c0.1,0.1,0.1,0.2,0.2,0.2
		c-0.1,0.4-0.2,0.8-0.4,0.8c-0.1-0.1-0.2-0.1-0.2-0.2c-0.4-0.4-0.4-1-0.7-1.4c-0.1-0.2-0.5-0.4-0.6-0.5c-0.1-0.1,0-0.2-0.1-0.3
		c0,0-0.2-0.1-0.2-0.1c-0.5-0.3-1.3-1-1.7-1.1c-0.1,0-0.6-0.1-0.8-0.1c0,0-0.1,0-0.1,0c-0.1,0.1-0.1,0.2-0.1,0.4
		c0,0.3,0.2,0.9,0.6,1.4c0.3,0.5,0.9,0.9,1.1,1.1c0.8,1,1.4,1.9,2,3.1c0.4,0.7,0.6,1.4,1,2.1c0.4,0.8,1.2,2.1,2.1,2
		c0.2,0,0.9-0.5,0.9-1.2c0.1-1.1-1.1-2-1.7-3.2c-0.1-0.2-0.2-0.5-0.3-0.7c-0.1-0.2-0.4-0.8,0.3-1.3c0.1,0,0.2,0,0.2-0.1
		c0.1-0.1,0.1-0.6,0.1-0.8c0-0.2-0.2-0.6-0.3-0.9c-0.1-0.3-0.2-0.5-0.3-0.8c-0.1-0.2-0.3-0.8-0.4-1c-0.2-0.2-0.6-0.7-1.2-1.5
		c-0.3-0.3-0.5-0.7-0.7-1c-0.1-0.4-0.3-0.9-0.4-1.3c-0.1-0.5,0-1.1,0-1.6c0-0.6-0.1-1.2-0.1-1.4c0-0.1,0.1-0.1,0.2-0.2
		c0.1-0.2,0.2-0.3,0.3-0.3c0.1,0.1,0.3,0.2,0.4,0.3c0.2,0.2,0.5,0.4,0.6,0.6c0.5,0.6,0.7,1.4,1.2,1.8c0,0,0.1,0,0.1,0
		c0.1,0,0.2,0,0.3,0c0,0,0,0,0,0c0,0,0,0,0,0c0,0,0,0,0,0c0.2,0.1,0.3-0.1,0.4-0.2c0,0,0,0,0,0c0.3,0.4-0.1,0.8,0,1.2
		c0,0.1,0.1,0.2,0.2,0.2c0.1,0,0.1,0,0.1,0c0.5,0.1,1.1-1,1.5-1.4c0.5-0.5,0.9-0.7,1.1-1.2c0.4-1.2-0.3-2.9-0.7-3.5
		c-0.5-0.9-1.4-1.5-1.8-2.1c-0.2-0.3-0.5-0.7-0.5-1.1c0-0.9,0.8-2.1,1.7-2.1c0.1,0,0.2,0,0.3,0.1c0.1,0.1,0.2,0.1,0.3,0.2
		c0.2,1,0.4,1.4,0.6,1.3c0.3,0.1,0.6-1.2,0.8-1.4c0,0,0.1-0.1,0.1-0.2c0,0,0,0,0,0c0.3-0.2,0.5-0.4,0.7-0.5c0.5-0.2,1-0.1,1.4-0.2
		c0.2-0.1,0.4-0.2,0.5-0.3c0.3-0.1,0.6-0.2,0.7-0.3c0.3-0.3,0.6-0.5,0.9-1c0.4-0.7,0.6-1.1,0.8-1.7c0.1-0.4,0.2-1,0.4-1.5
		c0.1-0.5,0.6-1.9,0.1-1.9c-0.8,0-1.2-0.5-0.9-0.7c0.3-0.2,0.5-0.4,0.4-0.5c0,0-0.4-0.5-0.4-0.6c-0.3-0.5-0.7-0.8-1-1.1
		c-0.4-0.5-1.2-1.7-1.2-2.2c0-0.4,1.5-1,1.2-1.6c-0.3-0.6-1.5-0.2-2.1-0.3c-0.4-0.1-1.2-0.8-1.2-1.2c0-0.3,0.1-0.3,0.3-0.5
		c0.3-0.3,0.7-0.9,1.1-1c0.1,0,0.2,0,0.3,0c0.1,0,0.4,0.2,0.5,0.3c0,0.1,0,0.2,0,0.3c0.1,0.1,0.2,0.7,0.2,0.7c0,0,0.1,0,0.1,0
		c0.2,0,0.6-0.3,0.9-0.4c0.7-0.2,0.9,0,1.3,0.5c0.3,0.3,0,1,0.3,1.1c0.4,0,0.7,0.1,0.8,0.2c0.2,0.1,0.3,0.3,0.5,0.6
		c0.5,0.7,0.6,1.2,0.7,1.7c0.1,0.2,0.2,0.8,0.4,0.8c0,0,0.1,0,0.1,0c0.3,0,0.6-0.7,0.8-0.8c0,0,0.1,0,0.1,0c0.3,0,0.4-0.2,0.3-0.5
		c0,0.1,0,0.1,0,0c0-0.2,0-0.1,0,0c0-0.3-0.3-0.9-0.5-1.1c-0.1-0.1,0-0.1-0.1-0.2c-0.5-0.6-2-1.2-2-2c0-0.4,0.6-0.9,0.7-1.3
		c0.1-0.4-0.1-0.9,0-1.2c0.1-0.2,0.9-0.8,0.9-0.8l0,0l0.1,0l0.1,0l0,0l0.1,0l0,0l-0.3-2.4l-0.9-2.7c0,0-0.1,0-0.1,0l0,0
		c-1.1,0.2-2.5,0.8-3.2,0.4c-0.7-0.5-1.2-1.7-1.8-2.5c0,0-0.1-0.1-0.1-0.1c-0.2-0.2-0.3-0.4-0.5-0.5c0,0,0,0-0.1-0.1
		c-1.1-0.6-2.3,0.2-2.5,0.2c-0.8,0.2-1.8-0.3-2.2-0.5l-1.9,0.6l-1.4,0.1c0,0.2-0.1,0.4-0.2,0.6c-0.5,0.7-4.4,0.4-4.4,0.4h0l0,0
		c0,0-2,0.6-3.1-0.7c-0.1-0.1-0.3-0.4-0.5-0.6c0,0,0,0-0.1,0c0,0,0,0,0,0c-0.4,0.2-0.9,0.5-1.1,0.6c-0.5,0.1-0.9,0.3-1.4,0.8
		c-0.5,0.4-0.4-0.3-0.9-0.4c-0.3-0.1-0.7-0.3-1.3-0.3c-0.3,0-0.4-0.2-0.5-0.3c-0.1,0-0.1,0.1-0.2,0.1c-0.3,0.2-0.4,0-0.6-0.3l0,0
		c-0.1-0.1-0.2-0.2-0.3-0.3c0,0-0.1,0-0.1,0c0,0,0,0,0,0c-0.7,0.1-1.6,0.2-2-0.1c0,0-0.1,0-0.1-0.1c0,0,0,0,0,0c0,0,0,0,0,0
		c-0.1,0-0.2,0.1-0.3,0.2c-0.3,0.3-0.3,0.6-0.4,0.9c0,0.2,0,0.4-0.1,0.6c-0.2,0.5-0.8,0.9-1.5,0.9c-0.5,0-3.6-0.9-5-1.3
		c-0.4-0.1-0.6-0.2-0.7-0.2c-0.4-0.1-1.1-0.5-1.9-1c-0.5-0.3-0.8-0.7-1.1-1.2c-0.1-0.2-0.2-0.3-0.4-0.5c-0.6-0.8-1.4-0.8-1.5-0.8
		c0,0,0,0,0,0c-0.1,0.2-0.1,0.3-0.1,0.3s1,2,0.6,2.3c-0.4,0.3-1,0.5-1.3,0.5c-0.3,0-1.5,0.2-1.5,0.2l-1.7,0.4c0,0-1.2-0.5-1.5-0.4
		c-0.2,0.1-1.5-0.6-1.7-0.8c0,0,0,0,0,0l0,0.1c0,0-0.1,0.8-0.3,0.9c-0.2,0.1-0.9-0.2-1.1-0.4c-0.1-0.1-0.5-0.1-1.2-0.2
		c0,0,0,0-0.1,0c0,0,0,0,0,0c-0.7,0.3-1.6,1.6-1.5,2.3c0,0.5,1.3,1.3,1.3,1.3c0.1,0.2,0.1,0.5,0.2,0.9c0,0,0,0,0,0c0,0,0,0,0,0
		c0.2-0.1,0.5-0.2,0.6-0.2c0.2,0,0.3-0.1,0.5-0.1c0.4,0.1,0.9,0.4,0.9,0.8c0,0.1,0,0.2,0,0.3c-0.1,0.4-0.6,0.5-0.8,0.7
		c-0.2,0.1-0.2,0.3-0.3,0.5c-0.1,0.4,0.1,0.9,0.6,1.3c0.1,0.1,0.2,0,0.3,0.1c0.2,0.1,0.2,0.3,0.4,0.4c0.2,0.1,0.6,0.1,0.9,0.3
		c0,0,0.5,0.5,0.5,0.6c0,0.1,0,0.3,0,0.4c-0.1,0.2-0.2,0.3-0.2,0.3c0,0,0,0,0,0c0,0,0,0.1,0,0.1c0,0,0,0,0,0.1c0,0-0.1,0.1-0.1,0.2
		c0,0.1-0.1,0.2-0.1,0.3c0,0.3,0.2,0.4,0.4,0.7c0.1,0.1,0.3,0.4,0.4,0.6c0.1,0.4,0.1,1.2,0,1.5c-0.1,0.1-0.4,0.5-0.4,0.5
		c-0.3,0.1-1-0.2-1.3-0.3c-0.7-0.3-1.5-0.6-1.6-1.7c0-0.1,0-0.1,0-0.2c-0.1-0.2-0.3-0.4-0.5-0.5c-0.4-0.2-0.9,0.8-1.3,0.7
		c-0.6-0.1-0.8-0.7-0.8-0.7c-0.2,0-0.5,0-0.5,0.3c0.2,1,0.2,1-0.1,1.7c-0.3,0.7-1.7,0.7-2.3,0.8c-1.1,0.1-2.6,0.7-2.8,0.8l-0.1,0.1
		l0,0.1c-0.1,0.8-0.1,1.6-0.3,2.3c-0.1,0.3-0.2,0.8-0.3,1c-0.2,0.3-0.5,0.4-0.8,0.6c0.2,0.4,0.3,0.6,0.3,0.6
		c0.1,0.2,0.2,0.9,0.2,1.3C106.8,37.4,106.8,37.4,106.9,37.5"/>
	<path class="st1" d="M178.2,30.8c0,0.4-0.2,0.5-0.3,0.7c-0.1,0.2-0.9,0.5-1.4,0.6c-1,0.1-0.6,1.2-0.8,1c-0.4-0.3-0.5-0.8-1.2-0.9
		c-0.4,0-1.9,0.6-2.2,0c0-0.1-0.1-0.2-0.1-0.2c0.3-0.1,0.8-0.3,1.1-0.5c0.4-0.2,0.8-0.3,1.2-0.5c0.3-0.1,0.5-0.2,0.7-0.4
		c0,0,0.1-0.1,0.1-0.1c0.2-0.2,0.4-0.3,0.6-0.6c0.3-0.3,0.6-0.8,0.6-1.1c0.1-0.4-0.1-0.7-0.2-1.2c0-0.2-0.1-0.2-0.2-0.3
		c-0.3-0.6-0.9-1.4-0.9-1.4c-0.1,0-0.2-0.1-0.2-0.1c-0.2-0.2-0.1-1.4,0-1.8c0.1-0.5,0.1-0.7,0.5-0.9c0.2-0.1,0.3-0.1,0.6,0.1
		c0.1,0,0.1,0.2,0.2,0.2c0.1,0,0.2,0,0.3,0c0.1,0,0.2,0.2,0.4,0.3c0.3,0.1,0.4,0,0.5,0.1c0,0.1,0.2,0.6,0.2,0.7c0,0-0.4,0.7-0.6,0.7
		c-0.7,0-0.4-0.4-0.9-0.4c-0.1,0-0.6,0.1,0.8,1.8c0,0,0,0,0,0c0.2,0.1,0.4,0.4,0.6,0.7c0.2,0.5,0.1,1,0.2,1.9
		C177.8,29.9,178.2,30.5,178.2,30.8z"/>
	<path class="st1" d="M167.7,41.4c0.3-0.2,0.7-0.4,0.7-0.3c0.1,0.9,0,1.7-0.2,2.2c-0.1,0.1,0,0.4-0.6-0.1
		C167.1,42.9,167.2,41.7,167.7,41.4z"/>
	<path class="st1" d="M173,58.7c-0.2,0.1-0.4,0.2-0.6,0.1c-0.1,0-0.3-0.4-0.4-0.5c0,0-0.2-0.5-0.4-0.7c-0.2-0.2-1.2-0.2-1.2-0.7
		c0-0.6,0.7-0.6,1.4-0.9c0.4-0.1,0.3-0.7,0.3-1.1c0.1-0.4-0.1-0.9-0.1-1.4c-0.5-0.4-1-0.6-1.6-0.7c-0.5-0.1-0.6,0-0.7,0.2
		c0,0-0.1,0.1-0.1,0.1c0,0,0,0.1-0.1,0.1c0,0,0,0,0,0c-0.5,0.6-1.2,2.4-1.5,2.7c-0.2,0.3-0.4,0.4-0.8,0.1c-0.2-0.2-0.8-0.6-0.1-1.2
		c0.1-0.1,0.2-0.2,0.3-0.2c0,0,0.2-0.4,0.5-0.8c0.2-0.3,0.4-0.8,0.6-1.4c0.2-0.4,0.2-0.7,0.4-1c-0.1-0.2-0.1-0.5-0.2-0.6
		c-0.1-0.1-0.2-0.3-0.3-0.4c-0.1-0.1,0-0.1-0.1-0.2c-0.4-0.5,0-1.2,0.2-1.9c0.1-0.4-0.1-1.2,0.3-1.3c0,0,0.7,0.5,0.8,0.6
		c0.2,0.1,0.5,0.7,0.5,1.2c0,0.5-0.3,1.1-0.2,1.6c0,0.2,0.7,0.7,0.9,0.8c0.5,0.3,1.3,1.3,1.8,1.4c0,0,0,0,0,0c0.6,0.3,0.9,2.7,1,2.7
		c0,0,0.1,1,0.1,1.1C173.8,56.9,173.4,58.3,173,58.7C172.8,58.8,173.4,58.3,173,58.7C172.8,58.8,173.4,58.3,173,58.7z"/>
	<path class="st1" d="M166.8,58.3c0.3-0.1,0.6-0.1,0.9,0.3c0.1,0.1,0.1,0.3,0.2,0.4c0.1,0.1,0.2,0.1,0.2,0.3c0,0.5-0.3,0.7-0.4,0.9
		c-0.1,0.3-0.3,0.7-0.3,0.9c-0.1,1,0.7,1.4,0.3,2.4c0,0.1-0.1,0.2-0.2,0.3c0,0.1,0,0.2-0.1,0.3c-0.2,0.4-0.4,0.8-0.5,1.2
		c-0.4,1-0.6,1.9-1.3,2c-0.3,0.1-0.6-0.2-1.3-0.3c-0.8-0.1-1.4,0.1-1.9-0.3c-0.5-0.3-0.7-1.4-0.9-2.2c-0.1-0.5-0.3-1.1-0.1-1.5
		c0.2-0.3,0.6-0.3,1-0.5c0.3-0.2,0.6-0.5,0.9-0.8c0.3-0.3,0.7-0.7,0.9-1.2c0.3-0.6,0.7-0.8,1.4-1.3
		C166.1,58.8,166.4,58.4,166.8,58.3C167.1,58.2,166.4,58.4,166.8,58.3z"/>
	<path class="st1" d="M170.6,63.6c-0.2,0-0.4,0-0.6,0C170.2,63.5,170.4,63.5,170.6,63.6z"/>
	<path class="st1" d="M172.7,63.2c-0.2,0.3-0.2,0.6-0.5,0.8c-0.2,0.1-0.7,0-0.9,0c-0.2,0-0.4-0.3-0.6-0.3h0c0,0,0,0-0.1,0
		c0,0,0,0,0,0c-0.3-0.1-0.3,0.1-0.5,0.1c-0.3,0.1-0.6,0.2-0.7,0.3c-0.1,0.2-0.1,0.6-0.1,0.6c0,0.1,0.3,0.4,0.4,0.5
		c0.2,0.1,0.5,0.1,0.7-0.1c0.1-0.1,0.3-0.2,0.3-0.2c0.2-0.1,0.3,0,0.4,0.1c0.1,0.1,0.2,0.3,0.1,0.4c-0.5,0.5-0.7,0.7-0.7,0.9
		c0,0.2,0,0.4,0,0.6c0,0.2,0.4,1.2,0.3,1.3c0,0-0.5-0.1-0.8-0.7c-0.1-0.1-0.2-0.6-0.3-0.7c-0.3-0.1-0.3,0.1-0.5,0.3
		c-0.3,0.3,0.5,1.2,0.3,1.8c-0.1,0.4-1-0.1-1.1-0.1c-0.1-0.1,0.1-0.9,0.1-0.9c0-0.1-0.1-0.1-0.1-0.2c-0.1-0.2-0.3-0.6-0.3-0.7
		c0.2-0.4,0.3-0.7,0.4-1.1c0.2-0.6,0.1-0.7,0.2-1.2c0.1-0.5,0.3-1.3,0.4-1.3c0,0,0.6-0.3,0.8-0.4l0,0c0.1-0.1,0.1-0.1,0.3-0.1
		c0.5,0,0.7,0.3,1.3,0.4c0.3,0,1-0.4,1.2-0.4C172.7,62.7,172.8,63,172.7,63.2z"/>
	<path class="st1" d="M178.1,64.7c0.3,0,0.6,0,0.9,0.2c0.1,0,0.1,0.1,0.1,0.1c0.3,0.3,0.1,1.8,0.7,1.8c0.4,0.1,0.5-0.5,0.7-0.8
		c0.3-0.2,0.8-0.6,1.4-0.6c0.4,0,0.6,0.3,1.1,0.6c0.6,0.4,1.3,0.8,2,1.2c0.3,0.2,0.7,0.4,0.9,0.7c0.3,0.3,0.9,1.1,1,1.4
		c0,0,0.5,0.3,0.8,0.2c0.6-0.2,1-1.2,1.4-0.9c0.3,0.3-0.2,1.4-0.4,1.6c-0.2,0.3-0.6,0.2-1.2,0.5c-0.3,0.2-0.2,0.3-0.2,0.5
		c0,0.1-0.1,0.2,0,0.4c0,0,0,0.1,0.1,0.1c0,0,0.1,0.1,0.1,0.2c0,0,0.1,0.1,0.1,0.1c0,0,0.1,0.1,0.1,0.1c0.1,0.1,1.4,1.3,1.1,1.7
		c-0.1,0.1-0.4,0-0.5-0.1c-0.2-0.1-0.8-0.3-1-0.4c-0.3-0.2-0.6-0.3-0.8-0.7c-0.1-0.1-0.2-0.4-0.3-0.5c-0.1-0.1-0.1-0.2-0.2-0.3
		c-0.3-0.4-0.1-1-0.5-1c-0.4,0-0.9,0.2-1.1,0.8c-0.2,0.5-0.3,0.7-0.8,0.7c-0.4,0-0.7-0.2-0.9-0.4c-0.2-0.2-0.7-0.5-1-0.3
		c-0.3,0.2-0.3-0.3-0.4-0.5c-0.1-0.2,0.4-0.2,0.4-0.5c0-0.2,0-0.2-0.3-0.4c-0.2-0.2-0.2-0.1-0.4-0.4c-0.1-0.1,0-0.2-0.1-0.3
		c-0.1-0.1-0.2-0.2-0.4-0.3c-0.2-0.2-0.4-0.3-0.6-0.5c-0.1-0.1-0.4-0.2-0.4-0.2c-0.6-0.3-1.2-0.2-1.5-0.7c-0.1-0.1-0.2-0.7-0.3-0.8
		c-0.1-0.1,0-0.3,0-0.3c0.1-0.2,0-0.3-0.1-0.5c-0.2-0.4-1.2-0.6-1.2-1.1c0-0.1,0.8-0.4,0.9-0.5C177.7,64.6,177.9,64.7,178.1,64.7
		C178.4,64.7,177.9,64.7,178.1,64.7z"/>
	<path class="st1" d="M159.6,69.5c0.8-0.3,1.3,0.4,1.9,0.5c0.6,0.1,1.5-0.1,1.9,0c0.4,0.1,0.9,0.3,1.2,0.6c0,0,0.3,0.4,1.1,0.5
		c0.2,0,0.3,0.1,0.5,0.2c0.4,0,0.6-0.3,1.1-0.3c0.3,0,1.2,0.4,1.5,0.5c0.7,0.1,0.4-0.4,1.1-0.3c0.5,0.1,0.4,0.3,0.8,0.4
		c0,0,0.7,0.1,1.6,0.1c0.9,0,0.8,0.1,1.9,0.2c0.1,0,0,0.1,0,0.2c0,0-0.7,0.4-1.5,0.7c-0.5,0.2-1,0.7-1.3,0.7c-0.3,0,0.1-0.4,0-0.7
		c-0.1-0.3-0.6-0.3-0.7-0.3c-0.7,0.4-0.6,0.1-1.2,0.1c-0.3,0-0.6-0.2-0.8-0.2c-0.6,0-1.3,0.2-1.6,0.2c-0.1,0-0.5-0.3-0.9-0.4
		c-0.3-0.1-0.9,0.1-1.3,0c-0.8-0.2-0.8-0.3-1.1-0.4c-0.8-0.1-1.3-0.2-1.9-0.4c-0.2-0.1-0.3-0.2-0.5-0.2c-0.8-0.1-1.5,0.2-2.1-0.4
		c-0.2-0.2-0.5-0.4-0.5-0.6C158.6,69.9,159.2,69.5,159.6,69.5C159.5,69.5,159.5,69.5,159.6,69.5z"/>
	<path class="st1" d="M191.3,92.8c-0.2,0.3-0.8,0.9-1.2,1.1c-0.8,0.4-1.4,1-1.5,1.1c-0.5,0.6-1.3,1.2-1.7,1.8
		c-0.2,0.2-1.6,1.2-2.1,0.9c0,0-0.3-0.3-0.3-0.4c-0.1-0.6,0.4-1.2,0.8-1.5c0.2-0.2,0.5-0.4,0.7-0.6c0.3-0.2,0.9-0.3,1-0.5
		c0.2-0.2,1.3-2,1.3-2.1c0.1-0.1,0.1-0.1,0.2-0.2c0.4-0.5,0.9-0.8,1-1.1c0,0,0-1.3,0.3-1.4c0.5-0.2,1.4,1.6,1.6,1.7
		C191.7,91.9,191.5,92.6,191.3,92.8z"/>
	<path class="st1" d="M186.2,88.4c-0.1,0.2-0.2,0.5-0.3,0.7c-0.1,0.2-0.1,0.5-0.2,0.7c-0.1,0.1-0.3,0.3-0.4,0.4
		c-0.2,0.4-0.7,0.9-1.1,1.3c-0.6,0.6-0.7,1.3-1.3,2.1c-0.2,0.3-0.3,0.7-0.6,1.1c0,0-0.2,0.1-0.3,0.2c-0.1,0.3-1.2,0.5-1.7,0.8
		c0.2-0.1-0.7,0.7-0.8,1.3c0,0.1,0.1,0.4-0.2,0.7c-0.4,0.3-0.5,0.6-0.7,0.6c-0.2,0.1-0.7,0.2-0.9,0.2c-0.1,0-0.3-0.3-0.2-0.7
		c0.1-0.5-0.2-1.2,0.2-1.2c1.1,0.1,0.9-0.5,1-1c-0.2-0.1-0.5-0.1-0.6-0.1c-0.6-0.1-1,0.2-1.6-0.1c-0.2-0.1-0.4-0.3-0.5-0.5
		c-0.3-0.3-0.1-0.8-0.2-1.4c0-0.3-0.3-0.6-0.4-0.9c-0.1-0.2,0-0.4-0.1-0.6c-0.1-0.1-0.3-0.3-0.3-0.3c-0.2-0.1-0.6,0.4-1.1,0.4
		c-0.7-0.1-1.1-1.1-1.8-1.3c-0.2-0.1-0.7-0.1-0.8-0.1c-1.4-0.1-2.7,0.6-4,1c-0.2,0-0.4,0-0.6,0.1c-0.7,0.2-1.3,0.4-2.2,0.7
		c-0.4,0.1-0.8,0.2-1.2,0.3c-0.2,0.1-0.5,0-0.6,0.1c-0.3,0.1-1.1,0.6-1.6,0.5c-0.2,0-0.8-0.5-0.8-0.7c-0.1-0.3,0.2-0.5,0.4-0.9
		c0.1-0.2,0.4-0.4,0.5-0.7c0.1-0.2,0.1-0.5,0.1-0.7c0.1-0.8-0.3-1.6-0.3-2.5c0-0.6,0.2-1.3,0.3-2.1c0.1-0.8-0.1-1.6,0.1-2.2
		c0.1-0.3,0.4-0.6,0.6-0.9c0.3-0.3,0.9-0.5,1.4-0.8c0.7-0.3,1.3-0.8,2.3-1.1c0.5-0.1,0.8-0.2,1.2-0.4c0.6-0.3,1.1-1,1.4-1.6
		c0,0,0-0.2,0.1-0.3c0.1-0.1,0.3-0.1,0.5-0.3c0.3-0.3,0.6-0.7,0.9-1.1c0.3-0.4,0.8-0.7,1.1-1.2c0.1-0.2,0.6-0.6,0.9-0.6
		c0.3,0,0.6,0.1,0.8,0.3c0.2,0.1,0.4,0.4,0.6,0.4c0.5,0,0.6-0.8,0.9-1.3c0.1-0.1,0.1-0.1,0.2-0.2c0.2-0.3,0.5-0.7,0.8-0.9
		c0.2-0.1,0.5-0.2,0.7-0.3c0.3-0.1,0.5-0.2,0.7-0.2c0.6-0.1,1.4,0,1.6,0.7c0.1,0.4-0.4,1-0.4,1.7c0,0.6,0.5,1.2,1,1.6
		c0.2,0.2,0.5,0.2,0.6,0.4c0.2,0.2,0.5,0.6,0.9,0.6c0.6-0.1,0.9-0.9,1.1-1.5c0.2-0.8,0.2-1.1,0.5-2.2c0.1-0.6,0-1.7,0.4-1.8
		c0,0,0.3,0.4,0.3,0.5c0.1,0.4,0.2,0.4,0.3,0.9c0.2,1.2,0.4,1.1,0.6,1.6c0.1,0.2,0.3,0.4,0.4,0.7c0.3,1-0.1,1.7,0,2.6
		c0.1,0.5,0.4,0.9,0.6,1.3c0.1,0.2,0.2,0.5,0.3,0.7c0.4,0.8,0.7,1.6,1,2.5c0.3,0.7,0.7,1.3,0.7,1.8
		C186.6,86.2,186.3,87.8,186.2,88.4C186.1,88.6,186.3,87.8,186.2,88.4C186.1,88.6,186.3,87.8,186.2,88.4
		C186.1,88.6,186.3,87.8,186.2,88.4C186.1,88.6,186.3,87.8,186.2,88.4C186.1,88.6,186.3,87.8,186.2,88.4z"/>
</g>
<path class="st1" d="M66.8,73.2c0,0.1-0.2,0.7-0.4,0.9c0,0-0.1,0.2-0.1,0.2c0,0-0.2,0-0.2,0c-0.1,0.1,0,0.2-0.1,0.3
	C65.7,75,65.3,75.5,65,76c-0.2,0.3-0.4,0.7-0.6,1.1c-0.2,0.4-0.6,0.8-0.6,1.1c-0.2,0.7,0,1.6,0,2.3c0,0.6-0.1,1.3-0.2,1.9
	c0,0.3-0.2,0.5-0.3,0.8c-0.1,0.5,0,0.8-0.2,1.2c-0.1,0.3-0.4,0.7-0.5,1.1c-0.2,0.4-0.4,0.8-0.5,1.1c0,0-0.2,0-0.2,0c0,0,0,0.2,0,0.2
	c-0.1,0.1-0.2,0-0.3,0.1c-0.2,0.2-0.2,0.3-0.4,0.4c-0.3,0.1-0.7-0.1-0.9-0.1c-0.5,0.1-1.3,0.6-1.8,1c-0.3,0.2-0.6,0.3-0.8,0.6
	c-0.3,0.3-0.6,0.5-0.6,0.8c-0.1,0.5,0.1,1.5,0,2.1c-0.1,0.5-0.4,1.2-0.7,1.9c-0.2,0.5-0.4,0.9-0.6,1.3c-0.4,0.7-0.8,1.3-1.3,2
	c-0.4,0.6-0.8,1.1-1.4,1.1c-0.4,0-1.4-0.7-1.7-0.4c-0.4,0.4,0.5,0.9,0.7,1.2c0.2,0.3,0.4,1.3,0.2,1.8c0,0-0.2,0.1-0.2,0.1
	c-0.3,0.6-1,0.8-1.8,1c-0.2,0-0.6,0-0.7,0.1c-0.1,0-0.4,0.4-0.5,0.5c-0.2,0.5,0.1,0.9-0.2,1.2c-0.1,0.1-0.2,0.2-0.4,0.2
	c-0.2,0-0.2-0.1-0.4-0.1c-0.3,0-0.6,0.1-0.6,0.3c-0.1,0.2,0,0.2,0.2,0.4c0.4,0.5,0.6,0.8,0.5,1.7c0,0.2,0,0.5-0.1,0.7
	c-0.1,0.4-0.6,0.7-0.5,1.2c0,0.7,1.1,1.3,1.2,2.1c0,0.3-0.2,0.7-0.4,1.1c-0.1,0.3-0.3,0.7-0.4,1c0,0.2,0.1,0.7,0.2,1.1
	c0.4,0.4,1,1.3,1.3,1.4c0.4,0.2,1.4,0.7,2.5,1.4c0,0,0,0.2-0.1,0.2c-0.3,0-0.9,0-1.1,0.1c-0.5,0.3-1,0.1-1.5-0.1
	c-0.2-0.1-0.5-0.1-0.6-0.2c-1-0.8-0.5-1.2-1.5-1.7c-0.6,0-1.3-0.3-1.6-0.6c-0.5-0.5-1.1-1.3-1.5-1.9c-0.2-0.3-0.5-0.7-0.6-1.2
	c0-0.1,0-0.3-0.1-0.5c-0.4-1-1-1.1-0.7-2.3c0.1-0.2,0.2-0.3,0.2-0.6c0-0.2,0-0.5-0.1-0.8c0-0.2-0.2-0.3-0.3-0.5
	c-0.1-0.4-0.2-0.8-0.4-1.1c-0.4-0.8-1.2-1.1-1.4-1.8c-0.1-0.3,0.1-0.8,0-1.2c-0.1-0.7-0.4-1.3-0.5-1.5c0-0.5,0.1-1.1,0.2-1.6
	c0-0.6,0-1.3,0-1.9c-0.1-1.5-0.5-2.9-0.6-4.3c-0.1-1,0.1-2,0-3c0-0.5-0.2-0.9-0.2-1.3c0-0.7,0.2-1,0.3-1.4c0.1-1.2-0.3-2.3-0.7-3.1
	c-0.2-0.4-0.6-0.8-1-1.2c-0.1-0.1-0.2-0.2-0.3-0.3c-0.1-0.1-0.2-0.1-0.4-0.2c-0.2-0.2-0.3-0.4-0.5-0.6c-0.2-0.1-0.4-0.2-0.6-0.3
	c-0.2-0.1-0.3-0.3-0.5-0.4c-0.3-0.2-0.8-0.3-1.1-0.6c-0.4-0.4-0.9-1.4-1.2-2.1c-0.1-0.1,0-0.1-0.1-0.2c-0.1-0.1-0.1-0.3-0.2-0.5
	c-0.1-0.1-0.2-0.1-0.3-0.2c-0.1-0.2-0.2-0.5-0.3-0.7c-0.3-0.4-0.5-0.7-0.7-1.1c-0.4-0.7-0.6-1.7-1.2-2.6c-0.8-1.3-1.8-1.7-1.2-3.1
	c0.1-0.3,0.3-0.4,0.4-0.8c0-0.3,0-0.6-0.1-0.9c0-0.1-0.2-0.1-0.2-0.3c-0.1-0.5,0.1-0.7,0.3-1.2c0.1-0.2,0.2-0.5,0.3-0.7
	c0.1-0.2,0.3-0.3,0.5-0.5c0.4-0.5,0.7-1.1,1.1-1.7c0.1-0.2,0.2-0.5,0.3-0.7c0.1-0.2,0.3-0.4,0.4-0.6c0.2-0.5,0.3-1.3,0.1-1.9
	c-0.1-0.3-0.3-0.6-0.4-1c-0.2-0.6-0.3-1.1,0.4-1.3c0.2-0.1,0.4,0,0.6-0.1c0.3-0.2,0.6-0.6,0.9-1c0.2-0.2,0.3-0.3,0.5-0.5
	c0.2-0.2,0.3-0.4,0.5-0.6c0.4-0.3,0.9-0.5,1.3-0.7c0.1,0,0.1-0.1,0.2-0.1c0.4-0.1,0.5-0.2,0.7,0.1c0,0.1,0.1,0.2,0.1,0.3
	c0,0-0.9,1.9,0.2,1.4c0.3-0.1,0.1-0.2,0.2-0.5c0.1-0.5,0.3-1.1,0.7-1.2c0,0,0.4-0.1,0.5-0.1c0.6,0,0.9,0.7,1.4,1c0.1,0,0.2,0,0.3,0
	c0,0,0.1,0.2,0.1,0.2c0.1,0,0.3,0,0.5,0.1c0.3,0.1,1,0.4,1.4,0.4c0.3,0,0.7-0.1,1.1-0.1c0.2,0,0.3,0.1,0.5,0.2
	c0.4,0.1,0.5,0.1,0.8,0.4c0.1,0.1,0.2,0.1,0.3,0.2c0.1,0.1,0.2,0.1,0.4,0.2c0.2,0.1,0.3,0.3,0.5,0.5c0,0,0.1,0.2,0.1,0.2
	c0.2,0.1,0.4,0.3,0.6,0.5c0.5,0.5,0.9,1,1.5,1.4c0.2,0.1,0.4,0.3,0.5,0.4c0.8,0.3,2-0.1,2.6,0.3c0.2,0.1,0.5,0.3,0.7,0.5
	c0.1,0.1,0.2,0.3,0.4,0.5c0.1,0.2,0.3,0.3,0.4,0.4c0.1,0.2,0,0.4,0.1,0.7c0,0.2,0.2,0.3,0.3,0.5c0.2,0.5,0.4,0.8,0.4,1.1
	c0,0.3-0.1,0.4-0.2,0.8c-0.1,0.3-0.3,0.6-0.2,0.8c0.2,0.2,0.6,0.1,0.7,0.1c0.3,0,0.6,0,0.8,0.4c0.1,0.2-0.1,0.6,0.4,0.8
	c0.5,0.2,1.1-0.5,1.8-0.4c0.3,0,0.5,0.2,0.7,0.4c0.4,0.3,0.4,1.2,0.9,1.3c0.2,0.1,0.7-0.3,1-0.3c1-0.1,2.4,0.2,3.1,0.7
	c0.5,0.3,1,1.2,1.6,1.4c0.6,0.3,0.9,0.2,1.4,0.6C66.6,71.4,67,72.1,66.8,73.2z"/>
</svg>
