<svg xmlns="http://www.w3.org/2000/svg" width="15" height="24" viewBox="0 0 30 48">
  <defs>
    <style>
      .cls-1 {
      fill: #374551;
      fill-rule: evenodd;
      }
    </style>
  </defs>
  <path id="marker" class="cls-1"
        d="M2304,1924c-8.27,0-15,7.12-15,15.88,0,3.52,2.13,9.27,6.5,17.57,3.1,5.87,6.14,10.77,6.27,10.97L2304,1972l2.23-3.58c0.13-.2,3.17-5.1,6.27-10.97,4.37-8.3,6.5-14.05,6.5-17.57,0-8.76-6.73-15.88-15-15.88h0Zm0,24a8.243,8.243,0,1,1,7.78-8.23A8.016,8.016,0,0,1,2304,1948h0Zm0,0"
        transform="translate(-2289 -1924)"/>
</svg>
