<svg xmlns="http://www.w3.org/2000/svg" width="15" height="24" viewBox="0 0 30 48">
  <defs>
    <style>
      .cls-1 {
      fill: #231f20;
      fill-rule: evenodd;
      }
    </style>
  </defs>
  <path id="marker" class="cls-1"
        d="M2571,430c-8.27,0-15,7.122-15,15.877,0,3.526,2.13,9.275,6.5,17.575,3.1,5.87,6.14,10.765,6.27,10.97L2571,478l2.23-3.578c0.13-.205,3.17-5.1,6.27-10.97,4.37-8.3,6.5-14.049,6.5-17.575,0-8.755-6.73-15.877-15-15.877h0Zm0,24a8.243,8.243,0,1,1,7.78-8.23A8.018,8.018,0,0,1,2571,454h0Zm0,0"
        transform="translate(-2556 -430)"/>
</svg>
