<?xml version="1.0" encoding="utf-8"?>
<!-- Generator: Adobe Illustrator 19.2.1, SVG Export Plug-In . SVG Version: 6.00 Build 0)  -->
<svg version="1.1" id="Lager_1" xmlns="http://www.w3.org/2000/svg"  x="0px" y="0px"
	 viewBox="0 0 191.6 117" style="enable-background:new 0 0 191.6 117;" xml:space="preserve">
<style type="text/css">
	.st0{fill:#B1E826;}
	.st1{fill:#FFE800;}
	.st2{fill:#15B0D1;}
	.st3{fill:#F23373;}
</style>
<path class="st0" d="M59.2,6c-0.1-0.1-0.1-0.3-0.2-0.5c-0.2-0.5-0.4-0.6-0.9-0.8c-0.2-0.1-0.5-0.1-0.7-0.2c0,0-0.1-0.2-0.2-0.2
	c-0.1-0.1-0.2-0.1-0.3-0.2c-0.2-0.1-0.4-0.3-0.5-0.4c-0.4-0.1-0.9,0-1.3-0.1c-0.4-0.1-0.7-0.4-1.1-0.5C53.6,3,53,2.9,52.6,3
	c-0.4,0.1-0.8,0.4-1.3,0.4S50.7,3,50.1,2.9C50,2.9,50,3,49.9,3c-0.6,0.1-1.6,0.6-1.5,1.2c0,0.6,0.2,1.1,0.7,1.5
	c-0.1,0.1-0.2,0.1-0.3,0.2c-0.5,0.2-1.2,0.7-1.7,0.6c-0.2-0.1,0.6-0.3,0.3-0.6c-0.2-0.3-1.5-0.5-1.6-0.7s-0.1-0.4-0.2-0.6
	c-0.1-0.1-0.1-0.3-0.4-0.4c-0.2-0.1-1,0.2-1,0.2c-0.5,0.3-0.4,1.1-0.7,1.4C43.4,5.9,43,5.9,42.7,6c-0.1,0-0.2,0.1-0.3,0.2
	c-0.2,0.3-0.4,0.6-0.8,0.6c-0.3,0-0.7-0.2-1-0.3c-0.6-0.1-1.1,0.1-1.9,0c-0.6-0.1-1.4-0.3-2-0.3c-0.3,0-0.3,0.1-0.5-0.2
	c-0.3-0.9,2.1-0.3,2.2-0.3c0.7,0,1.4-0.1,1.4-0.3c0.1-0.3-0.3-1.3-0.5-1.4s-0.6,0.1-1.1,0.1c-0.3,0-0.5-0.2-0.8-0.2
	c-0.4,0-0.8,0.1-1,0.1c-0.4,0-0.8,0-1.1-0.1c-0.2-0.1-0.4-0.1-0.5-0.2c-0.2-0.1-0.4-0.2-0.5-0.3c-0.6-0.1-1.5-0.1-2,0
	c-0.8,0.1-1.2,0.2-2,0.5C29.7,4.1,29,4,29,4.4c0,0.9,1.6,0,2,0c0.8-0.1,1.2,0.2,1.4,0.7c0.1,0.3-0.8-0.3-0.6,0.3
	c0.1,0.2,0.2,0.3,0.3,0.3c0.2,0.2,2.6,0.3,2.5,0.8c-0.1,0.4-1.8-0.1-2,0c-0.7,0.1-1.1-0.2-1.4-0.4c-0.6-0.3-1.1-0.4-1.8-0.6
	c-0.4,0-0.8-0.1-1.2-0.1c-0.5,0-0.8,0.1-1.2,0.1c-0.5,0-0.7-0.3-1.3-0.4C25,5,24.2,5,23.6,5.1c-0.5,0-1.1,0.4-1.8,0.4
	c-2.4,0.3-4.9-0.2-6.7-0.5c-1-0.2-1.9-0.4-2.9-0.5c-1.5,0-3.4,0-4.6,0.2c-0.2,0-0.5,0-0.7,0.1c-0.5,0.1-1,0.5-1.5,0.7
	C5,5.6,4.4,5.6,4.1,5.9C3.5,6.5,4.4,7.5,4,7.4C2.9,7.4,2.5,7.6,2.3,8C2.2,8.3,2.5,8.5,2.7,8.6c0.2,0.2,0.6,0,0.6,0.4
	C3.2,9.2,2.9,9.3,2.6,9.5C2.5,9.6,2.2,9.7,2.1,9.8c-0.3,0.2-0.6,0.4-0.8,0.7c-0.1,0.2,0,0.8,0,1.2s0,0.4-0.1,0.8
	c0,0.2-0.4,0.4-0.3,0.6c0.1,0.2,0.6,0.4,0.6,0.6c0.1,0.4-1.8,2.1-1.5,2.1s2.2-2,2.4-2.2c0.1-0.1,0.4-0.4,0.5-0.6
	c0.3-0.4,0.4-0.6,0.8-0.8c0.2-0.1,0.4-0.1,0.6-0.2c0.2-0.1,0.3-0.3,0.5-0.4C5.7,11.2,6,11.7,6.9,12c0.6,0.2,1.3,0.2,1.6,0.4
	c0.4,0.2,0.5,0.3,0.7,0.5c0.1,0,0.1,0.1,0.2,0.1c0.2,0.1,0.4,0.3,0.5,0.4c0.4,0.3,0.7,0.6,0.8,1.1c0.1,0.3,0,0.6,0,1s0.2,0.7,0.2,1
	c0,0.2-0.1,0.3-0.2,0.5c-0.2,0.5-0.3,0.7-0.4,1.4c0,0.3-0.1,0.7-0.1,1c0.1,0.3,0.7,0.8,0.5,0.9c-0.2,0.2-1.1,0.3-1.1,0.4
	c-0.1,0.3,0,0.7,0,0.7c0.1,0.1,0.3,0.3,0.4,0.4c0.2,0.2,0.6,0.3,0.6,0.5s0,0.5-0.4,0.6c-0.2,0-0.4,0.6-0.5,0.8
	c-0.4,0.6-0.8,1.3-1.2,1.8c-0.1,0.1-0.2,0.3-0.3,0.5c-0.1,0.1-0.3,0.3-0.4,0.4c-0.4,0.6-0.6,1.3-1,2c-0.1,0.2-0.3,0.2-0.4,0.4
	c0,0.1-0.1,0.3-0.1,0.3c0,0.4-0.2,0.9-0.3,1.4c0,0.6,0.2,1,0.3,1.6c0,0.4,0,0.8,0,1.1c0,0.1,0.1,0.3,0.2,0.5s0,0.5,0.1,0.6
	C7,35.1,8,35.4,8.2,36.2c0.1,0.5-0.1,0.7-0.1,1.1c0,0.5,0.5,1.5,0.8,1.8c0.1,0.1,0,0.2,0.1,0.4c0,0.1,0.1,0.3,0,0.5
	c-0.1,0.5-0.3,0.9-0.2,1.2c0.2,0.6,0.9,0.7,1,1.5c0.1,0.4,0.6,2.3,1.3,2.6c0.3,0.1-0.3-1.6-0.5-2.4c-0.1-0.5-0.1-1.1-0.3-1.5
	c-0.1-0.2-0.3-0.5-0.5-0.8c-0.2-0.4-0.7-1.3-0.7-1.7S9,37.5,9.7,37.5c0.6,0,1,1.7,1.2,2.1c0.1,0.3,0,0.6,0.1,0.8
	c0,0,0.1,0.1,0.2,0.2c0.2,0.4,0.4,0.9,0.5,1.2c0.1,0.1,0.1,0.1,0.2,0.3l0.1,0.2c0.1,0.1,0.1,0.2,0.2,0.3c0.1,0.1,0.2,0.2,0.3,0.4
	s0.3,0.6,0.4,0.8c0.2,0.4,0.4,0.8,0.6,1.2c0.1,0.3,0.3,0.8,0.4,1.1c0.1,1-0.1,1.5,0,2c0.1,0.2,0.4,0.7,0.7,1
	c0.1,0.1,0.4,0.2,0.5,0.3c0.2,0.1,0.3,0.3,0.5,0.4c0.2,0.1,0.3,0.3,0.5,0.4c0.4,0.2,0.8,0.4,1.1,0.6c0.2,0.1,0.4,0.3,0.5,0.4
	c0.2,0.1,0.3,0,0.5,0.1s0.3,0.2,0.5,0.3c0.7,0.3,1.1,0.5,1.9,0.4c0.4-0.1,0.8-0.3,1.2-0.3c0.7,0.1,1.2,0.9,1.6,1.3
	c0.1,0.1,0.2,0,0.3,0.1l0.1,0.2c0.1,0.1,0.2,0,0.3,0.1c0.2,0.2,0.5,0.6,0.7,0.7c0.5,0.2,1.4,0,1.9,0.2l0.1,0.2
	c0.1,0.1,0.2,0,0.3,0.1c0.2,0.2,0.3,0.7,0.5,0.9c0.4,0.7,0.7,1.7,1.2,2.2c0.2,0.2,0.6,0.3,0.8,0.5l0.1,0.2c0.2,0.2,0.4,0.2,0.6,0.4
	c0.4,0.3,1.4,0.9,1.8,0.8c0.3-0.1,0.6-0.4,0.5-0.6c-0.1-0.5-1.3-0.4-1.5-0.7c-0.1-0.1-0.1,0-0.2-0.1c-0.8-0.7-0.9-2.6-0.7-3.8
	c0.1-0.6,0.4-1.1,0.3-1.5c-0.2-0.7-1.3-0.8-2.2-0.8c-0.5,0-1.1,0.2-1.3,0.1c-0.6-0.4-0.3-0.8,0-1.5c0.1-0.3,0.3-0.7,0.5-1
	c0.4-0.8,0.9-1.5,0.8-2.1s-1.5-0.6-1.8-0.3c-0.1,0.1-0.1,0-0.2,0.1c-0.4,0.3-0.6,1-0.8,1.2c-0.2,0.3-0.4,0.5-0.6,0.7
	c-0.4,0.3-1.4,0.8-2.2,0.8c-0.5,0-1-0.5-1.4-1c-0.1-0.2-0.2-0.4-0.4-0.7c-0.1-0.2-0.3-0.4-0.4-0.7s-0.1-0.6-0.2-0.9
	c-0.1-0.4-0.2-0.6-0.2-0.9c0-0.7,0.5-1.7,0.8-2.8c0.1-0.4,0.2-1,0.3-1.2l0.2-0.1c0.1-0.1,0.1-0.3,0.1-0.4c0.2-0.5,0.5-0.8,0.9-1.1
	c0.6-0.3,1.4-0.7,2-1c0.2-0.1,0.5-0.3,0.9-0.3s0.8,0.2,1.1,0.3c0.2,0.1,0.6,0.5,1.1,0.4c0.3,0,0.4-0.4,0.7-0.6
	c0.3-0.2,0.5-0.4,0.8-0.5c0.7-0.3,1.6,0.3,2.1,0.4c0.5,0.1,0.8-0.2,1-0.1c0.4,0.2,0.8,0.7,0.9,1.1c0.1,0.4,0,1.2,0.1,1.7
	c0.1,0.4,0.1,0.7,0.4,1c0.2,0.2,0.3,0.6,0.4,0.6c0.3,0,0.7-0.8,0.7-1.5c0-0.9-0.3-1.3-0.4-1.7c-0.1-1.2,0.2-1.9,0.5-2.4
	c0.3-0.4,0.5-0.7,0.8-1c0.2-0.2,0.3-0.4,0.5-0.5c0.1-0.1,0.2-0.1,0.4-0.2c0.2-0.1,0.4-0.4,0.6-0.6c0.4-0.3,0.9-0.3,1.3-0.6
	c0.2-0.2,0.4-0.4,0.6-0.7c0.3-0.3,0.4-0.4,0.5-0.8c0.1-0.2-0.1-0.7,0.1-1.2c0-0.1,0.1-0.4,0.3-0.6c0.2-0.1,0.2,0,0.3-0.1l0.2,0.2
	c0.2,0,0.2-0.6,0.2-0.7c0.5-0.5,0.8-0.8,1.4-1.2c0.2-0.2,0.4-0.4,0.6-0.6c0.2-0.2,0.6-0.2,0.8-0.4c0.3-0.2,0.5-0.4,0.8-0.5
	s0.6-0.1,0.9-0.3c0.1-0.1,0.6,0,0.6-0.1c0-0.5,0.4-1,0.8-1.3c0.1-0.1,0.3-0.1,0.5-0.2c0.1-0.1,0.2-0.3,0.4-0.4
	c0.4-0.2,0.7-0.4,1-0.5s1.7-0.7,2.2-0.7c1.6,0-1,0.9-0.8,1.2c0.2,0.3,2.2-0.5,2.4-0.7c0.3-0.2,1.1-0.4,1.5-0.6
	c0.7-0.5-1.5-0.3-1.8-0.6c-0.1-0.1-0.6-0.4-0.6-1c0-0.5,0.9-0.9,0.5-1.4l-0.3-0.3c-0.4-0.1-1.2,0.3-1.4,0c-0.1-0.1,0.1-0.3,0.3-0.5
	c0.3-0.3,1.2-0.5,1.6-0.6c0.6-0.1,1.3,0.1,2.2,0c0.4,0,1.1-0.2,1.7-0.4c0.5-0.1,0.8-0.3,1.2-0.1c0.2,0.1,0.8,0.3,0.5,1
	c-0.1,0.7-1.5,1.6-1.5,1.8c0.2,0.7,2,0.6,2.1,0.6c0,0,1.9-0.1,1.8-0.8c0-0.3-1.5-1-1.7-1.7c-0.1-0.7-0.6-0.8-0.4-0.9
	c0.9-0.6,2.1-1.4,1.5-2.1c0-0.1-0.2-0.1-0.3-0.2c0,0,0-0.2-0.1-0.2c-0.4-0.1-0.8,0.2-1.1,0s-0.2-0.6-0.4-1.2
	c-0.1-0.3-0.3-0.5-0.4-0.8c-0.2-1,0.2-2.4-0.5-2.7c-0.5-0.1-0.5,0.2-0.6,0.3c-0.3,0.2-0.5,0.2-0.6,0.3c-0.4,0.2-0.9,0.6-1.4,0.5
	c-0.4-0.1-0.6-0.4-0.6-0.7c-0.1-0.4,0.2-0.8,0.1-1.3c-0.1-0.3-0.4-0.7-0.8-0.9c-0.2-0.1-0.4-0.1-0.6-0.2c-0.2-0.1-0.4-0.3-0.5-0.3
	c-1.1-0.3-1.9,0.1-2.3,0.7c-0.1,0.2-0.1,0.4-0.2,0.6c-0.1,0.3-0.3,0.5-0.5,0.7c0,0,0,0.1-0.1,0.2c-0.1,0.1-0.3,0.1-0.4,0.2
	c-0.1,0.1-0.1,0.3-0.2,0.4c-0.1,0.2-0.2,0.3-0.3,0.4c-0.1,0.2,0,0.7-0.1,1.1c0,0-0.1,0.2-0.2,0.3c-0.3,0.6-0.9,0.9-1.3,1.2
	c-0.1,0.1-0.2,0-0.3,0.1c-0.2,0.2-0.3,0.4-0.5,0.6c-0.3,0.2-0.6,0.3-0.7,0.5c-0.1,0.1-0.1,0.2-0.2,0.3c-0.1,0.1-0.2,0.2-0.3,0.3
	c-0.2,0.3-0.1,0.7-0.3,1c-0.1,0.1-0.6,0.7-0.6,0.7c-0.2,0.1-0.6,0.1-0.7,0.1c-0.4-0.1-0.6-0.6-0.6-0.9c-0.1-0.6,0.4-1.2,0.4-1.6
	C42,16.6,41,16.2,40.7,16c-0.3-0.2-0.5-0.3-0.8-0.4c-0.3-0.1-0.8-0.4-1.1-0.5c-0.2-0.1-0.5,0-0.7-0.1s-0.4-0.4-0.6-0.8
	c-0.2-0.3-0.5-0.6-0.5-1s0.7-1.1,1.2-1.5s1.1-0.9,1.6-1.2c0.3-0.2,0.7-0.2,1-0.4c0.7-0.4,0.7-0.9,1.4-1.1c0.1,0,0.3,0.1,0.5,0.1
	S43,9,43.2,9s1.2-0.2,1.3-0.3s0.3-0.3,0.4-0.4C45,8.2,44.9,8,45,7.9c0.3-0.2,1-0.3,1.2-0.1c0,0.3-0.3,0.7-0.4,0.7
	c0,0-0.6,0.7-0.3,1.1c0.2,0.3,0.9-0.5,1.3-0.5c0.4,0,1.3,0.7,1.6,0.3c0.2-0.3-0.6-0.9-0.7-1C47.5,8.2,46.9,8.5,47,8
	c0-0.5,0.3-0.3,0.7-0.4c0.3-0.1,0.8-0.1,0.9-0.1c0.3-0.1,0.9-0.4,1.1-0.5l0.1-0.2c0.2-0.2,0.4-0.1,0.5-0.4c0.1-0.1,0.1-0.2,0.2-0.2
	c0.1,0,0.1,0,0.2,0c0.4,0,2.5-1.5,2.8-1.4c0.5,0,0.6,0.3,1,0.6c0.4,0.4,0.8,0.7,1.2,1.1c0.1,0,0.3,0,0.3,0.1
	c0.1,0.1,0.2,0.3,0.1,0.5c-0.2,0.6-0.6,0.1-1.4,0.2c-0.3,0.1-0.6,0.2-0.7,0.3c-0.3,0.2-0.6,0.4-0.6,0.8c0,0.3,0.2,0.5,0.5,0.9
	c0.2,0.3,0.5,0.6,0.7,0.8l0.1,0.2c0.2,0.1,1,0.4,1.2,0.4c0.1,0,0.2-0.2,0.4-0.4s0.3-0.3,0.5-0.4c0.5-0.3,0.8-0.1,1-0.4
	C57.9,9.4,58,9,58,8.8c0-0.3-0.2-0.4-0.1-0.7c0.3-0.7,0.8-0.3,1.5-0.3c0.5,0,0.9,0.1,1.1-0.3C60.6,6.8,59.7,6.7,59.2,6
	C59.1,5.9,59.7,6.7,59.2,6z M37.3,22.8c0.1,0.3,0.1,0.7,0.3,1.1c0.1,0.2,0.4,0.6,0.6,0.6c0.3,0.1,0.9-0.2,1.1-0.1
	c0.1,0.1,0.2,0.2,0.4,0.4c0.1,0.1,0.3,0.2,0.3,0.3c0.1,0.1,0.3,0.7,1.1,0.9c0.1,0,0.9,0,0.9,0.1c0.3,0.2-0.2,0.6-0.2,0.6
	c0,0.1-0.9,0.5-1.6-0.1c-0.1-0.1,0.2-0.3,0.1-0.4c-0.3-0.5-0.8-0.3-0.9-0.3c-0.2,0-0.6,0.1-0.7,0.2c-0.1,0.2-0.9,0.9-0.9,1.1
	c0,0.3,1.2,0.3,1.1,0.6c-0.2,0.5-1,0.8-1.1,0.8c-0.7-0.1-0.7-0.1-0.9-0.4s1.1-0.8,0.3-1.9c-0.2-0.2,0.7-1.1-0.3-1.2
	c-0.2,0-0.8,0.4-1.1,0.6c-0.4,0.3-0.8,0.8-1,1c-0.2,0.4-0.6,1.8-1.2,1.8c-0.5,0-0.4-0.6-0.4-1s0.4-0.6,0.6-0.9
	c0.4-0.7,0.6-1.2,1-1.5c0.1-0.1,0.1,0,0.2-0.1c0.1-0.1,0.8-0.4,1.3-0.6c0.4-0.1-0.9-0.2-1.4-0.6c-0.1-0.1-0.2-0.1-0.4-0.1
	c-0.5,0-1.2,0.7-1.6,0.2c-0.2-0.2,0-0.4,0.1-0.6s0.2-0.3,0.5-0.4c0.4-0.2,0.9-0.2,1.3-0.3c0.5-0.1,0.9-0.3,1.2-0.4
	c0.1,0,0.3-0.1,0.5-0.1C36.8,22.1,37.1,22.5,37.3,22.8z"/>
<g>
	<path class="st1" d="M186.6,6.4c-0.1-0.1-0.5-0.3-0.6-0.4c-0.2,0-0.4,0-0.5,0c-0.3,0-0.7,0.1-0.9,0.1h-0.1c-0.2,0-0.4-0.2-0.6-0.3
		c-0.2-0.1-0.4-0.3-0.6-0.4c-0.1,0-0.1,0-0.2,0c-0.1,0-0.1,0-0.2,0h-0.1c-0.2,0-0.3-0.2-0.5-0.2c-0.4-0.1-0.7-0.1-1.1-0.2
		c-1.5-0.2-2.7-0.6-4.2-0.9c-0.4-0.1-0.7-0.1-1.1-0.2c-0.4-0.1-0.9-0.1-1.2-0.1l0,0h-0.1c-0.4,0.1-0.7,0.4-1.2,0.5
		c-0.4,0-0.9-0.2-1.5-0.3c-1.2-0.1-2.6,0.2-3.6,0c-0.1,0-0.2-0.1-0.4-0.2c-0.6-0.2-1-0.3-1.5-0.4c-1.7-0.2-3.4,0.2-4.7-0.2
		c-0.3-0.1-0.5-0.3-0.7-0.4c-0.3-0.1-0.6-0.2-0.9-0.3c-0.1,0-0.1,0-0.2,0c-0.1,0-0.3,0.1-0.5,0.1c0,0,0,0-0.1,0s-0.4-0.1-0.5-0.1
		c-0.7-0.1-1.6-0.2-2.2-0.2c-0.1,0-0.3,0-0.4,0.1c-0.4,0.1-0.6,0.5-0.8,0.7h-0.1h-0.1c-0.1,0-0.1,0-0.2,0c-0.1,0-0.2,0-0.2,0.1
		c-0.5,0-1.2-0.1-1.7-0.1H153c-0.3,0-0.6,0.1-0.8,0.2h-0.1c-0.2,0-0.5-0.1-0.6-0.2c-0.2-0.1-0.4-0.2-0.6-0.3
		c-0.4-0.2-0.7-0.4-1.3-0.6c-0.3-0.1-0.7-0.2-1-0.3c-0.4-0.1-0.8,0-1.1,0c-0.2,0-0.5,0.1-0.7,0.1c-0.1,0-0.2,0-0.4,0
		c-0.9,0.1-1.9-0.1-2.6-0.2c-0.7-0.1-1.4,0-2,0c-0.5,0-1.7-0.1-1.9-0.3c-0.3-0.2-0.3-0.5-0.5-0.7c-0.4-0.6-1.9-0.2-3.1-0.3
		c-1-0.1-1.8-0.4-2.2-0.5c0,0,0,0-0.1,0l0,0c-0.1,0-0.1,0.1-0.1,0.1c-0.1,0-0.1,0-0.2,0c-0.3,0.1-0.5,0.2-0.8,0.2h-0.1
		c-0.3,0-0.6-0.2-0.9-0.1c0,0,0,0-0.1,0l0,0c-0.2,0-0.1,0.1-0.2,0.2c-0.1,0.1-0.2,0.1-0.4,0.2c-0.4,0.1-0.9,0.1-1.2,0.1
		c-0.4,0-0.8,0-1.2,0.1c0,0,0,0-0.1,0l0,0c-0.2,0-0.4,0.2-0.5,0.3c-0.4,0.2-0.7,0.4-1,0.5l0,0c-0.3,0.1-0.7,0-1,0.1h-0.1
		c-0.4,0.1-0.8,0.3-1.2,0.5c-0.2,0.1-0.4,0.1-0.6,0.2c-0.3,0.1-0.6,0.1-0.7,0.2c-0.4,0.2-0.2,0.5-0.6,0.6l0,0
		c-0.7,0.1-1.2-0.9-2-1.1c-0.2,0-0.4,0-0.6,0c-0.7,0.1-0.9,0.8-0.5,1.2c0.2,0.3,0.9,0.5,0.6,0.9l-0.1,0.1c-0.3,0-0.8-0.2-0.9-0.2
		c0,0-1,0-1.3-0.1c-0.3-0.1-0.9-0.3-1.2-0.3c-0.1,0-0.1,0-0.2,0c-0.2,0-0.4,0.1-0.6,0.2c-0.2,0-0.5,0-0.7,0.1h-0.1
		c-0.3,0.1-0.6,0.3-0.9,0.4c0,0,0,0-0.1,0c-0.6,0.1-1.2-0.2-1.8-0.2c-0.1,0-0.1,0-0.2,0c-0.6,0.1-1.5,0.7-2.3,0.9
		c-0.2,0-0.4,0-0.6,0c-0.3-0.1-0.5-0.4-0.8-0.3l0,0l0,0c-0.4,0.1-0.7,0.8-1,1.1h-0.1c0,0-0.1,0-0.2,0h-0.1c0,0.6-0.3,0.9-0.3,0.9
		c-0.2,0.2-0.3,0.3-0.5,0.4c-0.1,0.1-0.2,0.1-0.3,0.1c-0.1,0-0.2,0-0.2,0c-0.1,0-0.2,0-0.3,0.1c-0.1,0-0.4,0.6-0.5,0.7l0,0
		c-0.2,0-0.5,0-0.5,0c-0.3,0-0.7-0.5-0.9-0.8c-0.1-0.1-0.2-0.4-0.4-0.6c-0.2-0.2-0.1-0.2-0.4-0.4c0,0-0.3,0-0.3-0.1V6
		c0-0.1,0.2-0.2,0.4-0.3c0.4-0.1,1-0.1,1.4,0.1s1.1,0.5,1.5,0.4c0.1,0,0.1,0,0.2,0c0.2-0.1,0.8-0.4,0.8-0.6c0-0.1-0.1-0.2-0.3-0.3
		c-0.4-0.3-1.3-0.7-1.9-0.8c-0.8,0-1.8,0.2-2.5,0c-0.2,0-0.4-0.2-0.6-0.3c-0.7-0.3-1.3-0.6-2.1-0.7c-1.7-0.2-3.2,0.3-4.3,0.7
		c-0.4,0.1-0.9,0.2-1.2,0.4c-0.1,0-0.2,0.1-0.2,0.1c-0.7,0.4-1.4,1.6-1.9,2.1c-0.2,0.2-0.8,0.6-1.1,0.9c-0.1,0.1-0.2,0.1-0.3,0.2
		C90.5,8,90.4,8,90.3,8.1c0,0-0.1,0-0.1,0.1l0,0c0,0,0,0-0.1,0c-0.5,0.3-0.8,0.6-1.4,1c-0.2,0.1-0.4,0.1-0.6,0.3
		c-0.1,0-0.4,0.3-0.4,0.4c-0.1,0.5,0.1,1.8,0.2,1.9c0.1,0.1,0,0.1,0.1,0.2c0.3,0.4,0.7,0.6,1.1,0.6c0.2,0,0.5,0,0.7-0.1
		c0.3-0.1,0.5-0.2,0.6-0.2c0.2,0,0.3,0.1,0.5,0.3c0.3,0.4,0.4,0.8,0.6,1.2c0.1,0.2,0.2,0.6,0.3,0.7l0,0c0.1,0,0.2,0,0.2,0l0,0
		l0.2,0.4c0.1,0,0.2,0.1,0.3,0.1c0.6,0.1,0.9-0.3,1.1-0.9c0.1-0.4,0.2-0.8,0.5-1.1c0.3-0.5,1-0.6,1.2-1.3c0.1-0.4-0.6-0.9-0.7-1.1
		c0-0.1-0.1-0.2-0.1-0.3c-0.1-0.2-0.2-0.2-0.2-0.5c0-0.2,0.3-0.6,0.6-1c0.3-0.3,0.6-0.4,0.9-0.7c0.2-0.2,0.4-0.5,0.7-0.8
		c0,0,0,0,0.1-0.1l0.1-0.1c0.2-0.2,0.3-0.4,0.5-0.5c0.1,0,0.1,0,0.2,0c0.3,0.1,0.4,0.3,0.5,0.6c0,0.3-0.4,0.8-0.5,1.1
		c-0.2,0.4-0.5,0.7-0.5,1.1c0,0.2,0.1,0.7,0.3,1c0.3,0.5,0.8,0.6,1.3,0.6c0.3,0,0.6-0.1,1-0.1c0.1,0,0.2,0,0.3,0
		c0.7,0,1.9,0,1.5,0.4c-0.5,0.5-0.9,0.6-1.4,0.6s-0.8-0.1-1.1-0.1c-0.1,0-0.1,0-0.1,0c-0.3,0.3-0.5,0.4-0.5,0.4
		c0,0.1,0.3,0.5,0.4,0.5c0.3,0.3,0,0.7,0,0.8c-0.1,0-0.2-0.2-0.3-0.2c-0.1,0-0.2,0-0.2,0c-0.1,0-0.2,0-0.2,0
		c-0.3,0.1-0.5,0.2-0.6,0.4c-0.2,0.3,0,0.8-0.2,1.3c-0.1,0.2-0.5,0.7-0.8,0.8c-0.4,0.1-1-0.1-1.4,0c-0.9,0.1-1.4,0.7-1.7,0.7h-0.1
		c-0.2,0-0.4-0.2-0.7-0.3h-0.1c-0.4,0-1.1,0.1-1.4,0c-0.1,0-0.2-0.1-0.2-0.1c-0.2-0.3,0.8-0.6,0.9-0.6c0.3-0.2,0.2-0.3,0.2-0.4
		c0-0.1-0.1-0.5-0.3-0.6h-0.1c-0.2,0-0.5,0.2-0.8,0.2c0,0,0,0-0.1,0c-0.2-0.1,0-0.7-0.1-0.8s0.1-0.4,0-0.4h-0.1
		c-0.4,0-0.9,0.8-0.9,1.3c0,0.2,0.2,0.4,0.2,0.6c0,0.4,0.3,0.5,0.2,0.7c-0.1,0.2-0.3,0.5-0.5,0.6c-0.3,0.1-1,0-1.2,0.2
		c-0.2,0.1-0.5,0.5-0.9,0.9c-0.7,0.6-1.4,1.1-2,1.7c-0.5,0.5-0.9,0.9-1.4,1.1c-0.3,0.1-0.2,0-0.6,0.1c-0.2,0.1-0.3,0.2-0.5,0.3
		c-0.6,0.2-1,0.1-1.1,0.5c0,0.2,0,0.3,0,0.3c0.1,0.1,0.2,0.1,0.3,0.1c0.1,0.1,0.3,0.3,0.4,0.4s0.2,0,0.3,0.1l0,0
		c0.1,0.1,0,0.2,0.1,0.3l0,0l0,0c0.1,0.1,0.1,0.1,0.2,0.2c0,0.1,0.1,0.1,0.1,0.3c0.2,0.4,0.2,0.7,0.1,1.2c-0.1,0.8-0.3,1.4-1.1,1.5
		c-0.5,0.1-1.1-0.2-1.6-0.3c-0.6-0.1-1.3-0.2-1.7,0c-0.1,0-0.4,0.5-0.5,0.5C78,26.2,78,26.8,78,27.2c-0.1,0.8-0.4,2.7-0.2,3.6
		c0,0.2,0.1,0.3,0.1,0.4c0.2,0.3,0.7,0.2,1.1,0.5c0.3,0.2,0.5,0.3,0.6,0.6c0,0.1,0.1,0.2,0.1,0.3l0.6-0.1c0,0,0,0,0-0.1l0,0l0,0
		c0-0.6,1.1-0.6,1.7-0.8c0.4-0.1,0.7-0.4,1-0.8c0.2-0.2,0.4-0.4,0.5-0.7c0.2-0.4,0.2-1,0.5-1.5c0-0.1,0.1-0.1,0.2-0.2l0.1-0.2
		c0.3-0.4,1-0.7,1.3-1.1c0.3-0.3,0.5-1.1,0.8-1.2s1,0,1.4-0.1c0.9-0.2,1.4-0.9,2-0.9c0.1,0,0.3,0.1,0.4,0.2c0.3,0.2,0.5,0.6,0.7,0.9
		c0.1,0.1,0.1,0.4,0.2,0.5c0,0,0,0.1,0.1,0.1c0.2,0.2,0.5,0.8,0.7,0.9c0.1,0,0.3,0.2,0.4,0.2s0.2,0.1,0.4,0.2
		c0.2,0.1,0.5,0.2,0.6,0.4c0.3,0.3,0.5,0.4,0.8,0.8c0.1,0.1,0.1,0.5,0.1,0.8c-0.2,0.5-0.6,0.7-0.7,0.7c-0.2-0.1-0.4-0.2-0.7-0.1
		c-0.3-0.1-0.8,0-0.8,0c0,0.5,1.1,1.3,1.3,1.3c0.2,0,0.3-0.1,0.4-0.2l0.2-0.3c0.1-0.3,0.3-0.5,0.6-0.8c0,0,0,0,0.1-0.1
		c0.1-0.2,0.3-0.4,0.3-0.5l0,0c0-0.1,0-0.1,0.1-0.2l0,0c0-0.1,0-0.1,0.1-0.2c0.1-0.2-0.5-0.3-0.3-0.7l0.1-0.1c0-0.1,0.7,0.3,0.8,0.1
		c0-0.1,0.3-0.3,0.3-0.3l0,0c-0.1-0.1-0.4-0.2-0.5-0.3l0,0c0,0-0.3-0.2-0.4-0.3H95c-0.2-0.1-0.4-0.2-0.5-0.4
		c-0.4-0.3-0.8-0.6-1.1-0.9c-0.3-0.3-0.7-0.7-0.9-1c-0.3-0.4-0.9-1.2-0.2-1.5c0.2-0.1,0.3,0,0.5,0.1s0.4,0.4,0.7,0.6
		c0.1,0.1,0.2,0.1,0.3,0.2c0.1,0.1,0.1,0.1,0.2,0.2l0,0c0.1,0.1,0.3,0.1,0.5,0.2l0,0c0.2,0.1,0.3,0.3,0.5,0.4l0.1,0.1
		c0.2,0.1,0.4,0.2,0.6,0.4c0.3,0.2,0.6,0.4,0.8,0.6c0.2,0.3,0.3,0.7,0.4,1.1s0.1,0.8,0.3,1.2c0.2,0.5,0.3,0.7,0.5,0.9
		c0.1,0.1,0.2,0.1,0.3,0.2c0,0,0,0,0.1,0c0.1,0.1,0.2,0.1,0.2,0.2c0,0.5,0,0.3,0,0.5c0,0.3,0.9,1.1,1.1,1.2c0.4,0.3,0.7,0.8,0.4,0.9
		c-0.1,0,0,0.1,0,0.1c0,0.1,0.2,0.3,0.2,0.4c-0.3-0.1-0.1-0.1,0-0.1c0.2,0,0.3,0.3,0.8,0.3c0.3,0,0.5-0.5,0.5-0.5
		c0-0.7-0.8-0.3-1.3-0.8c-0.2-0.2-0.1-0.6,0-0.6c0.1-0.2,0.8-0.5,0.7-0.9c0-0.3-2.2-1.8-2.1-2.1c0-0.2,0.2-0.3,0.4-0.3
		c0.4,0.1,0.6,0.2,1-0.2c0.2-0.2,0.3-0.3,0.5-0.2l0,0l0,0l0,0l0,0l0,0c0.2,0.2,0.4,0.5,0.6,0.8s0.2,0.7,0.5,1.1
		c0.2,0.3,0.6,0.8,1,0.9c0.5,0.1,0.9-0.2,1.4-0.2c0.3,0,0.6,0.2,0.9,0.3c0,0,0.1,0.1,0.1,0.3c0,0.2,0.3,0.5,0,0.7
		c-0.2,0.2,0.2,0.6,0.2,0.6c0.1,0,0.1,0,0.2,0c0,0,0.6-0.4,0.6-0.7c0-0.2-0.5-0.4-0.4-0.6c0-0.2,0.1-0.3,0.1-0.3
		c0.2,0,0.3-0.1,0.6-0.1c0.3,0,0.7-0.2,0.9,0.1c0.2,0.2,0.1,0.5,0.1,0.9l0.1-0.1c0.2-0.1,1.7-0.7,2.8-0.8c0.6,0,2-0.1,2.3-0.8
		c0.3-0.7,0.3-0.8,0.1-1.7c-0.1-0.2,0.3-0.3,0.5-0.3c0.1,0,0.3,0.6,0.8,0.7c0.4,0.1,0.9-0.9,1.3-0.7c0.2,0.1,0.3,0.3,0.5,0.5
		c0-0.4,0.2-0.9,0.1-1.3c-0.1-0.7-0.7-1.3-1.1-1.8c-0.8-1.1-1.4-1.9-0.5-3c0.1-0.1,0.2-0.1,0.3-0.2c0.1-0.1,0.5-0.5,0.5-0.6
		c0,0,0.1-0.1,0.2-0.1c-0.1-0.4-0.1-0.8-0.2-0.9c0,0-1.3-0.8-1.3-1.3c-0.1-0.7,0.9-2.1,1.5-2.4c0.7,0,1.2,0.1,1.2,0.2
		c0.2,0.2,0.9,0.5,1.1,0.4s0.3-0.9,0.3-0.9v-0.1l0,0c0.2,0.2,1.4,1,1.7,0.8c0.2-0.1,1.5,0.4,1.5,0.4l1.7-0.4c0,0,1.2-0.2,1.5-0.2
		s0.9-0.2,1.3-0.5s-0.6-2.3-0.6-2.3s0-0.1,0.1-0.3l0,0c0.1,0,0.9,0,1.5,0.8c0.1,0.2,0.2,0.3,0.4,0.5c0.3,0.5,0.6,0.9,1.1,1.2
		c0.8,0.5,1.5,0.9,1.9,1c0.1,0,0.3,0.1,0.7,0.2c1.5,0.4,4.5,1.3,5,1.3c0.6,0,1.2-0.5,1.5-0.9c0.1-0.2,0.1-0.4,0.1-0.6
		c0-0.3,0-0.7,0.4-0.9c0.1-0.1,0.2-0.2,0.3-0.2l0.1,0.1c0.4,0.3,1.4,0.2,2.1,0.1c0.1,0.1,0.2,0.3,0.3,0.4l0,0
		c0.2,0.3,0.3,0.4,0.6,0.3c0.1,0,0.1-0.1,0.2-0.1c0.1,0.2,0.2,0.3,0.5,0.3c0.6,0,0.9,0.1,1.3,0.3c0.4,0.1,0.4,0.9,0.9,0.4
		c0.5-0.4,0.9-0.7,1.4-0.8c0.3-0.1,0.8-0.4,1.2-0.7c0.2,0.3,0.4,0.5,0.5,0.7c1.2,1.3,3.1,0.7,3.1,0.7l0,0l0,0c0,0,4,0.3,4.4-0.4
		c0.2-0.2,0.2-0.5,0.2-0.6l1.4-0.1l1.9-0.6c0.5,0.1,1.5,0.7,2.2,0.5c0.2-0.1,1.4-0.8,2.5-0.2c0.8,0.5,1.5,2.5,2.4,3.2
		c0.7,0.5,2.2-0.2,3.3-0.4l0.9,2.8l0.3,2.4c0.2,0.1,0.2,0.2,0.3,0.4l-0.1,0.1c0.1,0.3,0.2,0.6,0.6,0.6c0.1,0,0.1,0,0.2,0
		c0.3,0,0.6-0.6,0.6-0.8c0.2-0.6,0.4-1.2,0.5-1.8c0.4-2.3-0.3-3.7-1.1-4.8c-0.4-0.5-0.7-1.2-1.1-1.6c-0.3-0.4-0.8-0.7-1-0.8
		c-0.1,0-0.2,0-0.3,0c-0.5,0-0.9,0.2-1.4,0.2c-0.1,0-0.1,0-0.2,0c-0.4-0.1-0.8-0.4-0.9-0.9c-0.1-0.4,0.1-0.5,0.2-0.6
		c0.2-0.8,0.2-1.7,0.5-2.1l0.2-0.1c0.1-0.1,0-0.2,0.1-0.3c0.2-0.2,0.7-0.5,1.2-0.6c0.1,0,0.3,0,0.5,0c0.5,0,1,0.1,1.5,0
		c0.1,0,0.2,0,0.4,0c0.3,0,0.6-0.1,0.8-0.1l0,0c0.4,0,1,0.4,1.4,0.3c0.1,0,0.2,0,0.3,0c0.6-0.3,0.2-1,0.5-1.6
		c0.1-0.2,0.3-0.3,0.5-0.4h0.1c0.2,0,0.4,0.1,0.6,0.1c0.2,0.1,0.8,0.3,0.9,0.3l0,0h0.1c0.2,0,0.6-0.8,1-0.9l0,0
		c0.2,0,0.4,0.1,0.6,0.3c0.2,0.4,0.2,1.1,0.1,1.5c0,0.3-0.1,0.6-0.2,0.9c-0.1,0.6-0.3,1.2-0.3,1.7c0,0.2,0.3,0.7,0.5,1
		c0,0.2,0.1,0.3,0.1,0.4c0.1,0.1,0,0.2,0.1,0.3c0.6,0.8,0.4,1.2,1.1,1.9c0.4,0.4,0.2,1.4,0.6,2c0.2,0.3,1-0.6,1.1-1v-0.1
		c0.3,0.3,0.5,0.5,0.8,0.4c0.2-0.1,0.3-0.4,0.3-0.8c0-0.3-0.2-0.6-0.2-1c0-1.1,0.1-1.3-0.2-2c-0.3-0.8-0.7-1.1-1.4-1.7
		c-0.1-0.1-0.2-0.2-0.3-0.3c-0.1-0.3,0-0.6,0-0.9c0,0,0.2-0.4,0.3-0.5s0.4-0.2,0.5-0.3c0.3-0.2,0.7-0.4,1-0.5c0.2,0,0.3,0.1,0.5,0.1
		c0,0,0,0,0.1,0s0.1,0,0.2,0c0.4-0.1,0.9-0.9,1.2-1.1c0.1-0.1,0.1-0.2,0.2-0.2c0.1,0,0.2-0.1,0.2-0.1c0.1,0,0.2,0,0.3,0s0.2,0,0.2,0
		c0.2-0.1,0.4-0.1,0.4-0.6c0-0.7-1.5-0.6-1.8-0.9l-0.2-0.6c0-0.4,0.6-0.6,1-0.6c0.1,0,0.2,0,0.3,0c0.5,0.2,1,0.3,1.4,0.4
		s0.8,0.4,1.1,0.3c0.1,0,0.2,0,0.3-0.1s0.3-0.3,0.3-0.4C187,6.9,186.9,6.7,186.6,6.4z M109.3,27c-0.4,0.1-0.9-0.2-1.4-0.4
		c-0.2-0.1-0.4-0.1-0.6-0.2c-0.4-0.1-1.3-0.5-2-0.5c-0.5,0-1.1,0.3-1.5,0.5c-0.2,0.1-0.5,0.2-0.7,0.3c-0.3,0.1-0.5,0.4-0.8,0.2
		c0,0,0,0-0.1,0c-0.3-0.2-0.2-0.4-0.2-0.7c0-0.4,0.2-0.5,0.3-0.8c0.2-0.6,0.4-1.2,0.7-1.6c0.2-0.3,0.4-0.4,0.7-0.7
		c0.1-0.1,0.2-0.2,0.3-0.2c0.3-0.1,0.4,0,0.6,0c0.3,0.1,0.4,0.3,0.7,0.4c0.6,0.1,0.7-0.2,0.8-0.6c0.2-0.6,0-0.8,0.6-1.1
		c0.1-0.1,0.3-0.1,0.4-0.1s0.1-0.1,0.3-0.1c0.3,0,0.6-0.1,0.7,0.2c0.2,0.5-0.3,1-0.3,1.3c0.1,0.7,1.4,1.2,2.1,1.8
		c0.3,0.2,0.5,0.5,0.5,0.7C110.7,26.1,110,26.9,109.3,27z"/>
	<path class="st1" d="M82.5,3.5c-0.3,0.2-0.6,0.9-1.1,1.3c-0.1,0.1-0.2,0.1-0.3,0.1C81,5,80.7,5.3,80.5,5.4
		c-0.4,0.2-1.1,0.2-1.3,0.4c-0.3,0.5,0,1.2-0.4,1.4c-0.2,0.1-0.1,0.1-0.3,0.2C78,7.7,78.1,7.7,78,7.8C77.9,8,77.9,8,78,8.2
		c0,0.2,0.1,0.4,0.3,0.6c0.2,0,0.6,0.2,1,0.1c0.8,0,1.6-0.2,1.7,0.3s-0.3,0.7-0.8,1c-0.3,0.1-0.6,0.4-0.9,0.5
		c-0.2,0.1-0.5,0.1-0.6,0.1s-0.2-0.2-0.4-0.3c-0.4-0.4-1.6-0.4-1.7-0.7c0-0.1,0.4-0.4,0.5-0.6l0.2-0.1c0.1-0.1,0.3-0.2,0.6-0.2
		c-0.1-0.4-0.8-0.7-0.8-0.7c-0.2,0.1-0.6,0.1-0.9,0.1s-0.6,0.1-0.8,0.1c-0.9,0-1.5-0.2-2.2,0.4c-0.1,0.1-0.4,0.2-0.6,0.4
		c-0.3,0.2-0.6,0.5-1,0.7c-0.9,0.4-1.9,0.2-2.7,0.6c-1.1,0.5-1.8,1.7-2.5,2.7c-0.1,0.1-0.1,0.1-0.2,0.2c-0.2,0.3-0.3,0.5-0.7,0.8
		c-0.3,0.2-0.6,0.3-1.2,0.1c-0.6-0.2-0.9-0.5-1.3-1c-0.5-0.7-0.5-1-0.5-2.1c0-0.5-0.1-1.2,0-1.5c0-0.2,0.2-0.4,0.4-0.5
		c0.4-0.4,1-0.5,1.4-1.1c0.1-0.2,0.4-0.4,0.4-0.7c0-0.2-0.3-0.4-0.4-0.6S64.1,6.3,64,6.2l-0.2-0.1c0,0,0-0.1,0-0.2l-0.2-0.1
		c0-0.1,0-0.1,0-0.2l-0.2-0.1C63.3,5.3,63.2,5.2,63,5c-0.1-0.1-0.8-0.4-1.1-0.5s-1.3,0-1.9,0c-0.4,0-1.6,0.2-1.4-0.6
		c0.1-0.4,0.3-0.2,0.7-0.3c0.7-0.1,2-0.3,2.5-0.4C63,3,63.9,2.6,65,2.5c1.6-0.1,3.2,0.1,4.8,0c1.1-0.1,2.1-0.2,3.2-0.3
		c1.7-0.1,3.3,0,5-0.1c0.5,0,1.5-0.2,2.3-0.1c0.3,0,0.7,0.1,1.2,0.2c0.7,0.1,1.5-0.1,1.6,0.5C83.4,3.5,82.8,3.2,82.5,3.5z"/>
	<path class="st1" d="M84.6,18c-0.1,0.1,0.3,0.4,0.2,0.4c-0.2,0.2-1.2,0.2-1.8,0.4c-1.5,0.5-1.9,0.2-1.8,0.1
		c0.2-0.4,1.2-0.5,1.2-0.5c0-0.1,0.1-0.4,0-0.5c-0.1,0-0.3,0.1-0.4,0c0-0.1-0.5-0.2-0.5-0.3c-0.1-0.1,0.5-0.4,0.5-0.4
		c-0.1-0.4,0-0.6,0.4-0.7c0.2-0.1,0.6-0.1,0.5-0.5c-0.1-1.1-0.6-0.7-0.9-0.9c-0.5,0.1-0.8,0.6-0.8,0.7c0.1,0.2-0.4,0.4-0.5,0.7
		c-0.2,0.5,0,1-0.7,1.2c-0.1,0-0.4,0.1-0.4,0.1c-0.4,0.1-1,0.4-1.1,0.2c-0.3-0.5,0.3-0.6,0.4-0.9c0.1-0.4-0.2-0.6-0.1-0.9
		c0.2-0.3,0.6-0.4,1.1-0.9c0.1-0.1,0.4-0.1,0.5-0.1c0.8,0.1,1.2-0.1,1.3-0.7c0-0.1,0-0.1,0-0.1c-0.1-0.7-0.1-0.8,0.1-1.2
		c0.1-0.1,0.1-0.4,0.3-0.4c0.1,0,0.4,0,0.4,0.1c0,0.2,0,0.3,0.1,0.4c0.1,0,0.3,0,0.5,0.1c0.1,0.1-0.1,0.4-0.1,0.5
		c0.1,0.2-0.4,0.5-0.2,0.6c0.1,0.1,0.4,0.2,0.4,0.2c0.3,0.2,0.4,0.3,0.7,0.7c0.1,0.1,0.2,0.3,0.2,0.4c0.1,0.2,0.3,1.1,0.4,1.3
		c0.2,0.4,0.7-0.1,0.9,0.3C85.4,17.4,84.9,17.7,84.6,18z"/>
</g>
<path class="st0" d="M42.4,49.4C42.1,49.6,41,50,40.5,50c-0.2,0-0.8,0-1.1-0.1c-0.1,0-0.6,0.2-0.9,0.1c-0.6,0-1-0.6-1-0.6
	c0-0.1,1.3-0.1,1.8-0.4c0.2-0.1-0.1-0.3-0.2-0.4c-0.1-0.1-0.8-0.4-1.2-0.5l0,0c-0.4,0.1-1.3-0.1-1.8-0.1c-0.3,0-0.8,0-1-0.2L35,47.7
	c-0.1-0.1,0-0.3-0.1-0.5c-0.2-0.2-0.4-0.5-0.7-0.6c-0.6-0.2-1.1-0.5-1.4-0.6c-0.4-0.1-0.9,0.1-1.2,0.3c-0.2,0.1-0.2,0.4-0.5,0.4
	c-0.1,0-0.3-0.1-0.4-0.1c-0.2,0-0.2-0.5-0.2-0.6c0-0.2,1-0.4,1-0.4c0-0.1,0.1-0.1,0.3-0.1c0,0,1.7,0,1.8,0c0,0,0.2,0.1,0.7,0.2
	c0,0,0.2,0.1,0.3,0.1s0.3,0,0.4,0.1c0.4,0.2,1.2,0.9,1.8,1.2c0.1,0,0.1,0.1,0.2,0.1c0.1,0,0.2,0,0.2,0.1l0.2,0.1
	c0.1,0,0.7,0.2,0.8,0.3l0,0l0,0c0,0,1,0.6,1.1,0.6c0.2,0.1,0.6-0.1,0.6-0.1c0.2,0,1.7,0.5,2.2,1C42.3,49,42.6,49.2,42.4,49.4z"/>
<g>
	<path class="st2" d="M106.8,36.6c0,0-0.1-0.2-0.3-0.6c-0.1,0-0.2,0.1-0.2,0.1c-0.7,0.3-1.1,0.7-2,0.7c-0.5,0-1-0.2-1.5-0.3
		c-0.7-0.1-1.2-0.3-1.7-0.5c-0.1,0-0.2,0-0.4-0.1c-0.4-0.2-1.2-0.9-1.9-0.8c-0.3,0.1-0.7,0.3-0.8,0.6c-0.2,0.4,0,1.3-0.6,1.5
		c-0.3,0.1-1-0.2-1.4-0.4c-0.5-0.2-0.4-0.1-0.8-0.5c-0.1-0.1-0.3-0.2-0.5-0.3c-0.3-0.3-0.6-0.7-1.1-0.9s-1-0.2-1.4-0.5
		c-0.3-0.2-0.5-0.2-0.6-0.5c-0.1-0.1,0-0.1-0.1-0.2c-0.2-0.3,0-1.4-0.1-1.9c-0.1-0.4-0.5-0.9-0.7-1s-1.1,0.3-1.5,0.4
		c-0.8,0.1-1.9-0.1-2.7,0c-0.6,0.1-1.4,0.3-1.8,0.5s-1,0.6-1.5,0.9c-0.5,0.2-2,0.2-2.4-0.2c-0.1-0.1-0.1-0.1-0.1-0.1l-0.6,0.1v0.1
		c0,0.1,0,0.2,0,0.3c-0.1,0.4-0.5,0.8-0.9,1.1c-0.5,0.5-1.1,0.8-1.3,1.2l-0.2,0.1c-0.1,0.2-0.1,0.5-0.2,0.7c0,0-0.2,0.1-0.2,0.2
		c-0.1,0.4,0,0.9-0.1,1.2c-0.1,0.2-0.4,0.6-0.6,0.8c-0.3,0.2-0.6,0.4-0.8,0.6c-0.2,0.2-0.5,0.7-0.7,0.9C75,39.9,75,39.9,74.9,40
		c-0.4,0.5-0.8,1.2-1.1,1.8c0,0,0,0.2-0.1,0.3c-0.1,0.3-0.4,0.5-0.5,0.8c-0.2,0.3-0.2,0.7-0.4,1c-0.3,0.7-0.8,1.3-0.8,1.9
		c0,0.4,0.2,0.7,0.3,1c0.4,1.2,0.3,2.6-0.1,3.5c-0.1,0.4-0.4,0.6-0.5,1.1c-0.1,0.6,0.2,1,0.3,1.4c0.1,0.4,0,0.9,0.1,1.2
		c0.2,0.5,1,1.2,1.4,1.8c0.2,0.3,0.5,0.8,0.7,1.2c0.2,0.5,0.3,1.1,0.5,1.5c0.1,0.2,0.4,0.5,0.7,0.8c0.2,0.3,0.5,0.6,0.7,0.8
		c0.6,0.5,1.5,1,2.1,1c0.8,0,1.8-0.7,2.4-0.7c0.5,0,1,0.3,1.5,0.3c0.3,0,0.7-0.3,0.9-0.4c0.4-0.2,0.7-0.3,0.9-0.4
		c0.9-0.4,2-0.9,2.9-0.4c0.6,0.4,0.7,1.3,1.4,1.5c0.1,0,0.8-0.1,1.2,0c0.2,0.1,0.4,0.3,0.5,0.5c0.4,0.4,0.6,0.7,0.6,1.2
		c0.1,1.1-0.5,2.4-0.4,3.6c0,0.4,0.2,0.8,0.4,1.1c0.4,0.7,1.1,1.1,1.4,2c0.1,0.3,0.1,0.6,0.2,1c0,0.1,0.2,0.3,0.3,0.5
		c0.2,0.6,0.6,1.3,0.6,1.7c0.1,0.5-0.1,1.2,0,1.7c0.1,0.6,0.3,1.1,0.3,1.4s-0.2,0.5-0.3,0.8c-0.1,0.3-0.2,0.5-0.3,0.8
		c-0.1,0.2-0.3,0.4-0.4,0.7c0,0.1-0.1,0.3-0.1,0.5c-0.1,0.4-0.2,0.8-0.3,1.3c0,0.3-0.1,0.7-0.1,1c0,0.6,0.3,1.2,0.5,1.5
		c0.6,1.2,1,2.7,1.4,4c0.2,0.6,0.3,1.2,0.4,1.7c0.1,0.4,0,0.7,0.1,1.1c0,0.3,0.1,0.8,0.2,1.2c0,0.1,0.2,0.2,0.3,0.4
		c0.1,0.2,0.1,0.4,0.2,0.6c0.1,0.1,0.3,0.2,0.4,0.4v0.2h0.2c0.1,0.1,0,0.2,0.1,0.3c0.2,0.3,0.4,0.7,0.5,1.1c0.2,0.4,0.4,0.9,0.5,1.2
		c0.1,0.5-0.1,1.4,0.1,1.7c0,0.1,0.5,0.5,0.7,0.6c0.6,0.2,1.3-0.4,2.3-0.4c0.4,0,0.5,0.2,0.7,0.2c0.3,0.1,0.8,0,1,0
		c0.4-0.1,0.6-0.4,0.8-0.6c0.6-0.4,1-0.8,1.4-1.3c0.2-0.2,0.4-0.4,0.5-0.6c0.1-0.1,0-0.2,0.1-0.3c0.2-0.2,0.4-0.5,0.6-0.8
		s0.4-0.6,0.5-0.9c0.4-0.6,1-1.3,1.1-1.8s-0.1-1.1,0-1.3c0-0.1,0.3-0.3,0.4-0.4c0.4-0.4,1.1-0.7,1.4-1.2c0.2-0.3,0.4-1.1,0.4-1.4
		c0-0.7-0.5-1.1-0.4-2c0-0.2,0.2-0.4,0.3-0.7c0.2-0.4,0.5-0.6,0.6-0.9c0.1-0.1,0.1-0.3,0.2-0.4c0.3-0.4,0.5-0.5,0.7-0.7
		c0.1-0.1,0.1-0.1,0.2-0.2c0.4-0.3,0.7-0.4,1-0.7c0.3-0.2,0.5-0.5,0.6-0.8l0.2-0.1c0.3-0.4,0.4-0.7,0.5-1.2c0.2-0.8,0-1.3-0.1-2
		c-0.1-0.5,0-1-0.1-1.4c-0.1-0.3-0.4-0.7-0.5-1.1c0-0.1,0-0.3-0.1-0.5c-0.2-0.8-0.5-2.1-0.4-3.3c0-0.3,0.3-0.8,0.4-1.1
		c0.2-0.4,0.3-0.5,0.5-0.8c0.9-1.1,1.4-2.1,2.3-3.3c0.1-0.2,0.1-0.3,0.3-0.5c0.4-0.4,0.8-0.9,1.2-1.2c0.6-0.6,1.5-1.2,1.8-1.9
		c0.2-0.3,0.2-0.8,0.4-1.1c0.2-0.4,0.3-0.7,0.5-1.1c0.1-0.1,0.1-0.2,0.2-0.4c0.3-0.8,0.5-1.2,0.8-2.2c0.1-0.4,0.4-1,0.4-1.4
		c-0.2-1.2-1.6-0.2-2.1,0c-0.4,0.1-0.8,0.1-1.2,0.2c-0.5,0.1-0.9,0.3-1.3,0.2c-0.2,0-0.5-0.3-0.6-0.4c-0.6-0.6-0.5-1.4-0.9-2.2
		c-0.2-0.4-0.9-1-1.2-1.2c-0.3-0.3-0.6-0.4-0.8-0.8c-0.3-0.5-0.6-1.2-0.9-1.8c-0.3-0.7-0.8-1.2-1-1.7s-0.2-1.2-0.4-1.6
		c-0.1-0.4-0.4-0.7-0.5-1.1c-0.4-0.9-1.1-2.3-1.5-3.3c-0.3-0.7-0.6-1.5-0.8-1.9c-0.1-0.1-0.2-0.2-0.2-0.3c-0.1-0.2-0.3-0.6-0.2-0.7
		c0-0.2,0.3-0.1,0.3-0.1c0.1-0.1,0.1-0.2,0.2-0.3l0,0c0-0.1,0-0.2,0-0.2C107,37.5,106.9,36.8,106.8,36.6z"/>
	<path class="st2" d="M119.6,77.2c0.5-0.2,0.6-0.1,0.8,0.6c0.2,0.6,0.2,0.9,0.1,1.6c-0.1,0.9-0.4,1.7-0.8,2.5
		c-0.1,0.1,0,0.1-0.1,0.2s-0.1,0.3-0.2,0.5c-0.2,0.6-0.6,1.7-0.7,2.6c-0.1,0.4-0.1,0.9-0.2,1.2c-0.2,1-0.2,1.2-1,1.6l-0.1,0.2
		c-0.4,0.2-1,0.1-1.4-0.2c-0.5-0.4-0.8-1.5-0.7-2.6c0.1-0.9,0.7-1.3,0.8-2.3c0-0.5-0.2-1.2-0.1-1.8c0-0.3,0.2-0.7,0.3-0.9l0.2-0.1
		c0.1-0.3,0.4-0.5,0.7-0.8c0.2-0.2,0.7-0.4,1-0.6c0.1,0,0.2,0,0.3-0.1C119,78.4,119.2,77.7,119.6,77.2
		C119.5,77.2,119.5,77.2,119.6,77.2z"/>
</g>
<g>
	<path class="st3" d="M106.6,37.3L106.6,37.3c0.1,0.1,0.4,0.3,0.6,0.5l0.1,0.1c0.1,0.2,0.2,0.4,0.3,0.6c0.3,0.6,0.5,1.2,0.8,1.6
		c0.2,0.3,0.4,0.4,0.5,0.7c0.2,0.2,0.3,0.4,0.4,0.5s0.3,0.4,0.4,0.6c0.1,0.1,0.1,0.3,0.2,0.5s0.4,0.5,0.5,0.8c0.1,0.2,0,0.5,0.1,0.7
		c0.1,0.3,0.3,0.7,0.4,0.9c0.2,0.5,0.6,1,0.8,1.2c0.3,0.4,0.7,1.1,1,1.5c0.1,0.1,0.1,0.3,0.2,0.5s0.2,0.3,0.3,0.5v0.1
		c0.2,0.6,0.2,1.4,0.4,2c0.2,0.6,0.4,1.1,0.9,1.2c0.3,0,0.4,0,0.6-0.1c0.3-0.1,0.7-0.3,1-0.5c0.5-0.2,0.7-0.3,1-0.5
		c0.6-0.3,1.4-0.6,1.7-0.9c0.1-0.1,0.2,0,0.3-0.1c0.4-0.3,0.7-0.9,1.2-1.3c0.4-0.3,1-0.5,1.4-0.7s1-0.8,1.3-1.2
		c0.3-0.5,0.5-1.1,0.9-1.7c0.4-0.7,1.1-1.2,1.1-1.7c0,0-0.2-0.2-0.3-0.3c-0.3-0.5-0.3-0.4-0.6-0.7c-0.1-0.1-0.2-0.3-0.4-0.5
		c-0.1-0.1-0.4-0.2-0.5-0.3c-0.3-0.3-0.4-0.3-0.7-0.5c-0.1-0.1-0.1-1.2-0.3-1.2l0,0c-0.1,0-0.4,0.5-0.5,0.6
		c-0.2,0.1-0.3,0.4-0.6,0.6c-0.4,0.3-0.7,0.5-0.9,0.6c-0.1,0-0.2,0-0.3,0c-0.4,0-0.8-1.3-1.1-1.5c-0.1-0.1-0.1-0.1-0.2,0
		c-0.1,0,0,0.4-0.2,0.5c-0.1,0-0.2,0-0.4-0.1c-0.2-0.1-0.3-0.9-0.4-1c-0.1-0.2-0.2-0.4-0.4-0.7c-0.1-0.2-0.2-0.3-0.3-0.5
		c0-0.1-0.4-1.4-0.4-1.7c0,0,0-0.1,0.1-0.1c0.1-0.2,0.4-0.4,0.6-0.4c0.6,0,1.1,0.9,1.3,1.3c0.1,0.2,0.2,0.5,0.3,0.7l0.2,0.3
		c0.2,0.1,0.2,0.2,0.3,0.3c0.2,0.3,1.4,0.7,1.8,0.7c0.1,0,0.2,0,0.3-0.1c0.2-0.1,0.2-0.3,0.4-0.3c0.1,0,0.2,0,0.5,0.1
		c0.3,0.2,0.7,0.6,1,0.9c0.1,0.1,0.1,0.2,0.1,0.3c0.1,0.1,0.2,0,0.3,0.1c0.8,0.4,1.7,0.4,2.8,0.4c0.5,0,1-0.1,1.4-0.1
		c0.1,0,0.2,0,0.3,0c0.1,0,0.1,0,0.2,0c0.2,0,0.4-0.1,0.6,0c0.6,0.1,1.5,1.4,2,1.8c0.1,0.1,0.3,0.3,0.4,0.4h0.1
		c0.1,0,0.4-0.1,0.5-0.1h0.1c0.1,0.7-0.6,0.5-0.6,0.9c0.1,0.5,0.6,0.6,0.6,0.7c0.1,0.2,0.2,0.2,0.4,0.2c0.1,0,0.1,0,0.2,0l0,0
		c0,0,0,0,0.1,0c0.5,0,0.7-1.1,1.1-1.1c0.1,0,0.1,0,0.2,0.1c0.2,0.1,0.2,0.5,0.2,1c0,0.6-0.1,1.3-0.1,1.6c0.1,0.8,0.5,1.8,0.7,2.4
		c0.2,0.5,0.2,1.1,0.3,1.4c0.1,0.1,0.2,0.3,0.2,0.5c0.2,0.4,0.4,0.9,0.6,1.3c0.2,0.4,0.4,0.8,0.5,1.2c0.1,0.2,0.2,0.4,0.3,0.7
		s0.2,0.7,0.3,1c0.4,1,0.7,1.8,1.4,1.2c0.1-0.1,0.3-0.2,0.4-0.4l0,0l0.6,0.4c-0.1,1.2,0,2,0.5,2.2c0.1,0.2,0.3,0.3,0.5,0.3
		c0.1,0,0.6,0,0.6-1c0-0.5-0.2-1.2-0.5-1.6l0,0c0-0.1-0.1-0.2-0.1-0.3s-0.1-0.1-0.1-0.2c0-0.2-0.1-0.4-0.1-0.3c0,0,0,0,0,0.1
		c0,0,0,0,0-0.1c-0.1-0.1-0.3,0.1-0.4,0.2c0,0,0,0.1-0.2,0c-0.3-0.1-0.4-0.2-0.4-0.4c0.3-0.7,0.5-1.7,0.5-2.6c0-0.5-0.3-1.7-0.1-2.3
		c0.1-0.6,1.1-0.7,1.4-1.2c0.7-0.9,1.4-2.4,2.2-3.3c0.1-0.1,0.3-0.2,0.4-0.3c0.1-0.2,0.2-0.3,0.3-0.5c0.2-0.3,0.4-0.6,0.6-0.8
		c0.2-0.1,0.6-0.1,1.1-0.3c0.4-0.1,0.7-0.3,0.9-0.3h0.1c0.5,0.1,0.7,0.7,0.9,1.1c0.1,0.1,0.1,0.4,0.2,0.5c0,0,0.2,0.1,0.3,0.1
		c0.2,0.1,0.2,0.4,0.3,0.5s0.2,0,0.3,0.1c0.3,0.3,0.5,0.6,0.6,0.9c0.2,0.3,0.2,1,0.4,1.4c0.1,0.3,0.2,0.5,0.3,0.7
		c0.1,0.3,0.2,0.5,0.4,0.6c0,0,0,0,0.1,0c0.2,0.1,0.6-0.1,0.7-0.2c0.8-0.9,0.9,0.7,1.2,1.5c0.2,0.6,0.6,1.3,0.7,1.9
		c0.1,0.6,0,1.3-0.1,1.8c0,0.4,0,0.9,0,1.3c0,0.2,0,0.3,0,0.5c0,0.1,0,0.1,0.1,0.2c0.1,0.2,0.4,0.4,0.4,0.5c0.1,0.1,0.1,0.1,0.2,0.2
		c0.1,0.1,0.2,0.4,0.3,0.5l0,0c0.2,0.3,0.5,0.6,0.6,0.9c0.3,0.7,0.3,1,0.4,1.2c0.1,0.5,0.2,0.6,0.3,1c0.1,0.2,0.1,0.5,0.2,0.7
		l0.2,0.1c0,0,0.1,0.1,0.2,0.2c0,0,0,0,0,0.1c0.1,0.1,0.1,0.2,0.2,0.2c-0.1,0.4-0.2,0.8-0.4,0.8c-0.1-0.1-0.2-0.1-0.2-0.2
		c-0.4-0.4-0.4-1-0.7-1.4c-0.1-0.2-0.5-0.4-0.6-0.5s0-0.2-0.1-0.3l-0.2-0.1c-0.5-0.3-1.3-1-1.7-1.1c-0.1,0-0.6-0.1-0.8-0.1h-0.1
		c-0.1,0.1-0.1,0.2-0.1,0.4c0,0.3,0.2,0.9,0.6,1.4c0.3,0.5,0.9,0.9,1.1,1.1c0.8,1,1.4,1.9,2,3.1c0.4,0.7,0.6,1.4,1,2.1
		c0.4,0.8,1.2,2.1,2.1,2c0.2,0,0.9-0.5,0.9-1.2c0.1-1.1-1.1-2-1.7-3.2c-0.1-0.2-0.2-0.5-0.3-0.7s-0.4-0.8,0.3-1.3
		c0.1,0,0.2,0,0.2-0.1c0.1-0.1,0.1-0.6,0.1-0.8s-0.2-0.6-0.3-0.9c-0.1-0.3-0.2-0.5-0.3-0.8c-0.1-0.2-0.3-0.8-0.4-1
		c-0.2-0.2-0.6-0.7-1.2-1.5c-0.3-0.3-0.5-0.7-0.7-1c-0.1-0.4-0.3-0.9-0.4-1.3c-0.1-0.5,0-1.1,0-1.6c0-0.6-0.1-1.2-0.1-1.4
		c0-0.1,0.1-0.1,0.2-0.2c0.1-0.2,0.2-0.3,0.3-0.3c0.1,0.1,0.3,0.2,0.4,0.3c0.2,0.2,0.5,0.4,0.6,0.6c0.5,0.6,0.7,1.4,1.2,1.8h0.1
		c0.1,0,0.2,0,0.3,0l0,0l0,0l0,0c0.2,0.1,0.3-0.1,0.4-0.2l0,0c0.3,0.4-0.1,0.8,0,1.2c0,0.1,0.1,0.2,0.2,0.2c0.1,0,0.1,0,0.1,0
		c0.5,0.1,1.1-1,1.5-1.4c0.5-0.5,0.9-0.7,1.1-1.2c0.4-1.2-0.3-2.9-0.7-3.5c-0.5-0.9-1.4-1.5-1.8-2.1c-0.2-0.3-0.5-0.7-0.5-1.1
		c0-0.9,0.8-2.1,1.7-2.1c0.1,0,0.2,0,0.3,0.1s0.2,0.1,0.3,0.2c0.2,1,0.4,1.4,0.6,1.3c0.3,0.1,0.6-1.2,0.8-1.4c0,0,0.1-0.1,0.1-0.2
		l0,0c0.3-0.2,0.5-0.4,0.7-0.5c0.5-0.2,1-0.1,1.4-0.2c0.2-0.1,0.4-0.2,0.5-0.3c0.3-0.1,0.6-0.2,0.7-0.3c0.3-0.3,0.6-0.5,0.9-1
		c0.4-0.7,0.6-1.1,0.8-1.7c0.1-0.4,0.2-1,0.4-1.5c0.1-0.5,0.6-1.9,0.1-1.9c-0.8,0-1.2-0.5-0.9-0.7s0.5-0.4,0.4-0.5
		c0,0-0.4-0.5-0.4-0.6c-0.3-0.5-0.7-0.8-1-1.1c-0.4-0.5-1.2-1.7-1.2-2.2c0-0.4,1.5-1,1.2-1.6s-1.5-0.2-2.1-0.3
		c-0.4-0.1-1.2-0.8-1.2-1.2c0-0.3,0.1-0.3,0.3-0.5c0.3-0.3,0.7-0.9,1.1-1c0.1,0,0.2,0,0.3,0s0.4,0.2,0.5,0.3c0,0.1,0,0.2,0,0.3
		c0.1,0.1,0.2,0.7,0.2,0.7h0.1c0.2,0,0.6-0.3,0.9-0.4c0.7-0.2,0.9,0,1.3,0.5c0.3,0.3,0,1,0.3,1.1c0.4,0,0.7,0.1,0.8,0.2
		c0.2,0.1,0.3,0.3,0.5,0.6c0.5,0.7,0.6,1.2,0.7,1.7c0.1,0.2,0.2,0.8,0.4,0.8h0.1c0.3,0,0.6-0.7,0.8-0.8h0.1c0.3,0,0.4-0.2,0.3-0.5
		c0,0.1,0,0.1,0,0c0-0.2,0-0.1,0,0c0-0.3-0.3-0.9-0.5-1.1c-0.1-0.1,0-0.1-0.1-0.2c-0.5-0.6-2-1.2-2-2c0-0.4,0.6-0.9,0.7-1.3
		c0.1-0.4-0.1-0.9,0-1.2c0.1-0.2,0.9-0.8,0.9-0.8l0,0h0.1h0.1l0,0h0.1l0,0l-0.3-2.4l-0.9-2.7h-0.1l0,0c-1.1,0.2-2.5,0.8-3.2,0.4
		c-0.7-0.5-1.2-1.7-1.8-2.5l-0.1-0.1c-0.2-0.2-0.3-0.4-0.5-0.5c0,0,0,0-0.1-0.1c-1.1-0.6-2.3,0.2-2.5,0.2c-0.8,0.2-1.8-0.3-2.2-0.5
		l-1.9,0.6l-1.4,0.1c0,0.2-0.1,0.4-0.2,0.6c-0.5,0.7-4.4,0.4-4.4,0.4l0,0l0,0c0,0-2,0.6-3.1-0.7c-0.1-0.1-0.3-0.4-0.5-0.6
		c0,0,0,0-0.1,0l0,0c-0.4,0.2-0.9,0.5-1.1,0.6c-0.5,0.1-0.9,0.3-1.4,0.8c-0.5,0.4-0.4-0.3-0.9-0.4c-0.3-0.1-0.7-0.3-1.3-0.3
		c-0.3,0-0.4-0.2-0.5-0.3c-0.1,0-0.1,0.1-0.2,0.1c-0.3,0.2-0.4,0-0.6-0.3l0,0c-0.1-0.1-0.2-0.2-0.3-0.3h-0.1l0,0
		c-0.7,0.1-1.6,0.2-2-0.1c0,0-0.1,0-0.1-0.1l0,0l0,0c-0.1,0-0.2,0.1-0.3,0.2c-0.3,0.3-0.3,0.6-0.4,0.9c0,0.2,0,0.4-0.1,0.6
		c-0.2,0.5-0.8,0.9-1.5,0.9c-0.5,0-3.6-0.9-5-1.3c-0.4-0.1-0.6-0.2-0.7-0.2c-0.4-0.1-1.1-0.5-1.9-1c-0.5-0.3-0.8-0.7-1.1-1.2
		c-0.1-0.2-0.2-0.3-0.4-0.5c-0.6-0.8-1.4-0.8-1.5-0.8l0,0c-0.1,0.2-0.1,0.3-0.1,0.3s1,2,0.6,2.3c-0.4,0.3-1,0.5-1.3,0.5
		s-1.5,0.2-1.5,0.2l-1.7,0.4c0,0-1.2-0.5-1.5-0.4c-0.2,0.1-1.5-0.6-1.7-0.8l0,0v0.1c0,0-0.1,0.8-0.3,0.9c-0.2,0.1-0.9-0.2-1.1-0.4
		c-0.1-0.1-0.5-0.1-1.2-0.2c0,0,0,0-0.1,0l0,0c-0.7,0.3-1.6,1.6-1.5,2.3c0,0.5,1.3,1.3,1.3,1.3c0.1,0.2,0.1,0.5,0.2,0.9l0,0l0,0
		c0.2-0.1,0.5-0.2,0.6-0.2c0.2,0,0.3-0.1,0.5-0.1c0.4,0.1,0.9,0.4,0.9,0.8c0,0.1,0,0.2,0,0.3c-0.1,0.4-0.6,0.5-0.8,0.7
		c-0.2,0.1-0.2,0.3-0.3,0.5c-0.1,0.4,0.1,0.9,0.6,1.3c0.1,0.1,0.2,0,0.3,0.1c0.2,0.1,0.2,0.3,0.4,0.4c0.2,0.1,0.6,0.1,0.9,0.3
		c0,0,0.5,0.5,0.5,0.6s0,0.3,0,0.4c-0.1,0.2-0.2,0.3-0.2,0.3l0,0v0.1c0,0,0,0,0,0.1c0,0-0.1,0.1-0.1,0.2s-0.1,0.2-0.1,0.3
		c0,0.3,0.2,0.4,0.4,0.7c0.1,0.1,0.3,0.4,0.4,0.6c0.1,0.4,0.1,1.2,0,1.5c-0.1,0.1-0.4,0.5-0.4,0.5c-0.3,0.1-1-0.2-1.3-0.3
		c-0.7-0.3-1.5-0.6-1.6-1.7c0-0.1,0-0.1,0-0.2c-0.1-0.2-0.3-0.4-0.5-0.5c-0.4-0.2-0.9,0.8-1.3,0.7c-0.3-0.1-0.5-0.4-0.7-0.5
		c-0.1-0.1-0.1-0.2-0.1-0.2c-0.2,0-0.6,0.1-0.5,0.3c0.2,1,0.2,1-0.1,1.7c-0.3,0.7-1.7,0.7-2.3,0.8c-1.1,0.1-2.6,0.7-2.8,0.8
		l-0.1,0.1v0.1c-0.1,0.8-0.1,1.6-0.3,2.3c-0.1,0.3-0.2,0.8-0.3,1c-0.2,0.3-0.4,0.6-0.7,0.8c0.2,0.4,0.2,0.4,0.2,0.4
		c0.1,0.2,0.2,0.9,0.2,1.3C106.6,37.1,106.6,37.2,106.6,37.3"/>
	<path class="st3" d="M178.2,31.3c0,0.4-0.2,0.5-0.3,0.7s-0.9,0.5-1.4,0.6c-1,0.1-0.6,1.2-0.8,1c-0.4-0.3-0.5-0.8-1.2-0.9
		c-0.4,0-1.9,0.6-2.2,0c0-0.1-0.1-0.2-0.1-0.2c0.3-0.1,0.8-0.3,1.1-0.5c0.4-0.2,0.8-0.3,1.2-0.5c0.3-0.1,0.5-0.2,0.7-0.4l0.1-0.1
		c0.2-0.2,0.4-0.3,0.6-0.6c0.3-0.3,0.6-0.8,0.6-1.1c0.1-0.4-0.1-0.7-0.2-1.2c0-0.2-0.1-0.2-0.2-0.3c-0.3-0.6-0.9-1.4-0.9-1.4
		c-0.1,0-0.2-0.1-0.2-0.1c-0.2-0.2-0.1-1.4,0-1.8c0.1-0.5,0.1-0.7,0.5-0.9c0.2-0.1,0.3-0.1,0.6,0.1c0.1,0,0.1,0.2,0.2,0.2
		c0.1,0,0.2,0,0.3,0s0.2,0.2,0.4,0.3c0.3,0.1,0.4,0,0.5,0.1c0,0.1,0.2,0.6,0.2,0.7c0,0-0.4,0.7-0.6,0.7c-0.7,0-0.4-0.4-0.9-0.4
		c-0.1,0-0.6,0.1,0.8,1.8l0,0c0.2,0.1,0.4,0.4,0.6,0.7c0.2,0.5,0.1,1,0.2,1.9C177.8,30.4,178.2,31,178.2,31.3z"/>
	<path class="st3" d="M167.7,41.9c0.3-0.2,0.7-0.4,0.7-0.3c0.1,0.9,0,1.7-0.2,2.2c-0.1,0.1,0,0.4-0.6-0.1
		C167.1,43.4,167.2,42.2,167.7,41.9z"/>
	<path class="st3" d="M173,59.2c-0.2,0.1-0.4,0.2-0.6,0.1c-0.1,0-0.3-0.4-0.4-0.5c0,0-0.2-0.5-0.4-0.7s-1.2-0.2-1.2-0.7
		c0-0.6,0.7-0.6,1.4-0.9c0.4-0.1,0.3-0.7,0.3-1.1c0.1-0.4-0.1-0.9-0.1-1.4c-0.5-0.4-1-0.6-1.6-0.7c-0.5-0.1-0.6,0-0.7,0.2l-0.1,0.1
		c0,0,0,0.1-0.1,0.1l0,0c-0.5,0.6-1.2,2.4-1.5,2.7c-0.2,0.3-0.4,0.4-0.8,0.1c-0.2-0.2-0.8-0.6-0.1-1.2c0.1-0.1,0.2-0.2,0.3-0.2
		c0,0,0.2-0.4,0.5-0.8c0.2-0.3,0.4-0.8,0.6-1.4c0.2-0.4,0.2-0.7,0.4-1c-0.1-0.2-0.1-0.5-0.2-0.6c-0.1-0.1-0.2-0.3-0.3-0.4
		c-0.1-0.1,0-0.1-0.1-0.2c-0.4-0.5,0-1.2,0.2-1.9c0.1-0.4-0.1-1.2,0.3-1.3c0,0,0.7,0.5,0.8,0.6c0.2,0.1,0.5,0.7,0.5,1.2
		s-0.3,1.1-0.2,1.6c0,0.2,0.7,0.7,0.9,0.8c0.5,0.3,1.3,1.3,1.8,1.4l0,0c0.6,0.3,0.9,2.7,1,2.7c0,0,0.1,1,0.1,1.1
		C173.8,57.4,173.4,58.8,173,59.2C172.8,59.3,173.4,58.8,173,59.2C172.8,59.3,173.4,58.8,173,59.2z"/>
	<path class="st3" d="M166.8,58.8c0.3-0.1,0.6-0.1,0.9,0.3c0.1,0.1,0.1,0.3,0.2,0.4c0.1,0.1,0.2,0.1,0.2,0.3c0,0.5-0.3,0.7-0.4,0.9
		c-0.1,0.3-0.3,0.7-0.3,0.9c-0.1,1,0.7,1.4,0.3,2.4c0,0.1-0.1,0.2-0.2,0.3c0,0.1,0,0.2-0.1,0.3c-0.2,0.4-0.4,0.8-0.5,1.2
		c-0.4,1-0.6,1.9-1.3,2c-0.3,0.1-0.6-0.2-1.3-0.3c-0.8-0.1-1.4,0.1-1.9-0.3c-0.5-0.3-0.7-1.4-0.9-2.2c-0.1-0.5-0.3-1.1-0.1-1.5
		c0.2-0.3,0.6-0.3,1-0.5c0.3-0.2,0.6-0.5,0.9-0.8c0.3-0.3,0.7-0.7,0.9-1.2c0.3-0.6,0.7-0.8,1.4-1.3
		C166.1,59.3,166.4,58.9,166.8,58.8C167.1,58.7,166.4,58.9,166.8,58.8z"/>
	<path class="st3" d="M170.6,64.1c-0.2,0-0.4,0-0.6,0C170.2,64,170.4,64,170.6,64.1z"/>
	<path class="st3" d="M172.7,63.7c-0.2,0.3-0.2,0.6-0.5,0.8c-0.2,0.1-0.7,0-0.9,0s-0.4-0.3-0.6-0.3l0,0c0,0,0,0-0.1,0l0,0
		c-0.3-0.1-0.3,0.1-0.5,0.1c-0.3,0.1-0.6,0.2-0.7,0.3c-0.1,0.2-0.1,0.6-0.1,0.6c0,0.1,0.3,0.4,0.4,0.5c0.2,0.1,0.5,0.1,0.7-0.1
		c0.1-0.1,0.3-0.2,0.3-0.2c0.2-0.1,0.3,0,0.4,0.1c0.1,0.1,0.2,0.3,0.1,0.4c-0.5,0.5-0.7,0.7-0.7,0.9c0,0.2,0,0.4,0,0.6
		s0.4,1.2,0.3,1.3c0,0-0.5-0.1-0.8-0.7c-0.1-0.1-0.2-0.6-0.3-0.7c-0.3-0.1-0.3,0.1-0.5,0.3c-0.3,0.3,0.5,1.2,0.3,1.8
		c-0.1,0.4-1-0.1-1.1-0.1c-0.1-0.1,0.1-0.9,0.1-0.9c0-0.1-0.1-0.1-0.1-0.2c-0.1-0.2-0.3-0.6-0.3-0.7c0.2-0.4,0.3-0.7,0.4-1.1
		c0.2-0.6,0.1-0.7,0.2-1.2c0.1-0.5,0.3-1.3,0.4-1.3c0,0,0.6-0.3,0.8-0.4l0,0c0.1-0.1,0.1-0.1,0.3-0.1c0.5,0,0.7,0.3,1.3,0.4
		c0.3,0,1-0.4,1.2-0.4C172.7,63.2,172.8,63.5,172.7,63.7z"/>
	<path class="st3" d="M178.1,65.2c0.3,0,0.6,0,0.9,0.2c0.1,0,0.1,0.1,0.1,0.1c0.3,0.3,0.1,1.8,0.7,1.8c0.4,0.1,0.5-0.5,0.7-0.8
		c0.3-0.2,0.8-0.6,1.4-0.6c0.4,0,0.6,0.3,1.1,0.6c0.6,0.4,1.3,0.8,2,1.2c0.3,0.2,0.7,0.4,0.9,0.7c0.3,0.3,0.9,1.1,1,1.4
		c0,0,0.5,0.3,0.8,0.2c0.6-0.2,1-1.2,1.4-0.9c0.3,0.3-0.2,1.4-0.4,1.6c-0.2,0.3-0.6,0.2-1.2,0.5c-0.3,0.2-0.2,0.3-0.2,0.5
		c0,0.1-0.1,0.2,0,0.4c0,0,0,0.1,0.1,0.1c0,0,0.1,0.1,0.1,0.2l0.1,0.1l0.1,0.1c0.1,0.1,1.4,1.3,1.1,1.7c-0.1,0.1-0.4,0-0.5-0.1
		c-0.2-0.1-0.8-0.3-1-0.4c-0.3-0.2-0.6-0.3-0.8-0.7c-0.1-0.1-0.2-0.4-0.3-0.5s-0.1-0.2-0.2-0.3c-0.3-0.4-0.1-1-0.5-1
		s-0.9,0.2-1.1,0.8c-0.2,0.5-0.3,0.7-0.8,0.7c-0.4,0-0.7-0.2-0.9-0.4c-0.2-0.2-0.7-0.5-1-0.3s-0.3-0.3-0.4-0.5
		c-0.1-0.2,0.4-0.2,0.4-0.5c0-0.2,0-0.2-0.3-0.4c-0.2-0.2-0.2-0.1-0.4-0.4c-0.1-0.1,0-0.2-0.1-0.3c-0.1-0.1-0.2-0.2-0.4-0.3
		c-0.2-0.2-0.4-0.3-0.6-0.5c-0.1-0.1-0.4-0.2-0.4-0.2c-0.6-0.3-1.2-0.2-1.5-0.7c-0.1-0.1-0.2-0.7-0.3-0.8c-0.1-0.1,0-0.3,0-0.3
		c0.1-0.2,0-0.3-0.1-0.5c-0.2-0.4-1.2-0.6-1.2-1.1c0-0.1,0.8-0.4,0.9-0.5C177.7,65.1,177.9,65.2,178.1,65.2
		C178.4,65.2,177.9,65.2,178.1,65.2z"/>
	<path class="st3" d="M159.6,70c0.8-0.3,1.3,0.4,1.9,0.5c0.6,0.1,1.5-0.1,1.9,0s0.9,0.3,1.2,0.6c0,0,0.3,0.4,1.1,0.5
		c0.2,0,0.3,0.1,0.5,0.2c0.4,0,0.6-0.3,1.1-0.3c0.3,0,1.2,0.4,1.5,0.5c0.7,0.1,0.4-0.4,1.1-0.3c0.5,0.1,0.4,0.3,0.8,0.4
		c0,0,0.7,0.1,1.6,0.1c0.9,0,0.8,0.1,1.9,0.2c0.1,0,0,0.1,0,0.2c0,0-0.7,0.4-1.5,0.7c-0.5,0.2-1,0.7-1.3,0.7s0.1-0.4,0-0.7
		c-0.1-0.3-0.6-0.3-0.7-0.3c-0.7,0.4-0.6,0.1-1.2,0.1c-0.3,0-0.6-0.2-0.8-0.2c-0.6,0-1.3,0.2-1.6,0.2c-0.1,0-0.5-0.3-0.9-0.4
		c-0.3-0.1-0.9,0.1-1.3,0c-0.8-0.2-0.8-0.3-1.1-0.4c-0.8-0.1-1.3-0.2-1.9-0.4c-0.2-0.1-0.3-0.2-0.5-0.2c-0.8-0.1-1.5,0.2-2.1-0.4
		c-0.2-0.2-0.5-0.4-0.5-0.6C158.6,70.4,159.2,70,159.6,70C159.5,70,159.5,70,159.6,70z"/>
	<path class="st3" d="M191.3,93.3c-0.2,0.3-0.8,0.9-1.2,1.1c-0.8,0.4-1.4,1-1.5,1.1c-0.5,0.6-1.3,1.2-1.7,1.8
		c-0.2,0.2-1.6,1.2-2.1,0.9c0,0-0.3-0.3-0.3-0.4c-0.1-0.6,0.4-1.2,0.8-1.5c0.2-0.2,0.5-0.4,0.7-0.6c0.3-0.2,0.9-0.3,1-0.5
		c0.2-0.2,1.3-2,1.3-2.1c0.1-0.1,0.1-0.1,0.2-0.2c0.4-0.5,0.9-0.8,1-1.1c0,0,0-1.3,0.3-1.4c0.5-0.2,1.4,1.6,1.6,1.7
		C191.7,92.4,191.5,93.1,191.3,93.3z"/>
	<path class="st3" d="M186.2,88.9c-0.1,0.2-0.2,0.5-0.3,0.7s-0.1,0.5-0.2,0.7c-0.1,0.1-0.3,0.3-0.4,0.4c-0.2,0.4-0.7,0.9-1.1,1.3
		c-0.6,0.6-0.7,1.3-1.3,2.1c-0.2,0.3-0.3,0.7-0.6,1.1c0,0-0.2,0.1-0.3,0.2c-0.1,0.3-1.2,0.5-1.7,0.8c0.2-0.1-0.7,0.7-0.8,1.3
		c0,0.1,0.1,0.4-0.2,0.7c-0.4,0.3-0.5,0.6-0.7,0.6c-0.2,0.1-0.7,0.2-0.9,0.2c-0.1,0-0.3-0.3-0.2-0.7c0.1-0.5-0.2-1.2,0.2-1.2
		c1.1,0.1,0.9-0.5,1-1c-0.2-0.1-0.5-0.1-0.6-0.1c-0.6-0.1-1,0.2-1.6-0.1c-0.2-0.1-0.4-0.3-0.5-0.5c-0.3-0.3-0.1-0.8-0.2-1.4
		c0-0.3-0.3-0.6-0.4-0.9c-0.1-0.2,0-0.4-0.1-0.6c-0.1-0.1-0.3-0.3-0.3-0.3c-0.2-0.1-0.6,0.4-1.1,0.4c-0.7-0.1-1.1-1.1-1.8-1.3
		c-0.2-0.1-0.7-0.1-0.8-0.1c-1.4-0.1-2.7,0.6-4,1c-0.2,0-0.4,0-0.6,0.1c-0.7,0.2-1.3,0.4-2.2,0.7c-0.4,0.1-0.8,0.2-1.2,0.3
		c-0.2,0.1-0.5,0-0.6,0.1c-0.3,0.1-1.1,0.6-1.6,0.5c-0.2,0-0.8-0.5-0.8-0.7c-0.1-0.3,0.2-0.5,0.4-0.9c0.1-0.2,0.4-0.4,0.5-0.7
		c0.1-0.2,0.1-0.5,0.1-0.7c0.1-0.8-0.3-1.6-0.3-2.5c0-0.6,0.2-1.3,0.3-2.1c0.1-0.8-0.1-1.6,0.1-2.2c0.1-0.3,0.4-0.6,0.6-0.9
		c0.3-0.3,0.9-0.5,1.4-0.8c0.7-0.3,1.3-0.8,2.3-1.1c0.5-0.1,0.8-0.2,1.2-0.4c0.6-0.3,1.1-1,1.4-1.6c0,0,0-0.2,0.1-0.3
		c0.1-0.1,0.3-0.1,0.5-0.3c0.3-0.3,0.6-0.7,0.9-1.1c0.3-0.4,0.8-0.7,1.1-1.2c0.1-0.2,0.6-0.6,0.9-0.6c0.3,0,0.6,0.1,0.8,0.3
		c0.2,0.1,0.4,0.4,0.6,0.4c0.5,0,0.6-0.8,0.9-1.3c0.1-0.1,0.1-0.1,0.2-0.2c0.2-0.3,0.5-0.7,0.8-0.9c0.2-0.1,0.5-0.2,0.7-0.3
		c0.3-0.1,0.5-0.2,0.7-0.2c0.6-0.1,1.4,0,1.6,0.7c0.1,0.4-0.4,1-0.4,1.7c0,0.6,0.5,1.2,1,1.6c0.2,0.2,0.5,0.2,0.6,0.4
		c0.2,0.2,0.5,0.6,0.9,0.6c0.6-0.1,0.9-0.9,1.1-1.5c0.2-0.8,0.2-1.1,0.5-2.2c0.1-0.6,0-1.7,0.4-1.8c0,0,0.3,0.4,0.3,0.5
		c0.1,0.4,0.2,0.4,0.3,0.9c0.2,1.2,0.4,1.1,0.6,1.6c0.1,0.2,0.3,0.4,0.4,0.7c0.3,1-0.1,1.7,0,2.6c0.1,0.5,0.4,0.9,0.6,1.3
		c0.1,0.2,0.2,0.5,0.3,0.7c0.4,0.8,0.7,1.6,1,2.5c0.3,0.7,0.7,1.3,0.7,1.8C186.6,86.7,186.3,88.3,186.2,88.9
		C186.1,89.1,186.3,88.3,186.2,88.9C186.1,89.1,186.3,88.3,186.2,88.9C186.1,89.1,186.3,88.3,186.2,88.9
		C186.1,89.1,186.3,88.3,186.2,88.9C186.1,89.1,186.3,88.3,186.2,88.9z"/>
</g>
<path class="st0" d="M66.8,73.7c0,0.1-0.2,0.7-0.4,0.9l-0.1,0.2h-0.2c-0.1,0.1,0,0.2-0.1,0.3c-0.3,0.4-0.7,0.9-1,1.4
	c-0.2,0.3-0.4,0.7-0.6,1.1s-0.6,0.8-0.6,1.1c-0.2,0.7,0,1.6,0,2.3c0,0.6-0.1,1.3-0.2,1.9c0,0.3-0.2,0.5-0.3,0.8
	c-0.1,0.5,0,0.8-0.2,1.2c-0.1,0.3-0.4,0.7-0.5,1.1c-0.2,0.4-0.4,0.8-0.5,1.1h-0.2v0.2c-0.1,0.1-0.2,0-0.3,0.1
	c-0.2,0.2-0.2,0.3-0.4,0.4c-0.3,0.1-0.7-0.1-0.9-0.1c-0.5,0.1-1.3,0.6-1.8,1c-0.3,0.2-0.6,0.3-0.8,0.6c-0.3,0.3-0.6,0.5-0.6,0.8
	c-0.1,0.5,0.1,1.5,0,2.1c-0.1,0.5-0.4,1.2-0.7,1.9c-0.2,0.5-0.4,0.9-0.6,1.3c-0.4,0.7-0.8,1.3-1.3,2c-0.4,0.6-0.8,1.1-1.4,1.1
	c-0.4,0-1.4-0.7-1.7-0.4c-0.4,0.4,0.5,0.9,0.7,1.2c0.2,0.3,0.4,1.3,0.2,1.8l-0.2,0.1c-0.3,0.6-1,0.8-1.8,1c-0.2,0-0.6,0-0.7,0.1
	c-0.1,0-0.4,0.4-0.5,0.5c-0.2,0.5,0.1,0.9-0.2,1.2c-0.1,0.1-0.2,0.2-0.4,0.2s-0.2-0.1-0.4-0.1c-0.3,0-0.6,0.1-0.6,0.3
	c-0.1,0.2,0,0.2,0.2,0.4c0.4,0.5,0.6,0.8,0.5,1.7c0,0.2,0,0.5-0.1,0.7c-0.1,0.4-0.6,0.7-0.5,1.2c0,0.7,1.1,1.3,1.2,2.1
	c0,0.3-0.2,0.7-0.4,1.1c-0.1,0.3-0.3,0.7-0.4,1c0,0.2,0.1,0.7,0.2,1.1c0.4,0.4,1,1.3,1.3,1.4c0.4,0.2,1.4,0.7,2.5,1.4
	c0,0,0,0.2-0.1,0.2c-0.3,0-0.9,0-1.1,0.1c-0.5,0.3-1,0.1-1.5-0.1c-0.2-0.1-0.5-0.1-0.6-0.2c-1-0.8-0.5-1.2-1.5-1.7
	c-0.6,0-1.3-0.3-1.6-0.6c-0.5-0.5-1.1-1.3-1.5-1.9c-0.2-0.3-0.5-0.7-0.6-1.2c0-0.1,0-0.3-0.1-0.5c-0.4-1-1-1.1-0.7-2.3
	c0.1-0.2,0.2-0.3,0.2-0.6c0-0.2,0-0.5-0.1-0.8c0-0.2-0.2-0.3-0.3-0.5c-0.1-0.4-0.2-0.8-0.4-1.1c-0.4-0.8-1.2-1.1-1.4-1.8
	c-0.1-0.3,0.1-0.8,0-1.2c-0.1-0.7-0.4-1.3-0.5-1.5c0-0.5,0.1-1.1,0.2-1.6c0-0.6,0-1.3,0-1.9c-0.1-1.5-0.5-2.9-0.6-4.3
	c-0.1-1,0.1-2,0-3c0-0.5-0.2-0.9-0.2-1.3c0-0.7,0.2-1,0.3-1.4c0.1-1.2-0.3-2.3-0.7-3.1c-0.2-0.4-0.6-0.8-1-1.2
	c-0.1-0.1-0.2-0.2-0.3-0.3c-0.1-0.1-0.2-0.1-0.4-0.2c-0.2-0.2-0.3-0.4-0.5-0.6c-0.2-0.1-0.4-0.2-0.6-0.3c-0.2-0.1-0.3-0.3-0.5-0.4
	c-0.3-0.2-0.8-0.3-1.1-0.6c-0.4-0.4-0.9-1.4-1.2-2.1c-0.1-0.1,0-0.1-0.1-0.2s-0.1-0.3-0.2-0.5c-0.1-0.1-0.2-0.1-0.3-0.2
	c-0.1-0.2-0.2-0.5-0.3-0.7c-0.3-0.4-0.5-0.7-0.7-1.1c-0.4-0.7-0.6-1.7-1.2-2.6c-0.8-1.3-1.8-1.7-1.2-3.1c0.1-0.3,0.3-0.4,0.4-0.8
	c0-0.3,0-0.6-0.1-0.9c0-0.1-0.2-0.1-0.2-0.3c-0.1-0.5,0.1-0.7,0.3-1.2c0.1-0.2,0.2-0.5,0.3-0.7c0.1-0.2,0.3-0.3,0.5-0.5
	c0.4-0.5,0.7-1.1,1.1-1.7c0.1-0.2,0.2-0.5,0.3-0.7c0.1-0.2,0.3-0.4,0.4-0.6c0.2-0.5,0.3-1.3,0.1-1.9c-0.1-0.3-0.3-0.6-0.4-1
	c-0.2-0.6-0.3-1.1,0.4-1.3c0.2-0.1,0.4,0,0.6-0.1c0.3-0.2,0.6-0.6,0.9-1c0.2-0.2,0.3-0.3,0.5-0.5s0.3-0.4,0.5-0.6
	c0.4-0.3,0.9-0.5,1.3-0.7c0.1,0,0.1-0.1,0.2-0.1c0.4-0.1,0.5-0.2,0.7,0.1c0,0.1,0.1,0.2,0.1,0.3c0,0-0.9,1.9,0.2,1.4
	c0.3-0.1,0.1-0.2,0.2-0.5c0.1-0.5,0.3-1.1,0.7-1.2c0,0,0.4-0.1,0.5-0.1c0.6,0,0.9,0.7,1.4,1c0.1,0,0.2,0,0.3,0l0.1,0.2
	c0.1,0,0.3,0,0.5,0.1c0.3,0.1,1,0.4,1.4,0.4c0.3,0,0.7-0.1,1.1-0.1c0.2,0,0.3,0.1,0.5,0.2c0.4,0.1,0.5,0.1,0.8,0.4
	c0.1,0.1,0.2,0.1,0.3,0.2c0.1,0.1,0.2,0.1,0.4,0.2c0.2,0.1,0.3,0.3,0.5,0.5l0.1,0.2c0.2,0.1,0.4,0.3,0.6,0.5c0.5,0.5,0.9,1,1.5,1.4
	c0.2,0.1,0.4,0.3,0.5,0.4c0.8,0.3,2-0.1,2.6,0.3c0.2,0.1,0.5,0.3,0.7,0.5c0.1,0.1,0.2,0.3,0.4,0.5c0.1,0.2,0.3,0.3,0.4,0.4
	c0.1,0.2,0,0.4,0.1,0.7c0,0.2,0.2,0.3,0.3,0.5c0.2,0.5,0.4,0.8,0.4,1.1s-0.1,0.4-0.2,0.8c-0.1,0.3-0.3,0.6-0.2,0.8
	c0.2,0.2,0.6,0.1,0.7,0.1c0.3,0,0.6,0,0.8,0.4c0.1,0.2-0.1,0.6,0.4,0.8c0.5,0.2,1.1-0.5,1.8-0.4c0.3,0,0.5,0.2,0.7,0.4
	c0.4,0.3,0.4,1.2,0.9,1.3c0.2,0.1,0.7-0.3,1-0.3c1-0.1,2.4,0.2,3.1,0.7c0.5,0.3,1,1.2,1.6,1.4c0.6,0.3,0.9,0.2,1.4,0.6
	C66.6,71.9,67,72.6,66.8,73.7z"/>
</svg>
