<?xml version="1.0" encoding="UTF-8" standalone="no"?>
<svg
   xmlns:dc="http://purl.org/dc/elements/1.1/"
   xmlns:cc="http://creativecommons.org/ns#"
   xmlns:rdf="http://www.w3.org/1999/02/22-rdf-syntax-ns#"
   xmlns="http://www.w3.org/2000/svg"
   viewBox="0 0 30.666668 30.666668"
   height="30.666668"
   width="30.666668"
   xml:space="preserve"
   id="svg2"
   version="1.1"><metadata
     id="metadata8"><rdf:RDF><cc:Work
         rdf:about=""><dc:format>image/svg+xml</dc:format><dc:type
           rdf:resource="http://purl.org/dc/dcmitype/StillImage" /></cc:Work></rdf:RDF></metadata><defs
     id="defs6"><clipPath
       id="clipPath18"
       clipPathUnits="userSpaceOnUse"><path
         id="path16"
         d="M 0,23 H 23 V 0 H 0 Z" /></clipPath></defs><g
     transform="matrix(1.3333333,0,0,-1.3333333,0,30.666667)"
     id="g10"><g
       id="g12"><g
         clip-path="url(#clipPath18)"
         id="g14"><g
           transform="translate(8.7802,20.0241)"
           id="g20"><path
             id="path22"
             style="fill:#374551;fill-opacity:1;fill-rule:nonzero;stroke:none"
             d="m 0,0 c 0,0.294 0.238,0.532 0.532,0.532 3.786,0 6.867,-3.081 6.867,-6.868 0,-0.293 -0.238,-0.532 -0.531,-0.532 -0.294,0 -0.532,0.239 -0.532,0.532 0,3.201 -2.604,5.804 -5.804,5.804 C 0.238,-0.532 0,-0.294 0,0 m -5.301,-12.168 c -1.558,1.557 -2.416,3.629 -2.416,5.832 0,2.203 0.858,4.275 2.416,5.833 1.558,1.558 3.63,2.415 5.833,2.415 2.203,0 4.274,-0.857 5.832,-2.415 1.558,-1.558 2.416,-3.63 2.416,-5.833 0,-2.203 -0.858,-4.275 -2.416,-5.832 -1.558,-1.558 -3.629,-2.416 -5.832,-2.416 -2.203,0 -4.275,0.858 -5.833,2.416 M -6.053,0.249 C -7.812,-1.51 -8.78,-3.849 -8.78,-6.336 c 0,-2.487 0.969,-4.825 2.728,-6.584 1.758,-1.759 4.096,-2.728 6.584,-2.728 1.895,0 3.702,0.564 5.233,1.609 l 5.474,-5.474 c 0.33,-0.329 0.768,-0.511 1.235,-0.511 0.466,0 0.905,0.182 1.234,0.511 0.681,0.681 0.681,1.789 0,2.47 l -5.473,5.473 c 1.045,1.532 1.609,3.339 1.609,5.234 0,2.487 -0.969,4.826 -2.728,6.585 -1.759,1.759 -4.097,2.727 -6.584,2.727 -2.488,0 -4.826,-0.968 -6.585,-2.727" /></g></g></g></g></svg>
