<svg xmlns="http://www.w3.org/2000/svg" width="64" height="64" viewBox="0 0 64 64">
  <defs>
    <style>
      .cls-1 {
        fill: #fff;
        fill-rule: evenodd;
      }
    </style>
  </defs>
  <path id="tw" class="cls-1" d="M2428,3247a32.005,32.005,0,1,0,32,32,32.045,32.045,0,0,0-32-32h0Zm14.28,24.68c0.01,0.31.02,0.64,0.02,0.96,0,9.73-7.41,20.95-20.96,20.95a20.794,20.794,0,0,1-11.3-3.31,14.721,14.721,0,0,0,10.91-3.05,7.382,7.382,0,0,1-6.88-5.11,7.894,7.894,0,0,0,1.39.13,7.38,7.38,0,0,0,1.94-.26,7.371,7.371,0,0,1-5.92-7.22,0.277,0.277,0,0,1,.01-0.09,7.242,7.242,0,0,0,3.34.91,7.382,7.382,0,0,1-2.29-9.83,20.924,20.924,0,0,0,15.18,7.7,7.722,7.722,0,0,1-.18-1.68,7.371,7.371,0,0,1,12.74-5.04,14.572,14.572,0,0,0,4.68-1.79,7.365,7.365,0,0,1-3.24,4.08,14.644,14.644,0,0,0,4.23-1.16,14.94,14.94,0,0,1-3.67,3.81h0Zm0,0" transform="translate(-2396 -3247)"/>
</svg>
