<svg xmlns="http://www.w3.org/2000/svg" width="83.015" height="3.5" viewBox="0 0 166.03 7">
  <defs>
    <style>
      .cls-1 {
      fill: #f7d368;
      fill-rule: evenodd;
      }
    </style>
  </defs>
  <path id="underline" class="cls-1"
        d="M1710.24,472.924c-13.51.317-27.25-.76-40.76-1.155q-20.385-.6-40.8-0.812c-27.23-.315-54.39.348-81.61,0.51-1.47.009-1.41-1.373,0-1.457,5.61-.329,11.24-0.582,16.88-0.8q-6.015.091-12.05,0.186c-1.94.032-1.91-1.881,0-1.954,24.14-.92,48.32-1.321,72.49-1.421q17.835-.072,35.66.088c11.48,0.1,23.63-.319,34.95.955,2.19,0.246,1.42,2.235-.49,2.354-0.14.009-.28,0.011-0.43,0.02,5.6,0.227,11.17.577,16.64,1.2C1712.77,470.876,1712.17,472.879,1710.24,472.924Z"
        transform="translate(-1546 -466)"/>
</svg>
