<svg xmlns="http://www.w3.org/2000/svg" width="117.985" height="5.016" viewBox="0 0 235.97 10.031">
  <defs>
    <style>
      .cls-1 {
        fill: #f7d368;
        fill-rule: evenodd;
      }
    </style>
  </defs>
  <path id="underline" class="cls-1" d="M1793.5,159.922c-19.21.455-38.74-1.088-57.94-1.655q-28.98-.853-58-1.164c-38.71-.451-77.32.5-116.01,0.732-2.08.012-2.01-1.969,0-2.088,7.98-.472,15.98-0.834,24-1.141q-8.565.131-17.13,0.267c-2.76.046-2.72-2.7,0-2.8,34.31-1.318,68.68-1.893,103.05-2.035q25.335-.1,50.69.125c16.3,0.149,33.58-.458,49.68,1.368,3.11,0.353,2.02,3.2-.7,3.374-0.2.013-.4,0.016-0.61,0.028,7.96,0.326,15.88.827,23.64,1.72C1797.09,156.987,1796.25,159.857,1793.5,159.922Z" transform="translate(-1560.03 -150)"/>
</svg>
