<?xml version="1.0" encoding="utf-8"?>
<!-- Generator: Adobe Illustrator 19.2.1, SVG Export Plug-In . SVG Version: 6.00 Build 0)  -->
<svg version="1.1" id="Layer_1" xmlns="http://www.w3.org/2000/svg"  x="0px" y="0px"
	 viewBox="0 0 28 42" style="enable-background:new 0 0 28 42;" xml:space="preserve">
<style type="text/css">
	.st0{fill:#FFFFFF;}
</style>
<g>
	<path class="st0" d="M14,0C6.3,0,0,6.2,0,13.9C0,17,2,22,6.1,29.3c2.9,5.1,5.7,9.4,5.8,9.6L14,42l2.1-3.1c0.1-0.2,3-4.5,5.8-9.6
		C26,22,28,17,28,13.9C28,6.2,21.7,0,14,0L14,0z M14,21c-4,0-7.3-3.2-7.3-7.2S9.9,6.6,14,6.6c4,0,7.3,3.2,7.3,7.2S18,21,14,21L14,21
		z"/>
</g>
</svg>
